<svg width="258" height="60" viewBox="0 0 258 60" fill="none" xmlns="http://www.w3.org/2000/svg">
<path d="M92.4902 21.1953V31.5117C92.1068 32.0189 91.5068 32.5755 90.6904 33.1816C89.8864 33.7754 88.8164 34.2887 87.4805 34.7217C86.1445 35.1546 84.4808 35.3711 82.4893 35.3711C80.7946 35.3711 79.2422 35.0866 77.832 34.5176C76.4219 33.9362 75.2035 33.0889 74.1768 31.9756C73.1624 30.8623 72.377 29.5078 71.8203 27.9121C71.2637 26.304 70.9854 24.4733 70.9854 22.4199V20.5459C70.9854 18.5049 71.2389 16.6865 71.7461 15.0908C72.2656 13.4827 73.0078 12.1221 73.9727 11.0088C74.9375 9.89551 76.1003 9.05436 77.4609 8.48535C78.834 7.90397 80.3864 7.61328 82.1182 7.61328C84.3324 7.61328 86.1631 7.98438 87.6104 8.72656C89.07 9.45638 90.1956 10.4707 90.9873 11.7695C91.779 13.0684 92.2799 14.5527 92.4902 16.2227H87.9258C87.7773 15.2826 87.4867 14.4414 87.0537 13.6992C86.6331 12.957 86.027 12.3757 85.2354 11.9551C84.4561 11.5221 83.4417 11.3057 82.1924 11.3057C81.1162 11.3057 80.1699 11.5098 79.3535 11.918C78.5371 12.3262 77.8568 12.9261 77.3125 13.7178C76.7806 14.5094 76.3786 15.4743 76.1064 16.6123C75.8343 17.7503 75.6982 19.0492 75.6982 20.5088V22.4199C75.6982 23.9043 75.8529 25.2217 76.1621 26.3721C76.4837 27.5225 76.9414 28.4935 77.5352 29.2852C78.1413 30.0768 78.8773 30.6768 79.7432 31.085C80.609 31.4808 81.5863 31.6787 82.6748 31.6787C83.7386 31.6787 84.6107 31.5921 85.291 31.4189C85.9714 31.2334 86.5094 31.0169 86.9053 30.7695C87.3135 30.5098 87.6289 30.2624 87.8516 30.0273V24.665H82.2295V21.1953H92.4902ZM106.054 35.3711C104.569 35.3711 103.227 35.1299 102.027 34.6475C100.84 34.1527 99.8255 33.4661 98.9844 32.5879C98.1556 31.7096 97.5186 30.6768 97.0732 29.4893C96.6279 28.3018 96.4053 27.0215 96.4053 25.6484V24.9062C96.4053 23.3353 96.6341 21.9128 97.0918 20.6387C97.5495 19.3646 98.1865 18.276 99.0029 17.373C99.8193 16.4577 100.784 15.7588 101.897 15.2764C103.011 14.7939 104.217 14.5527 105.516 14.5527C106.951 14.5527 108.206 14.7939 109.282 15.2764C110.358 15.7588 111.249 16.4391 111.954 17.3174C112.672 18.1833 113.203 19.2161 113.55 20.416C113.909 21.6159 114.088 22.9395 114.088 24.3867V26.2979H98.5762V23.0879H109.672V22.7354C109.647 21.9313 109.486 21.1768 109.189 20.4717C108.905 19.7666 108.466 19.1976 107.872 18.7646C107.278 18.3317 106.487 18.1152 105.497 18.1152C104.755 18.1152 104.093 18.276 103.512 18.5977C102.943 18.9069 102.466 19.3584 102.083 19.9521C101.7 20.5459 101.403 21.2633 101.192 22.1045C100.994 22.9333 100.896 23.8672 100.896 24.9062V25.6484C100.896 26.5267 101.013 27.3431 101.248 28.0977C101.495 28.8398 101.854 29.4893 102.324 30.0459C102.794 30.6025 103.363 31.0417 104.031 31.3633C104.699 31.6725 105.46 31.8271 106.313 31.8271C107.39 31.8271 108.348 31.6107 109.189 31.1777C110.031 30.7448 110.76 30.1325 111.379 29.3408L113.735 31.623C113.302 32.2539 112.74 32.86 112.047 33.4414C111.354 34.0104 110.507 34.4743 109.505 34.833C108.515 35.1917 107.365 35.3711 106.054 35.3711ZM122.011 19.21V35H117.539V14.9238H121.751L122.011 19.21ZM121.213 24.2197L119.766 24.2012C119.778 22.7786 119.976 21.4736 120.359 20.2861C120.755 19.0986 121.299 18.0781 121.992 17.2246C122.697 16.3711 123.538 15.7155 124.516 15.2578C125.493 14.7878 126.581 14.5527 127.781 14.5527C128.746 14.5527 129.618 14.6888 130.397 14.9609C131.189 15.2207 131.863 15.6475 132.42 16.2412C132.989 16.835 133.422 17.6081 133.719 18.5605C134.016 19.5007 134.164 20.6572 134.164 22.0303V35H129.674V22.0117C129.674 21.0469 129.532 20.2861 129.247 19.7295C128.975 19.1605 128.573 18.7585 128.041 18.5234C127.521 18.276 126.872 18.1523 126.093 18.1523C125.326 18.1523 124.639 18.3132 124.033 18.6348C123.427 18.9564 122.914 19.3955 122.493 19.9521C122.085 20.5088 121.77 21.152 121.547 21.8818C121.324 22.6117 121.213 23.391 121.213 24.2197ZM149.694 11.584L141.623 35H136.743L146.911 7.98438H150.028L149.694 11.584ZM156.448 35L148.358 11.584L148.006 7.98438H151.142L161.347 35H156.448ZM156.059 24.9805V28.6729H141.363V24.9805H156.059ZM169.344 7.98438V35H164.687V7.98438H169.344ZM185.95 29.5635C185.95 29.1182 185.839 28.7161 185.616 28.3574C185.394 27.9863 184.967 27.6523 184.336 27.3555C183.717 27.0586 182.802 26.7865 181.59 26.5391C180.526 26.304 179.549 26.0257 178.658 25.7041C177.78 25.3701 177.025 24.9681 176.395 24.498C175.764 24.028 175.275 23.4714 174.929 22.8281C174.582 22.1849 174.409 21.4427 174.409 20.6016C174.409 19.7852 174.589 19.012 174.947 18.2822C175.306 17.5524 175.819 16.9092 176.487 16.3525C177.155 15.7959 177.965 15.3568 178.918 15.0352C179.883 14.7135 180.959 14.5527 182.146 14.5527C183.829 14.5527 185.27 14.8372 186.47 15.4062C187.682 15.9629 188.61 16.7236 189.253 17.6885C189.896 18.641 190.218 19.7171 190.218 20.917H185.746C185.746 20.3851 185.61 19.8903 185.338 19.4326C185.078 18.9626 184.682 18.5853 184.15 18.3008C183.618 18.0039 182.951 17.8555 182.146 17.8555C181.38 17.8555 180.743 17.9792 180.235 18.2266C179.741 18.4616 179.369 18.7708 179.122 19.1543C178.887 19.5378 178.77 19.9583 178.77 20.416C178.77 20.75 178.831 21.0531 178.955 21.3252C179.091 21.585 179.314 21.8262 179.623 22.0488C179.932 22.2591 180.353 22.457 180.885 22.6426C181.429 22.8281 182.109 23.0075 182.926 23.1807C184.46 23.5023 185.777 23.9167 186.878 24.4238C187.991 24.9186 188.845 25.5618 189.438 26.3535C190.032 27.1328 190.329 28.1224 190.329 29.3223C190.329 30.2129 190.137 31.0293 189.754 31.7715C189.383 32.5013 188.839 33.1383 188.121 33.6826C187.404 34.2145 186.544 34.6289 185.542 34.9258C184.552 35.2227 183.439 35.3711 182.202 35.3711C180.384 35.3711 178.844 35.0495 177.582 34.4062C176.32 33.7507 175.362 32.9157 174.706 31.9014C174.063 30.8747 173.741 29.8109 173.741 28.71H178.064C178.114 29.5387 178.343 30.2005 178.751 30.6953C179.172 31.1777 179.691 31.5303 180.31 31.7529C180.94 31.9632 181.59 32.0684 182.258 32.0684C183.062 32.0684 183.736 31.9632 184.28 31.7529C184.825 31.5303 185.239 31.2334 185.523 30.8623C185.808 30.4788 185.95 30.0459 185.95 29.5635ZM199.031 14.9238V35H194.541V14.9238H199.031ZM194.244 9.6543C194.244 8.97396 194.467 8.41113 194.912 7.96582C195.37 7.50814 196.001 7.2793 196.805 7.2793C197.596 7.2793 198.221 7.50814 198.679 7.96582C199.136 8.41113 199.365 8.97396 199.365 9.6543C199.365 10.3223 199.136 10.8789 198.679 11.3242C198.221 11.7695 197.596 11.9922 196.805 11.9922C196.001 11.9922 195.37 11.7695 194.912 11.3242C194.467 10.8789 194.244 10.3223 194.244 9.6543ZM216.788 14.9238H220.852V34.4434C220.852 36.2493 220.468 37.7832 219.701 39.0449C218.934 40.3066 217.864 41.2653 216.491 41.9209C215.118 42.5889 213.529 42.9229 211.723 42.9229C210.956 42.9229 210.102 42.8115 209.162 42.5889C208.234 42.3662 207.331 42.0075 206.453 41.5127C205.587 41.0303 204.864 40.3932 204.282 39.6016L206.379 36.9668C207.096 37.8203 207.888 38.445 208.754 38.8408C209.62 39.2367 210.529 39.4346 211.481 39.4346C212.508 39.4346 213.38 39.2428 214.098 38.8594C214.827 38.4883 215.39 37.9378 215.786 37.208C216.182 36.4782 216.38 35.5876 216.38 34.5361V19.4697L216.788 14.9238ZM203.15 25.1846V24.7949C203.15 23.2734 203.336 21.888 203.707 20.6387C204.078 19.377 204.61 18.2946 205.303 17.3916C205.995 16.4762 206.837 15.7773 207.826 15.2949C208.816 14.8001 209.935 14.5527 211.185 14.5527C212.483 14.5527 213.59 14.7878 214.506 15.2578C215.434 15.7279 216.207 16.402 216.825 17.2803C217.444 18.1462 217.926 19.1852 218.272 20.3975C218.631 21.5973 218.897 22.9333 219.07 24.4053V25.6484C218.91 27.0833 218.637 28.3945 218.254 29.582C217.87 30.7695 217.363 31.7962 216.732 32.6621C216.102 33.528 215.322 34.196 214.395 34.666C213.479 35.1361 212.397 35.3711 211.147 35.3711C209.923 35.3711 208.816 35.1175 207.826 34.6104C206.849 34.1032 206.008 33.3919 205.303 32.4766C204.61 31.5612 204.078 30.485 203.707 29.248C203.336 27.9987 203.15 26.6442 203.15 25.1846ZM207.622 24.7949V25.1846C207.622 26.0999 207.709 26.9535 207.882 27.7451C208.067 28.5368 208.346 29.2357 208.717 29.8418C209.1 30.4355 209.583 30.9056 210.164 31.252C210.758 31.5859 211.457 31.7529 212.261 31.7529C213.312 31.7529 214.172 31.5303 214.84 31.085C215.52 30.6396 216.04 30.0397 216.398 29.2852C216.77 28.5182 217.029 27.6647 217.178 26.7246V23.3662C217.104 22.6364 216.949 21.9561 216.714 21.3252C216.491 20.6943 216.188 20.1439 215.805 19.6738C215.421 19.1914 214.939 18.8203 214.357 18.5605C213.776 18.2884 213.09 18.1523 212.298 18.1523C211.494 18.1523 210.795 18.3255 210.201 18.6719C209.607 19.0182 209.119 19.4945 208.735 20.1006C208.364 20.7067 208.086 21.4118 207.9 22.2158C207.715 23.0199 207.622 23.8796 207.622 24.7949ZM229.906 6.5V35H225.453V6.5H229.906ZM229.127 24.2197L227.68 24.2012C227.692 22.8158 227.884 21.5355 228.255 20.3604C228.638 19.1852 229.17 18.1647 229.851 17.2988C230.543 16.4206 231.372 15.7464 232.337 15.2764C233.302 14.7939 234.372 14.5527 235.547 14.5527C236.536 14.5527 237.427 14.6888 238.219 14.9609C239.023 15.2331 239.715 15.6722 240.297 16.2783C240.878 16.8721 241.317 17.6514 241.614 18.6162C241.924 19.5687 242.078 20.7314 242.078 22.1045V35H237.588V22.0674C237.588 21.1025 237.446 20.3356 237.161 19.7666C236.889 19.1976 236.487 18.7894 235.955 18.542C235.423 18.2822 234.774 18.1523 234.007 18.1523C233.203 18.1523 232.492 18.3132 231.873 18.6348C231.267 18.9564 230.76 19.3955 230.352 19.9521C229.943 20.5088 229.634 21.152 229.424 21.8818C229.226 22.6117 229.127 23.391 229.127 24.2197ZM255.809 14.9238V18.1895H244.49V14.9238H255.809ZM247.756 10.0068H252.228V29.4521C252.228 30.0706 252.314 30.5469 252.487 30.8809C252.673 31.2025 252.926 31.4189 253.248 31.5303C253.57 31.6416 253.947 31.6973 254.38 31.6973C254.689 31.6973 254.986 31.6787 255.271 31.6416C255.555 31.6045 255.784 31.5674 255.957 31.5303L255.976 34.9443C255.604 35.0557 255.172 35.1546 254.677 35.2412C254.194 35.3278 253.638 35.3711 253.007 35.3711C251.98 35.3711 251.071 35.1917 250.279 34.833C249.488 34.4619 248.869 33.862 248.424 33.0332C247.979 32.2044 247.756 31.1035 247.756 29.7305V10.0068Z" fill="black"/>
<path d="M78.5874 45.3359V56H76.5659L72.0322 48.6025V56H70.0181V45.3359H72.0322L76.5806 52.7407V45.3359H78.5874ZM84.0513 56.1465C83.4507 56.1465 82.9111 56.0488 82.4326 55.8535C81.9541 55.6582 81.5464 55.3872 81.2095 55.0405C80.8774 54.689 80.6211 54.2812 80.4404 53.8174C80.2646 53.3486 80.1768 52.8457 80.1768 52.3086V52.0156C80.1768 51.4053 80.2646 50.8511 80.4404 50.353C80.6162 49.8501 80.8652 49.418 81.1875 49.0566C81.5098 48.6953 81.8955 48.417 82.3447 48.2217C82.7939 48.0264 83.2896 47.9287 83.8315 47.9287C84.3931 47.9287 84.8887 48.0239 85.3184 48.2144C85.748 48.3999 86.1069 48.6636 86.395 49.0054C86.6831 49.3472 86.9004 49.7573 87.0469 50.2358C87.1934 50.7095 87.2666 51.2344 87.2666 51.8105V52.6235H81.0557V51.2905H85.3623V51.144C85.3525 50.8364 85.2939 50.5557 85.1865 50.3018C85.0791 50.043 84.9131 49.8379 84.6885 49.6865C84.4639 49.5303 84.1733 49.4521 83.8169 49.4521C83.5288 49.4521 83.2773 49.5156 83.0625 49.6426C82.8525 49.7646 82.6768 49.9404 82.5352 50.1699C82.3984 50.3945 82.2959 50.6631 82.2275 50.9756C82.1592 51.2881 82.125 51.6348 82.125 52.0156V52.3086C82.125 52.6406 82.1689 52.9482 82.2568 53.2314C82.3496 53.5146 82.4839 53.7612 82.6597 53.9712C82.8403 54.1763 83.0552 54.3374 83.3042 54.4546C83.5581 54.5669 83.8462 54.623 84.1685 54.623C84.5737 54.623 84.9399 54.5449 85.2671 54.3887C85.5991 54.2275 85.8872 53.9907 86.1313 53.6782L87.1055 54.689C86.9395 54.9331 86.7148 55.1675 86.4316 55.3921C86.1533 55.6167 85.8164 55.7998 85.4209 55.9414C85.0254 56.0781 84.5688 56.1465 84.0513 56.1465ZM90.7676 54.0957L92.5034 48.0752H93.7339L93.3677 50.1553L91.6172 56H90.5552L90.7676 54.0957ZM89.8081 48.0752L91.1118 54.1104L91.229 56H90.0059L87.9258 48.0752H89.8081ZM95.3452 54.0225L96.6196 48.0752H98.4946L96.4292 56H95.2061L95.3452 54.0225ZM93.9243 48.0752L95.6455 54.0371L95.8726 56H94.8105L93.0454 50.1553L92.6865 48.0752H93.9243ZM105.577 54.0957L107.313 48.0752H108.543L108.177 50.1553L106.427 56H105.365L105.577 54.0957ZM104.618 48.0752L105.921 54.1104L106.039 56H104.815L102.735 48.0752H104.618ZM110.155 54.0225L111.429 48.0752H113.304L111.239 56H110.016L110.155 54.0225ZM108.734 48.0752L110.455 54.0371L110.682 56H109.62L107.855 50.1553L107.496 48.0752H108.734ZM118.812 54.3154V50.6606C118.812 50.3921 118.766 50.1602 118.673 49.9648C118.58 49.7695 118.438 49.6182 118.248 49.5107C118.058 49.4033 117.816 49.3496 117.523 49.3496C117.264 49.3496 117.037 49.3936 116.842 49.4814C116.651 49.5693 116.505 49.6938 116.402 49.855C116.3 50.0112 116.249 50.1919 116.249 50.397H114.308C114.308 50.0698 114.386 49.7598 114.542 49.4668C114.698 49.1689 114.92 48.9053 115.208 48.6758C115.501 48.4414 115.851 48.2583 116.256 48.1265C116.666 47.9946 117.125 47.9287 117.633 47.9287C118.233 47.9287 118.768 48.0312 119.237 48.2363C119.71 48.4365 120.082 48.7393 120.35 49.1445C120.624 49.5498 120.76 50.0601 120.76 50.6753V54.1323C120.76 54.5278 120.785 54.8672 120.833 55.1504C120.887 55.4287 120.965 55.6704 121.068 55.8755V56H119.098C119.005 55.7998 118.934 55.5459 118.885 55.2383C118.836 54.9258 118.812 54.6182 118.812 54.3154ZM119.083 51.1733L119.098 52.3232H117.875C117.572 52.3232 117.306 52.355 117.076 52.4185C116.847 52.4771 116.659 52.5649 116.512 52.6821C116.366 52.7944 116.256 52.9312 116.183 53.0923C116.109 53.2485 116.073 53.4268 116.073 53.627C116.073 53.8223 116.117 53.998 116.205 54.1543C116.297 54.3105 116.429 54.4351 116.6 54.5278C116.776 54.6157 116.981 54.6597 117.215 54.6597C117.557 54.6597 117.855 54.5913 118.109 54.4546C118.363 54.313 118.561 54.1421 118.702 53.9419C118.844 53.7417 118.919 53.5513 118.929 53.3706L119.486 54.2056C119.417 54.4058 119.315 54.6182 119.178 54.8428C119.042 55.0674 118.866 55.2773 118.651 55.4727C118.436 55.668 118.177 55.8291 117.875 55.9561C117.572 56.083 117.22 56.1465 116.82 56.1465C116.307 56.1465 115.848 56.0439 115.443 55.8389C115.038 55.6338 114.718 55.353 114.483 54.9966C114.249 54.6401 114.132 54.2349 114.132 53.7808C114.132 53.3608 114.21 52.9897 114.366 52.6675C114.522 52.3452 114.754 52.0742 115.062 51.8545C115.37 51.6299 115.75 51.4614 116.205 51.3491C116.664 51.2319 117.188 51.1733 117.779 51.1733H119.083ZM124.708 55.1211L126.832 48.0752H128.905L125.726 57.2012C125.653 57.3965 125.558 57.6089 125.44 57.8384C125.328 58.0679 125.177 58.2852 124.986 58.4902C124.796 58.7002 124.557 58.8711 124.269 59.0029C123.985 59.1348 123.641 59.2007 123.236 59.2007C123.06 59.2007 122.904 59.1885 122.767 59.1641C122.63 59.1396 122.486 59.1079 122.335 59.0688V57.6187C122.384 57.6235 122.44 57.626 122.503 57.626C122.572 57.6309 122.63 57.6333 122.679 57.6333C122.962 57.6333 123.197 57.5991 123.382 57.5308C123.568 57.4673 123.717 57.3623 123.829 57.2158C123.946 57.0742 124.044 56.8887 124.122 56.6592L124.708 55.1211ZM123.661 48.0752L125.455 53.9126L125.77 55.9561L124.437 56.1978L121.573 48.0752H123.661ZM137.328 48.0752V49.4668H132.787V48.0752H137.328ZM134.002 46.127H135.943V53.7148C135.943 53.9492 135.975 54.1299 136.039 54.2568C136.102 54.3838 136.197 54.4692 136.324 54.5132C136.451 54.5571 136.603 54.5791 136.778 54.5791C136.905 54.5791 137.022 54.5718 137.13 54.5571C137.237 54.5425 137.328 54.5278 137.401 54.5132L137.408 55.9634C137.247 56.0171 137.064 56.061 136.859 56.0952C136.659 56.1294 136.432 56.1465 136.178 56.1465C135.743 56.1465 135.362 56.0732 135.035 55.9268C134.708 55.7754 134.454 55.5337 134.273 55.2017C134.093 54.8647 134.002 54.4204 134.002 53.8687V46.127ZM138.082 52.1182V51.9644C138.082 51.3833 138.165 50.8486 138.331 50.3604C138.497 49.8672 138.739 49.4399 139.056 49.0786C139.374 48.7173 139.762 48.4365 140.221 48.2363C140.68 48.0312 141.202 47.9287 141.788 47.9287C142.384 47.9287 142.911 48.0312 143.37 48.2363C143.834 48.4365 144.225 48.7173 144.542 49.0786C144.859 49.4399 145.101 49.8672 145.267 50.3604C145.433 50.8486 145.516 51.3833 145.516 51.9644V52.1182C145.516 52.6943 145.433 53.229 145.267 53.7222C145.101 54.2104 144.859 54.6377 144.542 55.0039C144.225 55.3652 143.836 55.646 143.377 55.8462C142.918 56.0464 142.394 56.1465 141.803 56.1465C141.217 56.1465 140.692 56.0464 140.228 55.8462C139.764 55.646 139.374 55.3652 139.056 55.0039C138.739 54.6377 138.497 54.2104 138.331 53.7222C138.165 53.229 138.082 52.6943 138.082 52.1182ZM140.016 51.9644V52.1182C140.016 52.4648 140.05 52.7896 140.118 53.0923C140.187 53.395 140.292 53.6611 140.433 53.8906C140.575 54.1201 140.758 54.3008 140.982 54.4326C141.212 54.5596 141.485 54.623 141.803 54.623C142.115 54.623 142.384 54.5596 142.608 54.4326C142.833 54.3008 143.016 54.1201 143.158 53.8906C143.304 53.6611 143.412 53.395 143.48 53.0923C143.548 52.7896 143.583 52.4648 143.583 52.1182V51.9644C143.583 51.6226 143.548 51.3027 143.48 51.0049C143.412 50.7021 143.304 50.436 143.158 50.2065C143.016 49.9722 142.831 49.7891 142.601 49.6572C142.376 49.5205 142.105 49.4521 141.788 49.4521C141.476 49.4521 141.207 49.5205 140.982 49.6572C140.758 49.7891 140.575 49.9722 140.433 50.2065C140.292 50.436 140.187 50.7021 140.118 51.0049C140.05 51.3027 140.016 51.6226 140.016 51.9644ZM155.016 53.832C155.016 53.666 154.972 53.5171 154.884 53.3853C154.796 53.2534 154.63 53.1338 154.386 53.0264C154.146 52.9141 153.795 52.8091 153.331 52.7114C152.921 52.6235 152.542 52.5137 152.196 52.3818C151.849 52.25 151.551 52.0913 151.302 51.9058C151.053 51.7153 150.858 51.4932 150.716 51.2393C150.58 50.9805 150.511 50.6826 150.511 50.3457C150.511 50.0186 150.582 49.7109 150.724 49.4229C150.865 49.1299 151.07 48.8735 151.339 48.6538C151.607 48.4292 151.935 48.2534 152.32 48.1265C152.706 47.9946 153.141 47.9287 153.624 47.9287C154.298 47.9287 154.876 48.0386 155.36 48.2583C155.848 48.478 156.222 48.7808 156.48 49.1665C156.739 49.5474 156.869 49.9771 156.869 50.4556H154.935C154.935 50.2456 154.886 50.0552 154.789 49.8843C154.696 49.7134 154.552 49.5767 154.356 49.4741C154.161 49.3667 153.915 49.313 153.617 49.313C153.348 49.313 153.121 49.3569 152.936 49.4448C152.755 49.5327 152.618 49.6475 152.525 49.7891C152.433 49.9307 152.386 50.0869 152.386 50.2578C152.386 50.3848 152.411 50.4995 152.459 50.6021C152.513 50.6997 152.599 50.79 152.716 50.873C152.833 50.9561 152.992 51.0317 153.192 51.1001C153.397 51.1685 153.648 51.2344 153.946 51.2979C154.537 51.415 155.052 51.5713 155.492 51.7666C155.936 51.957 156.283 52.2109 156.532 52.5283C156.781 52.8457 156.905 53.251 156.905 53.7441C156.905 54.0957 156.83 54.418 156.678 54.7109C156.527 54.999 156.307 55.2505 156.019 55.4653C155.731 55.6802 155.387 55.8486 154.986 55.9707C154.586 56.0879 154.134 56.1465 153.631 56.1465C152.904 56.1465 152.289 56.0171 151.786 55.7583C151.283 55.4946 150.902 55.1626 150.643 54.7622C150.384 54.3569 150.255 53.937 150.255 53.5024H152.108C152.123 53.8101 152.206 54.0566 152.357 54.2422C152.508 54.4277 152.699 54.562 152.928 54.645C153.163 54.7231 153.409 54.7622 153.668 54.7622C153.961 54.7622 154.208 54.7231 154.408 54.645C154.608 54.562 154.759 54.4521 154.862 54.3154C154.964 54.1738 155.016 54.0127 155.016 53.832ZM161.937 56.1465C161.336 56.1465 160.797 56.0488 160.318 55.8535C159.84 55.6582 159.432 55.3872 159.095 55.0405C158.763 54.689 158.507 54.2812 158.326 53.8174C158.15 53.3486 158.062 52.8457 158.062 52.3086V52.0156C158.062 51.4053 158.15 50.8511 158.326 50.353C158.502 49.8501 158.751 49.418 159.073 49.0566C159.396 48.6953 159.781 48.417 160.23 48.2217C160.68 48.0264 161.175 47.9287 161.717 47.9287C162.279 47.9287 162.774 48.0239 163.204 48.2144C163.634 48.3999 163.993 48.6636 164.281 49.0054C164.569 49.3472 164.786 49.7573 164.933 50.2358C165.079 50.7095 165.152 51.2344 165.152 51.8105V52.6235H158.941V51.2905H163.248V51.144C163.238 50.8364 163.18 50.5557 163.072 50.3018C162.965 50.043 162.799 49.8379 162.574 49.6865C162.35 49.5303 162.059 49.4521 161.703 49.4521C161.415 49.4521 161.163 49.5156 160.948 49.6426C160.738 49.7646 160.562 49.9404 160.421 50.1699C160.284 50.3945 160.182 50.6631 160.113 50.9756C160.045 51.2881 160.011 51.6348 160.011 52.0156V52.3086C160.011 52.6406 160.055 52.9482 160.143 53.2314C160.235 53.5146 160.37 53.7612 160.545 53.9712C160.726 54.1763 160.941 54.3374 161.19 54.4546C161.444 54.5669 161.732 54.623 162.054 54.623C162.459 54.623 162.826 54.5449 163.153 54.3887C163.485 54.2275 163.773 53.9907 164.017 53.6782L164.991 54.689C164.825 54.9331 164.601 55.1675 164.317 55.3921C164.039 55.6167 163.702 55.7998 163.307 55.9414C162.911 56.0781 162.455 56.1465 161.937 56.1465ZM170.008 56.1465C169.408 56.1465 168.868 56.0488 168.39 55.8535C167.911 55.6582 167.503 55.3872 167.167 55.0405C166.834 54.689 166.578 54.2812 166.397 53.8174C166.222 53.3486 166.134 52.8457 166.134 52.3086V52.0156C166.134 51.4053 166.222 50.8511 166.397 50.353C166.573 49.8501 166.822 49.418 167.145 49.0566C167.467 48.6953 167.853 48.417 168.302 48.2217C168.751 48.0264 169.247 47.9287 169.789 47.9287C170.35 47.9287 170.846 48.0239 171.275 48.2144C171.705 48.3999 172.064 48.6636 172.352 49.0054C172.64 49.3472 172.857 49.7573 173.004 50.2358C173.15 50.7095 173.224 51.2344 173.224 51.8105V52.6235H167.013V51.2905H171.319V51.144C171.31 50.8364 171.251 50.5557 171.144 50.3018C171.036 50.043 170.87 49.8379 170.646 49.6865C170.421 49.5303 170.13 49.4521 169.774 49.4521C169.486 49.4521 169.234 49.5156 169.02 49.6426C168.81 49.7646 168.634 49.9404 168.492 50.1699C168.355 50.3945 168.253 50.6631 168.185 50.9756C168.116 51.2881 168.082 51.6348 168.082 52.0156V52.3086C168.082 52.6406 168.126 52.9482 168.214 53.2314C168.307 53.5146 168.441 53.7612 168.617 53.9712C168.797 54.1763 169.012 54.3374 169.261 54.4546C169.515 54.5669 169.803 54.623 170.125 54.623C170.531 54.623 170.897 54.5449 171.224 54.3887C171.556 54.2275 171.844 53.9907 172.088 53.6782L173.062 54.689C172.896 54.9331 172.672 55.1675 172.389 55.3921C172.11 55.6167 171.773 55.7998 171.378 55.9414C170.982 56.0781 170.526 56.1465 170.008 56.1465ZM182.005 48.0752V49.4668H177.464V48.0752H182.005ZM178.68 46.127H180.621V53.7148C180.621 53.9492 180.653 54.1299 180.716 54.2568C180.78 54.3838 180.875 54.4692 181.002 54.5132C181.129 54.5571 181.28 54.5791 181.456 54.5791C181.583 54.5791 181.7 54.5718 181.808 54.5571C181.915 54.5425 182.005 54.5278 182.079 54.5132L182.086 55.9634C181.925 56.0171 181.742 56.061 181.537 56.0952C181.336 56.1294 181.109 56.1465 180.855 56.1465C180.421 56.1465 180.04 56.0732 179.713 55.9268C179.386 55.7754 179.132 55.5337 178.951 55.2017C178.771 54.8647 178.68 54.4204 178.68 53.8687V46.127ZM185.191 44.75V56H183.25V44.75H185.191ZM184.884 51.752H184.312C184.312 51.2002 184.386 50.6924 184.532 50.2285C184.679 49.7646 184.886 49.3618 185.155 49.02C185.423 48.6733 185.743 48.4048 186.114 48.2144C186.49 48.0239 186.905 47.9287 187.359 47.9287C187.75 47.9287 188.104 47.9849 188.421 48.0972C188.744 48.2046 189.02 48.3779 189.249 48.6172C189.479 48.8564 189.654 49.1689 189.776 49.5547C189.903 49.9355 189.967 50.3994 189.967 50.9463V56H188.019V50.9316C188.019 50.5654 187.965 50.2773 187.857 50.0674C187.75 49.8525 187.596 49.6987 187.396 49.606C187.201 49.5132 186.959 49.4668 186.671 49.4668C186.358 49.4668 186.09 49.5278 185.865 49.6499C185.641 49.7671 185.455 49.9307 185.309 50.1406C185.167 50.3506 185.06 50.5923 184.986 50.8657C184.918 51.1392 184.884 51.4346 184.884 51.752ZM195.233 56.1465C194.632 56.1465 194.093 56.0488 193.614 55.8535C193.136 55.6582 192.728 55.3872 192.391 55.0405C192.059 54.689 191.803 54.2812 191.622 53.8174C191.446 53.3486 191.358 52.8457 191.358 52.3086V52.0156C191.358 51.4053 191.446 50.8511 191.622 50.353C191.798 49.8501 192.047 49.418 192.369 49.0566C192.691 48.6953 193.077 48.417 193.526 48.2217C193.976 48.0264 194.471 47.9287 195.013 47.9287C195.575 47.9287 196.07 48.0239 196.5 48.2144C196.93 48.3999 197.289 48.6636 197.577 49.0054C197.865 49.3472 198.082 49.7573 198.229 50.2358C198.375 50.7095 198.448 51.2344 198.448 51.8105V52.6235H192.237V51.2905H196.544V51.144C196.534 50.8364 196.476 50.5557 196.368 50.3018C196.261 50.043 196.095 49.8379 195.87 49.6865C195.646 49.5303 195.355 49.4521 194.999 49.4521C194.71 49.4521 194.459 49.5156 194.244 49.6426C194.034 49.7646 193.858 49.9404 193.717 50.1699C193.58 50.3945 193.478 50.6631 193.409 50.9756C193.341 51.2881 193.307 51.6348 193.307 52.0156V52.3086C193.307 52.6406 193.351 52.9482 193.438 53.2314C193.531 53.5146 193.666 53.7612 193.841 53.9712C194.022 54.1763 194.237 54.3374 194.486 54.4546C194.74 54.5669 195.028 54.623 195.35 54.623C195.755 54.623 196.122 54.5449 196.449 54.3887C196.781 54.2275 197.069 53.9907 197.313 53.6782L198.287 54.689C198.121 54.9331 197.896 55.1675 197.613 55.3921C197.335 55.6167 196.998 55.7998 196.603 55.9414C196.207 56.0781 195.75 56.1465 195.233 56.1465ZM205.772 45.3359V56H203.758V45.3359H205.772ZM209.698 49.7671V56H207.765V48.0752H209.581L209.698 49.7671ZM209.391 51.752H208.819C208.824 51.1758 208.902 50.6533 209.054 50.1846C209.205 49.7158 209.417 49.313 209.691 48.9761C209.969 48.6392 210.299 48.3804 210.68 48.1997C211.061 48.019 211.485 47.9287 211.954 47.9287C212.335 47.9287 212.679 47.9824 212.987 48.0898C213.294 48.1973 213.558 48.3682 213.778 48.6025C214.002 48.8369 214.173 49.1445 214.291 49.5254C214.413 49.9014 214.474 50.3652 214.474 50.917V56H212.525V50.9023C212.525 50.541 212.472 50.2554 212.364 50.0454C212.262 49.8354 212.11 49.6865 211.91 49.5986C211.715 49.5107 211.473 49.4668 211.185 49.4668C210.887 49.4668 210.626 49.5278 210.401 49.6499C210.182 49.7671 209.996 49.9307 209.845 50.1406C209.698 50.3506 209.586 50.5923 209.508 50.8657C209.43 51.1392 209.391 51.4346 209.391 51.752ZM220.934 54.3154V44.75H222.882V56H221.124L220.934 54.3154ZM215.843 52.1328V51.979C215.843 51.3735 215.912 50.8242 216.048 50.3311C216.19 49.833 216.395 49.4058 216.664 49.0493C216.932 48.6929 217.257 48.417 217.638 48.2217C218.023 48.0264 218.46 47.9287 218.949 47.9287C219.422 47.9287 219.835 48.0239 220.187 48.2144C220.543 48.4048 220.846 48.6758 221.095 49.0273C221.349 49.3789 221.551 49.7964 221.703 50.2798C221.854 50.7583 221.964 51.2856 222.032 51.8618V52.2793C221.964 52.8408 221.854 53.356 221.703 53.8247C221.551 54.2935 221.349 54.7036 221.095 55.0552C220.846 55.4019 220.543 55.6704 220.187 55.8608C219.83 56.0513 219.413 56.1465 218.934 56.1465C218.451 56.1465 218.016 56.0464 217.63 55.8462C217.25 55.646 216.925 55.3652 216.656 55.0039C216.393 54.6426 216.19 54.2178 216.048 53.7295C215.912 53.2412 215.843 52.709 215.843 52.1328ZM217.784 51.979V52.1328C217.784 52.4746 217.813 52.7944 217.872 53.0923C217.931 53.3901 218.026 53.6538 218.158 53.8833C218.29 54.1079 218.458 54.2837 218.663 54.4106C218.873 54.5376 219.127 54.6011 219.425 54.6011C219.806 54.6011 220.118 54.5181 220.362 54.3521C220.611 54.1812 220.804 53.9492 220.941 53.6562C221.078 53.3584 221.166 53.0239 221.205 52.6528V51.5029C221.185 51.21 221.134 50.939 221.051 50.6899C220.973 50.4409 220.86 50.2261 220.714 50.0454C220.572 49.8647 220.396 49.7231 220.187 49.6206C219.977 49.5181 219.728 49.4668 219.439 49.4668C219.142 49.4668 218.888 49.5327 218.678 49.6646C218.468 49.7915 218.297 49.9697 218.165 50.1992C218.033 50.4287 217.936 50.6948 217.872 50.9976C217.813 51.3003 217.784 51.6274 217.784 51.979ZM229.349 54.1177V48.0752H231.297V56H229.466L229.349 54.1177ZM229.598 52.4771L230.199 52.4624C230.199 52.9946 230.14 53.4854 230.023 53.9346C229.906 54.3838 229.723 54.7744 229.474 55.1064C229.229 55.4336 228.919 55.6899 228.543 55.8755C228.167 56.0562 227.723 56.1465 227.21 56.1465C226.82 56.1465 226.463 56.0928 226.141 55.9854C225.819 55.873 225.541 55.6997 225.306 55.4653C225.077 55.2261 224.898 54.9209 224.771 54.5498C224.645 54.1738 224.581 53.7222 224.581 53.1948V48.0752H226.515V53.2095C226.515 53.4731 226.544 53.6929 226.603 53.8687C226.666 54.0444 226.751 54.1885 226.859 54.3008C226.971 54.4082 227.101 54.4863 227.247 54.5352C227.398 54.5791 227.56 54.6011 227.73 54.6011C228.199 54.6011 228.568 54.5083 228.836 54.3228C229.11 54.1323 229.305 53.8784 229.422 53.561C229.54 53.2388 229.598 52.8774 229.598 52.4771ZM237.369 53.832C237.369 53.666 237.325 53.5171 237.237 53.3853C237.149 53.2534 236.983 53.1338 236.739 53.0264C236.5 52.9141 236.148 52.8091 235.685 52.7114C235.274 52.6235 234.896 52.5137 234.549 52.3818C234.203 52.25 233.905 52.0913 233.656 51.9058C233.407 51.7153 233.211 51.4932 233.07 51.2393C232.933 50.9805 232.865 50.6826 232.865 50.3457C232.865 50.0186 232.936 49.7109 233.077 49.4229C233.219 49.1299 233.424 48.8735 233.692 48.6538C233.961 48.4292 234.288 48.2534 234.674 48.1265C235.06 47.9946 235.494 47.9287 235.978 47.9287C236.651 47.9287 237.23 48.0386 237.713 48.2583C238.202 48.478 238.575 48.7808 238.834 49.1665C239.093 49.5474 239.222 49.9771 239.222 50.4556H237.289C237.289 50.2456 237.24 50.0552 237.142 49.8843C237.049 49.7134 236.905 49.5767 236.71 49.4741C236.515 49.3667 236.268 49.313 235.97 49.313C235.702 49.313 235.475 49.3569 235.289 49.4448C235.108 49.5327 234.972 49.6475 234.879 49.7891C234.786 49.9307 234.74 50.0869 234.74 50.2578C234.74 50.3848 234.764 50.4995 234.813 50.6021C234.867 50.6997 234.952 50.79 235.069 50.873C235.187 50.9561 235.345 51.0317 235.545 51.1001C235.75 51.1685 236.002 51.2344 236.3 51.2979C236.891 51.415 237.406 51.5713 237.845 51.7666C238.29 51.957 238.636 52.2109 238.885 52.5283C239.134 52.8457 239.259 53.251 239.259 53.7441C239.259 54.0957 239.183 54.418 239.032 54.7109C238.88 54.999 238.661 55.2505 238.373 55.4653C238.084 55.6802 237.74 55.8486 237.34 55.9707C236.939 56.0879 236.488 56.1465 235.985 56.1465C235.257 56.1465 234.642 56.0171 234.139 55.7583C233.636 55.4946 233.255 55.1626 232.997 54.7622C232.738 54.3569 232.608 53.937 232.608 53.5024H234.461C234.476 53.8101 234.559 54.0566 234.71 54.2422C234.862 54.4277 235.052 54.562 235.282 54.645C235.516 54.7231 235.763 54.7622 236.021 54.7622C236.314 54.7622 236.561 54.7231 236.761 54.645C236.961 54.562 237.113 54.4521 237.215 54.3154C237.318 54.1738 237.369 54.0127 237.369 53.832ZM244.481 48.0752V49.4668H239.94V48.0752H244.481ZM241.156 46.127H243.097V53.7148C243.097 53.9492 243.128 54.1299 243.192 54.2568C243.255 54.3838 243.351 54.4692 243.478 54.5132C243.604 54.5571 243.756 54.5791 243.932 54.5791C244.059 54.5791 244.176 54.5718 244.283 54.5571C244.391 54.5425 244.481 54.5278 244.554 54.5132L244.562 55.9634C244.4 56.0171 244.217 56.061 244.012 56.0952C243.812 56.1294 243.585 56.1465 243.331 56.1465C242.896 56.1465 242.516 56.0732 242.188 55.9268C241.861 55.7754 241.607 55.5337 241.427 55.2017C241.246 54.8647 241.156 54.4204 241.156 53.8687V46.127ZM247.704 49.6938V56H245.77V48.0752H247.601L247.704 49.6938ZM250.113 48.0239L250.084 49.8257C249.977 49.8062 249.854 49.7915 249.718 49.7817C249.586 49.772 249.461 49.7671 249.344 49.7671C249.046 49.7671 248.785 49.8086 248.561 49.8916C248.336 49.9697 248.148 50.0845 247.997 50.2358C247.85 50.3872 247.738 50.5728 247.66 50.7925C247.582 51.0073 247.538 51.2515 247.528 51.5249L247.11 51.4736C247.11 50.9707 247.162 50.5044 247.264 50.0747C247.367 49.645 247.516 49.269 247.711 48.9468C247.906 48.6245 248.15 48.3755 248.443 48.1997C248.741 48.019 249.083 47.9287 249.469 47.9287C249.576 47.9287 249.691 47.9385 249.813 47.958C249.94 47.9727 250.04 47.9946 250.113 48.0239ZM253.629 55.1211L255.753 48.0752H257.826L254.647 57.2012C254.574 57.3965 254.479 57.6089 254.361 57.8384C254.249 58.0679 254.098 58.2852 253.907 58.4902C253.717 58.7002 253.478 58.8711 253.189 59.0029C252.906 59.1348 252.562 59.2007 252.157 59.2007C251.981 59.2007 251.825 59.1885 251.688 59.1641C251.551 59.1396 251.407 59.1079 251.256 59.0688V57.6187C251.305 57.6235 251.361 57.626 251.424 57.626C251.493 57.6309 251.551 57.6333 251.6 57.6333C251.883 57.6333 252.118 57.5991 252.303 57.5308C252.489 57.4673 252.638 57.3623 252.75 57.2158C252.867 57.0742 252.965 56.8887 253.043 56.6592L253.629 55.1211ZM252.582 48.0752L254.376 53.9126L254.691 55.9561L253.358 56.1978L250.494 48.0752H252.582Z" fill="black"/>
<path d="M0 40.4118L28.6087 29.5L0 18.2765V3L49 23.2647V35.7353L0 56V40.4118Z" fill="#A100FF"/>
</svg>
