<svg width="351" height="86" viewBox="0 0 351 86" fill="none" xmlns="http://www.w3.org/2000/svg">
<path d="M116.381 30.3828V45.043C115.836 45.7637 114.983 46.5547 113.823 47.416C112.681 48.2598 111.16 48.9893 109.262 49.6045C107.363 50.2197 104.999 50.5273 102.169 50.5273C99.7607 50.5273 97.5547 50.123 95.5508 49.3145C93.5469 48.4883 91.8154 47.2842 90.3564 45.7021C88.915 44.1201 87.7988 42.1953 87.0078 39.9277C86.2168 37.6426 85.8213 35.041 85.8213 32.123V29.46C85.8213 26.5596 86.1816 23.9756 86.9023 21.708C87.6406 19.4229 88.6953 17.4893 90.0664 15.9072C91.4375 14.3252 93.0898 13.1299 95.0234 12.3213C96.9746 11.4951 99.1807 11.082 101.642 11.082C104.788 11.082 107.39 11.6094 109.446 12.6641C111.521 13.7012 113.12 15.1426 114.245 16.9883C115.37 18.834 116.082 20.9434 116.381 23.3164H109.895C109.684 21.9805 109.271 20.7852 108.655 19.7305C108.058 18.6758 107.196 17.8496 106.071 17.252C104.964 16.6367 103.522 16.3291 101.747 16.3291C100.218 16.3291 98.873 16.6191 97.7129 17.1992C96.5527 17.7793 95.5859 18.6318 94.8125 19.7568C94.0566 20.8818 93.4854 22.2529 93.0986 23.8701C92.7119 25.4873 92.5186 27.333 92.5186 29.4072V32.123C92.5186 34.2324 92.7383 36.1045 93.1777 37.7393C93.6348 39.374 94.2852 40.7539 95.1289 41.8789C95.9902 43.0039 97.0361 43.8564 98.2666 44.4365C99.4971 44.999 100.886 45.2803 102.433 45.2803C103.944 45.2803 105.184 45.1572 106.15 44.9111C107.117 44.6475 107.882 44.3398 108.444 43.9883C109.024 43.6191 109.473 43.2676 109.789 42.9336V35.3135H101.8V30.3828H116.381ZM135.655 50.5273C133.546 50.5273 131.639 50.1846 129.934 49.499C128.246 48.7959 126.805 47.8203 125.609 46.5723C124.432 45.3242 123.526 43.8564 122.894 42.1689C122.261 40.4814 121.944 38.6621 121.944 36.7109V35.6562C121.944 33.4238 122.27 31.4023 122.92 29.5918C123.57 27.7812 124.476 26.2344 125.636 24.9512C126.796 23.6504 128.167 22.6572 129.749 21.9717C131.331 21.2861 133.045 20.9434 134.891 20.9434C136.93 20.9434 138.714 21.2861 140.243 21.9717C141.772 22.6572 143.038 23.624 144.04 24.8721C145.06 26.1025 145.815 27.5703 146.308 29.2754C146.817 30.9805 147.072 32.8613 147.072 34.918V37.6338H125.029V33.0723H140.797V32.5713C140.762 31.4287 140.533 30.3564 140.111 29.3545C139.707 28.3525 139.083 27.5439 138.239 26.9287C137.396 26.3135 136.271 26.0059 134.864 26.0059C133.81 26.0059 132.869 26.2344 132.043 26.6914C131.234 27.1309 130.558 27.7725 130.013 28.6162C129.468 29.46 129.046 30.4795 128.747 31.6748C128.466 32.8525 128.325 34.1797 128.325 35.6562V36.7109C128.325 37.959 128.492 39.1191 128.826 40.1914C129.178 41.2461 129.688 42.1689 130.355 42.96C131.023 43.751 131.832 44.375 132.781 44.832C133.73 45.2715 134.812 45.4912 136.024 45.4912C137.554 45.4912 138.916 45.1836 140.111 44.5684C141.307 43.9531 142.344 43.083 143.223 41.958L146.571 45.2012C145.956 46.0977 145.156 46.959 144.172 47.7852C143.188 48.5938 141.983 49.2529 140.56 49.7627C139.153 50.2725 137.519 50.5273 135.655 50.5273ZM158.331 27.5615V50H151.977V21.4707H157.962L158.331 27.5615ZM157.197 34.6807L155.141 34.6543C155.158 32.6328 155.439 30.7783 155.984 29.0908C156.547 27.4033 157.32 25.9531 158.305 24.7402C159.307 23.5273 160.502 22.5957 161.891 21.9453C163.279 21.2773 164.826 20.9434 166.531 20.9434C167.902 20.9434 169.142 21.1367 170.249 21.5234C171.374 21.8926 172.332 22.499 173.123 23.3428C173.932 24.1865 174.547 25.2852 174.969 26.6387C175.391 27.9746 175.602 29.6182 175.602 31.5693V50H169.221V31.543C169.221 30.1719 169.019 29.0908 168.614 28.2998C168.228 27.4912 167.656 26.9199 166.9 26.5859C166.162 26.2344 165.239 26.0586 164.132 26.0586C163.042 26.0586 162.066 26.2871 161.205 26.7441C160.344 27.2012 159.614 27.8252 159.017 28.6162C158.437 29.4072 157.988 30.3213 157.672 31.3584C157.355 32.3955 157.197 33.5029 157.197 34.6807ZM197.671 16.7246L186.201 50H179.267L193.716 11.6094H198.146L197.671 16.7246ZM207.269 50L195.772 16.7246L195.271 11.6094H199.728L214.229 50H207.269ZM206.715 35.7617V41.0088H185.832V35.7617H206.715ZM225.594 11.6094V50H218.976V11.6094H225.594ZM249.192 42.2744C249.192 41.6416 249.034 41.0703 248.718 40.5605C248.401 40.0332 247.795 39.5586 246.898 39.1367C246.02 38.7148 244.719 38.3281 242.996 37.9766C241.484 37.6426 240.096 37.2471 238.83 36.79C237.582 36.3154 236.51 35.7441 235.613 35.0762C234.717 34.4082 234.022 33.6172 233.53 32.7031C233.038 31.7891 232.792 30.7344 232.792 29.5391C232.792 28.3789 233.047 27.2803 233.557 26.2432C234.066 25.2061 234.796 24.292 235.745 23.501C236.694 22.71 237.846 22.0859 239.199 21.6289C240.57 21.1719 242.1 20.9434 243.787 20.9434C246.178 20.9434 248.226 21.3477 249.931 22.1562C251.653 22.9473 252.972 24.0283 253.886 25.3994C254.8 26.7529 255.257 28.2822 255.257 29.9873H248.902C248.902 29.2314 248.709 28.5283 248.322 27.8779C247.953 27.21 247.391 26.6738 246.635 26.2695C245.879 25.8477 244.93 25.6367 243.787 25.6367C242.697 25.6367 241.792 25.8125 241.071 26.1641C240.368 26.498 239.841 26.9375 239.489 27.4824C239.155 28.0273 238.988 28.625 238.988 29.2754C238.988 29.75 239.076 30.1807 239.252 30.5674C239.445 30.9365 239.762 31.2793 240.201 31.5957C240.641 31.8945 241.238 32.1758 241.994 32.4395C242.768 32.7031 243.734 32.958 244.895 33.2041C247.074 33.6611 248.946 34.25 250.511 34.9707C252.093 35.6738 253.306 36.5879 254.149 37.7129C254.993 38.8203 255.415 40.2266 255.415 41.9316C255.415 43.1973 255.143 44.3574 254.598 45.4121C254.07 46.4492 253.297 47.3545 252.277 48.1279C251.258 48.8838 250.036 49.4727 248.612 49.8945C247.206 50.3164 245.624 50.5273 243.866 50.5273C241.282 50.5273 239.094 50.0703 237.301 49.1562C235.508 48.2246 234.146 47.0381 233.214 45.5967C232.3 44.1377 231.843 42.626 231.843 41.0615H237.986C238.057 42.2393 238.382 43.1797 238.962 43.8828C239.56 44.5684 240.298 45.0693 241.177 45.3857C242.073 45.6846 242.996 45.834 243.945 45.834C245.088 45.834 246.046 45.6846 246.819 45.3857C247.593 45.0693 248.182 44.6475 248.586 44.1201C248.99 43.5752 249.192 42.96 249.192 42.2744ZM267.781 21.4707V50H261.4V21.4707H267.781ZM260.979 13.9824C260.979 13.0156 261.295 12.2158 261.928 11.583C262.578 10.9326 263.475 10.6074 264.617 10.6074C265.742 10.6074 266.63 10.9326 267.28 11.583C267.931 12.2158 268.256 13.0156 268.256 13.9824C268.256 14.9316 267.931 15.7227 267.28 16.3555C266.63 16.9883 265.742 17.3047 264.617 17.3047C263.475 17.3047 262.578 16.9883 261.928 16.3555C261.295 15.7227 260.979 14.9316 260.979 13.9824ZM293.015 21.4707H298.789V49.209C298.789 51.7754 298.244 53.9551 297.154 55.748C296.064 57.541 294.544 58.9033 292.593 59.835C290.642 60.7842 288.383 61.2588 285.816 61.2588C284.727 61.2588 283.514 61.1006 282.178 60.7842C280.859 60.4678 279.576 59.958 278.328 59.2549C277.098 58.5693 276.069 57.6641 275.243 56.5391L278.223 52.7949C279.242 54.0078 280.367 54.8955 281.598 55.458C282.828 56.0205 284.12 56.3018 285.474 56.3018C286.933 56.3018 288.172 56.0293 289.191 55.4844C290.229 54.957 291.028 54.1748 291.591 53.1377C292.153 52.1006 292.435 50.835 292.435 49.3408V27.9307L293.015 21.4707ZM273.635 36.0518V35.498C273.635 33.3359 273.898 31.3672 274.426 29.5918C274.953 27.7988 275.709 26.2607 276.693 24.9775C277.678 23.6768 278.873 22.6836 280.279 21.998C281.686 21.2949 283.276 20.9434 285.052 20.9434C286.897 20.9434 288.471 21.2773 289.771 21.9453C291.09 22.6133 292.188 23.5713 293.067 24.8193C293.946 26.0498 294.632 27.5264 295.124 29.249C295.634 30.9541 296.012 32.8525 296.258 34.9443V36.7109C296.029 38.75 295.643 40.6133 295.098 42.3008C294.553 43.9883 293.832 45.4473 292.936 46.6777C292.039 47.9082 290.932 48.8574 289.613 49.5254C288.312 50.1934 286.774 50.5273 284.999 50.5273C283.259 50.5273 281.686 50.167 280.279 49.4463C278.891 48.7256 277.695 47.7148 276.693 46.4141C275.709 45.1133 274.953 43.584 274.426 41.8262C273.898 40.0508 273.635 38.126 273.635 36.0518ZM279.989 35.498V36.0518C279.989 37.3525 280.112 38.5654 280.358 39.6904C280.622 40.8154 281.018 41.8086 281.545 42.6699C282.09 43.5137 282.775 44.1816 283.602 44.6738C284.445 45.1484 285.438 45.3857 286.581 45.3857C288.075 45.3857 289.297 45.0693 290.246 44.4365C291.213 43.8037 291.951 42.9512 292.461 41.8789C292.988 40.7891 293.357 39.5762 293.568 38.2402V33.4678C293.463 32.4307 293.243 31.4639 292.909 30.5674C292.593 29.6709 292.162 28.8887 291.617 28.2207C291.072 27.5352 290.387 27.0078 289.561 26.6387C288.734 26.252 287.759 26.0586 286.634 26.0586C285.491 26.0586 284.498 26.3047 283.654 26.7969C282.811 27.2891 282.116 27.9658 281.571 28.8271C281.044 29.6885 280.648 30.6904 280.385 31.833C280.121 32.9756 279.989 34.1973 279.989 35.498ZM311.656 9.5V50H305.328V9.5H311.656ZM310.549 34.6807L308.492 34.6543C308.51 32.6855 308.782 30.8662 309.31 29.1963C309.854 27.5264 310.61 26.0762 311.577 24.8457C312.562 23.5977 313.739 22.6396 315.11 21.9717C316.481 21.2861 318.002 20.9434 319.672 20.9434C321.078 20.9434 322.344 21.1367 323.469 21.5234C324.611 21.9102 325.596 22.5342 326.422 23.3955C327.248 24.2393 327.872 25.3467 328.294 26.7178C328.733 28.0713 328.953 29.7236 328.953 31.6748V50H322.572V31.6221C322.572 30.251 322.37 29.1611 321.966 28.3525C321.579 27.5439 321.008 26.9639 320.252 26.6123C319.496 26.2432 318.573 26.0586 317.483 26.0586C316.341 26.0586 315.33 26.2871 314.451 26.7441C313.59 27.2012 312.869 27.8252 312.289 28.6162C311.709 29.4072 311.27 30.3213 310.971 31.3584C310.689 32.3955 310.549 33.5029 310.549 34.6807ZM348.465 21.4707V26.1113H332.381V21.4707H348.465ZM337.021 14.4834H343.376V42.1162C343.376 42.9951 343.499 43.6719 343.745 44.1465C344.009 44.6035 344.369 44.9111 344.826 45.0693C345.283 45.2275 345.819 45.3066 346.435 45.3066C346.874 45.3066 347.296 45.2803 347.7 45.2275C348.104 45.1748 348.43 45.1221 348.676 45.0693L348.702 49.9209C348.175 50.0791 347.56 50.2197 346.856 50.3428C346.171 50.4658 345.38 50.5273 344.483 50.5273C343.024 50.5273 341.732 50.2725 340.607 49.7627C339.482 49.2354 338.604 48.3828 337.971 47.2051C337.338 46.0273 337.021 44.4629 337.021 42.5117V14.4834Z" fill="white"/>
<path d="M103.783 66.7812V81H101.088L95.043 71.1367V81H92.3574V66.7812H95.043L101.107 76.6543V66.7812H103.783ZM111.068 81.1953C110.268 81.1953 109.548 81.0651 108.91 80.8047C108.272 80.5443 107.729 80.1829 107.279 79.7207C106.837 79.252 106.495 78.7083 106.254 78.0898C106.02 77.4648 105.902 76.7943 105.902 76.0781V75.6875C105.902 74.8737 106.02 74.1348 106.254 73.4707C106.488 72.8001 106.82 72.224 107.25 71.7422C107.68 71.2604 108.194 70.8893 108.793 70.6289C109.392 70.3685 110.053 70.2383 110.775 70.2383C111.524 70.2383 112.185 70.3652 112.758 70.6191C113.331 70.8665 113.809 71.2181 114.193 71.6738C114.577 72.1296 114.867 72.6764 115.062 73.3145C115.258 73.946 115.355 74.6458 115.355 75.4141V76.498H107.074V74.7207H112.816V74.5254C112.803 74.1152 112.725 73.7409 112.582 73.4023C112.439 73.0573 112.217 72.7839 111.918 72.582C111.618 72.3737 111.231 72.2695 110.756 72.2695C110.372 72.2695 110.036 72.3542 109.75 72.5234C109.47 72.6862 109.236 72.9206 109.047 73.2266C108.865 73.526 108.728 73.8841 108.637 74.3008C108.546 74.7174 108.5 75.1797 108.5 75.6875V76.0781C108.5 76.5208 108.559 76.931 108.676 77.3086C108.799 77.6862 108.979 78.015 109.213 78.2949C109.454 78.5684 109.74 78.7832 110.072 78.9395C110.411 79.0892 110.795 79.1641 111.225 79.1641C111.765 79.1641 112.253 79.0599 112.689 78.8516C113.132 78.6367 113.516 78.321 113.842 77.9043L115.141 79.252C114.919 79.5775 114.62 79.89 114.242 80.1895C113.871 80.4889 113.422 80.7331 112.895 80.9219C112.367 81.1042 111.758 81.1953 111.068 81.1953ZM120.023 78.4609L122.338 70.4336H123.979L123.49 73.207L121.156 81H119.74L120.023 78.4609ZM118.744 70.4336L120.482 78.4805L120.639 81H119.008L116.234 70.4336H118.744ZM126.127 78.3633L127.826 70.4336H130.326L127.572 81H125.941L126.127 78.3633ZM124.232 70.4336L126.527 78.3828L126.83 81H125.414L123.061 73.207L122.582 70.4336H124.232ZM139.77 78.4609L142.084 70.4336H143.725L143.236 73.207L140.902 81H139.486L139.77 78.4609ZM138.49 70.4336L140.229 78.4805L140.385 81H138.754L135.98 70.4336H138.49ZM145.873 78.3633L147.572 70.4336H150.072L147.318 81H145.688L145.873 78.3633ZM143.979 70.4336L146.273 78.3828L146.576 81H145.16L142.807 73.207L142.328 70.4336H143.979ZM157.416 78.7539V73.8809C157.416 73.5228 157.354 73.2135 157.23 72.9531C157.107 72.6927 156.918 72.4909 156.664 72.3477C156.41 72.2044 156.088 72.1328 155.697 72.1328C155.352 72.1328 155.049 72.1914 154.789 72.3086C154.535 72.4258 154.34 72.5918 154.203 72.8066C154.066 73.015 153.998 73.2559 153.998 73.5293H151.41C151.41 73.0931 151.514 72.6797 151.723 72.2891C151.931 71.8919 152.227 71.5404 152.611 71.2344C153.002 70.9219 153.467 70.6777 154.008 70.502C154.555 70.3262 155.167 70.2383 155.844 70.2383C156.645 70.2383 157.357 70.375 157.982 70.6484C158.614 70.9154 159.109 71.319 159.467 71.8594C159.831 72.3997 160.014 73.0801 160.014 73.9004V78.5098C160.014 79.0371 160.046 79.4896 160.111 79.8672C160.183 80.2383 160.287 80.5605 160.424 80.834V81H157.797C157.673 80.7331 157.579 80.3945 157.514 79.9844C157.449 79.5677 157.416 79.1576 157.416 78.7539ZM157.777 74.5645L157.797 76.0977H156.166C155.762 76.0977 155.408 76.14 155.102 76.2246C154.796 76.3027 154.545 76.4199 154.35 76.5762C154.154 76.7259 154.008 76.9082 153.91 77.123C153.812 77.3314 153.764 77.569 153.764 77.8359C153.764 78.0964 153.822 78.3307 153.939 78.5391C154.063 78.7474 154.239 78.9134 154.467 79.0371C154.701 79.1543 154.975 79.2129 155.287 79.2129C155.743 79.2129 156.14 79.1217 156.479 78.9395C156.817 78.7507 157.081 78.5228 157.27 78.2559C157.458 77.9889 157.559 77.735 157.572 77.4941L158.314 78.6074C158.223 78.8743 158.087 79.1576 157.904 79.457C157.722 79.7565 157.488 80.0365 157.201 80.2969C156.915 80.5573 156.57 80.7721 156.166 80.9414C155.762 81.1107 155.294 81.1953 154.76 81.1953C154.076 81.1953 153.464 81.0586 152.924 80.7852C152.383 80.5117 151.957 80.1374 151.645 79.6621C151.332 79.1868 151.176 78.6465 151.176 78.041C151.176 77.4811 151.28 76.9863 151.488 76.5566C151.697 76.127 152.006 75.7656 152.416 75.4727C152.826 75.1732 153.334 74.9486 153.939 74.7988C154.551 74.6426 155.251 74.5645 156.039 74.5645H157.777ZM165.277 79.8281L168.109 70.4336H170.873L166.635 82.6016C166.537 82.862 166.41 83.1452 166.254 83.4512C166.104 83.7572 165.902 84.0469 165.648 84.3203C165.395 84.6003 165.076 84.8281 164.691 85.0039C164.314 85.1797 163.855 85.2676 163.314 85.2676C163.08 85.2676 162.872 85.2513 162.689 85.2188C162.507 85.1862 162.315 85.1439 162.113 85.0918V83.1582C162.178 83.1647 162.253 83.168 162.338 83.168C162.429 83.1745 162.507 83.1777 162.572 83.1777C162.95 83.1777 163.262 83.1322 163.51 83.041C163.757 82.9564 163.956 82.8164 164.105 82.6211C164.262 82.4323 164.392 82.1849 164.496 81.8789L165.277 79.8281ZM163.881 70.4336L166.273 78.2168L166.693 80.9414L164.916 81.2637L161.098 70.4336H163.881ZM182.104 70.4336V72.2891H176.049V70.4336H182.104ZM177.67 67.8359H180.258V77.9531C180.258 78.2656 180.3 78.5065 180.385 78.6758C180.469 78.8451 180.596 78.959 180.766 79.0176C180.935 79.0762 181.137 79.1055 181.371 79.1055C181.54 79.1055 181.697 79.0957 181.84 79.0762C181.983 79.0566 182.104 79.0371 182.201 79.0176L182.211 80.9512C181.996 81.0228 181.752 81.0814 181.479 81.127C181.212 81.1725 180.909 81.1953 180.57 81.1953C179.991 81.1953 179.483 81.0977 179.047 80.9023C178.611 80.7005 178.272 80.3783 178.031 79.9355C177.79 79.4863 177.67 78.8939 177.67 78.1582V67.8359ZM183.109 75.8242V75.6191C183.109 74.8444 183.22 74.1315 183.441 73.4805C183.663 72.8229 183.985 72.2533 184.408 71.7715C184.831 71.2897 185.349 70.9154 185.961 70.6484C186.573 70.375 187.27 70.2383 188.051 70.2383C188.845 70.2383 189.548 70.375 190.16 70.6484C190.779 70.9154 191.299 71.2897 191.723 71.7715C192.146 72.2533 192.468 72.8229 192.689 73.4805C192.911 74.1315 193.021 74.8444 193.021 75.6191V75.8242C193.021 76.5924 192.911 77.3053 192.689 77.9629C192.468 78.6139 192.146 79.1836 191.723 79.6719C191.299 80.1536 190.782 80.528 190.17 80.7949C189.558 81.0618 188.858 81.1953 188.07 81.1953C187.289 81.1953 186.589 81.0618 185.971 80.7949C185.352 80.528 184.831 80.1536 184.408 79.6719C183.985 79.1836 183.663 78.6139 183.441 77.9629C183.22 77.3053 183.109 76.5924 183.109 75.8242ZM185.688 75.6191V75.8242C185.688 76.2865 185.733 76.7194 185.824 77.123C185.915 77.5267 186.055 77.8815 186.244 78.1875C186.433 78.4935 186.677 78.7344 186.977 78.9102C187.283 79.0794 187.647 79.1641 188.07 79.1641C188.487 79.1641 188.845 79.0794 189.145 78.9102C189.444 78.7344 189.688 78.4935 189.877 78.1875C190.072 77.8815 190.215 77.5267 190.307 77.123C190.398 76.7194 190.443 76.2865 190.443 75.8242V75.6191C190.443 75.1634 190.398 74.737 190.307 74.3398C190.215 73.9362 190.072 73.5814 189.877 73.2754C189.688 72.9629 189.441 72.7188 189.135 72.543C188.835 72.3607 188.474 72.2695 188.051 72.2695C187.634 72.2695 187.276 72.3607 186.977 72.543C186.677 72.7188 186.433 72.9629 186.244 73.2754C186.055 73.5814 185.915 73.9362 185.824 74.3398C185.733 74.737 185.688 75.1634 185.688 75.6191ZM205.688 78.1094C205.688 77.888 205.629 77.6895 205.512 77.5137C205.395 77.3379 205.173 77.1784 204.848 77.0352C204.529 76.8854 204.06 76.7454 203.441 76.6152C202.895 76.498 202.39 76.3516 201.928 76.1758C201.465 76 201.068 75.7884 200.736 75.541C200.404 75.2871 200.144 74.9909 199.955 74.6523C199.773 74.3073 199.682 73.9102 199.682 73.4609C199.682 73.0247 199.776 72.6146 199.965 72.2305C200.154 71.8398 200.427 71.498 200.785 71.2051C201.143 70.9056 201.579 70.6712 202.094 70.502C202.608 70.3262 203.188 70.2383 203.832 70.2383C204.73 70.2383 205.502 70.3848 206.146 70.6777C206.798 70.9707 207.296 71.3743 207.641 71.8887C207.986 72.3965 208.158 72.9694 208.158 73.6074H205.58C205.58 73.3275 205.515 73.0736 205.385 72.8457C205.261 72.6178 205.069 72.4355 204.809 72.2988C204.548 72.1556 204.219 72.084 203.822 72.084C203.464 72.084 203.161 72.1426 202.914 72.2598C202.673 72.377 202.491 72.5299 202.367 72.7188C202.243 72.9076 202.182 73.1159 202.182 73.3438C202.182 73.513 202.214 73.666 202.279 73.8027C202.351 73.9329 202.465 74.0534 202.621 74.1641C202.777 74.2747 202.989 74.3757 203.256 74.4668C203.529 74.5579 203.865 74.6458 204.262 74.7305C205.049 74.8867 205.736 75.0951 206.322 75.3555C206.915 75.6094 207.377 75.9479 207.709 76.3711C208.041 76.7943 208.207 77.3346 208.207 77.9922C208.207 78.4609 208.106 78.8906 207.904 79.2812C207.702 79.6654 207.41 80.0007 207.025 80.2871C206.641 80.5736 206.182 80.7982 205.648 80.9609C205.115 81.1172 204.512 81.1953 203.842 81.1953C202.872 81.1953 202.051 81.0228 201.381 80.6777C200.71 80.3262 200.202 79.8835 199.857 79.3496C199.512 78.8092 199.34 78.2493 199.34 77.6699H201.811C201.83 78.0801 201.941 78.4089 202.143 78.6562C202.344 78.9036 202.598 79.0827 202.904 79.1934C203.217 79.2975 203.546 79.3496 203.891 79.3496C204.281 79.3496 204.61 79.2975 204.877 79.1934C205.144 79.0827 205.346 78.9362 205.482 78.7539C205.619 78.5651 205.688 78.3503 205.688 78.1094ZM214.916 81.1953C214.115 81.1953 213.396 81.0651 212.758 80.8047C212.12 80.5443 211.576 80.1829 211.127 79.7207C210.684 79.252 210.342 78.7083 210.102 78.0898C209.867 77.4648 209.75 76.7943 209.75 76.0781V75.6875C209.75 74.8737 209.867 74.1348 210.102 73.4707C210.336 72.8001 210.668 72.224 211.098 71.7422C211.527 71.2604 212.042 70.8893 212.641 70.6289C213.24 70.3685 213.9 70.2383 214.623 70.2383C215.372 70.2383 216.033 70.3652 216.605 70.6191C217.178 70.8665 217.657 71.2181 218.041 71.6738C218.425 72.1296 218.715 72.6764 218.91 73.3145C219.105 73.946 219.203 74.6458 219.203 75.4141V76.498H210.922V74.7207H216.664V74.5254C216.651 74.1152 216.573 73.7409 216.43 73.4023C216.286 73.0573 216.065 72.7839 215.766 72.582C215.466 72.3737 215.079 72.2695 214.604 72.2695C214.219 72.2695 213.884 72.3542 213.598 72.5234C213.318 72.6862 213.083 72.9206 212.895 73.2266C212.712 73.526 212.576 73.8841 212.484 74.3008C212.393 74.7174 212.348 75.1797 212.348 75.6875V76.0781C212.348 76.5208 212.406 76.931 212.523 77.3086C212.647 77.6862 212.826 78.015 213.061 78.2949C213.301 78.5684 213.588 78.7832 213.92 78.9395C214.258 79.0892 214.643 79.1641 215.072 79.1641C215.613 79.1641 216.101 79.0599 216.537 78.8516C216.98 78.6367 217.364 78.321 217.689 77.9043L218.988 79.252C218.767 79.5775 218.467 79.89 218.09 80.1895C217.719 80.4889 217.27 80.7331 216.742 80.9219C216.215 81.1042 215.606 81.1953 214.916 81.1953ZM225.678 81.1953C224.877 81.1953 224.158 81.0651 223.52 80.8047C222.882 80.5443 222.338 80.1829 221.889 79.7207C221.446 79.252 221.104 78.7083 220.863 78.0898C220.629 77.4648 220.512 76.7943 220.512 76.0781V75.6875C220.512 74.8737 220.629 74.1348 220.863 73.4707C221.098 72.8001 221.43 72.224 221.859 71.7422C222.289 71.2604 222.803 70.8893 223.402 70.6289C224.001 70.3685 224.662 70.2383 225.385 70.2383C226.133 70.2383 226.794 70.3652 227.367 70.6191C227.94 70.8665 228.419 71.2181 228.803 71.6738C229.187 72.1296 229.477 72.6764 229.672 73.3145C229.867 73.946 229.965 74.6458 229.965 75.4141V76.498H221.684V74.7207H227.426V74.5254C227.413 74.1152 227.335 73.7409 227.191 73.4023C227.048 73.0573 226.827 72.7839 226.527 72.582C226.228 72.3737 225.84 72.2695 225.365 72.2695C224.981 72.2695 224.646 72.3542 224.359 72.5234C224.079 72.6862 223.845 72.9206 223.656 73.2266C223.474 73.526 223.337 73.8841 223.246 74.3008C223.155 74.7174 223.109 75.1797 223.109 75.6875V76.0781C223.109 76.5208 223.168 76.931 223.285 77.3086C223.409 77.6862 223.588 78.015 223.822 78.2949C224.063 78.5684 224.35 78.7832 224.682 78.9395C225.02 79.0892 225.404 79.1641 225.834 79.1641C226.374 79.1641 226.863 79.0599 227.299 78.8516C227.742 78.6367 228.126 78.321 228.451 77.9043L229.75 79.252C229.529 79.5775 229.229 79.89 228.852 80.1895C228.48 80.4889 228.031 80.7331 227.504 80.9219C226.977 81.1042 226.368 81.1953 225.678 81.1953ZM241.674 70.4336V72.2891H235.619V70.4336H241.674ZM237.24 67.8359H239.828V77.9531C239.828 78.2656 239.87 78.5065 239.955 78.6758C240.04 78.8451 240.167 78.959 240.336 79.0176C240.505 79.0762 240.707 79.1055 240.941 79.1055C241.111 79.1055 241.267 79.0957 241.41 79.0762C241.553 79.0566 241.674 79.0371 241.771 79.0176L241.781 80.9512C241.566 81.0228 241.322 81.0814 241.049 81.127C240.782 81.1725 240.479 81.1953 240.141 81.1953C239.561 81.1953 239.053 81.0977 238.617 80.9023C238.181 80.7005 237.842 80.3783 237.602 79.9355C237.361 79.4863 237.24 78.8939 237.24 78.1582V67.8359ZM245.922 66V81H243.334V66H245.922ZM245.512 75.3359H244.75C244.75 74.6003 244.848 73.9232 245.043 73.3047C245.238 72.6862 245.515 72.1491 245.873 71.6934C246.231 71.2311 246.658 70.873 247.152 70.6191C247.654 70.3652 248.207 70.2383 248.812 70.2383C249.333 70.2383 249.805 70.3132 250.229 70.4629C250.658 70.6061 251.026 70.8372 251.332 71.1562C251.638 71.4753 251.872 71.8919 252.035 72.4062C252.204 72.9141 252.289 73.5326 252.289 74.2617V81H249.691V74.2422C249.691 73.7539 249.62 73.3698 249.477 73.0898C249.333 72.8034 249.128 72.5983 248.861 72.4746C248.601 72.3509 248.279 72.2891 247.895 72.2891C247.478 72.2891 247.12 72.3704 246.82 72.5332C246.521 72.6895 246.273 72.9076 246.078 73.1875C245.889 73.4674 245.746 73.7897 245.648 74.1543C245.557 74.5189 245.512 74.9128 245.512 75.3359ZM259.311 81.1953C258.51 81.1953 257.79 81.0651 257.152 80.8047C256.514 80.5443 255.971 80.1829 255.521 79.7207C255.079 79.252 254.737 78.7083 254.496 78.0898C254.262 77.4648 254.145 76.7943 254.145 76.0781V75.6875C254.145 74.8737 254.262 74.1348 254.496 73.4707C254.73 72.8001 255.062 72.224 255.492 71.7422C255.922 71.2604 256.436 70.8893 257.035 70.6289C257.634 70.3685 258.295 70.2383 259.018 70.2383C259.766 70.2383 260.427 70.3652 261 70.6191C261.573 70.8665 262.051 71.2181 262.436 71.6738C262.82 72.1296 263.109 72.6764 263.305 73.3145C263.5 73.946 263.598 74.6458 263.598 75.4141V76.498H255.316V74.7207H261.059V74.5254C261.046 74.1152 260.967 73.7409 260.824 73.4023C260.681 73.0573 260.46 72.7839 260.16 72.582C259.861 72.3737 259.473 72.2695 258.998 72.2695C258.614 72.2695 258.279 72.3542 257.992 72.5234C257.712 72.6862 257.478 72.9206 257.289 73.2266C257.107 73.526 256.97 73.8841 256.879 74.3008C256.788 74.7174 256.742 75.1797 256.742 75.6875V76.0781C256.742 76.5208 256.801 76.931 256.918 77.3086C257.042 77.6862 257.221 78.015 257.455 78.2949C257.696 78.5684 257.982 78.7832 258.314 78.9395C258.653 79.0892 259.037 79.1641 259.467 79.1641C260.007 79.1641 260.495 79.0599 260.932 78.8516C261.374 78.6367 261.758 78.321 262.084 77.9043L263.383 79.252C263.161 79.5775 262.862 79.89 262.484 80.1895C262.113 80.4889 261.664 80.7331 261.137 80.9219C260.609 81.1042 260.001 81.1953 259.311 81.1953ZM273.363 66.7812V81H270.678V66.7812H273.363ZM278.598 72.6895V81H276.02V70.4336H278.441L278.598 72.6895ZM278.188 75.3359H277.426C277.432 74.5677 277.536 73.8711 277.738 73.2461C277.94 72.6211 278.223 72.084 278.588 71.6348C278.959 71.1855 279.398 70.8405 279.906 70.5996C280.414 70.3587 280.98 70.2383 281.605 70.2383C282.113 70.2383 282.572 70.3099 282.982 70.4531C283.393 70.5964 283.744 70.8242 284.037 71.1367C284.337 71.4492 284.564 71.8594 284.721 72.3672C284.883 72.8685 284.965 73.487 284.965 74.2227V81H282.367V74.2031C282.367 73.7214 282.296 73.3405 282.152 73.0605C282.016 72.7806 281.814 72.582 281.547 72.4648C281.286 72.3477 280.964 72.2891 280.58 72.2891C280.183 72.2891 279.835 72.3704 279.535 72.5332C279.242 72.6895 278.995 72.9076 278.793 73.1875C278.598 73.4674 278.448 73.7897 278.344 74.1543C278.24 74.5189 278.188 74.9128 278.188 75.3359ZM293.578 78.7539V66H296.176V81H293.832L293.578 78.7539ZM286.791 75.8438V75.6387C286.791 74.8314 286.882 74.099 287.064 73.4414C287.253 72.7773 287.527 72.2077 287.885 71.7324C288.243 71.2572 288.676 70.8893 289.184 70.6289C289.698 70.3685 290.281 70.2383 290.932 70.2383C291.563 70.2383 292.113 70.3652 292.582 70.6191C293.057 70.873 293.461 71.2344 293.793 71.7031C294.132 72.1719 294.402 72.7285 294.604 73.373C294.805 74.0111 294.952 74.7142 295.043 75.4824V76.0391C294.952 76.7878 294.805 77.4746 294.604 78.0996C294.402 78.7246 294.132 79.2715 293.793 79.7402C293.461 80.2025 293.057 80.5605 292.582 80.8145C292.107 81.0684 291.55 81.1953 290.912 81.1953C290.268 81.1953 289.688 81.0618 289.174 80.7949C288.666 80.528 288.233 80.1536 287.875 79.6719C287.523 79.1901 287.253 78.6237 287.064 77.9727C286.882 77.3216 286.791 76.612 286.791 75.8438ZM289.379 75.6387V75.8438C289.379 76.2995 289.418 76.7259 289.496 77.123C289.574 77.5202 289.701 77.8717 289.877 78.1777C290.053 78.4772 290.277 78.7116 290.551 78.8809C290.831 79.0501 291.169 79.1348 291.566 79.1348C292.074 79.1348 292.491 79.0241 292.816 78.8027C293.148 78.5749 293.406 78.2656 293.588 77.875C293.77 77.4779 293.887 77.0319 293.939 76.5371V75.0039C293.913 74.6133 293.845 74.252 293.734 73.9199C293.63 73.5879 293.48 73.3014 293.285 73.0605C293.096 72.8197 292.862 72.6309 292.582 72.4941C292.302 72.3574 291.97 72.2891 291.586 72.2891C291.189 72.2891 290.85 72.377 290.57 72.5527C290.29 72.722 290.062 72.9596 289.887 73.2656C289.711 73.5716 289.581 73.9264 289.496 74.3301C289.418 74.7337 289.379 75.1699 289.379 75.6387ZM304.799 78.4902V70.4336H307.396V81H304.955L304.799 78.4902ZM305.131 76.3027L305.932 76.2832C305.932 76.9928 305.854 77.6471 305.697 78.2461C305.541 78.8451 305.297 79.3659 304.965 79.8086C304.639 80.2448 304.226 80.5866 303.725 80.834C303.223 81.0749 302.631 81.1953 301.947 81.1953C301.426 81.1953 300.951 81.1237 300.521 80.9805C300.092 80.8307 299.721 80.5996 299.408 80.2871C299.102 79.9681 298.865 79.5612 298.695 79.0664C298.526 78.5651 298.441 77.9629 298.441 77.2598V70.4336H301.02V77.2793C301.02 77.6309 301.059 77.9238 301.137 78.1582C301.221 78.3926 301.335 78.5846 301.479 78.7344C301.628 78.8776 301.801 78.9818 301.996 79.0469C302.198 79.1055 302.413 79.1348 302.641 79.1348C303.266 79.1348 303.757 79.0111 304.115 78.7637C304.48 78.5098 304.74 78.1712 304.896 77.748C305.053 77.3184 305.131 76.8366 305.131 76.3027ZM315.492 78.1094C315.492 77.888 315.434 77.6895 315.316 77.5137C315.199 77.3379 314.978 77.1784 314.652 77.0352C314.333 76.8854 313.865 76.7454 313.246 76.6152C312.699 76.498 312.195 76.3516 311.732 76.1758C311.27 76 310.873 75.7884 310.541 75.541C310.209 75.2871 309.949 74.9909 309.76 74.6523C309.577 74.3073 309.486 73.9102 309.486 73.4609C309.486 73.0247 309.581 72.6146 309.77 72.2305C309.958 71.8398 310.232 71.498 310.59 71.2051C310.948 70.9056 311.384 70.6712 311.898 70.502C312.413 70.3262 312.992 70.2383 313.637 70.2383C314.535 70.2383 315.307 70.3848 315.951 70.6777C316.602 70.9707 317.1 71.3743 317.445 71.8887C317.79 72.3965 317.963 72.9694 317.963 73.6074H315.385C315.385 73.3275 315.32 73.0736 315.189 72.8457C315.066 72.6178 314.874 72.4355 314.613 72.2988C314.353 72.1556 314.024 72.084 313.627 72.084C313.269 72.084 312.966 72.1426 312.719 72.2598C312.478 72.377 312.296 72.5299 312.172 72.7188C312.048 72.9076 311.986 73.1159 311.986 73.3438C311.986 73.513 312.019 73.666 312.084 73.8027C312.156 73.9329 312.27 74.0534 312.426 74.1641C312.582 74.2747 312.794 74.3757 313.061 74.4668C313.334 74.5579 313.669 74.6458 314.066 74.7305C314.854 74.8867 315.541 75.0951 316.127 75.3555C316.719 75.6094 317.182 75.9479 317.514 76.3711C317.846 76.7943 318.012 77.3346 318.012 77.9922C318.012 78.4609 317.911 78.8906 317.709 79.2812C317.507 79.6654 317.214 80.0007 316.83 80.2871C316.446 80.5736 315.987 80.7982 315.453 80.9609C314.919 81.1172 314.317 81.1953 313.646 81.1953C312.676 81.1953 311.856 81.0228 311.186 80.6777C310.515 80.3262 310.007 79.8835 309.662 79.3496C309.317 78.8092 309.145 78.2493 309.145 77.6699H311.615C311.635 78.0801 311.745 78.4089 311.947 78.6562C312.149 78.9036 312.403 79.0827 312.709 79.1934C313.021 79.2975 313.35 79.3496 313.695 79.3496C314.086 79.3496 314.415 79.2975 314.682 79.1934C314.949 79.0827 315.15 78.9362 315.287 78.7539C315.424 78.5651 315.492 78.3503 315.492 78.1094ZM324.975 70.4336V72.2891H318.92V70.4336H324.975ZM320.541 67.8359H323.129V77.9531C323.129 78.2656 323.171 78.5065 323.256 78.6758C323.34 78.8451 323.467 78.959 323.637 79.0176C323.806 79.0762 324.008 79.1055 324.242 79.1055C324.411 79.1055 324.568 79.0957 324.711 79.0762C324.854 79.0566 324.975 79.0371 325.072 79.0176L325.082 80.9512C324.867 81.0228 324.623 81.0814 324.35 81.127C324.083 81.1725 323.78 81.1953 323.441 81.1953C322.862 81.1953 322.354 81.0977 321.918 80.9023C321.482 80.7005 321.143 80.3783 320.902 79.9355C320.661 79.4863 320.541 78.8939 320.541 78.1582V67.8359ZM329.271 72.5918V81H326.693V70.4336H329.135L329.271 72.5918ZM332.484 70.3652L332.445 72.7676C332.302 72.7415 332.139 72.722 331.957 72.709C331.781 72.696 331.615 72.6895 331.459 72.6895C331.062 72.6895 330.714 72.7448 330.414 72.8555C330.115 72.9596 329.864 73.1126 329.662 73.3145C329.467 73.5163 329.317 73.7637 329.213 74.0566C329.109 74.3431 329.05 74.6686 329.037 75.0332L328.48 74.9648C328.48 74.2943 328.549 73.6725 328.686 73.0996C328.822 72.5267 329.021 72.0254 329.281 71.5957C329.542 71.166 329.867 70.834 330.258 70.5996C330.655 70.3587 331.111 70.2383 331.625 70.2383C331.768 70.2383 331.921 70.2513 332.084 70.2773C332.253 70.2969 332.387 70.3262 332.484 70.3652ZM337.172 79.8281L340.004 70.4336H342.768L338.529 82.6016C338.432 82.862 338.305 83.1452 338.148 83.4512C337.999 83.7572 337.797 84.0469 337.543 84.3203C337.289 84.6003 336.97 84.8281 336.586 85.0039C336.208 85.1797 335.749 85.2676 335.209 85.2676C334.975 85.2676 334.766 85.2513 334.584 85.2188C334.402 85.1862 334.21 85.1439 334.008 85.0918V83.1582C334.073 83.1647 334.148 83.168 334.232 83.168C334.324 83.1745 334.402 83.1777 334.467 83.1777C334.844 83.1777 335.157 83.1322 335.404 83.041C335.652 82.9564 335.85 82.8164 336 82.6211C336.156 82.4323 336.286 82.1849 336.391 81.8789L337.172 79.8281ZM335.775 70.4336L338.168 78.2168L338.588 80.9414L336.811 81.2637L332.992 70.4336H335.775Z" fill="white"/>
<path d="M0 60.5882L44.3727 43.5L0 25.9235V2L76 33.7353V53.2647L0 85V60.5882Z" fill="#A100FF"/>
</svg>
