<svg width="28" height="28" viewBox="0 0 28 28" fill="none" xmlns="http://www.w3.org/2000/svg">
<mask id="mask0_3987_1303" style="mask-type:alpha" maskUnits="userSpaceOnUse" x="0" y="0" width="28" height="28">
<rect width="28" height="28" fill="#D9D9D9"/>
</mask>
<g mask="url(#mask0_3987_1303)">
<path d="M6.82504 19.95C7.81671 19.1917 8.92504 18.5938 10.15 18.1563C11.375 17.7188 12.6584 17.5 14 17.5C15.3417 17.5 16.625 17.7188 17.85 18.1563C19.075 18.5938 20.1834 19.1917 21.175 19.95C21.8556 19.1528 22.3855 18.2487 22.7646 17.2375C23.1438 16.2264 23.3334 15.1473 23.3334 14C23.3334 11.4139 22.4243 9.21185 20.6063 7.39379C18.7882 5.57574 16.5862 4.66671 14 4.66671C11.4139 4.66671 9.21185 5.57574 7.39379 7.39379C5.57574 9.21185 4.66671 11.4139 4.66671 14C4.66671 15.1473 4.85629 16.2264 5.23546 17.2375C5.61462 18.2487 6.14449 19.1528 6.82504 19.95ZM14 15.1667C12.8528 15.1667 11.8855 14.773 11.098 13.9855C10.3105 13.198 9.91671 12.2306 9.91671 11.0834C9.91671 9.93615 10.3105 8.96879 11.098 8.18129C11.8855 7.39379 12.8528 7.00004 14 7.00004C15.1473 7.00004 16.1146 7.39379 16.9021 8.18129C17.6896 8.96879 18.0834 9.93615 18.0834 11.0834C18.0834 12.2306 17.6896 13.198 16.9021 13.9855C16.1146 14.773 15.1473 15.1667 14 15.1667ZM14 25.6667C12.3862 25.6667 10.8695 25.3605 9.45004 24.748C8.0306 24.1355 6.79587 23.3042 5.74587 22.2542C4.69587 21.2042 3.86462 19.9695 3.25212 18.55C2.63962 17.1306 2.33337 15.6139 2.33337 14C2.33337 12.3862 2.63962 10.8695 3.25212 9.45004C3.86462 8.0306 4.69587 6.79587 5.74587 5.74587C6.79587 4.69587 8.0306 3.86462 9.45004 3.25212C10.8695 2.63962 12.3862 2.33337 14 2.33337C15.6139 2.33337 17.1306 2.63962 18.55 3.25212C19.9695 3.86462 21.2042 4.69587 22.2542 5.74587C23.3042 6.79587 24.1355 8.0306 24.748 9.45004C25.3605 10.8695 25.6667 12.3862 25.6667 14C25.6667 15.6139 25.3605 17.1306 24.748 18.55C24.1355 19.9695 23.3042 21.2042 22.2542 22.2542C21.2042 23.3042 19.9695 24.1355 18.55 24.748C17.1306 25.3605 15.6139 25.6667 14 25.6667ZM14 23.3334C15.0306 23.3334 16.0028 23.1827 16.9167 22.8813C17.8306 22.5799 18.6667 22.1473 19.425 21.5834C18.6667 21.0195 17.8306 20.5868 16.9167 20.2855C16.0028 19.9841 15.0306 19.8334 14 19.8334C12.9695 19.8334 11.9973 19.9841 11.0834 20.2855C10.1695 20.5868 9.33337 21.0195 8.57504 21.5834C9.33337 22.1473 10.1695 22.5799 11.0834 22.8813C11.9973 23.1827 12.9695 23.3334 14 23.3334ZM14 12.8334C14.5056 12.8334 14.9237 12.6681 15.2542 12.3375C15.5848 12.007 15.75 11.5889 15.75 11.0834C15.75 10.5778 15.5848 10.1598 15.2542 9.82921C14.9237 9.49865 14.5056 9.33337 14 9.33337C13.4945 9.33337 13.0764 9.49865 12.7459 9.82921C12.4153 10.1598 12.25 10.5778 12.25 11.0834C12.25 11.5889 12.4153 12.007 12.7459 12.3375C13.0764 12.6681 13.4945 12.8334 14 12.8334Z" fill="#FFFFFF"/>
</g>
</svg>
