<svg width="22" height="22" viewBox="0 0 22 22" fill="none" xmlns="http://www.w3.org/2000/svg">
<mask id="mask0_3196_30078" style="mask-type:alpha" maskUnits="userSpaceOnUse" x="0" y="0" width="22" height="22">
<rect width="22" height="22" fill="#D9D9D9"/>
</mask>
<g mask="url(#mask0_3196_30078)">
<path d="M10.082 15.583H11.9154V11.9163H15.582V10.083H11.9154V6.41634H10.082V10.083H6.41536V11.9163H10.082V15.583ZM10.9987 20.1663C9.73064 20.1663 8.53898 19.9257 7.4237 19.4445C6.30842 18.9632 5.33828 18.3101 4.51328 17.4851C3.68828 16.6601 3.03516 15.69 2.55391 14.5747C2.07266 13.4594 1.83203 12.2677 1.83203 10.9997C1.83203 9.73162 2.07266 8.53995 2.55391 7.42467C3.03516 6.3094 3.68828 5.33926 4.51328 4.51426C5.33828 3.68926 6.30842 3.03613 7.4237 2.55488C8.53898 2.07363 9.73064 1.83301 10.9987 1.83301C12.2668 1.83301 13.4584 2.07363 14.5737 2.55488C15.689 3.03613 16.6591 3.68926 17.4841 4.51426C18.3091 5.33926 18.9622 6.3094 19.4435 7.42467C19.9247 8.53995 20.1654 9.73162 20.1654 10.9997C20.1654 12.2677 19.9247 13.4594 19.4435 14.5747C18.9622 15.69 18.3091 16.6601 17.4841 17.4851C16.6591 18.3101 15.689 18.9632 14.5737 19.4445C13.4584 19.9257 12.2668 20.1663 10.9987 20.1663ZM10.9987 18.333C13.0459 18.333 14.7799 17.6226 16.2008 16.2018C17.6216 14.7809 18.332 13.0469 18.332 10.9997C18.332 8.95245 17.6216 7.21842 16.2008 5.79759C14.7799 4.37676 13.0459 3.66634 10.9987 3.66634C8.95148 3.66634 7.21745 4.37676 5.79661 5.79759C4.37578 7.21842 3.66536 8.95245 3.66536 10.9997C3.66536 13.0469 4.37578 14.7809 5.79661 16.2018C7.21745 17.6226 8.95148 18.333 10.9987 18.333Z" fill="white"/>
</g>
</svg>
