<svg width="118" height="118" viewBox="0 0 118 118" fill="none" xmlns="http://www.w3.org/2000/svg">
<path d="M108.714 59.5106C108.714 86.7926 86.6288 108.716 59.5091 108.716C32.227 108.716 10.304 86.6302 10.304 59.5106C10.304 32.2285 32.3894 10.3054 59.5091 10.3054C86.6288 10.3054 108.714 32.2285 108.714 59.5106Z" fill="#E6DCFC"/>
<path d="M59.6784 66.7673C69.544 66.7673 77.5417 57.1701 77.5417 45.3314C77.5417 33.4927 69.544 23.8955 59.6784 23.8955C49.8128 23.8955 41.8152 33.4927 41.8152 45.3314C41.8152 57.1701 49.8128 66.7673 59.6784 66.7673Z" fill="#7701BF"/>
<path d="M94.6899 84.9875C91.4745 78.5567 85.401 73.1977 77.5412 69.9824C75.3976 69.2678 72.8967 69.2678 71.1104 70.3396C67.5378 72.4832 63.9651 73.555 59.6779 73.555C55.3907 73.555 51.8181 72.4832 48.2454 70.3396C46.4591 69.6251 43.9583 69.2678 41.8147 70.3396C33.9549 73.555 27.8813 78.914 24.666 85.3448C22.1651 89.9892 26.095 95.3482 31.454 95.3482H87.9019C93.2608 95.3482 97.1907 89.9892 94.6899 84.9875Z" fill="#7701BF"/>
<path d="M59 116C90.4802 116 116 90.4802 116 59C116 27.5198 90.4802 2 59 2C27.5198 2 2 27.5198 2 59C2 90.4802 27.5198 116 59 116Z" stroke="#982588" stroke-width="3" stroke-miterlimit="10" stroke-linecap="round" stroke-linejoin="round"/>
</svg>
