<svg width="22" height="18" viewBox="0 0 22 18" fill="none" xmlns="http://www.w3.org/2000/svg">
<path d="M1 6V2C1 1.45 1.196 0.979002 1.588 0.587002C1.98 0.195002 2.45067 -0.000664969 3 1.69779e-06H19C19.55 1.69779e-06 20.021 0.196002 20.413 0.588002C20.805 0.980002 21.0007 1.45067 21 2V6H19V2H3V6H1ZM3 15C2.45 15 1.979 14.804 1.587 14.412C1.195 14.02 0.999337 13.5493 1 13V8H3V13H19V8H21V13C21 13.55 20.804 14.021 20.412 14.413C20.02 14.805 19.5493 15.0007 19 15H3ZM1 18C0.71667 18 0.479003 17.904 0.287003 17.712C0.0950034 17.52 -0.000663206 17.2827 3.46021e-06 17C3.46021e-06 16.7167 0.0960034 16.479 0.288003 16.287C0.480003 16.095 0.717337 15.9993 1 16H21C21.2833 16 21.521 16.096 21.713 16.288C21.905 16.48 22.0007 16.7173 22 17C22 17.2833 21.904 17.521 21.712 17.713C21.52 17.905 21.2827 18.0007 21 18H1ZM1 8V6H7C7.18334 6 7.35834 6.05 7.525 6.15C7.69167 6.25 7.81667 6.38334 7.9 6.55L9.075 8.875L12.15 3.5C12.2333 3.35 12.35 3.229 12.5 3.137C12.65 3.045 12.8167 2.99934 13 3C13.1833 3 13.3583 3.046 13.525 3.138C13.6917 3.23 13.8167 3.36734 13.9 3.55L15.125 6H21V8H14.5C14.3167 8 14.1417 7.954 13.975 7.862C13.8083 7.77 13.6833 7.63267 13.6 7.45L12.95 6.125L9.875 11.5C9.79167 11.6667 9.66667 11.7917 9.5 11.875C9.33334 11.9583 9.15834 12 8.975 12C8.79167 12 8.62067 11.95 8.462 11.85C8.30334 11.75 8.18267 11.6167 8.1 11.45L6.375 8H1Z" fill="white"/>
</svg>
