<svg width="40" height="40" viewBox="0 0 40 40" fill="none" xmlns="http://www.w3.org/2000/svg">
<rect width="40" height="40" rx="8" fill="#6B5CD1"/>
<mask id="mask0_3018_12348" style="mask-type:alpha" maskUnits="userSpaceOnUse" x="5" y="5" width="30" height="30">
<rect x="5.33463" y="5.33344" width="29.3333" height="29.3333" fill="#D9D9D9"/>
</mask>
<g mask="url(#mask0_3018_12348)">
<path d="M11.4457 32.2224C10.7735 32.2224 10.198 31.983 9.71934 31.5043C9.24063 31.0256 9.00128 30.4502 9.00128 29.778V12.6668C9.00128 11.9946 9.24063 11.4192 9.71934 10.9405C10.198 10.4618 10.7735 10.2224 11.4457 10.2224H12.6679V7.77795H15.1124V10.2224H24.8902V7.77795H27.3346V10.2224H28.5568C29.2291 10.2224 29.8045 10.4618 30.2832 10.9405C30.7619 11.4192 31.0013 11.9946 31.0013 12.6668V29.778C31.0013 30.4502 30.7619 31.0256 30.2832 31.5043C29.8045 31.983 29.2291 32.2224 28.5568 32.2224H11.4457ZM11.4457 29.778H28.5568V17.5557H11.4457V29.778ZM11.4457 15.1113H28.5568V12.6668H11.4457V15.1113ZM20.0013 22.4446C19.655 22.4446 19.3647 22.3275 19.1304 22.0932C18.8962 21.859 18.7791 21.5687 18.7791 21.2224C18.7791 20.8761 18.8962 20.5858 19.1304 20.3516C19.3647 20.1173 19.655 20.0002 20.0013 20.0002C20.3476 20.0002 20.6379 20.1173 20.8721 20.3516C21.1064 20.5858 21.2235 20.8761 21.2235 21.2224C21.2235 21.5687 21.1064 21.859 20.8721 22.0932C20.6379 22.3275 20.3476 22.4446 20.0013 22.4446ZM15.1124 22.4446C14.7661 22.4446 14.4758 22.3275 14.2416 22.0932C14.0073 21.859 13.8902 21.5687 13.8902 21.2224C13.8902 20.8761 14.0073 20.5858 14.2416 20.3516C14.4758 20.1173 14.7661 20.0002 15.1124 20.0002C15.4587 20.0002 15.749 20.1173 15.9832 20.3516C16.2175 20.5858 16.3346 20.8761 16.3346 21.2224C16.3346 21.5687 16.2175 21.859 15.9832 22.0932C15.749 22.3275 15.4587 22.4446 15.1124 22.4446ZM24.8902 22.4446C24.5439 22.4446 24.2536 22.3275 24.0193 22.0932C23.7851 21.859 23.6679 21.5687 23.6679 21.2224C23.6679 20.8761 23.7851 20.5858 24.0193 20.3516C24.2536 20.1173 24.5439 20.0002 24.8902 20.0002C25.2365 20.0002 25.5267 20.1173 25.761 20.3516C25.9953 20.5858 26.1124 20.8761 26.1124 21.2224C26.1124 21.5687 25.9953 21.859 25.761 22.0932C25.5267 22.3275 25.2365 22.4446 24.8902 22.4446ZM20.0013 27.3335C19.655 27.3335 19.3647 27.2164 19.1304 26.9821C18.8962 26.7479 18.7791 26.4576 18.7791 26.1113C18.7791 25.765 18.8962 25.4747 19.1304 25.2405C19.3647 25.0062 19.655 24.8891 20.0013 24.8891C20.3476 24.8891 20.6379 25.0062 20.8721 25.2405C21.1064 25.4747 21.2235 25.765 21.2235 26.1113C21.2235 26.4576 21.1064 26.7479 20.8721 26.9821C20.6379 27.2164 20.3476 27.3335 20.0013 27.3335ZM15.1124 27.3335C14.7661 27.3335 14.4758 27.2164 14.2416 26.9821C14.0073 26.7479 13.8902 26.4576 13.8902 26.1113C13.8902 25.765 14.0073 25.4747 14.2416 25.2405C14.4758 25.0062 14.7661 24.8891 15.1124 24.8891C15.4587 24.8891 15.749 25.0062 15.9832 25.2405C16.2175 25.4747 16.3346 25.765 16.3346 26.1113C16.3346 26.4576 16.2175 26.7479 15.9832 26.9821C15.749 27.2164 15.4587 27.3335 15.1124 27.3335ZM24.8902 27.3335C24.5439 27.3335 24.2536 27.2164 24.0193 26.9821C23.7851 26.7479 23.6679 26.4576 23.6679 26.1113C23.6679 25.765 23.7851 25.4747 24.0193 25.2405C24.2536 25.0062 24.5439 24.8891 24.8902 24.8891C25.2365 24.8891 25.5267 25.0062 25.761 25.2405C25.9953 25.4747 26.1124 25.765 26.1124 26.1113C26.1124 26.4576 25.9953 26.7479 25.761 26.9821C25.5267 27.2164 25.2365 27.3335 24.8902 27.3335Z" fill="white"/>
</g>
</svg>
