<svg width="44" height="44" viewBox="0 0 44 44" fill="none" xmlns="http://www.w3.org/2000/svg">
<mask id="mask0_1549_2502" style="mask-type:alpha" maskUnits="userSpaceOnUse" x="0" y="0" width="44" height="44">
<rect width="44" height="44" fill="#D9D9D9"/>
</mask>
<g mask="url(#mask0_1549_2502)">
<path d="M9.16667 40.3332C8.15833 40.3332 7.29514 39.9741 6.57708 39.2561C5.85903 38.538 5.5 37.6748 5.5 36.6665V10.9998C5.5 9.9915 5.85903 9.12831 6.57708 8.41025C7.29514 7.6922 8.15833 7.33317 9.16667 7.33317H11V3.6665H14.6667V7.33317H29.3333V3.6665H33V7.33317H34.8333C35.8417 7.33317 36.7049 7.6922 37.4229 8.41025C38.141 9.12831 38.5 9.9915 38.5 10.9998V36.6665C38.5 37.6748 38.141 38.538 37.4229 39.2561C36.7049 39.9741 35.8417 40.3332 34.8333 40.3332H9.16667ZM9.16667 36.6665H34.8333V18.3332H9.16667V36.6665ZM9.16667 14.6665H34.8333V10.9998H9.16667V14.6665ZM22 25.6665C21.4806 25.6665 21.0451 25.4908 20.6938 25.1394C20.3424 24.788 20.1667 24.3526 20.1667 23.8332C20.1667 23.3137 20.3424 22.8783 20.6938 22.5269C21.0451 22.1755 21.4806 21.9998 22 21.9998C22.5194 21.9998 22.9549 22.1755 23.3063 22.5269C23.6576 22.8783 23.8333 23.3137 23.8333 23.8332C23.8333 24.3526 23.6576 24.788 23.3063 25.1394C22.9549 25.4908 22.5194 25.6665 22 25.6665ZM14.6667 25.6665C14.1472 25.6665 13.7118 25.4908 13.3604 25.1394C13.009 24.788 12.8333 24.3526 12.8333 23.8332C12.8333 23.3137 13.009 22.8783 13.3604 22.5269C13.7118 22.1755 14.1472 21.9998 14.6667 21.9998C15.1861 21.9998 15.6215 22.1755 15.9729 22.5269C16.3243 22.8783 16.5 23.3137 16.5 23.8332C16.5 24.3526 16.3243 24.788 15.9729 25.1394C15.6215 25.4908 15.1861 25.6665 14.6667 25.6665ZM29.3333 25.6665C28.8139 25.6665 28.3785 25.4908 28.0271 25.1394C27.6757 24.788 27.5 24.3526 27.5 23.8332C27.5 23.3137 27.6757 22.8783 28.0271 22.5269C28.3785 22.1755 28.8139 21.9998 29.3333 21.9998C29.8528 21.9998 30.2882 22.1755 30.6396 22.5269C30.991 22.8783 31.1667 23.3137 31.1667 23.8332C31.1667 24.3526 30.991 24.788 30.6396 25.1394C30.2882 25.4908 29.8528 25.6665 29.3333 25.6665ZM22 32.9998C21.4806 32.9998 21.0451 32.8241 20.6938 32.4728C20.3424 32.1214 20.1667 31.6859 20.1667 31.1665C20.1667 30.6471 20.3424 30.2116 20.6938 29.8603C21.0451 29.5089 21.4806 29.3332 22 29.3332C22.5194 29.3332 22.9549 29.5089 23.3063 29.8603C23.6576 30.2116 23.8333 30.6471 23.8333 31.1665C23.8333 31.6859 23.6576 32.1214 23.3063 32.4728C22.9549 32.8241 22.5194 32.9998 22 32.9998ZM14.6667 32.9998C14.1472 32.9998 13.7118 32.8241 13.3604 32.4728C13.009 32.1214 12.8333 31.6859 12.8333 31.1665C12.8333 30.6471 13.009 30.2116 13.3604 29.8603C13.7118 29.5089 14.1472 29.3332 14.6667 29.3332C15.1861 29.3332 15.6215 29.5089 15.9729 29.8603C16.3243 30.2116 16.5 30.6471 16.5 31.1665C16.5 31.6859 16.3243 32.1214 15.9729 32.4728C15.6215 32.8241 15.1861 32.9998 14.6667 32.9998ZM29.3333 32.9998C28.8139 32.9998 28.3785 32.8241 28.0271 32.4728C27.6757 32.1214 27.5 31.6859 27.5 31.1665C27.5 30.6471 27.6757 30.2116 28.0271 29.8603C28.3785 29.5089 28.8139 29.3332 29.3333 29.3332C29.8528 29.3332 30.2882 29.5089 30.6396 29.8603C30.991 30.2116 31.1667 30.6471 31.1667 31.1665C31.1667 31.6859 30.991 32.1214 30.6396 32.4728C30.2882 32.8241 29.8528 32.9998 29.3333 32.9998Z" fill="white"/>
</g>
</svg>
