<svg width="21" height="18" viewBox="0 0 21 18" fill="none" xmlns="http://www.w3.org/2000/svg">
<path fill-rule="evenodd" clip-rule="evenodd" d="M19.1739 18H1.82609C0.81763 18 0 17.1516 0 16.1053V1.89474C0 0.848368 0.81763 0 1.82609 0H19.1739C20.1824 0 21 0.848368 21 1.89474V16.1053C21 17.1516 20.1824 18 19.1739 18ZM20.087 1.89474C20.087 1.37179 19.6779 0.947368 19.1739 0.947368H1.82609C1.32209 0.947368 0.913043 1.37179 0.913043 1.89474V4.73684H20.087V1.89474ZM20.087 5.68421H0.913043V16.1053C0.913043 16.6282 1.32209 17.0526 1.82609 17.0526H19.1739C19.6779 17.0526 20.087 16.6282 20.087 16.1053V5.68421ZM18.2609 12.3158H17.3478C17.0958 12.3158 16.8913 12.1041 16.8913 11.8421V10.8947C16.8913 10.6333 17.0958 10.4211 17.3478 10.4211H18.2609C18.5133 10.4211 18.7174 10.6333 18.7174 10.8947V11.8421C18.7174 12.1041 18.5133 12.3158 18.2609 12.3158ZM18.2609 9H17.3478C17.0958 9 16.8913 8.78826 16.8913 8.52632V7.57895C16.8913 7.317 17.0958 7.10526 17.3478 7.10526H18.2609C18.5133 7.10526 18.7174 7.317 18.7174 7.57895V8.52632C18.7174 8.78826 18.5133 9 18.2609 9ZM14.6087 12.3158H13.6957C13.4437 12.3158 13.2391 12.1041 13.2391 11.8421V10.8947C13.2391 10.6333 13.4437 10.4211 13.6957 10.4211H14.6087C14.8612 10.4211 15.0652 10.6333 15.0652 10.8947V11.8421C15.0652 12.1041 14.8612 12.3158 14.6087 12.3158ZM14.6087 9H13.6957C13.4437 9 13.2391 8.78826 13.2391 8.52632V7.57895C13.2391 7.317 13.4437 7.10526 13.6957 7.10526H14.6087C14.8612 7.10526 15.0652 7.317 15.0652 7.57895V8.52632C15.0652 8.78826 14.8612 9 14.6087 9ZM10.9565 12.3158H10.0435C9.79102 12.3158 9.58696 12.1041 9.58696 11.8421V10.8947C9.58696 10.6333 9.79102 10.4211 10.0435 10.4211H10.9565C11.209 10.4211 11.413 10.6333 11.413 10.8947V11.8421C11.413 12.1041 11.209 12.3158 10.9565 12.3158ZM10.9565 9H10.0435C9.79102 9 9.58696 8.78826 9.58696 8.52632V7.57895C9.58696 7.317 9.79102 7.10526 10.0435 7.10526H10.9565C11.209 7.10526 11.413 7.317 11.413 7.57895V8.52632C11.413 8.78826 11.209 9 10.9565 9ZM7.30435 15.6316H6.3913C6.13885 15.6316 5.93478 15.4198 5.93478 15.1579V14.2105C5.93478 13.9486 6.13885 13.7368 6.3913 13.7368H7.30435C7.5568 13.7368 7.76087 13.9486 7.76087 14.2105V15.1579C7.76087 15.4198 7.5568 15.6316 7.30435 15.6316ZM7.30435 12.3158H6.3913C6.13885 12.3158 5.93478 12.1041 5.93478 11.8421V10.8947C5.93478 10.6333 6.13885 10.4211 6.3913 10.4211H7.30435C7.5568 10.4211 7.76087 10.6333 7.76087 10.8947V11.8421C7.76087 12.1041 7.5568 12.3158 7.30435 12.3158ZM7.30435 9H6.3913C6.13885 9 5.93478 8.78826 5.93478 8.52632V7.57895C5.93478 7.317 6.13885 7.10526 6.3913 7.10526H7.30435C7.5568 7.10526 7.76087 7.317 7.76087 7.57895V8.52632C7.76087 8.78826 7.5568 9 7.30435 9ZM3.65217 15.6316H2.73913C2.48667 15.6316 2.28261 15.4198 2.28261 15.1579V14.2105C2.28261 13.9486 2.48667 13.7368 2.73913 13.7368H3.65217C3.90463 13.7368 4.1087 13.9486 4.1087 14.2105V15.1579C4.1087 15.4198 3.90463 15.6316 3.65217 15.6316ZM3.65217 12.3158H2.73913C2.48667 12.3158 2.28261 12.1041 2.28261 11.8421V10.8947C2.28261 10.6333 2.48667 10.4211 2.73913 10.4211H3.65217C3.90463 10.4211 4.1087 10.6333 4.1087 10.8947V11.8421C4.1087 12.1041 3.90463 12.3158 3.65217 12.3158ZM10.0435 13.7368H10.9565C11.209 13.7368 11.413 13.9486 11.413 14.2105V15.1579C11.413 15.4198 11.209 15.6316 10.9565 15.6316H10.0435C9.79102 15.6316 9.58696 15.4198 9.58696 15.1579V14.2105C9.58696 13.9486 9.79102 13.7368 10.0435 13.7368Z" fill="#747BA9"/>
</svg>
