<svg width="25" height="25" viewBox="0 0 25 25" fill="none" xmlns="http://www.w3.org/2000/svg">
<circle cx="12.5" cy="12.5" r="12.5" fill="#8392B6"/>
<path d="M11.113 6.99952L10.9836 7.07079V7.21852V8.80668C10.9836 9.35497 10.5136 9.8202 9.91293 9.8202H5.63048C5.17234 9.8202 4.75807 10.1636 4.75807 10.6355V17.7017C4.75807 18.1736 5.17234 18.517 5.63048 18.517H19.6058C20.0639 18.517 20.4782 18.1736 20.4782 17.7017V10.6355C20.4782 10.1636 20.0639 9.8202 19.6058 9.8202H15.59V9.62195L19.6058 9.62194C20.2065 9.62194 20.6764 10.0871 20.6764 10.6354V17.7017C20.6764 18.25 20.2065 18.7152 19.6058 18.7152H5.63048C5.02979 18.7152 4.55981 18.25 4.55981 17.7017V10.6354C4.55981 10.0872 5.02979 9.62192 5.63048 9.62192H9.91293C10.3711 9.62192 10.7853 9.27854 10.7853 8.80665V7.20878V7.06621L10.6626 6.99361C10.5396 6.92081 10.4675 6.80004 10.4675 6.67086C10.4675 6.47135 10.644 6.28418 10.894 6.28418C11.144 6.28418 11.3204 6.47135 11.3204 6.67086C11.3204 6.80337 11.2438 6.9275 11.113 6.99952Z" stroke="white" stroke-width="0.5"/>
<path d="M14.2499 6.99952L14.3793 7.07079V7.21852V8.80668C14.3793 9.27613 14.7238 9.68469 15.2 9.79248V9.5873C14.8514 9.489 14.5775 9.1903 14.5775 8.80665V7.20878V7.06621L14.7002 6.99361C14.8233 6.92081 14.8954 6.80004 14.8954 6.67086C14.8954 6.47135 14.7189 6.28418 14.4689 6.28418C14.2189 6.28418 14.0424 6.47135 14.0424 6.67086C14.0424 6.80337 14.1191 6.9275 14.2499 6.99952Z" stroke="white" stroke-width="0.5"/>
<path d="M8.99976 13.8531C8.99976 14.2266 9.30261 14.5294 9.67622 14.5294C10.0498 14.5294 10.3527 14.2266 10.3527 13.8531C10.3527 13.4796 10.0498 13.1768 9.67622 13.1768C9.30263 13.1768 8.99976 13.4796 8.99976 13.8531Z" fill="white"/>
<path d="M16.2377 13.8531C16.2377 13.4796 15.9348 13.1768 15.5612 13.1768C15.1876 13.1768 14.8848 13.4796 14.8848 13.8531C14.8848 14.2266 15.1876 14.5294 15.5612 14.5294C15.9348 14.5294 16.2377 14.2266 16.2377 13.8531Z" fill="white"/>
</svg>
