<svg width="38" height="30" viewBox="0 0 38 30" fill="none" xmlns="http://www.w3.org/2000/svg">
<path d="M18.9998 24.1668C19.5193 24.1668 19.9547 23.9911 20.3061 23.6397C20.6575 23.2884 20.8332 22.8529 20.8332 22.3335C20.8332 21.8141 20.6575 21.3786 20.3061 21.0272C19.9547 20.6759 19.5193 20.5002 18.9998 20.5002C18.4804 20.5002 18.045 20.6759 17.6936 21.0272C17.3422 21.3786 17.1665 21.8141 17.1665 22.3335C17.1665 22.8529 17.3422 23.2884 17.6936 23.6397C18.045 23.9911 18.4804 24.1668 18.9998 24.1668ZM18.9998 16.8335C19.5193 16.8335 19.9547 16.6578 20.3061 16.3064C20.6575 15.955 20.8332 15.5196 20.8332 15.0002C20.8332 14.4807 20.6575 14.0453 20.3061 13.6939C19.9547 13.3425 19.5193 13.1668 18.9998 13.1668C18.4804 13.1668 18.045 13.3425 17.6936 13.6939C17.3422 14.0453 17.1665 14.4807 17.1665 15.0002C17.1665 15.5196 17.3422 15.955 17.6936 16.3064C18.045 16.6578 18.4804 16.8335 18.9998 16.8335ZM18.9998 9.50016C19.5193 9.50016 19.9547 9.32447 20.3061 8.97308C20.6575 8.62169 20.8332 8.18627 20.8332 7.66683C20.8332 7.14739 20.6575 6.71197 20.3061 6.36058C19.9547 6.00919 19.5193 5.8335 18.9998 5.8335C18.4804 5.8335 18.045 6.00919 17.6936 6.36058C17.3422 6.71197 17.1665 7.14739 17.1665 7.66683C17.1665 8.18627 17.3422 8.62169 17.6936 8.97308C18.045 9.32447 18.4804 9.50016 18.9998 9.50016ZM33.6665 29.6668H4.33317C3.32484 29.6668 2.46164 29.3078 1.74359 28.5897C1.02553 27.8717 0.666504 27.0085 0.666504 26.0002V18.6668C1.67484 18.6668 2.53803 18.3078 3.25609 17.5897C3.97414 16.8717 4.33317 16.0085 4.33317 15.0002C4.33317 13.9918 3.97414 13.1286 3.25609 12.4106C2.53803 11.6925 1.67484 11.3335 0.666504 11.3335V4.00016C0.666504 2.99183 1.02553 2.12864 1.74359 1.41058C2.46164 0.692524 3.32484 0.333496 4.33317 0.333496H33.6665C34.6748 0.333496 35.538 0.692524 36.2561 1.41058C36.9741 2.12864 37.3332 2.99183 37.3332 4.00016V11.3335C36.3248 11.3335 35.4616 11.6925 34.7436 12.4106C34.0255 13.1286 33.6665 13.9918 33.6665 15.0002C33.6665 16.0085 34.0255 16.8717 34.7436 17.5897C35.4616 18.3078 36.3248 18.6668 37.3332 18.6668V26.0002C37.3332 27.0085 36.9741 27.8717 36.2561 28.5897C35.538 29.3078 34.6748 29.6668 33.6665 29.6668ZM33.6665 26.0002V21.3252C32.5359 20.6529 31.6422 19.7592 30.9853 18.6439C30.3283 17.5286 29.9998 16.3141 29.9998 15.0002C29.9998 13.6863 30.3283 12.4717 30.9853 11.3564C31.6422 10.2411 32.5359 9.34739 33.6665 8.67516V4.00016H4.33317V8.67516C5.46373 9.34739 6.35748 10.2411 7.01442 11.3564C7.67137 12.4717 7.99984 13.6863 7.99984 15.0002C7.99984 16.3141 7.67137 17.5286 7.01442 18.6439C6.35748 19.7592 5.46373 20.6529 4.33317 21.3252V26.0002H33.6665Z" fill="white"/>
</svg>
