<svg width="24" height="34" viewBox="0 0 24 34" fill="none" xmlns="http://www.w3.org/2000/svg">
<path fill-rule="evenodd" clip-rule="evenodd" d="M9.04214 2.8846C9.07336 1.28616 10.3789 0 11.9848 0C13.582 0 14.8821 1.27232 14.9268 2.85875C15.9081 3.38128 16.5761 4.41457 16.5761 5.60389L7.44037 5.60389C7.44037 4.43388 8.08687 3.41487 9.04214 2.8846ZM13.3268 2.75482C13.3268 3.49604 12.7259 4.09692 11.9847 4.09692C11.2434 4.09692 10.6426 3.49604 10.6426 2.75482C10.6426 2.01359 11.2434 1.41271 11.9847 1.41271C12.7259 1.41271 13.3268 2.01359 13.3268 2.75482ZM17.3767 3.06085V5.60379L21.4263 5.60378V31.457L2.54308 31.457V5.60379L6.59281 5.60378L6.59281 3.06085L0 3.06085V5.60379H0.000141894V31.457H0V33.9999H0.000141894V34H2.54308V33.9999L21.4263 33.9999V34H23.9693V33.9999H23.9696V31.457H23.9693V5.60378H23.9695V3.06085L17.3767 3.06085Z" fill="#738395"/>
</svg>
