<svg width="66" height="70" viewBox="0 0 66 70" fill="none" xmlns="http://www.w3.org/2000/svg">
<path d="M49.2294 42.4573C41.2093 42.4573 44.9766 33.693 48.4379 28.3677C48.8138 27.7894 49.645 27.7894 50.0209 28.3677C53.4822 33.693 57.2495 42.4573 49.2294 42.4573Z" fill="#8799C5"/>
<path d="M49.2294 57.7142C41.2093 57.7142 44.9766 48.9499 48.4379 43.6245C48.8138 43.0462 49.645 43.0462 50.0209 43.6245C53.4822 48.9499 57.2495 57.7142 49.2294 57.7142Z" fill="#8799C5"/>
<path d="M38.6758 6.64493L46.2329 19.7343L17.2705 36.4557C13.656 38.5426 9.03413 37.3041 6.94728 33.6896C4.86043 30.0751 6.09886 25.4532 9.71339 23.3664L38.6758 6.64493Z" stroke="#8799C5"/>
<path d="M23.6669 17.1429L38.5746 22.3923L17.1961 34.7352C14.3264 36.392 10.6568 35.4088 8.99997 32.539V32.539C7.34312 29.6693 8.32637 25.9997 11.1961 24.3429L23.6669 17.1429Z" fill="#8799C5"/>
<rect x="37.8577" y="0.799805" width="26.0571" height="5.14286" rx="2.57143" transform="rotate(60 37.8577 0.799805)" fill="#8799C5"/>
<path d="M66 62.1716C66 66.0534 62.8532 69.2002 58.9714 69.2002L8.74284 69.2002C4.86107 69.2002 1.71428 66.0534 1.71428 62.1716V62.1716C1.71428 58.2898 4.86108 55.143 8.74285 55.143L43.5429 55.1431V55.1431C45.7305 60.2475 52.841 60.5802 55.4957 55.7023L55.8 55.1431L58.9714 55.1431C62.8532 55.1431 66 58.2899 66 62.1716V62.1716Z" fill="#8799C5"/>
</svg>
