<svg width="45" height="50" viewBox="0 0 45 50" fill="none" xmlns="http://www.w3.org/2000/svg">
<path d="M36.1111 50H8.33333C3.73889 50 0 46.2611 0 41.6667V8.33333C0 3.73889 3.73889 0 8.33333 0H36.1111C40.7056 0 44.4444 3.73889 44.4444 8.33333V41.6667C44.4444 46.2611 40.7056 50 36.1111 50ZM8.33333 5.55556C6.80278 5.55556 5.55556 6.80278 5.55556 8.33333V41.6667C5.55556 43.1972 6.80278 44.4444 8.33333 44.4444H36.1111C37.6417 44.4444 38.8889 43.1972 38.8889 41.6667V8.33333C38.8889 6.80278 37.6417 5.55556 36.1111 5.55556H8.33333Z" fill="#8799C5"/>
<path d="M33.3333 22.2231H11.1111C10.3444 22.2231 9.72217 21.6009 9.72217 20.8342C9.72217 20.0675 10.3444 19.4453 11.1111 19.4453H33.3333C34.0999 19.4453 34.7222 20.0675 34.7222 20.8342C34.7222 21.6009 34.0999 22.2231 33.3333 22.2231Z" fill="#8799C5"/>
<path d="M33.3333 13.8891H11.1111C10.3444 13.8891 9.72217 13.2669 9.72217 12.5002C9.72217 11.7336 10.3444 11.1113 11.1111 11.1113H33.3333C34.0999 11.1113 34.7222 11.7336 34.7222 12.5002C34.7222 13.2669 34.0999 13.8891 33.3333 13.8891Z" fill="#8799C5"/>
<path d="M33.3333 30.5551H11.1111C10.3444 30.5551 9.72217 29.9329 9.72217 29.1662C9.72217 28.3996 10.3444 27.7773 11.1111 27.7773H33.3333C34.0999 27.7773 34.7222 28.3996 34.7222 29.1662C34.7222 29.9329 34.0999 30.5551 33.3333 30.5551Z" fill="#8799C5"/>
<path d="M33.3333 38.8891H11.1111C10.3444 38.8891 9.72217 38.2669 9.72217 37.5002C9.72217 36.7336 10.3444 36.1113 11.1111 36.1113H33.3333C34.0999 36.1113 34.7222 36.7336 34.7222 37.5002C34.7222 38.2669 34.0999 38.8891 33.3333 38.8891Z" fill="#8799C5"/>
</svg>
