<svg width="21" height="20" viewBox="0 0 21 20" fill="none" xmlns="http://www.w3.org/2000/svg">
<path d="M9.12028 7.473C9.33809 7.25573 9.62838 7.12642 9.93558 7.10982C10.2428 7.09321 10.5453 7.19048 10.7853 7.383L10.8863 7.473L13.7103 10.293C13.8915 10.4725 13.9973 10.7146 14.006 10.9695C14.0146 11.2245 13.9255 11.4732 13.7568 11.6646C13.5881 11.856 13.3527 11.9757 13.0987 11.9992C12.8446 12.0227 12.5912 11.9482 12.3903 11.791L12.2963 11.708L11.0033 10.416V19C11.003 19.2549 10.9054 19.5 10.7304 19.6854C10.5555 19.8707 10.3163 19.9822 10.0619 19.9972C9.80744 20.0121 9.5569 19.9293 9.36144 19.7657C9.16599 19.6021 9.04038 19.3701 9.01028 19.117L9.00328 19V10.416L7.71028 11.708C7.53056 11.8889 7.28853 11.9943 7.03367 12.0027C6.77882 12.0111 6.53039 11.9217 6.3392 11.753C6.148 11.5843 6.02848 11.3489 6.00507 11.095C5.98167 10.8411 6.05614 10.5878 6.21328 10.387L6.29628 10.292L9.12028 7.473ZM9.50328 2.26951e-08C12.2873 2.26951e-08 14.6633 1.75 15.5893 4.212C16.9728 4.58982 18.1752 5.45072 18.9787 6.63872C19.7822 7.82672 20.1335 9.26322 19.9691 10.688C19.8047 12.1127 19.1353 13.4314 18.0824 14.4051C17.0294 15.3789 15.6625 15.9433 14.2293 15.996L14.0033 16H13.0033V14C13.58 14.0001 14.1446 13.8339 14.6293 13.5213C15.1141 13.2087 15.4984 12.7631 15.7364 12.2377C15.9743 11.7123 16.0558 11.1294 15.971 10.5589C15.8862 9.98844 15.6388 9.45447 15.2583 9.021L15.1233 8.877L12.2993 6.058C11.7141 5.47397 10.9284 5.1349 10.102 5.10982C9.27564 5.08474 8.47078 5.37553 7.85128 5.923L7.70728 6.058L4.88328 8.878C4.47609 9.28478 4.19451 9.80011 4.07214 10.3625C3.94976 10.9249 3.99174 11.5106 4.19309 12.0498C4.39443 12.589 4.74663 13.0589 5.20767 13.4035C5.66871 13.748 6.21913 13.9527 6.79328 13.993L7.00328 14V16H5.00328C3.85399 16.0008 2.73953 15.6056 1.84747 14.8809C0.955411 14.1563 0.340222 13.1465 0.105445 12.0214C-0.129332 10.8964 0.0306373 9.72476 0.558429 8.70383C1.08622 7.6829 1.94961 6.87496 3.00328 6.416C3.02537 4.70669 3.71993 3.07489 4.93653 1.87401C6.15313 0.673134 7.79382 -0.000142727 9.50328 2.26951e-08Z" fill="white"/>
</svg>
