<svg width="32" height="44" viewBox="0 0 32 44" fill="none" xmlns="http://www.w3.org/2000/svg">
<path d="M23.8499 10.1924L23.1896 9.53198L20.7108 12.0109L19.7775 11.0779L19.1172 11.7383L20.7108 13.3318L23.8499 10.1924Z" fill="white"/>
<path d="M0 0V44H32V10.3256H31.0661V43.066H0.933947V0.934012H31.0661V6.43385H32V0H0Z" fill="#57C8F2"/>
<path d="M32.0004 7.82983H31.0664V9.049H32.0004V7.82983Z" fill="#F1F1F1"/>
<path d="M1.76172 35.777V41.5368H26.0983L30.2358 37.5804V3.445H20.5911C20.641 3.17208 20.6684 2.8915 20.6684 2.60439V1.85718H11.329V2.60439C11.329 2.8915 11.3563 3.17208 11.4061 3.445H1.76172V34.2264H2.69567V4.37901H11.6801C12.3801 6.07639 14.0518 7.27445 15.9987 7.27445C17.9456 7.27445 19.6172 6.07639 20.3172 4.37901H29.3017V36.8359H25.3504V39.4201H26.2844V37.7699H28.6861L25.7235 40.6028H2.69567V35.777H1.76172ZM15.9987 6.34044C14.0013 6.34044 12.3651 4.76485 12.2675 2.79119H19.7297C19.6321 4.76485 17.996 6.34044 15.9987 6.34044Z" fill="#F1F1F1"/>
<path d="M18.1477 3.44507H13.8516V4.37908H18.1477V3.44507Z" fill="#58C8F3"/>
<path d="M9.86133 13.8643V21.0057H16.5708V20.0717H10.7953V13.8643H9.86133Z" fill="#57C8F2"/>
<path d="M12.8884 10.9412V10.9417H9.86133V12.6404H10.7953V11.8757H12.8884V17.2122H17.2233V11.8757H17.6268C17.7993 12.9725 18.4299 13.919 19.316 14.5125V20.0715H17.9826V21.0055H20.25V14.9704C20.6377 15.0998 21.052 15.1709 21.4827 15.1709C23.6352 15.1709 25.3863 13.4196 25.3863 11.267C25.3863 9.11431 23.6352 7.36304 21.4827 7.36304C19.4398 7.36304 17.7596 8.94086 17.5937 10.9416H17.2232V10.9411H12.8884V10.9412ZM16.2893 16.2781H13.8224V11.8756H16.2893V16.2781ZM21.4827 8.29705C23.1202 8.29705 24.4524 9.62942 24.4524 11.267C24.4524 12.9046 23.1202 14.2369 21.4827 14.2369C19.8452 14.2369 18.513 12.9046 18.513 11.267C18.513 9.62942 19.8452 8.29705 21.4827 8.29705Z" fill="#63CFF5"/>
<path d="M8.31755 25.1697V24.2356H5.38477V29.1159H10.2646V25.703L11.3961 24.5713L10.7358 23.9109L8.20911 26.4377L7.41171 25.6403L6.75141 26.3007L8.20911 27.7585L9.33069 26.637V28.1818H6.31871V25.1697H8.31755Z" fill="#63CFF5"/>
<path d="M5.38477 36.244H10.2646V32.8312L11.3961 31.6996L10.7358 31.0391L8.20911 33.5658L7.41171 32.7685L6.75141 33.4288L8.20911 34.8868L9.33069 33.7653V35.31H6.31871V32.2979H8.31755V31.3639H5.38477V36.244Z" fill="#63CFF5"/>
<path d="M25.818 26.4695H13.0391V27.4035H25.818V26.4695Z" fill="#63CFF5"/>
<path d="M25.818 24.7842H13.0391V25.7182H25.818V24.7842Z" fill="#63CFF5"/>
<path d="M25.818 33.0491H13.0391V33.9831H25.818V33.0491Z" fill="#63CFF5"/>
<path d="M25.818 31.364H13.0391V32.298H25.818V31.364Z" fill="#63CFF5"/>
</svg>
