<svg width="15" height="14" viewBox="0 0 15 14" fill="none" xmlns="http://www.w3.org/2000/svg">
<path fill-rule="evenodd" clip-rule="evenodd" d="M14.6615 13.83C14.5563 13.9351 14.4115 14 14.2526 14H9.58057C9.25988 14 8.99992 13.7411 8.99992 13.4167C8.99992 13.0945 9.2619 12.8333 9.58057 12.8333H13.6666V8.74732C13.6666 8.42663 13.9255 8.16667 14.2499 8.16667C14.5721 8.16667 14.8333 8.42865 14.8333 8.74732V13.4194C14.8333 13.5793 14.7689 13.7241 14.6641 13.8291L14.6615 13.83ZM14.6623 0.169142C14.5573 0.0643736 14.4125 0 14.2526 0L9.58057 0C9.2619 0 8.99992 0.261167 8.99992 0.583333C8.99992 0.907745 9.25988 1.16667 9.58057 1.16667H13.6666V5.25268C13.6666 5.57135 13.9278 5.83333 14.2499 5.83333C14.5743 5.83333 14.8333 5.57337 14.8333 5.25268V0.580649C14.8333 0.421756 14.7683 0.276957 14.6633 0.171701L14.6623 0.169142ZM1.00419 13.8309C1.1092 13.9356 1.254 14 1.4139 14H6.08594C6.40461 14 6.66658 13.7388 6.66658 13.4167C6.66658 13.0923 6.40662 12.8333 6.08594 12.8333H1.99992V8.74732C1.99992 8.42865 1.73875 8.16667 1.41659 8.16667C1.09217 8.16667 0.833252 8.42663 0.833252 8.74732V13.4194C0.833252 13.5782 0.898182 13.723 1.00323 13.8283L1.00419 13.8309ZM1.00239 0.170939C0.897626 0.275946 0.833252 0.420749 0.833252 0.580649V5.25268C0.833252 5.57135 1.09442 5.83333 1.41659 5.83333C1.741 5.83333 1.99992 5.57337 1.99992 5.25268V1.16667H6.08594C6.40461 1.16667 6.66658 0.905499 6.66658 0.583333C6.66658 0.258921 6.40662 0 6.08594 0L1.4139 0C1.25501 0 1.11021 0.06493 1.00495 0.169977L1.00239 0.170939Z" fill="white"/>
</svg>
