<svg width="411" height="103" viewBox="0 0 411 103" fill="none" xmlns="http://www.w3.org/2000/svg">
<path d="M122.562 35.75V53.125C121.917 53.9792 120.906 54.9167 119.531 55.9375C118.177 56.9375 116.375 57.8021 114.125 58.5312C111.875 59.2604 109.073 59.625 105.719 59.625C102.865 59.625 100.25 59.1458 97.875 58.1875C95.5 57.2083 93.4479 55.7812 91.7188 53.9062C90.0104 52.0312 88.6875 49.75 87.75 47.0625C86.8125 44.3542 86.3438 41.2708 86.3438 37.8125V34.6562C86.3438 31.2188 86.7708 28.1562 87.625 25.4688C88.5 22.7604 89.75 20.4688 91.375 18.5938C93 16.7188 94.9583 15.3021 97.25 14.3438C99.5625 13.3646 102.177 12.875 105.094 12.875C108.823 12.875 111.906 13.5 114.344 14.75C116.802 15.9792 118.698 17.6875 120.031 19.875C121.365 22.0625 122.208 24.5625 122.562 27.375H114.875C114.625 25.7917 114.135 24.375 113.406 23.125C112.698 21.875 111.677 20.8958 110.344 20.1875C109.031 19.4583 107.323 19.0938 105.219 19.0938C103.406 19.0938 101.812 19.4375 100.438 20.125C99.0625 20.8125 97.9167 21.8229 97 23.1562C96.1042 24.4896 95.4271 26.1146 94.9688 28.0312C94.5104 29.9479 94.2812 32.1354 94.2812 34.5938V37.8125C94.2812 40.3125 94.5417 42.5312 95.0625 44.4688C95.6042 46.4062 96.375 48.0417 97.375 49.375C98.3958 50.7083 99.6354 51.7188 101.094 52.4062C102.552 53.0729 104.198 53.4062 106.031 53.4062C107.823 53.4062 109.292 53.2604 110.438 52.9688C111.583 52.6562 112.49 52.2917 113.156 51.875C113.844 51.4375 114.375 51.0208 114.75 50.625V41.5938H105.281V35.75H122.562ZM145.406 59.625C142.906 59.625 140.646 59.2188 138.625 58.4062C136.625 57.5729 134.917 56.4167 133.5 54.9375C132.104 53.4583 131.031 51.7188 130.281 49.7188C129.531 47.7188 129.156 45.5625 129.156 43.25V42C129.156 39.3542 129.542 36.9583 130.312 34.8125C131.083 32.6667 132.156 30.8333 133.531 29.3125C134.906 27.7708 136.531 26.5938 138.406 25.7812C140.281 24.9688 142.312 24.5625 144.5 24.5625C146.917 24.5625 149.031 24.9688 150.844 25.7812C152.656 26.5938 154.156 27.7396 155.344 29.2188C156.552 30.6771 157.448 32.4167 158.031 34.4375C158.635 36.4583 158.938 38.6875 158.938 41.125V44.3438H132.812V38.9375H151.5V38.3438C151.458 36.9896 151.188 35.7188 150.688 34.5312C150.208 33.3438 149.469 32.3854 148.469 31.6562C147.469 30.9271 146.135 30.5625 144.469 30.5625C143.219 30.5625 142.104 30.8333 141.125 31.375C140.167 31.8958 139.365 32.6562 138.719 33.6562C138.073 34.6562 137.573 35.8646 137.219 37.2812C136.885 38.6771 136.719 40.25 136.719 42V43.25C136.719 44.7292 136.917 46.1042 137.312 47.375C137.729 48.625 138.333 49.7188 139.125 50.6562C139.917 51.5938 140.875 52.3333 142 52.875C143.125 53.3958 144.406 53.6562 145.844 53.6562C147.656 53.6562 149.271 53.2917 150.688 52.5625C152.104 51.8333 153.333 50.8021 154.375 49.4688L158.344 53.3125C157.615 54.375 156.667 55.3958 155.5 56.375C154.333 57.3333 152.906 58.1146 151.219 58.7188C149.552 59.3229 147.615 59.625 145.406 59.625ZM172.281 32.4062V59H164.75V25.1875H171.844L172.281 32.4062ZM170.938 40.8438L168.5 40.8125C168.521 38.4167 168.854 36.2188 169.5 34.2188C170.167 32.2188 171.083 30.5 172.25 29.0625C173.438 27.625 174.854 26.5208 176.5 25.75C178.146 24.9583 179.979 24.5625 182 24.5625C183.625 24.5625 185.094 24.7917 186.406 25.25C187.74 25.6875 188.875 26.4062 189.812 27.4062C190.771 28.4062 191.5 29.7083 192 31.3125C192.5 32.8958 192.75 34.8438 192.75 37.1562V59H185.188V37.125C185.188 35.5 184.948 34.2188 184.469 33.2812C184.01 32.3229 183.333 31.6458 182.438 31.25C181.562 30.8333 180.469 30.625 179.156 30.625C177.865 30.625 176.708 30.8958 175.688 31.4375C174.667 31.9792 173.802 32.7188 173.094 33.6562C172.406 34.5938 171.875 35.6771 171.5 36.9062C171.125 38.1354 170.938 39.4479 170.938 40.8438ZM218.906 19.5625L205.312 59H197.094L214.219 13.5H219.469L218.906 19.5625ZM230.281 59L216.656 19.5625L216.062 13.5H221.344L238.531 59H230.281ZM229.625 42.125V48.3438H204.875V42.125H229.625ZM252 13.5V59H244.156V13.5H252ZM279.969 49.8438C279.969 49.0938 279.781 48.4167 279.406 47.8125C279.031 47.1875 278.312 46.625 277.25 46.125C276.208 45.625 274.667 45.1667 272.625 44.75C270.833 44.3542 269.188 43.8854 267.688 43.3438C266.208 42.7812 264.938 42.1042 263.875 41.3125C262.812 40.5208 261.99 39.5833 261.406 38.5C260.823 37.4167 260.531 36.1667 260.531 34.75C260.531 33.375 260.833 32.0729 261.438 30.8438C262.042 29.6146 262.906 28.5312 264.031 27.5938C265.156 26.6562 266.521 25.9167 268.125 25.375C269.75 24.8333 271.562 24.5625 273.562 24.5625C276.396 24.5625 278.823 25.0417 280.844 26C282.885 26.9375 284.448 28.2188 285.531 29.8438C286.615 31.4479 287.156 33.2604 287.156 35.2812H279.625C279.625 34.3854 279.396 33.5521 278.938 32.7812C278.5 31.9896 277.833 31.3542 276.938 30.875C276.042 30.375 274.917 30.125 273.562 30.125C272.271 30.125 271.198 30.3333 270.344 30.75C269.51 31.1458 268.885 31.6667 268.469 32.3125C268.073 32.9583 267.875 33.6667 267.875 34.4375C267.875 35 267.979 35.5104 268.188 35.9688C268.417 36.4062 268.792 36.8125 269.312 37.1875C269.833 37.5417 270.542 37.875 271.438 38.1875C272.354 38.5 273.5 38.8021 274.875 39.0938C277.458 39.6354 279.677 40.3333 281.531 41.1875C283.406 42.0208 284.844 43.1042 285.844 44.4375C286.844 45.75 287.344 47.4167 287.344 49.4375C287.344 50.9375 287.021 52.3125 286.375 53.5625C285.75 54.7917 284.833 55.8646 283.625 56.7812C282.417 57.6771 280.969 58.375 279.281 58.875C277.615 59.375 275.74 59.625 273.656 59.625C270.594 59.625 268 59.0833 265.875 58C263.75 56.8958 262.135 55.4896 261.031 53.7812C259.948 52.0521 259.406 50.2604 259.406 48.4062H266.688C266.771 49.8021 267.156 50.9167 267.844 51.75C268.552 52.5625 269.427 53.1562 270.469 53.5312C271.531 53.8854 272.625 54.0625 273.75 54.0625C275.104 54.0625 276.24 53.8854 277.156 53.5312C278.073 53.1562 278.771 52.6562 279.25 52.0312C279.729 51.3854 279.969 50.6562 279.969 49.8438ZM302 25.1875V59H294.438V25.1875H302ZM293.938 16.3125C293.938 15.1667 294.312 14.2188 295.062 13.4688C295.833 12.6979 296.896 12.3125 298.25 12.3125C299.583 12.3125 300.635 12.6979 301.406 13.4688C302.177 14.2188 302.562 15.1667 302.562 16.3125C302.562 17.4375 302.177 18.375 301.406 19.125C300.635 19.875 299.583 20.25 298.25 20.25C296.896 20.25 295.833 19.875 295.062 19.125C294.312 18.375 293.938 17.4375 293.938 16.3125ZM331.906 25.1875H338.75V58.0625C338.75 61.1042 338.104 63.6875 336.812 65.8125C335.521 67.9375 333.719 69.5521 331.406 70.6562C329.094 71.7812 326.417 72.3438 323.375 72.3438C322.083 72.3438 320.646 72.1562 319.062 71.7812C317.5 71.4062 315.979 70.8021 314.5 69.9688C313.042 69.1562 311.823 68.0833 310.844 66.75L314.375 62.3125C315.583 63.75 316.917 64.8021 318.375 65.4688C319.833 66.1354 321.365 66.4688 322.969 66.4688C324.698 66.4688 326.167 66.1458 327.375 65.5C328.604 64.875 329.552 63.9479 330.219 62.7188C330.885 61.4896 331.219 59.9896 331.219 58.2188V32.8438L331.906 25.1875ZM308.938 42.4688V41.8125C308.938 39.25 309.25 36.9167 309.875 34.8125C310.5 32.6875 311.396 30.8646 312.562 29.3438C313.729 27.8021 315.146 26.625 316.812 25.8125C318.479 24.9792 320.365 24.5625 322.469 24.5625C324.656 24.5625 326.521 24.9583 328.062 25.75C329.625 26.5417 330.927 27.6771 331.969 29.1562C333.01 30.6146 333.823 32.3646 334.406 34.4062C335.01 36.4271 335.458 38.6771 335.75 41.1562V43.25C335.479 45.6667 335.021 47.875 334.375 49.875C333.729 51.875 332.875 53.6042 331.812 55.0625C330.75 56.5208 329.438 57.6458 327.875 58.4375C326.333 59.2292 324.51 59.625 322.406 59.625C320.344 59.625 318.479 59.1979 316.812 58.3438C315.167 57.4896 313.75 56.2917 312.562 54.75C311.396 53.2083 310.5 51.3958 309.875 49.3125C309.25 47.2083 308.938 44.9271 308.938 42.4688ZM316.469 41.8125V42.4688C316.469 44.0104 316.615 45.4479 316.906 46.7812C317.219 48.1146 317.688 49.2917 318.312 50.3125C318.958 51.3125 319.771 52.1042 320.75 52.6875C321.75 53.25 322.927 53.5312 324.281 53.5312C326.052 53.5312 327.5 53.1562 328.625 52.4062C329.771 51.6562 330.646 50.6458 331.25 49.375C331.875 48.0833 332.312 46.6458 332.562 45.0625V39.4062C332.438 38.1771 332.177 37.0312 331.781 35.9688C331.406 34.9062 330.896 33.9792 330.25 33.1875C329.604 32.375 328.792 31.75 327.812 31.3125C326.833 30.8542 325.677 30.625 324.344 30.625C322.99 30.625 321.812 30.9167 320.812 31.5C319.812 32.0833 318.99 32.8854 318.344 33.9062C317.719 34.9271 317.25 36.1146 316.938 37.4688C316.625 38.8229 316.469 40.2708 316.469 41.8125ZM354 11V59H346.5V11H354ZM352.688 40.8438L350.25 40.8125C350.271 38.4792 350.594 36.3229 351.219 34.3438C351.865 32.3646 352.76 30.6458 353.906 29.1875C355.073 27.7083 356.469 26.5729 358.094 25.7812C359.719 24.9688 361.521 24.5625 363.5 24.5625C365.167 24.5625 366.667 24.7917 368 25.25C369.354 25.7083 370.521 26.4479 371.5 27.4688C372.479 28.4688 373.219 29.7812 373.719 31.4062C374.24 33.0104 374.5 34.9688 374.5 37.2812V59H366.938V37.2188C366.938 35.5938 366.698 34.3021 366.219 33.3438C365.76 32.3854 365.083 31.6979 364.188 31.2812C363.292 30.8438 362.198 30.625 360.906 30.625C359.552 30.625 358.354 30.8958 357.312 31.4375C356.292 31.9792 355.438 32.7188 354.75 33.6562C354.062 34.5938 353.542 35.6771 353.188 36.9062C352.854 38.1354 352.688 39.4479 352.688 40.8438ZM397.625 25.1875V30.6875H378.562V25.1875H397.625ZM384.062 16.9062H391.594V49.6562C391.594 50.6979 391.74 51.5 392.031 52.0625C392.344 52.6042 392.771 52.9688 393.312 53.1562C393.854 53.3438 394.49 53.4375 395.219 53.4375C395.74 53.4375 396.24 53.4062 396.719 53.3438C397.198 53.2812 397.583 53.2188 397.875 53.1562L397.906 58.9062C397.281 59.0938 396.552 59.2604 395.719 59.4062C394.906 59.5521 393.969 59.625 392.906 59.625C391.177 59.625 389.646 59.3229 388.312 58.7188C386.979 58.0938 385.938 57.0833 385.188 55.6875C384.438 54.2917 384.062 52.4375 384.062 50.125V16.9062Z" fill="#7180A4"/>
<path d="M99.6182 78.5156V97H96.1143L88.2559 84.1777V97H84.7646V78.5156H88.2559L96.1396 91.3506V78.5156H99.6182ZM109.089 97.2539C108.048 97.2539 107.113 97.0846 106.283 96.7461C105.454 96.4076 104.747 95.9378 104.163 95.3369C103.588 94.7275 103.143 94.0208 102.83 93.2168C102.525 92.4043 102.373 91.5326 102.373 90.6016V90.0938C102.373 89.0358 102.525 88.0752 102.83 87.2119C103.135 86.3402 103.566 85.5911 104.125 84.9648C104.684 84.3385 105.352 83.8561 106.131 83.5176C106.91 83.179 107.769 83.0098 108.708 83.0098C109.681 83.0098 110.54 83.1748 111.285 83.5049C112.03 83.8265 112.652 84.2835 113.151 84.876C113.651 85.4684 114.027 86.1794 114.281 87.0088C114.535 87.8298 114.662 88.7396 114.662 89.7383V91.1475H103.896V88.8369H111.361V88.583C111.344 88.0498 111.243 87.5632 111.057 87.123C110.87 86.6745 110.583 86.319 110.193 86.0566C109.804 85.7858 109.3 85.6504 108.683 85.6504C108.183 85.6504 107.747 85.7604 107.375 85.9805C107.011 86.1921 106.706 86.4967 106.461 86.8945C106.224 87.2839 106.046 87.7493 105.928 88.291C105.809 88.8327 105.75 89.4336 105.75 90.0938V90.6016C105.75 91.1771 105.826 91.7103 105.979 92.2012C106.139 92.6921 106.372 93.1195 106.677 93.4834C106.99 93.8389 107.362 94.1182 107.794 94.3213C108.234 94.516 108.733 94.6133 109.292 94.6133C109.994 94.6133 110.629 94.4779 111.196 94.207C111.772 93.9277 112.271 93.5173 112.694 92.9756L114.383 94.7275C114.095 95.1507 113.706 95.557 113.215 95.9463C112.732 96.3356 112.148 96.653 111.463 96.8984C110.777 97.1354 109.986 97.2539 109.089 97.2539ZM120.73 93.6992L123.739 83.2637H125.872L125.237 86.8691L122.203 97H120.362L120.73 93.6992ZM119.067 83.2637L121.327 93.7246L121.53 97H119.41L115.805 83.2637H119.067ZM128.665 93.5723L130.874 83.2637H134.124L130.544 97H128.424L128.665 93.5723ZM126.202 83.2637L129.186 93.5977L129.579 97H127.738L124.679 86.8691L124.057 83.2637H126.202ZM146.4 93.6992L149.409 83.2637H151.542L150.907 86.8691L147.873 97H146.032L146.4 93.6992ZM144.737 83.2637L146.997 93.7246L147.2 97H145.08L141.475 83.2637H144.737ZM154.335 93.5723L156.544 83.2637H159.794L156.214 97H154.094L154.335 93.5723ZM151.872 83.2637L154.855 93.5977L155.249 97H153.408L150.349 86.8691L149.727 83.2637H151.872ZM169.341 94.0801V87.7451C169.341 87.2796 169.26 86.8776 169.1 86.5391C168.939 86.2005 168.693 85.9382 168.363 85.752C168.033 85.5658 167.614 85.4727 167.106 85.4727C166.658 85.4727 166.264 85.5488 165.926 85.7012C165.596 85.8535 165.342 86.0693 165.164 86.3486C164.986 86.6195 164.897 86.9326 164.897 87.2881H161.533C161.533 86.721 161.669 86.1836 161.939 85.6758C162.21 85.1595 162.595 84.7025 163.095 84.3047C163.603 83.8984 164.208 83.5811 164.91 83.3525C165.621 83.124 166.417 83.0098 167.297 83.0098C168.338 83.0098 169.265 83.1875 170.077 83.543C170.898 83.89 171.541 84.4147 172.007 85.1172C172.481 85.8197 172.718 86.7041 172.718 87.7705V93.7627C172.718 94.4482 172.76 95.0365 172.845 95.5273C172.938 96.0098 173.073 96.4287 173.251 96.7842V97H169.836C169.675 96.653 169.552 96.2129 169.468 95.6797C169.383 95.138 169.341 94.6048 169.341 94.0801ZM169.811 88.6338L169.836 90.627H167.716C167.191 90.627 166.73 90.682 166.332 90.792C165.934 90.8936 165.608 91.0459 165.354 91.249C165.101 91.4437 164.91 91.6807 164.783 91.96C164.656 92.2308 164.593 92.5397 164.593 92.8867C164.593 93.2253 164.669 93.5299 164.821 93.8008C164.982 94.0716 165.211 94.2874 165.507 94.4482C165.812 94.6006 166.167 94.6768 166.573 94.6768C167.166 94.6768 167.682 94.5583 168.122 94.3213C168.562 94.0758 168.905 93.7796 169.15 93.4326C169.396 93.0856 169.527 92.7555 169.544 92.4424L170.509 93.8896C170.39 94.2367 170.213 94.6048 169.976 94.9941C169.739 95.3835 169.434 95.7474 169.062 96.0859C168.689 96.4245 168.241 96.7038 167.716 96.9238C167.191 97.1439 166.582 97.2539 165.888 97.2539C164.999 97.2539 164.203 97.0762 163.501 96.7207C162.799 96.3652 162.244 95.8786 161.838 95.2607C161.432 94.6429 161.229 93.9404 161.229 93.1533C161.229 92.4255 161.364 91.7822 161.635 91.2236C161.906 90.665 162.308 90.1953 162.841 89.8145C163.374 89.4251 164.034 89.1331 164.821 88.9385C165.617 88.7354 166.527 88.6338 167.551 88.6338H169.811ZM179.561 95.4766L183.242 83.2637H186.835L181.325 99.082C181.198 99.4206 181.033 99.7887 180.83 100.187C180.635 100.584 180.373 100.961 180.043 101.316C179.713 101.68 179.298 101.977 178.799 102.205C178.308 102.434 177.711 102.548 177.009 102.548C176.704 102.548 176.433 102.527 176.196 102.484C175.959 102.442 175.71 102.387 175.447 102.319V99.8057C175.532 99.8141 175.629 99.8184 175.739 99.8184C175.858 99.8268 175.959 99.8311 176.044 99.8311C176.535 99.8311 176.941 99.7718 177.263 99.6533C177.584 99.5433 177.842 99.3613 178.037 99.1074C178.24 98.862 178.41 98.5404 178.545 98.1426L179.561 95.4766ZM177.745 83.2637L180.855 93.3818L181.401 96.9238L179.091 97.3428L174.127 83.2637H177.745ZM201.435 83.2637V85.6758H193.563V83.2637H201.435ZM195.671 79.8867H199.035V93.0391C199.035 93.4453 199.09 93.7585 199.2 93.9785C199.31 94.1986 199.475 94.3467 199.695 94.4229C199.915 94.499 200.178 94.5371 200.482 94.5371C200.702 94.5371 200.906 94.5244 201.092 94.499C201.278 94.4736 201.435 94.4482 201.562 94.4229L201.574 96.9365C201.295 97.0296 200.978 97.1058 200.622 97.165C200.275 97.2243 199.882 97.2539 199.441 97.2539C198.688 97.2539 198.028 97.127 197.461 96.873C196.894 96.6107 196.454 96.1917 196.141 95.6162C195.827 95.0322 195.671 94.262 195.671 93.3057V79.8867ZM202.742 90.2715V90.0049C202.742 88.9977 202.886 88.071 203.174 87.2246C203.462 86.3698 203.881 85.6292 204.431 85.0029C204.981 84.3766 205.654 83.89 206.449 83.543C207.245 83.1875 208.15 83.0098 209.166 83.0098C210.199 83.0098 211.113 83.1875 211.908 83.543C212.712 83.89 213.389 84.3766 213.939 85.0029C214.49 85.6292 214.909 86.3698 215.196 87.2246C215.484 88.071 215.628 88.9977 215.628 90.0049V90.2715C215.628 91.2702 215.484 92.1969 215.196 93.0518C214.909 93.8981 214.49 94.6387 213.939 95.2734C213.389 95.8997 212.716 96.3864 211.921 96.7334C211.125 97.0804 210.215 97.2539 209.191 97.2539C208.176 97.2539 207.266 97.0804 206.462 96.7334C205.658 96.3864 204.981 95.8997 204.431 95.2734C203.881 94.6387 203.462 93.8981 203.174 93.0518C202.886 92.1969 202.742 91.2702 202.742 90.2715ZM206.094 90.0049V90.2715C206.094 90.8724 206.153 91.4352 206.271 91.96C206.39 92.4847 206.572 92.946 206.817 93.3438C207.063 93.7415 207.38 94.0547 207.77 94.2832C208.167 94.5033 208.641 94.6133 209.191 94.6133C209.733 94.6133 210.199 94.5033 210.588 94.2832C210.977 94.0547 211.295 93.7415 211.54 93.3438C211.794 92.946 211.98 92.4847 212.099 91.96C212.217 91.4352 212.276 90.8724 212.276 90.2715V90.0049C212.276 89.4124 212.217 88.8581 212.099 88.3418C211.98 87.8171 211.794 87.3558 211.54 86.958C211.295 86.5518 210.973 86.2344 210.575 86.0059C210.186 85.7689 209.716 85.6504 209.166 85.6504C208.624 85.6504 208.159 85.7689 207.77 86.0059C207.38 86.2344 207.063 86.5518 206.817 86.958C206.572 87.3558 206.39 87.8171 206.271 88.3418C206.153 88.8581 206.094 89.4124 206.094 90.0049ZM232.094 93.2422C232.094 92.9544 232.018 92.6963 231.865 92.4678C231.713 92.2393 231.425 92.0319 231.002 91.8457C230.587 91.651 229.978 91.4691 229.174 91.2998C228.463 91.1475 227.807 90.957 227.206 90.7285C226.605 90.5 226.089 90.2249 225.657 89.9033C225.226 89.5732 224.887 89.1882 224.642 88.748C224.405 88.2995 224.286 87.7832 224.286 87.1992C224.286 86.6322 224.409 86.099 224.654 85.5996C224.9 85.0918 225.255 84.6475 225.721 84.2666C226.186 83.8773 226.753 83.5726 227.422 83.3525C228.09 83.124 228.844 83.0098 229.682 83.0098C230.85 83.0098 231.853 83.2002 232.69 83.5811C233.537 83.9619 234.184 84.4867 234.633 85.1553C235.081 85.8154 235.306 86.5602 235.306 87.3896H231.954C231.954 87.0257 231.869 86.6956 231.7 86.3994C231.539 86.1032 231.29 85.8662 230.951 85.6885C230.613 85.5023 230.185 85.4092 229.669 85.4092C229.203 85.4092 228.81 85.4854 228.488 85.6377C228.175 85.79 227.938 85.9889 227.777 86.2344C227.617 86.4798 227.536 86.7507 227.536 87.0469C227.536 87.2669 227.578 87.4658 227.663 87.6436C227.756 87.8128 227.904 87.9694 228.107 88.1133C228.311 88.2572 228.586 88.3883 228.933 88.5068C229.288 88.6253 229.724 88.7396 230.24 88.8496C231.264 89.0527 232.157 89.3236 232.919 89.6621C233.689 89.9922 234.29 90.4323 234.722 90.9824C235.153 91.5326 235.369 92.235 235.369 93.0898C235.369 93.6992 235.238 94.2578 234.976 94.7656C234.713 95.265 234.332 95.7008 233.833 96.0732C233.334 96.4456 232.737 96.7376 232.043 96.9492C231.349 97.1523 230.566 97.2539 229.694 97.2539C228.433 97.2539 227.367 97.0296 226.495 96.5811C225.623 96.124 224.963 95.5485 224.515 94.8545C224.066 94.152 223.842 93.4242 223.842 92.6709H227.054C227.079 93.2041 227.223 93.6315 227.485 93.9531C227.748 94.2747 228.078 94.5075 228.476 94.6514C228.882 94.7868 229.309 94.8545 229.758 94.8545C230.266 94.8545 230.693 94.7868 231.04 94.6514C231.387 94.5075 231.649 94.3171 231.827 94.0801C232.005 93.8346 232.094 93.5553 232.094 93.2422ZM244.091 97.2539C243.05 97.2539 242.115 97.0846 241.285 96.7461C240.456 96.4076 239.749 95.9378 239.165 95.3369C238.59 94.7275 238.145 94.0208 237.832 93.2168C237.527 92.4043 237.375 91.5326 237.375 90.6016V90.0938C237.375 89.0358 237.527 88.0752 237.832 87.2119C238.137 86.3402 238.568 85.5911 239.127 84.9648C239.686 84.3385 240.354 83.8561 241.133 83.5176C241.911 83.179 242.771 83.0098 243.71 83.0098C244.683 83.0098 245.542 83.1748 246.287 83.5049C247.032 83.8265 247.654 84.2835 248.153 84.876C248.653 85.4684 249.029 86.1794 249.283 87.0088C249.537 87.8298 249.664 88.7396 249.664 89.7383V91.1475H238.898V88.8369H246.363V88.583C246.346 88.0498 246.245 87.5632 246.059 87.123C245.872 86.6745 245.585 86.319 245.195 86.0566C244.806 85.7858 244.302 85.6504 243.685 85.6504C243.185 85.6504 242.749 85.7604 242.377 85.9805C242.013 86.1921 241.708 86.4967 241.463 86.8945C241.226 87.2839 241.048 87.7493 240.93 88.291C240.811 88.8327 240.752 89.4336 240.752 90.0938V90.6016C240.752 91.1771 240.828 91.7103 240.98 92.2012C241.141 92.6921 241.374 93.1195 241.679 93.4834C241.992 93.8389 242.364 94.1182 242.796 94.3213C243.236 94.516 243.735 94.6133 244.294 94.6133C244.996 94.6133 245.631 94.4779 246.198 94.207C246.774 93.9277 247.273 93.5173 247.696 92.9756L249.385 94.7275C249.097 95.1507 248.708 95.557 248.217 95.9463C247.734 96.3356 247.15 96.653 246.465 96.8984C245.779 97.1354 244.988 97.2539 244.091 97.2539ZM258.081 97.2539C257.04 97.2539 256.105 97.0846 255.275 96.7461C254.446 96.4076 253.739 95.9378 253.155 95.3369C252.58 94.7275 252.135 94.0208 251.822 93.2168C251.518 92.4043 251.365 91.5326 251.365 90.6016V90.0938C251.365 89.0358 251.518 88.0752 251.822 87.2119C252.127 86.3402 252.559 85.5911 253.117 84.9648C253.676 84.3385 254.344 83.8561 255.123 83.5176C255.902 83.179 256.761 83.0098 257.7 83.0098C258.674 83.0098 259.533 83.1748 260.277 83.5049C261.022 83.8265 261.644 84.2835 262.144 84.876C262.643 85.4684 263.02 86.1794 263.273 87.0088C263.527 87.8298 263.654 88.7396 263.654 89.7383V91.1475H252.889V88.8369H260.354V88.583C260.337 88.0498 260.235 87.5632 260.049 87.123C259.863 86.6745 259.575 86.319 259.186 86.0566C258.796 85.7858 258.293 85.6504 257.675 85.6504C257.175 85.6504 256.74 85.7604 256.367 85.9805C256.003 86.1921 255.699 86.4967 255.453 86.8945C255.216 87.2839 255.038 87.7493 254.92 88.291C254.801 88.8327 254.742 89.4336 254.742 90.0938V90.6016C254.742 91.1771 254.818 91.7103 254.971 92.2012C255.132 92.6921 255.364 93.1195 255.669 93.4834C255.982 93.8389 256.354 94.1182 256.786 94.3213C257.226 94.516 257.726 94.6133 258.284 94.6133C258.987 94.6133 259.621 94.4779 260.188 94.207C260.764 93.9277 261.263 93.5173 261.687 92.9756L263.375 94.7275C263.087 95.1507 262.698 95.557 262.207 95.9463C261.725 96.3356 261.141 96.653 260.455 96.8984C259.77 97.1354 258.978 97.2539 258.081 97.2539ZM278.876 83.2637V85.6758H271.005V83.2637H278.876ZM273.112 79.8867H276.477V93.0391C276.477 93.4453 276.532 93.7585 276.642 93.9785C276.752 94.1986 276.917 94.3467 277.137 94.4229C277.357 94.499 277.619 94.5371 277.924 94.5371C278.144 94.5371 278.347 94.5244 278.533 94.499C278.719 94.4736 278.876 94.4482 279.003 94.4229L279.016 96.9365C278.736 97.0296 278.419 97.1058 278.063 97.165C277.716 97.2243 277.323 97.2539 276.883 97.2539C276.13 97.2539 275.469 97.127 274.902 96.873C274.335 96.6107 273.895 96.1917 273.582 95.6162C273.269 95.0322 273.112 94.262 273.112 93.3057V79.8867ZM284.398 77.5V97H281.034V77.5H284.398ZM283.865 89.6367H282.875C282.875 88.6803 283.002 87.8001 283.256 86.9961C283.51 86.1921 283.869 85.4938 284.335 84.9014C284.8 84.3005 285.355 83.835 285.998 83.5049C286.65 83.1748 287.369 83.0098 288.156 83.0098C288.833 83.0098 289.447 83.1071 289.997 83.3018C290.556 83.488 291.034 83.7884 291.432 84.2031C291.829 84.6178 292.134 85.1595 292.346 85.8281C292.566 86.4883 292.676 87.2923 292.676 88.2402V97H289.299V88.2148C289.299 87.5801 289.206 87.0807 289.02 86.7168C288.833 86.3444 288.567 86.0778 288.22 85.917C287.881 85.7562 287.462 85.6758 286.963 85.6758C286.421 85.6758 285.956 85.7816 285.566 85.9932C285.177 86.1963 284.855 86.4798 284.602 86.8438C284.356 87.2077 284.17 87.6266 284.043 88.1006C283.924 88.5745 283.865 89.0866 283.865 89.6367ZM301.804 97.2539C300.763 97.2539 299.827 97.0846 298.998 96.7461C298.169 96.4076 297.462 95.9378 296.878 95.3369C296.302 94.7275 295.858 94.0208 295.545 93.2168C295.24 92.4043 295.088 91.5326 295.088 90.6016V90.0938C295.088 89.0358 295.24 88.0752 295.545 87.2119C295.85 86.3402 296.281 85.5911 296.84 84.9648C297.398 84.3385 298.067 83.8561 298.846 83.5176C299.624 83.179 300.483 83.0098 301.423 83.0098C302.396 83.0098 303.255 83.1748 304 83.5049C304.745 83.8265 305.367 84.2835 305.866 84.876C306.366 85.4684 306.742 86.1794 306.996 87.0088C307.25 87.8298 307.377 88.7396 307.377 89.7383V91.1475H296.611V88.8369H304.076V88.583C304.059 88.0498 303.958 87.5632 303.771 87.123C303.585 86.6745 303.298 86.319 302.908 86.0566C302.519 85.7858 302.015 85.6504 301.397 85.6504C300.898 85.6504 300.462 85.7604 300.09 85.9805C299.726 86.1921 299.421 86.4967 299.176 86.8945C298.939 87.2839 298.761 87.7493 298.643 88.291C298.524 88.8327 298.465 89.4336 298.465 90.0938V90.6016C298.465 91.1771 298.541 91.7103 298.693 92.2012C298.854 92.6921 299.087 93.1195 299.392 93.4834C299.705 93.8389 300.077 94.1182 300.509 94.3213C300.949 94.516 301.448 94.6133 302.007 94.6133C302.709 94.6133 303.344 94.4779 303.911 94.207C304.487 93.9277 304.986 93.5173 305.409 92.9756L307.098 94.7275C306.81 95.1507 306.421 95.557 305.93 95.9463C305.447 96.3356 304.863 96.653 304.178 96.8984C303.492 97.1354 302.701 97.2539 301.804 97.2539ZM320.072 78.5156V97H316.581V78.5156H320.072ZM326.877 86.1963V97H323.525V83.2637H326.674L326.877 86.1963ZM326.344 89.6367H325.354C325.362 88.638 325.497 87.7324 325.76 86.9199C326.022 86.1074 326.39 85.4092 326.864 84.8252C327.347 84.2412 327.918 83.7926 328.578 83.4795C329.238 83.1663 329.975 83.0098 330.787 83.0098C331.447 83.0098 332.044 83.1029 332.577 83.2891C333.11 83.4753 333.567 83.7715 333.948 84.1777C334.338 84.584 334.634 85.1172 334.837 85.7773C335.049 86.429 335.154 87.2331 335.154 88.1895V97H331.777V88.1641C331.777 87.5378 331.684 87.0426 331.498 86.6787C331.32 86.3148 331.058 86.0566 330.711 85.9043C330.372 85.752 329.953 85.6758 329.454 85.6758C328.938 85.6758 328.485 85.7816 328.096 85.9932C327.715 86.1963 327.393 86.4798 327.131 86.8438C326.877 87.2077 326.682 87.6266 326.547 88.1006C326.411 88.5745 326.344 89.0866 326.344 89.6367ZM346.352 94.0801V77.5H349.729V97H346.682L346.352 94.0801ZM337.528 90.2969V90.0303C337.528 88.9808 337.647 88.0286 337.884 87.1738C338.129 86.3105 338.485 85.57 338.95 84.9521C339.416 84.3343 339.979 83.8561 340.639 83.5176C341.307 83.179 342.065 83.0098 342.911 83.0098C343.732 83.0098 344.447 83.1748 345.057 83.5049C345.674 83.835 346.199 84.3047 346.631 84.9141C347.071 85.5234 347.422 86.2471 347.685 87.085C347.947 87.9144 348.137 88.8285 348.256 89.8271V90.5508C348.137 91.5241 347.947 92.417 347.685 93.2295C347.422 94.042 347.071 94.7529 346.631 95.3623C346.199 95.9632 345.674 96.4287 345.057 96.7588C344.439 97.0889 343.715 97.2539 342.886 97.2539C342.048 97.2539 341.295 97.0804 340.626 96.7334C339.966 96.3864 339.403 95.8997 338.938 95.2734C338.48 94.6471 338.129 93.9108 337.884 93.0645C337.647 92.2181 337.528 91.2956 337.528 90.2969ZM340.893 90.0303V90.2969C340.893 90.8893 340.943 91.4437 341.045 91.96C341.146 92.4762 341.312 92.9333 341.54 93.3311C341.769 93.7204 342.061 94.0251 342.416 94.2451C342.78 94.4652 343.22 94.5752 343.736 94.5752C344.396 94.5752 344.938 94.4313 345.361 94.1436C345.793 93.8473 346.127 93.4453 346.364 92.9375C346.601 92.4212 346.754 91.8415 346.821 91.1982V89.2051C346.787 88.6973 346.699 88.2275 346.555 87.7959C346.419 87.3643 346.225 86.9919 345.971 86.6787C345.725 86.3656 345.421 86.1201 345.057 85.9424C344.693 85.7646 344.261 85.6758 343.762 85.6758C343.245 85.6758 342.805 85.79 342.441 86.0186C342.077 86.2386 341.781 86.5475 341.553 86.9453C341.324 87.3431 341.155 87.8044 341.045 88.3291C340.943 88.8538 340.893 89.4209 340.893 90.0303ZM360.938 93.7373V83.2637H364.315V97H361.142L360.938 93.7373ZM361.37 90.8936L362.411 90.8682C362.411 91.7907 362.31 92.6413 362.106 93.4199C361.903 94.1986 361.586 94.8757 361.154 95.4512C360.731 96.0182 360.194 96.4626 359.542 96.7842C358.89 97.0973 358.12 97.2539 357.231 97.2539C356.554 97.2539 355.937 97.1608 355.378 96.9746C354.819 96.7799 354.337 96.4795 353.931 96.0732C353.533 95.6585 353.224 95.1296 353.004 94.4863C352.784 93.8346 352.674 93.0518 352.674 92.1377V83.2637H356.025V92.1631C356.025 92.6201 356.076 93.001 356.178 93.3057C356.288 93.6104 356.436 93.86 356.622 94.0547C356.817 94.2409 357.041 94.3763 357.295 94.4609C357.557 94.5371 357.837 94.5752 358.133 94.5752C358.945 94.5752 359.584 94.4144 360.05 94.0928C360.524 93.7627 360.862 93.3226 361.065 92.7725C361.269 92.2139 361.37 91.5876 361.37 90.8936ZM374.84 93.2422C374.84 92.9544 374.764 92.6963 374.611 92.4678C374.459 92.2393 374.171 92.0319 373.748 91.8457C373.333 91.651 372.724 91.4691 371.92 91.2998C371.209 91.1475 370.553 90.957 369.952 90.7285C369.351 90.5 368.835 90.2249 368.403 89.9033C367.972 89.5732 367.633 89.1882 367.388 88.748C367.151 88.2995 367.032 87.7832 367.032 87.1992C367.032 86.6322 367.155 86.099 367.4 85.5996C367.646 85.0918 368.001 84.6475 368.467 84.2666C368.932 83.8773 369.499 83.5726 370.168 83.3525C370.837 83.124 371.59 83.0098 372.428 83.0098C373.596 83.0098 374.599 83.2002 375.437 83.5811C376.283 83.9619 376.93 84.4867 377.379 85.1553C377.827 85.8154 378.052 86.5602 378.052 87.3896H374.7C374.7 87.0257 374.616 86.6956 374.446 86.3994C374.285 86.1032 374.036 85.8662 373.697 85.6885C373.359 85.5023 372.931 85.4092 372.415 85.4092C371.95 85.4092 371.556 85.4854 371.234 85.6377C370.921 85.79 370.684 85.9889 370.523 86.2344C370.363 86.4798 370.282 86.7507 370.282 87.0469C370.282 87.2669 370.325 87.4658 370.409 87.6436C370.502 87.8128 370.65 87.9694 370.854 88.1133C371.057 88.2572 371.332 88.3883 371.679 88.5068C372.034 88.6253 372.47 88.7396 372.986 88.8496C374.01 89.0527 374.903 89.3236 375.665 89.6621C376.435 89.9922 377.036 90.4323 377.468 90.9824C377.899 91.5326 378.115 92.235 378.115 93.0898C378.115 93.6992 377.984 94.2578 377.722 94.7656C377.459 95.265 377.078 95.7008 376.579 96.0732C376.08 96.4456 375.483 96.7376 374.789 96.9492C374.095 97.1523 373.312 97.2539 372.44 97.2539C371.179 97.2539 370.113 97.0296 369.241 96.5811C368.369 96.124 367.709 95.5485 367.261 94.8545C366.812 94.152 366.588 93.4242 366.588 92.6709H369.8C369.825 93.2041 369.969 93.6315 370.231 93.9531C370.494 94.2747 370.824 94.5075 371.222 94.6514C371.628 94.7868 372.055 94.8545 372.504 94.8545C373.012 94.8545 373.439 94.7868 373.786 94.6514C374.133 94.5075 374.396 94.3171 374.573 94.0801C374.751 93.8346 374.84 93.5553 374.84 93.2422ZM387.167 83.2637V85.6758H379.296V83.2637H387.167ZM381.403 79.8867H384.768V93.0391C384.768 93.4453 384.823 93.7585 384.933 93.9785C385.043 94.1986 385.208 94.3467 385.428 94.4229C385.648 94.499 385.91 94.5371 386.215 94.5371C386.435 94.5371 386.638 94.5244 386.824 94.499C387.01 94.4736 387.167 94.4482 387.294 94.4229L387.307 96.9365C387.027 97.0296 386.71 97.1058 386.354 97.165C386.007 97.2243 385.614 97.2539 385.174 97.2539C384.421 97.2539 383.76 97.127 383.193 96.873C382.626 96.6107 382.186 96.1917 381.873 95.6162C381.56 95.0322 381.403 94.262 381.403 93.3057V79.8867ZM392.753 86.0693V97H389.401V83.2637H392.575L392.753 86.0693ZM396.93 83.1748L396.879 86.2979C396.693 86.264 396.481 86.2386 396.244 86.2217C396.016 86.2048 395.8 86.1963 395.597 86.1963C395.08 86.1963 394.628 86.2682 394.238 86.4121C393.849 86.5475 393.523 86.7464 393.261 87.0088C393.007 87.2712 392.812 87.5928 392.677 87.9736C392.541 88.346 392.465 88.7692 392.448 89.2432L391.725 89.1543C391.725 88.2826 391.813 87.4743 391.991 86.7295C392.169 85.9847 392.427 85.333 392.766 84.7744C393.104 84.2158 393.527 83.7842 394.035 83.4795C394.551 83.1663 395.144 83.0098 395.812 83.0098C395.999 83.0098 396.198 83.0267 396.409 83.0605C396.629 83.0859 396.803 83.124 396.93 83.1748ZM403.023 95.4766L406.705 83.2637H410.298L404.788 99.082C404.661 99.4206 404.496 99.7887 404.293 100.187C404.098 100.584 403.836 100.961 403.506 101.316C403.176 101.68 402.761 101.977 402.262 102.205C401.771 102.434 401.174 102.548 400.472 102.548C400.167 102.548 399.896 102.527 399.659 102.484C399.422 102.442 399.173 102.387 398.91 102.319V99.8057C398.995 99.8141 399.092 99.8184 399.202 99.8184C399.321 99.8268 399.422 99.8311 399.507 99.8311C399.998 99.8311 400.404 99.7718 400.726 99.6533C401.047 99.5433 401.305 99.3613 401.5 99.1074C401.703 98.862 401.872 98.5404 402.008 98.1426L403.023 95.4766ZM401.208 83.2637L404.318 93.3818L404.864 96.9238L402.554 97.3428L397.59 83.2637H401.208Z" fill="#7180A4"/>
<path d="M0 68.5882L44.3727 51.5L0 33.9235V10L76 41.7353V61.2647L0 93V68.5882Z" fill="#A100FF"/>
</svg>
