<svg width="215" height="258" viewBox="0 0 215 258" fill="none" xmlns="http://www.w3.org/2000/svg">
<rect x="24" y="202" width="166" height="56" rx="10" fill="#6B5CD1"/>
<path d="M54.9926 223.13H58.8626C59.4626 223.13 60.0146 223.184 60.5186 223.292C61.0226 223.4 61.4606 223.586 61.8326 223.85C62.2046 224.102 62.4926 224.444 62.6966 224.876C62.9006 225.296 63.0026 225.824 63.0026 226.46V226.532C63.0026 227.12 62.8586 227.66 62.5706 228.152C62.2946 228.632 61.7906 228.998 61.0586 229.25C61.9946 229.478 62.6546 229.838 63.0386 230.33C63.4346 230.822 63.6326 231.488 63.6326 232.328V232.4C63.6326 233.012 63.5306 233.546 63.3266 234.002C63.1346 234.446 62.8526 234.818 62.4806 235.118C62.1086 235.406 61.6646 235.628 61.1486 235.784C60.6326 235.928 60.0506 236 59.4026 236H54.9926V223.13ZM59.3666 234.776C60.3026 234.776 60.9926 234.578 61.4366 234.182C61.8806 233.774 62.1026 233.174 62.1026 232.382V232.31C62.1026 231.518 61.8686 230.93 61.4006 230.546C60.9446 230.162 60.1946 229.97 59.1506 229.97H56.5226V234.776H59.3666ZM58.8626 228.746C59.8106 228.746 60.4826 228.566 60.8786 228.206C61.2746 227.846 61.4726 227.27 61.4726 226.478V226.406C61.4726 225.674 61.2566 225.152 60.8246 224.84C60.3926 224.516 59.7266 224.354 58.8266 224.354H56.5226V228.746H58.8626ZM66.2929 226.586H67.7869V228.278C67.9309 228.014 68.0929 227.774 68.2729 227.558C68.4649 227.33 68.6809 227.138 68.9209 226.982C69.1609 226.814 69.4429 226.682 69.7669 226.586C70.0909 226.49 70.4629 226.436 70.8829 226.424V227.828C70.4149 227.852 69.9889 227.912 69.6049 228.008C69.2209 228.104 68.8909 228.266 68.6149 228.494C68.3509 228.722 68.1469 229.028 68.0029 229.412C67.8589 229.784 67.7869 230.258 67.7869 230.834V236H66.2929V226.586ZM76.9317 234.92C77.3997 234.92 77.8257 234.836 78.2097 234.668C78.5937 234.5 78.9177 234.26 79.1817 233.948C79.4457 233.636 79.6497 233.264 79.7937 232.832C79.9377 232.388 80.0097 231.902 80.0097 231.374V231.248C80.0097 230.708 79.9377 230.216 79.7937 229.772C79.6497 229.328 79.4397 228.95 79.1637 228.638C78.8997 228.326 78.5757 228.086 78.1917 227.918C77.8197 227.75 77.3997 227.666 76.9317 227.666C76.4637 227.666 76.0377 227.75 75.6537 227.918C75.2697 228.086 74.9457 228.326 74.6817 228.638C74.4177 228.95 74.2137 229.328 74.0697 229.772C73.9257 230.204 73.8537 230.69 73.8537 231.23V231.374C73.8537 232.454 74.1237 233.318 74.6637 233.966C75.2157 234.602 75.9717 234.92 76.9317 234.92ZM76.9137 236.162C76.2417 236.162 75.6237 236.042 75.0597 235.802C74.4957 235.562 74.0097 235.232 73.6017 234.812C73.1937 234.38 72.8757 233.87 72.6477 233.282C72.4197 232.694 72.3057 232.058 72.3057 231.374V231.23C72.3057 230.522 72.4197 229.874 72.6477 229.286C72.8877 228.698 73.2117 228.194 73.6197 227.774C74.0277 227.342 74.5137 227.012 75.0777 226.784C75.6417 226.544 76.2597 226.424 76.9317 226.424C77.5917 226.424 78.2037 226.544 78.7677 226.784C79.3437 227.012 79.8357 227.336 80.2437 227.756C80.6517 228.176 80.9697 228.68 81.1977 229.268C81.4377 229.856 81.5577 230.504 81.5577 231.212V231.356C81.5577 232.064 81.4377 232.718 81.1977 233.318C80.9697 233.906 80.6457 234.41 80.2257 234.83C79.8177 235.25 79.3317 235.58 78.7677 235.82C78.2037 236.048 77.5857 236.162 76.9137 236.162ZM82.9157 226.586H84.5357L86.7317 234.164L89.0177 226.586H90.3137L92.4557 234.164L94.6697 226.586H96.1997L93.2657 236H91.6097L89.6477 228.944L87.4517 236H85.8137L82.9157 226.586ZM101.342 236.162C100.214 236.162 99.3257 235.898 98.6777 235.37C98.0417 234.83 97.6997 234.074 97.6517 233.102H99.1097C99.1697 233.666 99.3617 234.11 99.6857 234.434C100.022 234.758 100.568 234.92 101.324 234.92C102.044 234.92 102.566 234.8 102.89 234.56C103.214 234.308 103.376 233.93 103.376 233.426C103.376 232.934 103.19 232.58 102.818 232.364C102.458 232.148 101.912 231.974 101.18 231.842C100.568 231.734 100.052 231.608 99.6317 231.464C99.2117 231.308 98.8757 231.122 98.6237 230.906C98.3717 230.69 98.1857 230.432 98.0657 230.132C97.9577 229.832 97.9037 229.478 97.9037 229.07C97.9037 228.638 97.9997 228.26 98.1917 227.936C98.3837 227.6 98.6297 227.324 98.9297 227.108C99.2417 226.88 99.5837 226.712 99.9557 226.604C100.34 226.484 100.718 226.424 101.09 226.424C101.51 226.424 101.912 226.472 102.296 226.568C102.68 226.652 103.022 226.802 103.322 227.018C103.634 227.234 103.892 227.516 104.096 227.864C104.3 228.212 104.432 228.638 104.492 229.142H103.052C102.944 228.626 102.734 228.254 102.422 228.026C102.122 227.786 101.672 227.666 101.072 227.666C100.532 227.666 100.1 227.792 99.7757 228.044C99.4517 228.284 99.2897 228.608 99.2897 229.016C99.2897 229.232 99.3197 229.418 99.3797 229.574C99.4517 229.718 99.5717 229.85 99.7397 229.97C99.9077 230.078 100.13 230.18 100.406 230.276C100.694 230.36 101.054 230.438 101.486 230.51C101.966 230.606 102.41 230.714 102.818 230.834C103.226 230.942 103.574 231.098 103.862 231.302C104.162 231.494 104.39 231.752 104.546 232.076C104.714 232.388 104.798 232.796 104.798 233.3C104.798 234.164 104.51 234.86 103.934 235.388C103.358 235.904 102.494 236.162 101.342 236.162ZM111.137 236.162C110.465 236.162 109.853 236.048 109.301 235.82C108.749 235.592 108.269 235.274 107.861 234.866C107.453 234.446 107.135 233.942 106.907 233.354C106.691 232.766 106.583 232.112 106.583 231.392V231.248C106.583 230.54 106.691 229.892 106.907 229.304C107.123 228.704 107.423 228.194 107.807 227.774C108.203 227.342 108.671 227.012 109.211 226.784C109.751 226.544 110.345 226.424 110.993 226.424C111.533 226.424 112.055 226.514 112.559 226.694C113.075 226.862 113.531 227.132 113.927 227.504C114.323 227.876 114.635 228.362 114.863 228.962C115.103 229.55 115.223 230.264 115.223 231.104V231.59H108.131C108.167 232.67 108.437 233.498 108.941 234.074C109.445 234.638 110.183 234.92 111.155 234.92C112.631 234.92 113.465 234.374 113.657 233.282H115.151C114.983 234.23 114.539 234.95 113.819 235.442C113.099 235.922 112.205 236.162 111.137 236.162ZM113.693 230.384C113.621 229.412 113.345 228.716 112.865 228.296C112.397 227.876 111.773 227.666 110.993 227.666C110.225 227.666 109.595 227.912 109.103 228.404C108.623 228.884 108.317 229.544 108.185 230.384H113.693ZM122.598 223.13H130.122V224.408H124.164V228.962H128.808V230.24H124.164V236H122.598V223.13ZM132.387 226.586H133.881V236H132.387V226.586ZM133.107 224.624C132.831 224.624 132.597 224.528 132.405 224.336C132.213 224.144 132.117 223.91 132.117 223.634C132.117 223.358 132.213 223.124 132.405 222.932C132.597 222.74 132.831 222.644 133.107 222.644C133.383 222.644 133.617 222.74 133.809 222.932C134.001 223.124 134.097 223.358 134.097 223.634C134.097 223.91 134.001 224.144 133.809 224.336C133.617 224.528 133.383 224.624 133.107 224.624ZM137.186 222.086H138.698V236H137.186V222.086ZM145.819 236.162C145.147 236.162 144.535 236.048 143.983 235.82C143.431 235.592 142.951 235.274 142.543 234.866C142.135 234.446 141.817 233.942 141.589 233.354C141.373 232.766 141.265 232.112 141.265 231.392V231.248C141.265 230.54 141.373 229.892 141.589 229.304C141.805 228.704 142.105 228.194 142.489 227.774C142.885 227.342 143.353 227.012 143.893 226.784C144.433 226.544 145.027 226.424 145.675 226.424C146.215 226.424 146.737 226.514 147.241 226.694C147.757 226.862 148.213 227.132 148.609 227.504C149.005 227.876 149.317 228.362 149.545 228.962C149.785 229.55 149.905 230.264 149.905 231.104V231.59H142.813C142.849 232.67 143.119 233.498 143.623 234.074C144.127 234.638 144.865 234.92 145.837 234.92C147.313 234.92 148.147 234.374 148.339 233.282H149.833C149.665 234.23 149.221 234.95 148.501 235.442C147.781 235.922 146.887 236.162 145.819 236.162ZM148.375 230.384C148.303 229.412 148.027 228.716 147.547 228.296C147.079 227.876 146.455 227.666 145.675 227.666C144.907 227.666 144.277 227.912 143.785 228.404C143.305 228.884 142.999 229.544 142.867 230.384H148.375ZM155.412 236.162C154.284 236.162 153.396 235.898 152.748 235.37C152.112 234.83 151.77 234.074 151.722 233.102H153.18C153.24 233.666 153.432 234.11 153.756 234.434C154.092 234.758 154.638 234.92 155.394 234.92C156.114 234.92 156.636 234.8 156.96 234.56C157.284 234.308 157.446 233.93 157.446 233.426C157.446 232.934 157.26 232.58 156.888 232.364C156.528 232.148 155.982 231.974 155.25 231.842C154.638 231.734 154.122 231.608 153.702 231.464C153.282 231.308 152.946 231.122 152.694 230.906C152.442 230.69 152.256 230.432 152.136 230.132C152.028 229.832 151.974 229.478 151.974 229.07C151.974 228.638 152.07 228.26 152.262 227.936C152.454 227.6 152.7 227.324 153 227.108C153.312 226.88 153.654 226.712 154.026 226.604C154.41 226.484 154.788 226.424 155.16 226.424C155.58 226.424 155.982 226.472 156.366 226.568C156.75 226.652 157.092 226.802 157.392 227.018C157.704 227.234 157.962 227.516 158.166 227.864C158.37 228.212 158.502 228.638 158.562 229.142H157.122C157.014 228.626 156.804 228.254 156.492 228.026C156.192 227.786 155.742 227.666 155.142 227.666C154.602 227.666 154.17 227.792 153.846 228.044C153.522 228.284 153.36 228.608 153.36 229.016C153.36 229.232 153.39 229.418 153.45 229.574C153.522 229.718 153.642 229.85 153.81 229.97C153.978 230.078 154.2 230.18 154.476 230.276C154.764 230.36 155.124 230.438 155.556 230.51C156.036 230.606 156.48 230.714 156.888 230.834C157.296 230.942 157.644 231.098 157.932 231.302C158.232 231.494 158.46 231.752 158.616 232.076C158.784 232.388 158.868 232.796 158.868 233.3C158.868 234.164 158.58 234.86 158.004 235.388C157.428 235.904 156.564 236.162 155.412 236.162Z" fill="white"/>
<path d="M10.5223 171.27C8.0423 171.27 6.1323 170.58 4.7923 169.2C3.4723 167.8 2.8123 165.79 2.8123 163.17V149.55H5.4223V162.87C5.4223 163.99 5.5223 164.95 5.7223 165.75C5.9223 166.53 6.23231 167.17 6.6523 167.67C7.0723 168.17 7.60231 168.54 8.24231 168.78C8.90231 169 9.68231 169.11 10.5823 169.11C11.4423 169.11 12.2023 169.01 12.8623 168.81C13.5423 168.61 14.1123 168.26 14.5723 167.76C15.0523 167.26 15.4123 166.59 15.6523 165.75C15.9123 164.89 16.0423 163.8 16.0423 162.48V149.55H18.6523V162.84C18.6523 165.46 17.9823 167.52 16.6423 169.02C15.3223 170.52 13.2823 171.27 10.5223 171.27ZM23.9061 155.31H26.3961V157.95C26.6161 157.57 26.9061 157.21 27.2661 156.87C27.6461 156.51 28.0661 156.2 28.5261 155.94C28.9861 155.66 29.4861 155.44 30.0261 155.28C30.5661 155.12 31.1261 155.04 31.7061 155.04C32.7261 155.04 33.6761 155.22 34.5561 155.58C35.4361 155.94 36.1861 156.46 36.8061 157.14C37.4461 157.82 37.9461 158.65 38.3061 159.63C38.6661 160.61 38.8461 161.71 38.8461 162.93V163.17C38.8461 164.37 38.6761 165.47 38.3361 166.47C37.9961 167.45 37.5161 168.3 36.8961 169.02C36.2761 169.74 35.5261 170.3 34.6461 170.7C33.7661 171.08 32.7861 171.27 31.7061 171.27C30.4061 171.27 29.3061 170.99 28.4061 170.43C27.5261 169.87 26.8561 169.2 26.3961 168.42V176.46H23.9061V155.31ZM31.4661 169.2C33.0261 169.2 34.2161 168.7 35.0361 167.7C35.8561 166.68 36.2661 165.21 36.2661 163.29V163.05C36.2661 162.07 36.1361 161.21 35.8761 160.47C35.6161 159.71 35.2661 159.09 34.8261 158.61C34.4061 158.11 33.8961 157.74 33.2961 157.5C32.7161 157.24 32.0961 157.11 31.4361 157.11C30.7161 157.11 30.0361 157.23 29.3961 157.47C28.7761 157.71 28.2361 158.08 27.7761 158.58C27.3161 159.06 26.9561 159.68 26.6961 160.44C26.4361 161.18 26.3061 162.05 26.3061 163.05V163.29C26.3061 164.29 26.4261 165.16 26.6661 165.9C26.9261 166.64 27.2761 167.26 27.7161 167.76C28.1761 168.24 28.7261 168.6 29.3661 168.84C30.0061 169.08 30.7061 169.2 31.4661 169.2ZM43.1262 147.81H45.6462V171H43.1262V147.81ZM57.6336 169.2C58.4136 169.2 59.1236 169.06 59.7636 168.78C60.4036 168.5 60.9436 168.1 61.3836 167.58C61.8236 167.06 62.1636 166.44 62.4036 165.72C62.6436 164.98 62.7636 164.17 62.7636 163.29V163.08C62.7636 162.18 62.6436 161.36 62.4036 160.62C62.1636 159.88 61.8136 159.25 61.3536 158.73C60.9136 158.21 60.3736 157.81 59.7336 157.53C59.1136 157.25 58.4136 157.11 57.6336 157.11C56.8536 157.11 56.1436 157.25 55.5036 157.53C54.8636 157.81 54.3236 158.21 53.8836 158.73C53.4436 159.25 53.1036 159.88 52.8636 160.62C52.6236 161.34 52.5036 162.15 52.5036 163.05V163.29C52.5036 165.09 52.9536 166.53 53.8536 167.61C54.7736 168.67 56.0336 169.2 57.6336 169.2ZM57.6036 171.27C56.4836 171.27 55.4536 171.07 54.5136 170.67C53.5736 170.27 52.7636 169.72 52.0836 169.02C51.4036 168.3 50.8736 167.45 50.4936 166.47C50.1136 165.49 49.9236 164.43 49.9236 163.29V163.05C49.9236 161.87 50.1136 160.79 50.4936 159.81C50.8936 158.83 51.4336 157.99 52.1136 157.29C52.7936 156.57 53.6036 156.02 54.5436 155.64C55.4836 155.24 56.5136 155.04 57.6336 155.04C58.7336 155.04 59.7536 155.24 60.6936 155.64C61.6536 156.02 62.4736 156.56 63.1536 157.26C63.8336 157.96 64.3636 158.8 64.7436 159.78C65.1436 160.76 65.3436 161.84 65.3436 163.02V163.26C65.3436 164.44 65.1436 165.53 64.7436 166.53C64.3636 167.51 63.8236 168.35 63.1236 169.05C62.4436 169.75 61.6336 170.3 60.6936 170.7C59.7536 171.08 58.7236 171.27 57.6036 171.27ZM73.5099 171.27C72.7899 171.27 72.1099 171.18 71.4699 171C70.8299 170.82 70.2699 170.54 69.7899 170.16C69.3299 169.78 68.9599 169.3 68.6799 168.72C68.4199 168.14 68.2899 167.45 68.2899 166.65C68.2899 165.75 68.5099 164.99 68.9499 164.37C69.3899 163.75 69.9699 163.25 70.6899 162.87C71.4299 162.49 72.2699 162.22 73.2099 162.06C74.1699 161.88 75.1499 161.79 76.1499 161.79H78.3999V160.65C78.3999 159.39 78.1399 158.49 77.6199 157.95C77.0999 157.39 76.2399 157.11 75.0399 157.11C72.8799 157.11 71.6799 158.05 71.4399 159.93H68.9499C69.0299 159.03 69.2499 158.27 69.6099 157.65C69.9899 157.03 70.4599 156.53 71.0199 156.15C71.5999 155.75 72.2399 155.47 72.9399 155.31C73.6599 155.13 74.3999 155.04 75.1599 155.04C75.8999 155.04 76.6199 155.13 77.3199 155.31C78.0199 155.47 78.6299 155.77 79.1499 156.21C79.6699 156.63 80.0899 157.2 80.4099 157.92C80.7299 158.64 80.8899 159.55 80.8899 160.65V171H78.3999V169.02C77.8199 169.76 77.1499 170.32 76.3899 170.7C75.6299 171.08 74.6699 171.27 73.5099 171.27ZM73.7499 169.29C74.4099 169.29 75.0199 169.21 75.5799 169.05C76.1599 168.87 76.6499 168.62 77.0499 168.3C77.4699 167.98 77.7999 167.59 78.0399 167.13C78.2799 166.65 78.3999 166.11 78.3999 165.51V163.56H76.2399C75.4599 163.56 74.7299 163.62 74.0499 163.74C73.3899 163.84 72.8099 164.01 72.3099 164.25C71.8299 164.49 71.4499 164.81 71.1699 165.21C70.9099 165.59 70.7799 166.07 70.7799 166.65C70.7799 167.47 70.9999 168.12 71.4399 168.6C71.8799 169.06 72.6499 169.29 73.7499 169.29ZM92.0426 171.27C91.0226 171.27 90.0726 171.1 89.1926 170.76C88.3326 170.4 87.5826 169.89 86.9426 169.23C86.3226 168.55 85.8326 167.73 85.4726 166.77C85.1326 165.79 84.9626 164.69 84.9626 163.47V163.23C84.9626 162.03 85.1426 160.93 85.5026 159.93C85.8626 158.93 86.3626 158.07 87.0026 157.35C87.6426 156.61 88.4126 156.04 89.3126 155.64C90.2126 155.24 91.2026 155.04 92.2826 155.04C93.6026 155.04 94.6726 155.32 95.4926 155.88C96.3126 156.42 96.9526 157.07 97.4126 157.83V147.81H99.9026V171H97.4126V168.3C97.1926 168.68 96.8926 169.05 96.5126 169.41C96.1326 169.77 95.7026 170.09 95.2226 170.37C94.7626 170.63 94.2526 170.84 93.6926 171C93.1526 171.18 92.6026 171.27 92.0426 171.27ZM92.3126 169.2C93.0326 169.2 93.7126 169.08 94.3526 168.84C94.9926 168.6 95.5426 168.24 96.0026 167.76C96.4626 167.26 96.8226 166.64 97.0826 165.9C97.3626 165.14 97.5026 164.26 97.5026 163.26V163.02C97.5026 161 97.0526 159.51 96.1526 158.55C95.2726 157.59 94.0626 157.11 92.5226 157.11C90.9626 157.11 89.7426 157.63 88.8626 158.67C87.9826 159.71 87.5426 161.19 87.5426 163.11V163.35C87.5426 164.35 87.6626 165.22 87.9026 165.96C88.1626 166.68 88.5026 167.28 88.9226 167.76C89.3626 168.24 89.8726 168.6 90.4526 168.84C91.0326 169.08 91.6526 169.2 92.3126 169.2ZM113.562 149.55H116.172V171H113.562V149.55ZM121.904 155.31H124.394V157.71C124.754 156.97 125.334 156.34 126.134 155.82C126.954 155.3 127.934 155.04 129.074 155.04C130.094 155.04 131.014 155.27 131.834 155.73C132.654 156.17 133.264 156.92 133.664 157.98C133.924 157.48 134.264 157.05 134.684 156.69C135.104 156.31 135.554 156 136.034 155.76C136.514 155.52 137.014 155.34 137.534 155.22C138.054 155.1 138.554 155.04 139.034 155.04C139.734 155.04 140.404 155.15 141.044 155.37C141.684 155.59 142.244 155.95 142.724 156.45C143.204 156.95 143.584 157.6 143.864 158.4C144.164 159.18 144.314 160.14 144.314 161.28V171H141.824V161.1C141.824 159.72 141.534 158.73 140.954 158.13C140.394 157.51 139.574 157.2 138.494 157.2C137.974 157.2 137.464 157.29 136.964 157.47C136.484 157.63 136.044 157.89 135.644 158.25C135.264 158.59 134.954 159.03 134.714 159.57C134.474 160.09 134.354 160.7 134.354 161.4V171H131.864V161.1C131.864 159.72 131.574 158.73 130.994 158.13C130.434 157.51 129.614 157.2 128.534 157.2C128.014 157.2 127.504 157.29 127.004 157.47C126.524 157.63 126.084 157.89 125.684 158.25C125.304 158.59 124.994 159.03 124.754 159.57C124.514 160.09 124.394 160.7 124.394 161.4V171H121.904V155.31ZM153.49 171.27C152.77 171.27 152.09 171.18 151.45 171C150.81 170.82 150.25 170.54 149.77 170.16C149.31 169.78 148.94 169.3 148.66 168.72C148.4 168.14 148.27 167.45 148.27 166.65C148.27 165.75 148.49 164.99 148.93 164.37C149.37 163.75 149.95 163.25 150.67 162.87C151.41 162.49 152.25 162.22 153.19 162.06C154.15 161.88 155.13 161.79 156.13 161.79H158.38V160.65C158.38 159.39 158.12 158.49 157.6 157.95C157.08 157.39 156.22 157.11 155.02 157.11C152.86 157.11 151.66 158.05 151.42 159.93H148.93C149.01 159.03 149.23 158.27 149.59 157.65C149.97 157.03 150.44 156.53 151 156.15C151.58 155.75 152.22 155.47 152.92 155.31C153.64 155.13 154.38 155.04 155.14 155.04C155.88 155.04 156.6 155.13 157.3 155.31C158 155.47 158.61 155.77 159.13 156.21C159.65 156.63 160.07 157.2 160.39 157.92C160.71 158.64 160.87 159.55 160.87 160.65V171H158.38V169.02C157.8 169.76 157.13 170.32 156.37 170.7C155.61 171.08 154.65 171.27 153.49 171.27ZM153.73 169.29C154.39 169.29 155 169.21 155.56 169.05C156.14 168.87 156.63 168.62 157.03 168.3C157.45 167.98 157.78 167.59 158.02 167.13C158.26 166.65 158.38 166.11 158.38 165.51V163.56H156.22C155.44 163.56 154.71 163.62 154.03 163.74C153.37 163.84 152.79 164.01 152.29 164.25C151.81 164.49 151.43 164.81 151.15 165.21C150.89 165.59 150.76 166.07 150.76 166.65C150.76 167.47 150.98 168.12 151.42 168.6C151.86 169.06 152.63 169.29 153.73 169.29ZM172.383 176.73C171.223 176.73 170.213 176.6 169.353 176.34C168.513 176.08 167.803 175.73 167.223 175.29C166.663 174.87 166.223 174.36 165.903 173.76C165.583 173.18 165.373 172.56 165.273 171.9H167.823C168.183 173.72 169.693 174.63 172.353 174.63C173.893 174.63 175.113 174.24 176.013 173.46C176.933 172.7 177.393 171.48 177.393 169.8V167.52C177.173 167.9 176.873 168.27 176.493 168.63C176.133 168.99 175.713 169.31 175.233 169.59C174.773 169.85 174.273 170.07 173.733 170.25C173.193 170.41 172.643 170.49 172.083 170.49C171.063 170.49 170.113 170.31 169.233 169.95C168.353 169.57 167.593 169.05 166.953 168.39C166.333 167.73 165.843 166.95 165.483 166.05C165.123 165.13 164.943 164.13 164.943 163.05V162.84C164.943 161.78 165.123 160.78 165.483 159.84C165.843 158.88 166.343 158.05 166.983 157.35C167.623 156.63 168.393 156.07 169.293 155.67C170.193 155.25 171.183 155.04 172.263 155.04C173.583 155.04 174.653 155.32 175.473 155.88C176.293 156.42 176.933 157.07 177.393 157.83V155.31H179.883V169.95C179.883 171.09 179.693 172.08 179.313 172.92C178.933 173.78 178.413 174.49 177.753 175.05C177.093 175.61 176.303 176.03 175.383 176.31C174.483 176.59 173.483 176.73 172.383 176.73ZM172.353 168.42C173.073 168.42 173.743 168.3 174.363 168.06C175.003 167.8 175.553 167.44 176.013 166.98C176.473 166.5 176.833 165.92 177.093 165.24C177.353 164.54 177.483 163.75 177.483 162.87V162.66C177.483 160.9 177.033 159.54 176.133 158.58C175.253 157.6 174.043 157.11 172.503 157.11C171.723 157.11 171.023 157.25 170.403 157.53C169.783 157.81 169.263 158.2 168.843 158.7C168.423 159.18 168.093 159.77 167.853 160.47C167.633 161.15 167.523 161.9 167.523 162.72V162.96C167.523 163.82 167.653 164.59 167.913 165.27C168.173 165.93 168.513 166.5 168.933 166.98C169.373 167.44 169.883 167.8 170.463 168.06C171.063 168.3 171.693 168.42 172.353 168.42ZM191.693 171.27C190.573 171.27 189.553 171.08 188.633 170.7C187.713 170.32 186.913 169.79 186.233 169.11C185.553 168.41 185.023 167.57 184.643 166.59C184.283 165.61 184.103 164.52 184.103 163.32V163.08C184.103 161.9 184.283 160.82 184.643 159.84C185.003 158.84 185.503 157.99 186.143 157.29C186.803 156.57 187.583 156.02 188.483 155.64C189.383 155.24 190.373 155.04 191.453 155.04C192.353 155.04 193.223 155.19 194.063 155.49C194.923 155.77 195.683 156.22 196.343 156.84C197.003 157.46 197.523 158.27 197.903 159.27C198.303 160.25 198.503 161.44 198.503 162.84V163.65H186.683C186.743 165.45 187.193 166.83 188.033 167.79C188.873 168.73 190.103 169.2 191.723 169.2C194.183 169.2 195.573 168.29 195.893 166.47H198.383C198.103 168.05 197.363 169.25 196.163 170.07C194.963 170.87 193.473 171.27 191.693 171.27ZM195.953 161.64C195.833 160.02 195.373 158.86 194.573 158.16C193.793 157.46 192.753 157.11 191.453 157.11C190.173 157.11 189.123 157.52 188.303 158.34C187.503 159.14 186.993 160.24 186.773 161.64H195.953ZM207.682 171.27C205.802 171.27 204.322 170.83 203.242 169.95C202.182 169.05 201.612 167.79 201.532 166.17H203.962C204.062 167.11 204.382 167.85 204.922 168.39C205.482 168.93 206.392 169.2 207.652 169.2C208.852 169.2 209.722 169 210.262 168.6C210.802 168.18 211.072 167.55 211.072 166.71C211.072 165.89 210.762 165.3 210.142 164.94C209.542 164.58 208.632 164.29 207.412 164.07C206.392 163.89 205.532 163.68 204.832 163.44C204.132 163.18 203.572 162.87 203.152 162.51C202.732 162.15 202.422 161.72 202.222 161.22C202.042 160.72 201.952 160.13 201.952 159.45C201.952 158.73 202.112 158.1 202.432 157.56C202.752 157 203.162 156.54 203.662 156.18C204.182 155.8 204.752 155.52 205.372 155.34C206.012 155.14 206.642 155.04 207.262 155.04C207.962 155.04 208.632 155.12 209.272 155.28C209.912 155.42 210.482 155.67 210.982 156.03C211.502 156.39 211.932 156.86 212.272 157.44C212.612 158.02 212.832 158.73 212.932 159.57H210.532C210.352 158.71 210.002 158.09 209.482 157.71C208.982 157.31 208.232 157.11 207.232 157.11C206.332 157.11 205.612 157.32 205.072 157.74C204.532 158.14 204.262 158.68 204.262 159.36C204.262 159.72 204.312 160.03 204.412 160.29C204.532 160.53 204.732 160.75 205.012 160.95C205.292 161.13 205.662 161.3 206.122 161.46C206.602 161.6 207.202 161.73 207.922 161.85C208.722 162.01 209.462 162.19 210.142 162.39C210.822 162.57 211.402 162.83 211.882 163.17C212.382 163.49 212.762 163.92 213.022 164.46C213.302 164.98 213.442 165.66 213.442 166.5C213.442 167.94 212.962 169.1 212.002 169.98C211.042 170.84 209.602 171.27 207.682 171.27Z" fill="white"/>
<path d="M124.878 84.8108H90.1294C89.1298 84.8108 88.1712 84.4138 87.4644 83.707C86.7576 83.0002 86.3606 82.0416 86.3606 81.042V46.6479H72.2426C71.5135 46.6481 70.8001 46.4369 70.1886 46.0398C69.5772 45.6426 69.0941 45.0767 68.7978 44.4105C68.5016 43.7444 68.4049 43.0066 68.5195 42.2866C68.6342 41.5665 68.9552 40.8952 69.4436 40.354L104.702 1.24638C105.055 0.854058 105.487 0.540377 105.97 0.325664C106.452 0.110952 106.974 0 107.502 0C108.03 0 108.552 0.110952 109.035 0.325664C109.517 0.540377 109.949 0.854058 110.303 1.24638L145.556 40.354C146.044 40.8952 146.365 41.5665 146.48 42.2866C146.595 43.0066 146.498 43.7444 146.202 44.4105C145.905 45.0767 145.422 45.6426 144.811 46.0398C144.2 46.4369 143.486 46.6481 142.757 46.6479H128.647V81.042C128.647 82.0416 128.249 83.0002 127.543 83.707C126.836 84.4138 125.877 84.8108 124.878 84.8108ZM93.8982 77.2732H121.109V42.8791C121.109 41.8796 121.506 40.921 122.213 40.2142C122.92 39.5074 123.878 39.1103 124.878 39.1103H134.285L107.499 9.39956L80.7149 39.1103H90.1294C91.1289 39.1103 92.0875 39.5074 92.7943 40.2142C93.5011 40.921 93.8982 41.8796 93.8982 42.8791V77.2732Z" fill="#6B5CD1"/>
<path d="M141.596 101.006H73.403C69.053 101.002 64.8826 99.2715 61.8067 96.1957C58.7308 93.1198 57.0007 88.9493 56.9961 84.5994V75.009C56.9961 74.0095 57.3932 73.0509 58.1 72.3441C58.8067 71.6373 59.7653 71.2402 60.7649 71.2402C61.7644 71.2402 62.7231 71.6373 63.4298 72.3441C64.1366 73.0509 64.5337 74.0095 64.5337 75.009V84.5994C64.5364 86.9509 65.4717 89.2052 67.1344 90.868C68.7971 92.5307 71.0515 93.466 73.403 93.4686H141.596C143.947 93.466 146.201 92.5306 147.863 90.8678C149.526 89.205 150.46 86.9506 150.462 84.5994V75.009C150.462 74.0095 150.86 73.0509 151.566 72.3441C152.273 71.6373 153.232 71.2402 154.231 71.2402C155.231 71.2402 156.189 71.6373 156.896 72.3441C157.603 73.0509 158 74.0095 158 75.009V84.5994C157.995 88.9489 156.266 93.119 153.19 96.1948C150.115 99.2706 145.945 101.001 141.596 101.006Z" fill="#6B5CD1"/>
</svg>
