<svg width="32" height="32" viewBox="0 0 32 32" fill="none" xmlns="http://www.w3.org/2000/svg">
<path d="M6 22L7.414 20.586L3.828 17H12V15H3.828L7.414 11.414L6 10L0 16L6 22Z" fill="#747BA9"/>
<path d="M16.0005 10C15.2124 9.99898 14.4319 10.1537 13.7038 10.4553C12.9757 10.7569 12.3144 11.1993 11.7578 11.7573L16.0005 16L11.7578 20.2427C12.4555 20.9404 13.3145 21.4552 14.2587 21.7417C15.203 22.0281 16.2032 22.0772 17.171 21.8847C18.1387 21.6922 19.044 21.264 19.8068 20.6381C20.5695 20.0121 21.1661 19.2077 21.5437 18.2961C21.9213 17.3845 22.0682 16.3939 21.9715 15.4119C21.8748 14.43 21.5374 13.4871 20.9892 12.6666C20.4411 11.8462 19.699 11.1737 18.8289 10.7085C17.9587 10.2434 16.9872 10 16.0005 10Z" fill="#747BA9"/>
<path d="M16.0005 2C14.1621 1.9989 12.3416 2.36097 10.6435 3.06543C8.9454 3.76989 7.40321 4.80285 6.10547 6.105L7.51927 7.5186C9.19706 5.83927 11.3352 4.6953 13.6633 4.23138C15.9914 3.76747 18.4047 4.00447 20.5981 4.9124C22.7915 5.82033 24.6662 7.35839 25.9853 9.33202C27.3044 11.3056 28.0084 13.6262 28.0084 16C28.0084 18.3738 27.3044 20.6944 25.9853 22.668C24.6662 24.6416 22.7915 26.1797 20.5981 27.0876C18.4047 27.9955 15.9914 28.2325 13.6633 27.7686C11.3352 27.3047 9.19706 26.1607 7.51927 24.4814L6.10547 25.895C7.73322 27.5228 9.73732 28.724 11.9402 29.3922C14.1431 30.0604 16.4768 30.1749 18.7345 29.7257C20.9923 29.2765 23.1044 28.2774 24.8838 26.8169C26.6632 25.3564 28.0549 23.4796 28.9356 21.3528C29.8163 19.2259 30.1589 16.9147 29.933 14.6238C29.7071 12.3329 28.9197 10.1331 27.6405 8.21919C26.3613 6.30533 24.6298 4.7365 22.5994 3.65168C20.5691 2.56687 18.3025 1.99956 16.0005 2Z" fill="#747BA9"/>
</svg>
