<svg width="97" height="20" viewBox="0 0 97 20" fill="none" xmlns="http://www.w3.org/2000/svg">
<rect width="97" height="20" rx="10" fill="#24B600"/>
<path d="M12.32 15.144C11.488 15.144 10.7413 15.0107 10.08 14.744C9.42933 14.4667 8.86933 14.0773 8.4 13.576C7.94133 13.064 7.58933 12.456 7.344 11.752C7.09867 11.0373 6.976 10.2373 6.976 9.352V9.224C6.976 8.38133 7.10933 7.60267 7.376 6.888C7.64267 6.17333 8.016 5.55467 8.496 5.032C8.976 4.50933 9.54133 4.104 10.192 3.816C10.8533 3.528 11.5733 3.384 12.352 3.384C12.9493 3.384 13.5147 3.464 14.048 3.624C14.5813 3.784 15.056 4.01867 15.472 4.328C15.888 4.63733 16.2293 5.02667 16.496 5.496C16.7627 5.96533 16.928 6.50933 16.992 7.128H15.616C15.4667 6.25333 15.1307 5.59733 14.608 5.16C14.096 4.712 13.3493 4.488 12.368 4.488C11.7707 4.488 11.2267 4.6 10.736 4.824C10.256 5.048 9.84533 5.36267 9.504 5.768C9.16267 6.17333 8.896 6.66933 8.704 7.256C8.512 7.84267 8.416 8.49333 8.416 9.208V9.336C8.416 10.0613 8.50667 10.7173 8.688 11.304C8.86933 11.88 9.12533 12.3707 9.456 12.776C9.79733 13.1707 10.208 13.4747 10.688 13.688C11.1787 13.9013 11.7333 14.008 12.352 14.008C13.2907 14.008 14.064 13.7787 14.672 13.32C15.28 12.8507 15.6587 12.1467 15.808 11.208H17.104C16.9013 12.5307 16.3733 13.5173 15.52 14.168C14.6667 14.8187 13.6 15.144 12.32 15.144ZM22.803 14.04C23.219 14.04 23.5977 13.9653 23.939 13.816C24.2803 13.6667 24.5683 13.4533 24.803 13.176C25.0377 12.8987 25.219 12.568 25.347 12.184C25.475 11.7893 25.539 11.3573 25.539 10.888V10.776C25.539 10.296 25.475 9.85867 25.347 9.464C25.219 9.06933 25.0323 8.73333 24.787 8.456C24.5523 8.17867 24.2643 7.96533 23.923 7.816C23.5923 7.66667 23.219 7.592 22.803 7.592C22.387 7.592 22.0083 7.66667 21.667 7.816C21.3257 7.96533 21.0377 8.17867 20.803 8.456C20.5683 8.73333 20.387 9.06933 20.259 9.464C20.131 9.848 20.067 10.28 20.067 10.76V10.888C20.067 11.848 20.307 12.616 20.787 13.192C21.2777 13.7573 21.9497 14.04 22.803 14.04ZM22.787 15.144C22.1897 15.144 21.6403 15.0373 21.139 14.824C20.6377 14.6107 20.2057 14.3173 19.843 13.944C19.4803 13.56 19.1977 13.1067 18.995 12.584C18.7923 12.0613 18.691 11.496 18.691 10.888V10.76C18.691 10.1307 18.7923 9.55467 18.995 9.032C19.2083 8.50933 19.4963 8.06133 19.859 7.688C20.2217 7.304 20.6537 7.01067 21.155 6.808C21.6563 6.59467 22.2057 6.488 22.803 6.488C23.3897 6.488 23.9337 6.59467 24.435 6.808C24.947 7.01067 25.3843 7.29867 25.747 7.672C26.1097 8.04533 26.3923 8.49333 26.595 9.016C26.8083 9.53867 26.915 10.1147 26.915 10.744V10.872C26.915 11.5013 26.8083 12.0827 26.595 12.616C26.3923 13.1387 26.1043 13.5867 25.731 13.96C25.3683 14.3333 24.9363 14.6267 24.435 14.84C23.9337 15.0427 23.3843 15.144 22.787 15.144ZM29.1744 6.632H30.5024V7.912C30.6944 7.51733 31.0037 7.18133 31.4304 6.904C31.8677 6.62667 32.3904 6.488 32.9984 6.488C33.5424 6.488 34.033 6.61067 34.4704 6.856C34.9077 7.09067 35.233 7.49067 35.4464 8.056C35.585 7.78933 35.7664 7.56 35.9904 7.368C36.2144 7.16533 36.4544 7 36.7104 6.872C36.9664 6.744 37.233 6.648 37.5104 6.584C37.7877 6.52 38.0544 6.488 38.3104 6.488C38.6837 6.488 39.041 6.54667 39.3824 6.664C39.7237 6.78133 40.0224 6.97333 40.2784 7.24C40.5344 7.50667 40.737 7.85333 40.8864 8.28C41.0464 8.696 41.1264 9.208 41.1264 9.816V15H39.7984V9.72C39.7984 8.984 39.6437 8.456 39.3344 8.136C39.0357 7.80533 38.5984 7.64 38.0224 7.64C37.745 7.64 37.473 7.688 37.2064 7.784C36.9504 7.86933 36.7157 8.008 36.5024 8.2C36.2997 8.38133 36.1344 8.616 36.0064 8.904C35.8784 9.18133 35.8144 9.50667 35.8144 9.88V15H34.4864V9.72C34.4864 8.984 34.3317 8.456 34.0224 8.136C33.7237 7.80533 33.2864 7.64 32.7104 7.64C32.433 7.64 32.161 7.688 31.8944 7.784C31.6384 7.86933 31.4037 8.008 31.1904 8.2C30.9877 8.38133 30.8224 8.616 30.6944 8.904C30.5664 9.18133 30.5024 9.50667 30.5024 9.88V15H29.1744V6.632ZM43.9244 6.632H45.2524V8.04C45.3697 7.83733 45.5244 7.64533 45.7164 7.464C45.919 7.272 46.143 7.10667 46.3884 6.968C46.6337 6.81867 46.9004 6.70133 47.1884 6.616C47.4764 6.53067 47.775 6.488 48.0844 6.488C48.6284 6.488 49.135 6.584 49.6044 6.776C50.0737 6.968 50.4737 7.24533 50.8044 7.608C51.1457 7.97067 51.4124 8.41333 51.6044 8.936C51.7964 9.45867 51.8924 10.0453 51.8924 10.696V10.824C51.8924 11.464 51.8017 12.0507 51.6204 12.584C51.439 13.1067 51.183 13.56 50.8524 13.944C50.5217 14.328 50.1217 14.6267 49.6524 14.84C49.183 15.0427 48.6604 15.144 48.0844 15.144C47.391 15.144 46.8044 14.9947 46.3244 14.696C45.855 14.3973 45.4977 14.04 45.2524 13.624V17.912H43.9244V6.632ZM47.9564 14.04C48.7884 14.04 49.423 13.7733 49.8604 13.24C50.2977 12.696 50.5164 11.912 50.5164 10.888V10.76C50.5164 10.2373 50.447 9.77867 50.3084 9.384C50.1697 8.97867 49.983 8.648 49.7484 8.392C49.5244 8.12533 49.2524 7.928 48.9324 7.8C48.623 7.66133 48.2924 7.592 47.9404 7.592C47.5564 7.592 47.1937 7.656 46.8524 7.784C46.5217 7.912 46.2337 8.10933 45.9884 8.376C45.743 8.632 45.551 8.96267 45.4124 9.368C45.2737 9.76267 45.2044 10.2267 45.2044 10.76V10.888C45.2044 11.4213 45.2684 11.8853 45.3964 12.28C45.535 12.6747 45.7217 13.0053 45.9564 13.272C46.2017 13.528 46.495 13.72 46.8364 13.848C47.1777 13.976 47.551 14.04 47.9564 14.04ZM54.1751 2.632H55.5191V15H54.1751V2.632ZM61.8484 15.144C61.251 15.144 60.707 15.0427 60.2164 14.84C59.7257 14.6373 59.299 14.3547 58.9364 13.992C58.5737 13.6187 58.291 13.1707 58.0884 12.648C57.8964 12.1253 57.8004 11.544 57.8004 10.904V10.776C57.8004 10.1467 57.8964 9.57067 58.0884 9.048C58.2804 8.51467 58.547 8.06133 58.8884 7.688C59.2404 7.304 59.6564 7.01067 60.1364 6.808C60.6164 6.59467 61.1444 6.488 61.7204 6.488C62.2004 6.488 62.6644 6.568 63.1124 6.728C63.571 6.87733 63.9764 7.11733 64.3284 7.448C64.6804 7.77867 64.9577 8.21067 65.1604 8.744C65.3737 9.26667 65.4804 9.90133 65.4804 10.648V11.08H59.1764C59.2084 12.04 59.4484 12.776 59.8964 13.288C60.3444 13.7893 61.0004 14.04 61.8644 14.04C63.1764 14.04 63.9177 13.5547 64.0884 12.584H65.4164C65.267 13.4267 64.8724 14.0667 64.2324 14.504C63.5924 14.9307 62.7977 15.144 61.8484 15.144ZM64.1204 10.008C64.0564 9.144 63.811 8.52533 63.3844 8.152C62.9684 7.77867 62.4137 7.592 61.7204 7.592C61.0377 7.592 60.4777 7.81067 60.0404 8.248C59.6137 8.67467 59.3417 9.26133 59.2244 10.008H64.1204ZM70.2496 15.112C69.4816 15.112 68.911 14.9093 68.5376 14.504C68.175 14.0987 67.9936 13.5653 67.9936 12.904V7.752H66.7936V6.632H67.9936V4.728H69.3216V6.632H71.2736V7.752H69.3216V12.776C69.3216 13.5867 69.6683 13.992 70.3616 13.992C70.575 13.992 70.7616 13.976 70.9216 13.944C71.0816 13.912 71.2363 13.8693 71.3856 13.816V14.936C71.247 14.9893 71.0923 15.032 70.9216 15.064C70.751 15.096 70.527 15.112 70.2496 15.112ZM77.0046 15.144C76.4073 15.144 75.8633 15.0427 75.3726 14.84C74.882 14.6373 74.4553 14.3547 74.0926 13.992C73.73 13.6187 73.4473 13.1707 73.2446 12.648C73.0526 12.1253 72.9566 11.544 72.9566 10.904V10.776C72.9566 10.1467 73.0526 9.57067 73.2446 9.048C73.4366 8.51467 73.7033 8.06133 74.0446 7.688C74.3966 7.304 74.8126 7.01067 75.2926 6.808C75.7726 6.59467 76.3006 6.488 76.8766 6.488C77.3566 6.488 77.8206 6.568 78.2686 6.728C78.7273 6.87733 79.1326 7.11733 79.4846 7.448C79.8366 7.77867 80.114 8.21067 80.3166 8.744C80.53 9.26667 80.6366 9.90133 80.6366 10.648V11.08H74.3326C74.3646 12.04 74.6046 12.776 75.0526 13.288C75.5006 13.7893 76.1566 14.04 77.0206 14.04C78.3326 14.04 79.074 13.5547 79.2446 12.584H80.5726C80.4233 13.4267 80.0286 14.0667 79.3886 14.504C78.7486 14.9307 77.954 15.144 77.0046 15.144ZM79.2766 10.008C79.2126 9.144 78.9673 8.52533 78.5406 8.152C78.1246 7.77867 77.57 7.592 76.8766 7.592C76.194 7.592 75.634 7.81067 75.1966 8.248C74.77 8.67467 74.498 9.26133 74.3806 10.008H79.2766ZM86.0139 15.144C85.4699 15.144 84.9632 15.0533 84.4939 14.872C84.0352 14.68 83.6352 14.408 83.2939 14.056C82.9632 13.6933 82.7019 13.256 82.5099 12.744C82.3285 12.2213 82.2379 11.6347 82.2379 10.984V10.856C82.2379 10.216 82.3339 9.62933 82.5259 9.096C82.7179 8.56267 82.9845 8.104 83.3259 7.72C83.6672 7.32533 84.0779 7.02133 84.5579 6.808C85.0379 6.59467 85.5659 6.488 86.1419 6.488C86.8459 6.488 87.4165 6.63733 87.8539 6.936C88.2912 7.224 88.6325 7.57067 88.8779 7.976V2.632H90.2059V15H88.8779V13.56C88.7605 13.7627 88.6005 13.96 88.3979 14.152C88.1952 14.344 87.9659 14.5147 87.7099 14.664C87.4645 14.8027 87.1925 14.9147 86.8939 15C86.6059 15.096 86.3125 15.144 86.0139 15.144ZM86.1579 14.04C86.5419 14.04 86.9045 13.976 87.2459 13.848C87.5872 13.72 87.8805 13.528 88.1259 13.272C88.3712 13.0053 88.5632 12.6747 88.7019 12.28C88.8512 11.8747 88.9259 11.4053 88.9259 10.872V10.744C88.9259 9.66667 88.6859 8.872 88.2059 8.36C87.7365 7.848 87.0912 7.592 86.2699 7.592C85.4379 7.592 84.7872 7.86933 84.3179 8.424C83.8485 8.97867 83.6139 9.768 83.6139 10.792V10.92C83.6139 11.4533 83.6779 11.9173 83.8059 12.312C83.9445 12.696 84.1259 13.016 84.3499 13.272C84.5845 13.528 84.8565 13.72 85.1659 13.848C85.4752 13.976 85.8059 14.04 86.1579 14.04Z" fill="white"/>
</svg>
