<svg width="20" height="23" viewBox="0 0 20 23" fill="none" xmlns="http://www.w3.org/2000/svg">
<path d="M15.0633 21.5499C16.7896 21.5499 18.1891 20.1504 18.1891 18.4241C18.1891 16.6978 16.7896 15.2983 15.0633 15.2983C13.337 15.2983 11.9375 16.6978 11.9375 18.4241C11.9375 20.1504 13.337 21.5499 15.0633 21.5499Z" stroke="white" stroke-width="2" stroke-linecap="round" stroke-linejoin="round"/>
<path d="M15.0633 7.48398C16.7896 7.48398 18.1891 6.08452 18.1891 4.3582C18.1891 2.63188 16.7896 1.23242 15.0633 1.23242C13.337 1.23242 11.9375 2.63188 11.9375 4.3582C11.9375 6.08452 13.337 7.48398 15.0633 7.48398Z" stroke="white" stroke-width="2" stroke-linecap="round" stroke-linejoin="round"/>
<path d="M4.12578 14.5172C5.8521 14.5172 7.25156 13.1177 7.25156 11.3914C7.25156 9.66508 5.8521 8.26562 4.12578 8.26562C2.39946 8.26562 1 9.66508 1 11.3914C1 13.1177 2.39946 14.5172 4.12578 14.5172Z" stroke="white" stroke-width="2" stroke-linecap="round" stroke-linejoin="round"/>
<path d="M12.4409 6.04834L6.75586 9.70159" stroke="white" stroke-width="2" stroke-linecap="round" stroke-linejoin="round"/>
<path d="M6.75586 13.0811L12.4409 16.7343" stroke="white" stroke-width="2" stroke-linecap="round" stroke-linejoin="round"/>
</svg>
