<svg width="262" height="125" viewBox="0 0 262 125" fill="none" xmlns="http://www.w3.org/2000/svg">
<rect width="261.841" height="124.689" rx="10" fill="url(#paint0_linear_1958_2874)"/>
<path d="M0 87.5303H261.841V115C261.841 120.523 257.364 125 251.841 125H10C4.47716 125 0 120.523 0 115V87.5303Z" fill="#795DEF"/>
<path d="M40.1615 112.303C40.8975 112.303 41.5375 112.197 42.0815 111.983C42.6361 111.77 43.0948 111.466 43.4575 111.071C43.8308 110.677 44.1081 110.202 44.2895 109.647C44.4815 109.082 44.5775 108.447 44.5775 107.743V107.615C44.5775 106.954 44.4921 106.351 44.3215 105.807C44.1615 105.253 43.9001 104.778 43.5375 104.383C43.1855 103.978 42.7268 103.669 42.1615 103.455C41.6068 103.231 40.9348 103.119 40.1455 103.119H38.5935V112.303H40.1615ZM37.2015 101.999H40.2255C41.2068 101.999 42.0601 102.143 42.7855 102.431C43.5108 102.719 44.1135 103.114 44.5935 103.615C45.0735 104.117 45.4308 104.709 45.6655 105.391C45.9001 106.074 46.0175 106.815 46.0175 107.615V107.759C46.0175 108.549 45.9001 109.29 45.6655 109.983C45.4415 110.677 45.0895 111.279 44.6095 111.791C44.1295 112.303 43.5215 112.709 42.7855 113.007C42.0601 113.295 41.1961 113.439 40.1935 113.439H37.2015V101.999ZM51.8576 113.583C51.2603 113.583 50.7163 113.482 50.2256 113.279C49.7349 113.077 49.3083 112.794 48.9456 112.431C48.5829 112.058 48.3003 111.61 48.0976 111.087C47.9056 110.565 47.8096 109.983 47.8096 109.343V109.215C47.8096 108.586 47.9056 108.01 48.0976 107.487C48.2896 106.954 48.5563 106.501 48.8976 106.127C49.2496 105.743 49.6656 105.45 50.1456 105.247C50.6256 105.034 51.1536 104.927 51.7296 104.927C52.2096 104.927 52.6736 105.007 53.1216 105.167C53.5803 105.317 53.9856 105.557 54.3376 105.887C54.6896 106.218 54.9669 106.65 55.1696 107.183C55.3829 107.706 55.4896 108.341 55.4896 109.087V109.519H49.1856C49.2176 110.479 49.4576 111.215 49.9056 111.727C50.3536 112.229 51.0096 112.479 51.8736 112.479C53.1856 112.479 53.9269 111.994 54.0976 111.023H55.4256C55.2763 111.866 54.8816 112.506 54.2416 112.943C53.6016 113.37 52.8069 113.583 51.8576 113.583ZM54.1296 108.447C54.0656 107.583 53.8203 106.965 53.3936 106.591C52.9776 106.218 52.4229 106.031 51.7296 106.031C51.0469 106.031 50.4869 106.25 50.0496 106.687C49.6229 107.114 49.3509 107.701 49.2336 108.447H54.1296ZM60.2588 113.551C59.4908 113.551 58.9202 113.349 58.5468 112.943C58.1842 112.538 58.0028 112.005 58.0028 111.343V106.191H56.8028V105.071H58.0028V103.167H59.3308V105.071H61.2828V106.191H59.3308V111.215C59.3308 112.026 59.6775 112.431 60.3708 112.431C60.5842 112.431 60.7708 112.415 60.9308 112.383C61.0908 112.351 61.2455 112.309 61.3948 112.255V113.375C61.2562 113.429 61.1015 113.471 60.9308 113.503C60.7602 113.535 60.5362 113.551 60.2588 113.551ZM67.0138 113.583C66.4165 113.583 65.8725 113.482 65.3818 113.279C64.8912 113.077 64.4645 112.794 64.1018 112.431C63.7392 112.058 63.4565 111.61 63.2538 111.087C63.0618 110.565 62.9658 109.983 62.9658 109.343V109.215C62.9658 108.586 63.0618 108.01 63.2538 107.487C63.4458 106.954 63.7125 106.501 64.0538 106.127C64.4058 105.743 64.8218 105.45 65.3018 105.247C65.7818 105.034 66.3098 104.927 66.8858 104.927C67.3658 104.927 67.8298 105.007 68.2778 105.167C68.7365 105.317 69.1418 105.557 69.4938 105.887C69.8458 106.218 70.1232 106.65 70.3258 107.183C70.5392 107.706 70.6458 108.341 70.6458 109.087V109.519H64.3418C64.3738 110.479 64.6138 111.215 65.0618 111.727C65.5098 112.229 66.1658 112.479 67.0298 112.479C68.3418 112.479 69.0832 111.994 69.2538 111.023H70.5818C70.4325 111.866 70.0378 112.506 69.3978 112.943C68.7578 113.37 67.9632 113.583 67.0138 113.583ZM69.2858 108.447C69.2218 107.583 68.9765 106.965 68.5498 106.591C68.1338 106.218 67.5792 106.031 66.8858 106.031C66.2032 106.031 65.6432 106.25 65.2058 106.687C64.7792 107.114 64.5072 107.701 64.3898 108.447H69.2858ZM76.3431 113.583C75.7564 113.583 75.2124 113.487 74.7111 113.295C74.2204 113.093 73.7884 112.81 73.4151 112.447C73.0524 112.074 72.7644 111.626 72.5511 111.103C72.3484 110.581 72.2471 109.994 72.2471 109.343V109.215C72.2471 108.575 72.3538 107.994 72.5671 107.471C72.7804 106.938 73.0684 106.485 73.4311 106.111C73.8044 105.738 74.2364 105.45 74.7271 105.247C75.2178 105.034 75.7458 104.927 76.3111 104.927C76.7484 104.927 77.1698 104.981 77.5751 105.087C77.9911 105.194 78.3591 105.365 78.6791 105.599C79.0098 105.823 79.2871 106.122 79.5111 106.495C79.7351 106.869 79.8791 107.322 79.9431 107.855H78.6311C78.5244 107.194 78.2524 106.725 77.8151 106.447C77.3884 106.17 76.8871 106.031 76.3111 106.031C75.9271 106.031 75.5698 106.106 75.2391 106.255C74.9191 106.405 74.6364 106.618 74.3911 106.895C74.1564 107.162 73.9698 107.493 73.8311 107.887C73.6924 108.282 73.6231 108.725 73.6231 109.215V109.343C73.6231 110.378 73.8738 111.162 74.3751 111.695C74.8871 112.218 75.5484 112.479 76.3591 112.479C76.6578 112.479 76.9404 112.437 77.2071 112.351C77.4844 112.266 77.7298 112.138 77.9431 111.967C78.1671 111.797 78.3484 111.583 78.4871 111.327C78.6364 111.071 78.7271 110.773 78.7591 110.431H79.9911C79.9484 110.879 79.8258 111.301 79.6231 111.695C79.4311 112.079 79.1751 112.41 78.8551 112.687C78.5351 112.965 78.1618 113.183 77.7351 113.343C77.3084 113.503 76.8444 113.583 76.3431 113.583ZM84.7276 113.551C83.9596 113.551 83.3889 113.349 83.0156 112.943C82.6529 112.538 82.4716 112.005 82.4716 111.343V106.191H81.2716V105.071H82.4716V103.167H83.7996V105.071H85.7516V106.191H83.7996V111.215C83.7996 112.026 84.1463 112.431 84.8396 112.431C85.0529 112.431 85.2396 112.415 85.3996 112.383C85.5596 112.351 85.7143 112.309 85.8636 112.255V113.375C85.7249 113.429 85.5703 113.471 85.3996 113.503C85.2289 113.535 85.0049 113.551 84.7276 113.551ZM91.4826 113.583C90.8853 113.583 90.3413 113.482 89.8506 113.279C89.3599 113.077 88.9333 112.794 88.5706 112.431C88.2079 112.058 87.9253 111.61 87.7226 111.087C87.5306 110.565 87.4346 109.983 87.4346 109.343V109.215C87.4346 108.586 87.5306 108.01 87.7226 107.487C87.9146 106.954 88.1813 106.501 88.5226 106.127C88.8746 105.743 89.2906 105.45 89.7706 105.247C90.2506 105.034 90.7786 104.927 91.3546 104.927C91.8346 104.927 92.2986 105.007 92.7466 105.167C93.2053 105.317 93.6106 105.557 93.9626 105.887C94.3146 106.218 94.5919 106.65 94.7946 107.183C95.0079 107.706 95.1146 108.341 95.1146 109.087V109.519H88.8106C88.8426 110.479 89.0826 111.215 89.5306 111.727C89.9786 112.229 90.6346 112.479 91.4986 112.479C92.8106 112.479 93.5519 111.994 93.7226 111.023H95.0506C94.9013 111.866 94.5066 112.506 93.8666 112.943C93.2266 113.37 92.4319 113.583 91.4826 113.583ZM93.7546 108.447C93.6906 107.583 93.4453 106.965 93.0186 106.591C92.6026 106.218 92.0479 106.031 91.3546 106.031C90.6719 106.031 90.1119 106.25 89.6746 106.687C89.2479 107.114 88.9759 107.701 88.8586 108.447H93.7546ZM100.492 113.583C99.9478 113.583 99.4412 113.493 98.9718 113.311C98.5132 113.119 98.1132 112.847 97.7718 112.495C97.4412 112.133 97.1798 111.695 96.9878 111.183C96.8065 110.661 96.7158 110.074 96.7158 109.423V109.295C96.7158 108.655 96.8118 108.069 97.0038 107.535C97.1958 107.002 97.4625 106.543 97.8038 106.159C98.1452 105.765 98.5558 105.461 99.0358 105.247C99.5158 105.034 100.044 104.927 100.62 104.927C101.324 104.927 101.895 105.077 102.332 105.375C102.769 105.663 103.111 106.01 103.356 106.415V101.071H104.684V113.439H103.356V111.999C103.239 112.202 103.079 112.399 102.876 112.591C102.673 112.783 102.444 112.954 102.188 113.103C101.943 113.242 101.671 113.354 101.372 113.439C101.084 113.535 100.791 113.583 100.492 113.583ZM100.636 112.479C101.02 112.479 101.383 112.415 101.724 112.287C102.065 112.159 102.359 111.967 102.604 111.711C102.849 111.445 103.041 111.114 103.18 110.719C103.329 110.314 103.404 109.845 103.404 109.311V109.183C103.404 108.106 103.164 107.311 102.684 106.799C102.215 106.287 101.569 106.031 100.748 106.031C99.9158 106.031 99.2652 106.309 98.7958 106.863C98.3265 107.418 98.0918 108.207 98.0918 109.231V109.359C98.0918 109.893 98.1558 110.357 98.2838 110.751C98.4225 111.135 98.6038 111.455 98.8278 111.711C99.0625 111.967 99.3345 112.159 99.6438 112.287C99.9532 112.415 100.284 112.479 100.636 112.479ZM116.673 113.583C115.841 113.583 115.094 113.45 114.433 113.183C113.782 112.906 113.222 112.517 112.753 112.015C112.294 111.503 111.942 110.895 111.697 110.191C111.452 109.477 111.329 108.677 111.329 107.791V107.663C111.329 106.821 111.462 106.042 111.729 105.327C111.996 104.613 112.369 103.994 112.849 103.471C113.329 102.949 113.894 102.543 114.545 102.255C115.206 101.967 115.926 101.823 116.705 101.823C117.302 101.823 117.868 101.903 118.401 102.063C118.934 102.223 119.409 102.458 119.825 102.767C120.241 103.077 120.582 103.466 120.849 103.935C121.116 104.405 121.281 104.949 121.345 105.567H119.969C119.82 104.693 119.484 104.037 118.961 103.599C118.449 103.151 117.702 102.927 116.721 102.927C116.124 102.927 115.58 103.039 115.089 103.263C114.609 103.487 114.198 103.802 113.857 104.207C113.516 104.613 113.249 105.109 113.057 105.695C112.865 106.282 112.769 106.933 112.769 107.647V107.775C112.769 108.501 112.86 109.157 113.041 109.743C113.222 110.319 113.478 110.81 113.809 111.215C114.15 111.61 114.561 111.914 115.041 112.127C115.532 112.341 116.086 112.447 116.705 112.447C117.644 112.447 118.417 112.218 119.025 111.759C119.633 111.29 120.012 110.586 120.161 109.647H121.457C121.254 110.97 120.726 111.957 119.873 112.607C119.02 113.258 117.953 113.583 116.673 113.583ZM127.156 112.479C127.572 112.479 127.951 112.405 128.292 112.255C128.633 112.106 128.921 111.893 129.156 111.615C129.391 111.338 129.572 111.007 129.7 110.623C129.828 110.229 129.892 109.797 129.892 109.327V109.215C129.892 108.735 129.828 108.298 129.7 107.903C129.572 107.509 129.385 107.173 129.14 106.895C128.905 106.618 128.617 106.405 128.276 106.255C127.945 106.106 127.572 106.031 127.156 106.031C126.74 106.031 126.361 106.106 126.02 106.255C125.679 106.405 125.391 106.618 125.156 106.895C124.921 107.173 124.74 107.509 124.612 107.903C124.484 108.287 124.42 108.719 124.42 109.199V109.327C124.42 110.287 124.66 111.055 125.14 111.631C125.631 112.197 126.303 112.479 127.156 112.479ZM127.14 113.583C126.543 113.583 125.993 113.477 125.492 113.263C124.991 113.05 124.559 112.757 124.196 112.383C123.833 111.999 123.551 111.546 123.348 111.023C123.145 110.501 123.044 109.935 123.044 109.327V109.199C123.044 108.57 123.145 107.994 123.348 107.471C123.561 106.949 123.849 106.501 124.212 106.127C124.575 105.743 125.007 105.45 125.508 105.247C126.009 105.034 126.559 104.927 127.156 104.927C127.743 104.927 128.287 105.034 128.788 105.247C129.3 105.45 129.737 105.738 130.1 106.111C130.463 106.485 130.745 106.933 130.948 107.455C131.161 107.978 131.268 108.554 131.268 109.183V109.311C131.268 109.941 131.161 110.522 130.948 111.055C130.745 111.578 130.457 112.026 130.084 112.399C129.721 112.773 129.289 113.066 128.788 113.279C128.287 113.482 127.737 113.583 127.14 113.583ZM133.527 105.071H134.855V106.575C134.983 106.341 135.127 106.127 135.287 105.935C135.458 105.733 135.65 105.562 135.863 105.423C136.077 105.274 136.327 105.157 136.615 105.071C136.903 104.986 137.234 104.938 137.607 104.927V106.175C137.191 106.197 136.813 106.25 136.471 106.335C136.13 106.421 135.837 106.565 135.591 106.767C135.357 106.97 135.175 107.242 135.047 107.583C134.919 107.914 134.855 108.335 134.855 108.847V113.439H133.527V105.071ZM139.73 105.071H141.058V106.575C141.186 106.341 141.33 106.127 141.49 105.935C141.661 105.733 141.853 105.562 142.066 105.423C142.28 105.274 142.53 105.157 142.818 105.071C143.106 104.986 143.437 104.938 143.81 104.927V106.175C143.394 106.197 143.016 106.25 142.674 106.335C142.333 106.421 142.04 106.565 141.794 106.767C141.56 106.97 141.378 107.242 141.25 107.583C141.122 107.914 141.058 108.335 141.058 108.847V113.439H139.73V105.071ZM149.187 112.479C149.603 112.479 149.982 112.405 150.323 112.255C150.665 112.106 150.953 111.893 151.187 111.615C151.422 111.338 151.603 111.007 151.731 110.623C151.859 110.229 151.923 109.797 151.923 109.327V109.215C151.923 108.735 151.859 108.298 151.731 107.903C151.603 107.509 151.417 107.173 151.171 106.895C150.937 106.618 150.649 106.405 150.307 106.255C149.977 106.106 149.603 106.031 149.187 106.031C148.771 106.031 148.393 106.106 148.051 106.255C147.71 106.405 147.422 106.618 147.187 106.895C146.953 107.173 146.771 107.509 146.643 107.903C146.515 108.287 146.451 108.719 146.451 109.199V109.327C146.451 110.287 146.691 111.055 147.171 111.631C147.662 112.197 148.334 112.479 149.187 112.479ZM149.171 113.583C148.574 113.583 148.025 113.477 147.523 113.263C147.022 113.05 146.59 112.757 146.227 112.383C145.865 111.999 145.582 111.546 145.379 111.023C145.177 110.501 145.075 109.935 145.075 109.327V109.199C145.075 108.57 145.177 107.994 145.379 107.471C145.593 106.949 145.881 106.501 146.243 106.127C146.606 105.743 147.038 105.45 147.539 105.247C148.041 105.034 148.59 104.927 149.187 104.927C149.774 104.927 150.318 105.034 150.819 105.247C151.331 105.45 151.769 105.738 152.131 106.111C152.494 106.485 152.777 106.933 152.979 107.455C153.193 107.978 153.299 108.554 153.299 109.183V109.311C153.299 109.941 153.193 110.522 152.979 111.055C152.777 111.578 152.489 112.026 152.115 112.399C151.753 112.773 151.321 113.066 150.819 113.279C150.318 113.482 149.769 113.583 149.171 113.583ZM158.151 113.583C157.148 113.583 156.359 113.349 155.783 112.879C155.217 112.399 154.913 111.727 154.871 110.863H156.167C156.22 111.365 156.391 111.759 156.679 112.047C156.977 112.335 157.463 112.479 158.135 112.479C158.775 112.479 159.239 112.373 159.527 112.159C159.815 111.935 159.959 111.599 159.959 111.151C159.959 110.714 159.793 110.399 159.463 110.207C159.143 110.015 158.657 109.861 158.007 109.743C157.463 109.647 157.004 109.535 156.631 109.407C156.257 109.269 155.959 109.103 155.735 108.911C155.511 108.719 155.345 108.49 155.239 108.223C155.143 107.957 155.095 107.642 155.095 107.279C155.095 106.895 155.18 106.559 155.351 106.271C155.521 105.973 155.74 105.727 156.007 105.535C156.284 105.333 156.588 105.183 156.919 105.087C157.26 104.981 157.596 104.927 157.927 104.927C158.3 104.927 158.657 104.97 158.999 105.055C159.34 105.13 159.644 105.263 159.911 105.455C160.188 105.647 160.417 105.898 160.599 106.207C160.78 106.517 160.897 106.895 160.951 107.343H159.671C159.575 106.885 159.388 106.554 159.111 106.351C158.844 106.138 158.444 106.031 157.911 106.031C157.431 106.031 157.047 106.143 156.759 106.367C156.471 106.581 156.327 106.869 156.327 107.231C156.327 107.423 156.353 107.589 156.407 107.727C156.471 107.855 156.577 107.973 156.727 108.079C156.876 108.175 157.073 108.266 157.319 108.351C157.575 108.426 157.895 108.495 158.279 108.559C158.705 108.645 159.1 108.741 159.463 108.847C159.825 108.943 160.135 109.082 160.391 109.263C160.657 109.434 160.86 109.663 160.999 109.951C161.148 110.229 161.223 110.591 161.223 111.039C161.223 111.807 160.967 112.426 160.455 112.895C159.943 113.354 159.175 113.583 158.151 113.583ZM163.466 105.071H164.794V113.439H163.466V105.071ZM164.106 103.327C163.86 103.327 163.652 103.242 163.482 103.071C163.311 102.901 163.226 102.693 163.226 102.447C163.226 102.202 163.311 101.994 163.482 101.823C163.652 101.653 163.86 101.567 164.106 101.567C164.351 101.567 164.559 101.653 164.73 101.823C164.9 101.994 164.986 102.202 164.986 102.447C164.986 102.693 164.9 102.901 164.73 103.071C164.559 103.242 164.351 103.327 164.106 103.327ZM171.187 112.479C171.603 112.479 171.982 112.405 172.323 112.255C172.665 112.106 172.953 111.893 173.187 111.615C173.422 111.338 173.603 111.007 173.731 110.623C173.859 110.229 173.923 109.797 173.923 109.327V109.215C173.923 108.735 173.859 108.298 173.731 107.903C173.603 107.509 173.417 107.173 173.171 106.895C172.937 106.618 172.649 106.405 172.307 106.255C171.977 106.106 171.603 106.031 171.187 106.031C170.771 106.031 170.393 106.106 170.051 106.255C169.71 106.405 169.422 106.618 169.187 106.895C168.953 107.173 168.771 107.509 168.643 107.903C168.515 108.287 168.451 108.719 168.451 109.199V109.327C168.451 110.287 168.691 111.055 169.171 111.631C169.662 112.197 170.334 112.479 171.187 112.479ZM171.171 113.583C170.574 113.583 170.025 113.477 169.523 113.263C169.022 113.05 168.59 112.757 168.227 112.383C167.865 111.999 167.582 111.546 167.379 111.023C167.177 110.501 167.075 109.935 167.075 109.327V109.199C167.075 108.57 167.177 107.994 167.379 107.471C167.593 106.949 167.881 106.501 168.243 106.127C168.606 105.743 169.038 105.45 169.539 105.247C170.041 105.034 170.59 104.927 171.187 104.927C171.774 104.927 172.318 105.034 172.819 105.247C173.331 105.45 173.769 105.738 174.131 106.111C174.494 106.485 174.777 106.933 174.979 107.455C175.193 107.978 175.299 108.554 175.299 109.183V109.311C175.299 109.941 175.193 110.522 174.979 111.055C174.777 111.578 174.489 112.026 174.115 112.399C173.753 112.773 173.321 113.066 172.819 113.279C172.318 113.482 171.769 113.583 171.171 113.583ZM177.559 105.071H178.887V106.399C179.079 106.005 179.399 105.663 179.847 105.375C180.305 105.077 180.881 104.927 181.575 104.927C182.001 104.927 182.396 104.991 182.759 105.119C183.121 105.237 183.431 105.434 183.687 105.711C183.953 105.978 184.156 106.325 184.295 106.751C184.444 107.178 184.519 107.695 184.519 108.303V113.439H183.191V108.207C183.191 107.471 183.031 106.933 182.711 106.591C182.391 106.25 181.895 106.079 181.223 106.079C180.913 106.079 180.615 106.127 180.327 106.223C180.049 106.319 179.804 106.463 179.591 106.655C179.377 106.847 179.207 107.087 179.079 107.375C178.951 107.663 178.887 107.994 178.887 108.367V113.439H177.559V105.071ZM194.007 103.135H190.679V101.999H198.727V103.135H195.399V113.439H194.007V103.135ZM201.941 112.575L198.661 105.071H200.085L202.645 111.071L204.965 105.071H206.325L201.701 116.351H200.357L201.941 112.575ZM208.262 105.071H209.59V106.479C209.707 106.277 209.862 106.085 210.054 105.903C210.256 105.711 210.48 105.546 210.726 105.407C210.971 105.258 211.238 105.141 211.526 105.055C211.814 104.97 212.112 104.927 212.422 104.927C212.966 104.927 213.472 105.023 213.942 105.215C214.411 105.407 214.811 105.685 215.142 106.047C215.483 106.41 215.75 106.853 215.942 107.375C216.134 107.898 216.23 108.485 216.23 109.135V109.263C216.23 109.903 216.139 110.49 215.958 111.023C215.776 111.546 215.52 111.999 215.19 112.383C214.859 112.767 214.459 113.066 213.99 113.279C213.52 113.482 212.998 113.583 212.422 113.583C211.728 113.583 211.142 113.434 210.662 113.135C210.192 112.837 209.835 112.479 209.59 112.063V116.351H208.262V105.071ZM212.294 112.479C213.126 112.479 213.76 112.213 214.198 111.679C214.635 111.135 214.854 110.351 214.854 109.327V109.199C214.854 108.677 214.784 108.218 214.646 107.823C214.507 107.418 214.32 107.087 214.086 106.831C213.862 106.565 213.59 106.367 213.27 106.239C212.96 106.101 212.63 106.031 212.278 106.031C211.894 106.031 211.531 106.095 211.19 106.223C210.859 106.351 210.571 106.549 210.326 106.815C210.08 107.071 209.888 107.402 209.75 107.807C209.611 108.202 209.542 108.666 209.542 109.199V109.327C209.542 109.861 209.606 110.325 209.734 110.719C209.872 111.114 210.059 111.445 210.294 111.711C210.539 111.967 210.832 112.159 211.174 112.287C211.515 112.415 211.888 112.479 212.294 112.479ZM221.904 113.583C221.307 113.583 220.763 113.482 220.272 113.279C219.782 113.077 219.355 112.794 218.992 112.431C218.63 112.058 218.347 111.61 218.144 111.087C217.952 110.565 217.856 109.983 217.856 109.343V109.215C217.856 108.586 217.952 108.01 218.144 107.487C218.336 106.954 218.603 106.501 218.944 106.127C219.296 105.743 219.712 105.45 220.192 105.247C220.672 105.034 221.2 104.927 221.776 104.927C222.256 104.927 222.72 105.007 223.168 105.167C223.627 105.317 224.032 105.557 224.384 105.887C224.736 106.218 225.014 106.65 225.216 107.183C225.43 107.706 225.536 108.341 225.536 109.087V109.519H219.232C219.264 110.479 219.504 111.215 219.952 111.727C220.4 112.229 221.056 112.479 221.92 112.479C223.232 112.479 223.974 111.994 224.144 111.023H225.472C225.323 111.866 224.928 112.506 224.288 112.943C223.648 113.37 222.854 113.583 221.904 113.583ZM224.176 108.447C224.112 107.583 223.867 106.965 223.44 106.591C223.024 106.218 222.47 106.031 221.776 106.031C221.094 106.031 220.534 106.25 220.096 106.687C219.67 107.114 219.398 107.701 219.28 108.447H224.176Z" fill="white"/>
<path d="M56.067 21.8145H62.692L68.367 39.6895H62.942L61.992 36.3645H56.067L55.117 39.6895H50.342L56.067 21.8145ZM57.067 32.8395H60.992L59.042 25.9645L57.067 32.8395ZM74.9258 39.9895C73.4424 39.9895 72.3008 39.6311 71.5008 38.9145C70.7174 38.1811 70.3258 37.0395 70.3258 35.4895V29.6645H68.7508V26.6145H70.3258V23.8895H74.8008V26.6145H77.3758V29.6645H74.8008V35.0645C74.8008 35.5145 74.9091 35.8561 75.1258 36.0895C75.3591 36.3228 75.6924 36.4395 76.1258 36.4395C76.3758 36.4395 76.6008 36.4228 76.8008 36.3895C77.0008 36.3561 77.2008 36.2978 77.4008 36.2145V39.6145C77.1174 39.6978 76.7674 39.7811 76.3508 39.8645C75.9341 39.9478 75.4591 39.9895 74.9258 39.9895ZM79.6623 26.6145H84.1373V28.6145C84.4873 27.9811 85.004 27.4311 85.6873 26.9645C86.3706 26.4978 87.2206 26.2645 88.2373 26.2645C89.104 26.2645 89.829 26.4478 90.4123 26.8145C91.0123 27.1645 91.4706 27.7061 91.7873 28.4395C92.354 27.6728 93.004 27.1228 93.7373 26.7895C94.4873 26.4395 95.279 26.2645 96.1123 26.2645C96.729 26.2645 97.2956 26.3645 97.8123 26.5645C98.3456 26.7645 98.804 27.0645 99.1873 27.4645C99.554 27.8811 99.8456 28.3978 100.062 29.0145C100.279 29.6145 100.387 30.3228 100.387 31.1395V39.6895H95.9123V31.8895C95.9123 31.2228 95.7623 30.7311 95.4623 30.4145C95.1623 30.0811 94.754 29.9145 94.2373 29.9145C93.6373 29.9145 93.154 30.1061 92.7873 30.4895C92.4206 30.8561 92.2373 31.3978 92.2373 32.1145V39.6895H87.8123V31.8895C87.8123 31.2228 87.6623 30.7311 87.3623 30.4145C87.0623 30.0811 86.654 29.9145 86.1373 29.9145C85.5373 29.9145 85.054 30.1061 84.6873 30.4895C84.3206 30.8561 84.1373 31.3978 84.1373 32.1145V39.6895H79.6623V26.6145ZM109.624 36.6645C110.474 36.6645 111.115 36.3728 111.549 35.7895C111.982 35.1895 112.199 34.3395 112.199 33.2395V33.0395C112.199 31.9395 111.982 31.0978 111.549 30.5145C111.115 29.9145 110.474 29.6145 109.624 29.6145C108.774 29.6145 108.124 29.9061 107.674 30.4895C107.24 31.0561 107.024 31.8895 107.024 32.9895V33.1895C107.024 34.3228 107.24 35.1895 107.674 35.7895C108.107 36.3728 108.757 36.6645 109.624 36.6645ZM109.599 39.9895C108.599 39.9895 107.657 39.8395 106.774 39.5395C105.907 39.2395 105.157 38.8061 104.524 38.2395C103.874 37.6728 103.365 36.9728 102.999 36.1395C102.632 35.3061 102.449 34.3645 102.449 33.3145V33.1145C102.449 32.0645 102.632 31.1228 102.999 30.2895C103.365 29.4395 103.874 28.7145 104.524 28.1145C105.157 27.5145 105.907 27.0561 106.774 26.7395C107.657 26.4228 108.607 26.2645 109.624 26.2645C110.624 26.2645 111.557 26.4228 112.424 26.7395C113.307 27.0395 114.065 27.4811 114.699 28.0645C115.332 28.6478 115.832 29.3561 116.199 30.1895C116.565 31.0228 116.749 31.9561 116.749 32.9895V33.1895C116.749 34.2561 116.565 35.2145 116.199 36.0645C115.832 36.8978 115.332 37.6061 114.699 38.1895C114.049 38.7728 113.282 39.2228 112.399 39.5395C111.532 39.8395 110.599 39.9895 109.599 39.9895ZM124.143 39.9895C122.276 39.9895 120.818 39.6145 119.768 38.8645C118.734 38.1145 118.193 37.0061 118.143 35.5395H122.268C122.351 36.0228 122.518 36.3895 122.768 36.6395C123.034 36.8895 123.484 37.0145 124.118 37.0145C124.668 37.0145 125.068 36.9228 125.318 36.7395C125.584 36.5395 125.718 36.2728 125.718 35.9395C125.718 35.6228 125.534 35.3811 125.168 35.2145C124.818 35.0478 124.193 34.8978 123.293 34.7645C122.409 34.6478 121.651 34.4978 121.018 34.3145C120.401 34.1145 119.893 33.8478 119.493 33.5145C119.093 33.1978 118.793 32.7978 118.593 32.3145C118.409 31.8311 118.318 31.2478 118.318 30.5645C118.318 29.8478 118.468 29.2228 118.768 28.6895C119.068 28.1395 119.476 27.6811 119.993 27.3145C120.493 26.9645 121.084 26.7061 121.768 26.5395C122.451 26.3561 123.168 26.2645 123.918 26.2645C124.718 26.2645 125.451 26.3395 126.118 26.4895C126.801 26.6395 127.393 26.8811 127.893 27.2145C128.393 27.5478 128.793 27.9811 129.093 28.5145C129.409 29.0478 129.609 29.7061 129.693 30.4895H125.643C125.559 30.0561 125.384 29.7311 125.118 29.5145C124.868 29.2978 124.484 29.1895 123.968 29.1895C123.484 29.1895 123.118 29.2895 122.868 29.4895C122.618 29.6728 122.493 29.9145 122.493 30.2145C122.493 30.5311 122.659 30.7645 122.993 30.9145C123.326 31.0645 123.893 31.1895 124.693 31.2895C125.593 31.4061 126.376 31.5561 127.043 31.7395C127.726 31.9228 128.293 32.1728 128.743 32.4895C129.193 32.8228 129.526 33.2311 129.743 33.7145C129.959 34.1978 130.068 34.7895 130.068 35.4895C130.068 37.0395 129.534 38.1811 128.468 38.9145C127.401 39.6311 125.959 39.9895 124.143 39.9895ZM132.104 26.6145H136.579V28.5645C136.962 27.9311 137.487 27.3895 138.154 26.9395C138.82 26.4895 139.654 26.2645 140.654 26.2645C141.42 26.2645 142.137 26.4061 142.804 26.6895C143.47 26.9728 144.054 27.3978 144.554 27.9645C145.054 28.5311 145.445 29.2395 145.729 30.0895C146.029 30.9395 146.179 31.9228 146.179 33.0395V33.2395C146.179 34.3728 146.029 35.3645 145.729 36.2145C145.445 37.0478 145.054 37.7395 144.554 38.2895C144.054 38.8561 143.462 39.2811 142.779 39.5645C142.112 39.8478 141.395 39.9895 140.629 39.9895C139.629 39.9895 138.787 39.7811 138.104 39.3645C137.42 38.9478 136.912 38.4145 136.579 37.7645V44.0645H132.104V26.6145ZM139.054 36.5645C139.904 36.5645 140.545 36.2811 140.979 35.7145C141.412 35.1478 141.629 34.3228 141.629 33.2395V33.0395C141.629 31.8895 141.395 31.0395 140.929 30.4895C140.479 29.9228 139.854 29.6395 139.054 29.6395C138.237 29.6395 137.595 29.9311 137.129 30.5145C136.679 31.0811 136.454 31.9145 136.454 33.0145V33.2145C136.454 34.3311 136.679 35.1728 137.129 35.7395C137.595 36.2895 138.237 36.5645 139.054 36.5645ZM148.388 20.8645H152.863V28.7145C153.213 28.0311 153.738 27.4561 154.438 26.9895C155.155 26.5061 156.063 26.2645 157.163 26.2645C158.43 26.2645 159.455 26.6728 160.238 27.4895C161.038 28.2895 161.438 29.5228 161.438 31.1895V39.6895H156.963V32.0895C156.963 31.3395 156.813 30.7895 156.513 30.4395C156.213 30.0728 155.738 29.8895 155.088 29.8895C154.421 29.8895 153.88 30.0895 153.463 30.4895C153.063 30.8895 152.863 31.5145 152.863 32.3645V39.6895H148.388V20.8645ZM170.584 39.9895C169.55 39.9895 168.6 39.8478 167.734 39.5645C166.867 39.2645 166.125 38.8311 165.509 38.2645C164.875 37.6978 164.375 36.9978 164.009 36.1645C163.659 35.3311 163.484 34.3811 163.484 33.3145V33.1145C163.484 32.0645 163.667 31.1228 164.034 30.2895C164.4 29.4395 164.9 28.7145 165.534 28.1145C166.167 27.5145 166.917 27.0561 167.784 26.7395C168.65 26.4228 169.575 26.2645 170.559 26.2645C171.459 26.2645 172.309 26.3978 173.109 26.6645C173.909 26.9311 174.617 27.3395 175.234 27.8895C175.834 28.4395 176.309 29.1395 176.659 29.9895C177.025 30.8395 177.209 31.8478 177.209 33.0145V34.1895H168.009C168.075 35.0561 168.342 35.7311 168.809 36.2145C169.292 36.6811 169.934 36.9145 170.734 36.9145C171.484 36.9145 172.025 36.7645 172.359 36.4645C172.709 36.1645 172.925 35.7978 173.009 35.3645H177.209C177.009 36.8478 176.35 37.9895 175.234 38.7895C174.117 39.5895 172.567 39.9895 170.584 39.9895ZM172.859 31.6645C172.825 30.8645 172.617 30.2561 172.234 29.8395C171.85 29.4228 171.292 29.2145 170.559 29.2145C169.875 29.2145 169.317 29.4228 168.884 29.8395C168.45 30.2561 168.175 30.8645 168.059 31.6645H172.859ZM179.345 26.6145H183.82V29.2145C184.237 28.2311 184.787 27.5228 185.47 27.0895C186.17 26.6395 187.028 26.4228 188.045 26.4395V30.6145C186.678 30.5811 185.628 30.7895 184.895 31.2395C184.178 31.6895 183.82 32.4395 183.82 33.4895V39.6895H179.345V26.6145ZM190.359 26.6145H194.834V39.6895H190.359V26.6145ZM192.584 25.3645C191.884 25.3645 191.3 25.1478 190.834 24.7145C190.367 24.2811 190.134 23.7311 190.134 23.0645C190.134 22.3978 190.367 21.8478 190.834 21.4145C191.3 20.9645 191.884 20.7395 192.584 20.7395C193.284 20.7395 193.867 20.9645 194.334 21.4145C194.817 21.8478 195.059 22.3978 195.059 23.0645C195.059 23.7311 194.817 24.2811 194.334 24.7145C193.867 25.1478 193.284 25.3645 192.584 25.3645ZM203.977 39.9895C202.994 39.9895 202.085 39.8478 201.252 39.5645C200.419 39.2811 199.694 38.8561 199.077 38.2895C198.46 37.7395 197.977 37.0478 197.627 36.2145C197.277 35.3811 197.102 34.4145 197.102 33.3145V33.1145C197.102 32.0311 197.285 31.0645 197.652 30.2145C198.019 29.3645 198.519 28.6478 199.152 28.0645C199.785 27.4811 200.519 27.0395 201.352 26.7395C202.202 26.4228 203.11 26.2645 204.077 26.2645C204.877 26.2645 205.644 26.3561 206.377 26.5395C207.127 26.7228 207.794 27.0228 208.377 27.4395C208.96 27.8728 209.435 28.4311 209.802 29.1145C210.185 29.7978 210.41 30.6395 210.477 31.6395H206.277C206.177 31.0228 205.96 30.5561 205.627 30.2395C205.31 29.9061 204.827 29.7395 204.177 29.7395C203.377 29.7395 202.76 30.0228 202.327 30.5895C201.894 31.1395 201.677 31.9645 201.677 33.0645V33.2645C201.677 34.4145 201.894 35.2811 202.327 35.8645C202.76 36.4311 203.402 36.7145 204.252 36.7145C204.885 36.7145 205.402 36.5311 205.802 36.1645C206.202 35.7978 206.444 35.2561 206.527 34.5395H210.552C210.485 36.1895 209.902 37.5145 208.802 38.5145C207.702 39.4978 206.094 39.9895 203.977 39.9895ZM78.3793 71.9895C76.8126 71.9895 75.4459 71.7728 74.2793 71.3395C73.1126 70.9061 72.1459 70.2895 71.3793 69.4895C70.5959 68.6895 70.0126 67.7311 69.6293 66.6145C69.2459 65.4811 69.0543 64.2311 69.0543 62.8645V62.6645C69.0543 61.2978 69.2793 60.0561 69.7293 58.9395C70.1959 57.8061 70.8376 56.8395 71.6543 56.0395C72.4709 55.2395 73.4376 54.6228 74.5543 54.1895C75.6709 53.7561 76.8793 53.5395 78.1793 53.5395C79.3459 53.5395 80.4126 53.6811 81.3793 53.9645C82.3459 54.2311 83.1959 54.6395 83.9293 55.1895C84.6459 55.7561 85.2209 56.4728 85.6543 57.3395C86.1043 58.2061 86.3793 59.2311 86.4793 60.4145H81.2043C81.1043 59.4978 80.8043 58.7978 80.3043 58.3145C79.8043 57.8311 79.1043 57.5895 78.2043 57.5895C77.0543 57.5895 76.1376 58.0228 75.4543 58.8895C74.7876 59.7561 74.4543 61.0061 74.4543 62.6395V62.8395C74.4543 64.4561 74.7793 65.7061 75.4293 66.5895C76.0959 67.4561 77.0459 67.8895 78.2793 67.8895C79.1793 67.8895 79.9209 67.6561 80.5043 67.1895C81.1043 66.7061 81.4709 65.9645 81.6043 64.9645H86.7043C86.6209 66.1145 86.3543 67.1311 85.9043 68.0145C85.4543 68.8978 84.8709 69.6311 84.1543 70.2145C83.4209 70.7978 82.5626 71.2395 81.5793 71.5395C80.5959 71.8395 79.5293 71.9895 78.3793 71.9895ZM95.3414 68.6645C96.1914 68.6645 96.8331 68.3728 97.2664 67.7895C97.6997 67.1895 97.9164 66.3395 97.9164 65.2395V65.0395C97.9164 63.9395 97.6997 63.0978 97.2664 62.5145C96.8331 61.9145 96.1914 61.6145 95.3414 61.6145C94.4914 61.6145 93.8414 61.9061 93.3914 62.4895C92.9581 63.0561 92.7414 63.8895 92.7414 64.9895V65.1895C92.7414 66.3228 92.9581 67.1895 93.3914 67.7895C93.8247 68.3728 94.4747 68.6645 95.3414 68.6645ZM95.3164 71.9895C94.3164 71.9895 93.3747 71.8395 92.4914 71.5395C91.6247 71.2395 90.8747 70.8061 90.2414 70.2395C89.5914 69.6728 89.0831 68.9728 88.7164 68.1395C88.3497 67.3061 88.1664 66.3645 88.1664 65.3145V65.1145C88.1664 64.0645 88.3497 63.1228 88.7164 62.2895C89.0831 61.4395 89.5914 60.7145 90.2414 60.1145C90.8747 59.5145 91.6247 59.0561 92.4914 58.7395C93.3747 58.4228 94.3247 58.2645 95.3414 58.2645C96.3414 58.2645 97.2747 58.4228 98.1414 58.7395C99.0247 59.0395 99.7831 59.4811 100.416 60.0645C101.05 60.6478 101.55 61.3561 101.916 62.1895C102.283 63.0228 102.466 63.9561 102.466 64.9895V65.1895C102.466 66.2561 102.283 67.2145 101.916 68.0645C101.55 68.8978 101.05 69.6061 100.416 70.1895C99.7664 70.7728 98.9997 71.2228 98.1164 71.5395C97.2497 71.8395 96.3164 71.9895 95.3164 71.9895ZM104.613 58.6145H109.088V61.2145C109.505 60.2311 110.055 59.5228 110.738 59.0895C111.438 58.6395 112.297 58.4228 113.313 58.4395V62.6145C111.947 62.5811 110.897 62.7895 110.163 63.2395C109.447 63.6895 109.088 64.4395 109.088 65.4895V71.6895H104.613V58.6145ZM115.502 58.6145H119.977V61.2145C120.394 60.2311 120.944 59.5228 121.627 59.0895C122.327 58.6395 123.185 58.4228 124.202 58.4395V62.6145C122.835 62.5811 121.785 62.7895 121.052 63.2395C120.335 63.6895 119.977 64.4395 119.977 65.4895V71.6895H115.502V58.6145ZM132.744 68.6645C133.594 68.6645 134.235 68.3728 134.669 67.7895C135.102 67.1895 135.319 66.3395 135.319 65.2395V65.0395C135.319 63.9395 135.102 63.0978 134.669 62.5145C134.235 61.9145 133.594 61.6145 132.744 61.6145C131.894 61.6145 131.244 61.9061 130.794 62.4895C130.36 63.0561 130.144 63.8895 130.144 64.9895V65.1895C130.144 66.3228 130.36 67.1895 130.794 67.7895C131.227 68.3728 131.877 68.6645 132.744 68.6645ZM132.719 71.9895C131.719 71.9895 130.777 71.8395 129.894 71.5395C129.027 71.2395 128.277 70.8061 127.644 70.2395C126.994 69.6728 126.485 68.9728 126.119 68.1395C125.752 67.3061 125.569 66.3645 125.569 65.3145V65.1145C125.569 64.0645 125.752 63.1228 126.119 62.2895C126.485 61.4395 126.994 60.7145 127.644 60.1145C128.277 59.5145 129.027 59.0561 129.894 58.7395C130.777 58.4228 131.727 58.2645 132.744 58.2645C133.744 58.2645 134.677 58.4228 135.544 58.7395C136.427 59.0395 137.185 59.4811 137.819 60.0645C138.452 60.6478 138.952 61.3561 139.319 62.1895C139.685 63.0228 139.869 63.9561 139.869 64.9895V65.1895C139.869 66.2561 139.685 67.2145 139.319 68.0645C138.952 68.8978 138.452 69.6061 137.819 70.1895C137.169 70.7728 136.402 71.2228 135.519 71.5395C134.652 71.8395 133.719 71.9895 132.719 71.9895ZM147.263 71.9895C145.396 71.9895 143.938 71.6145 142.888 70.8645C141.855 70.1145 141.313 69.0061 141.263 67.5395H145.388C145.471 68.0228 145.638 68.3895 145.888 68.6395C146.155 68.8895 146.605 69.0145 147.238 69.0145C147.788 69.0145 148.188 68.9228 148.438 68.7395C148.705 68.5395 148.838 68.2728 148.838 67.9395C148.838 67.6228 148.655 67.3811 148.288 67.2145C147.938 67.0478 147.313 66.8978 146.413 66.7645C145.53 66.6478 144.771 66.4978 144.138 66.3145C143.521 66.1145 143.013 65.8478 142.613 65.5145C142.213 65.1978 141.913 64.7978 141.713 64.3145C141.53 63.8311 141.438 63.2478 141.438 62.5645C141.438 61.8478 141.588 61.2228 141.888 60.6895C142.188 60.1395 142.596 59.6811 143.113 59.3145C143.613 58.9645 144.205 58.7061 144.888 58.5395C145.571 58.3561 146.288 58.2645 147.038 58.2645C147.838 58.2645 148.571 58.3395 149.238 58.4895C149.921 58.6395 150.513 58.8811 151.013 59.2145C151.513 59.5478 151.913 59.9811 152.213 60.5145C152.53 61.0478 152.73 61.7061 152.813 62.4895H148.763C148.68 62.0561 148.505 61.7311 148.238 61.5145C147.988 61.2978 147.605 61.1895 147.088 61.1895C146.605 61.1895 146.238 61.2895 145.988 61.4895C145.738 61.6728 145.613 61.9145 145.613 62.2145C145.613 62.5311 145.78 62.7645 146.113 62.9145C146.446 63.0645 147.013 63.1895 147.813 63.2895C148.713 63.4061 149.496 63.5561 150.163 63.7395C150.846 63.9228 151.413 64.1728 151.863 64.4895C152.313 64.8228 152.646 65.2311 152.863 65.7145C153.08 66.1978 153.188 66.7895 153.188 67.4895C153.188 69.0395 152.655 70.1811 151.588 70.9145C150.521 71.6311 149.08 71.9895 147.263 71.9895ZM155.349 58.6145H159.824V71.6895H155.349V58.6145ZM157.574 57.3645C156.874 57.3645 156.29 57.1478 155.824 56.7145C155.357 56.2811 155.124 55.7311 155.124 55.0645C155.124 54.3978 155.357 53.8478 155.824 53.4145C156.29 52.9645 156.874 52.7395 157.574 52.7395C158.274 52.7395 158.857 52.9645 159.324 53.4145C159.807 53.8478 160.049 54.3978 160.049 55.0645C160.049 55.7311 159.807 56.2811 159.324 56.7145C158.857 57.1478 158.274 57.3645 157.574 57.3645ZM169.267 68.6645C170.117 68.6645 170.759 68.3728 171.192 67.7895C171.626 67.1895 171.842 66.3395 171.842 65.2395V65.0395C171.842 63.9395 171.626 63.0978 171.192 62.5145C170.759 61.9145 170.117 61.6145 169.267 61.6145C168.417 61.6145 167.767 61.9061 167.317 62.4895C166.884 63.0561 166.667 63.8895 166.667 64.9895V65.1895C166.667 66.3228 166.884 67.1895 167.317 67.7895C167.751 68.3728 168.401 68.6645 169.267 68.6645ZM169.242 71.9895C168.242 71.9895 167.301 71.8395 166.417 71.5395C165.551 71.2395 164.801 70.8061 164.167 70.2395C163.517 69.6728 163.009 68.9728 162.642 68.1395C162.276 67.3061 162.092 66.3645 162.092 65.3145V65.1145C162.092 64.0645 162.276 63.1228 162.642 62.2895C163.009 61.4395 163.517 60.7145 164.167 60.1145C164.801 59.5145 165.551 59.0561 166.417 58.7395C167.301 58.4228 168.251 58.2645 169.267 58.2645C170.267 58.2645 171.201 58.4228 172.067 58.7395C172.951 59.0395 173.709 59.4811 174.342 60.0645C174.976 60.6478 175.476 61.3561 175.842 62.1895C176.209 63.0228 176.392 63.9561 176.392 64.9895V65.1895C176.392 66.2561 176.209 67.2145 175.842 68.0645C175.476 68.8978 174.976 69.6061 174.342 70.1895C173.692 70.7728 172.926 71.2228 172.042 71.5395C171.176 71.8395 170.242 71.9895 169.242 71.9895ZM178.539 58.6145H183.014V60.7145C183.364 60.0311 183.889 59.4561 184.589 58.9895C185.306 58.5061 186.214 58.2645 187.314 58.2645C188.581 58.2645 189.606 58.6728 190.389 59.4895C191.189 60.2895 191.589 61.5228 191.589 63.1895V71.6895H187.114V64.0895C187.114 63.3395 186.964 62.7895 186.664 62.4395C186.364 62.0728 185.889 61.8895 185.239 61.8895C184.573 61.8895 184.031 62.0895 183.614 62.4895C183.214 62.8895 183.014 63.5145 183.014 64.3645V71.6895H178.539V58.6145Z" fill="white"/>
<defs>
<linearGradient id="paint0_linear_1958_2874" x1="261.842" y1="47.0682" x2="-0.135969" y2="50.6497" gradientUnits="userSpaceOnUse">
<stop stop-color="#8045ED"/>
<stop offset="1" stop-color="#4830EF"/>
</linearGradient>
</defs>
</svg>
