<svg width="28" height="30" viewBox="0 0 28 30" fill="none" xmlns="http://www.w3.org/2000/svg">
<path d="M14.001 30.001C16.2101 30.001 18.001 28.2101 18.001 26.001C18.001 23.7918 16.2101 22.001 14.001 22.001C11.7918 22.001 10.001 23.7918 10.001 26.001C10.001 28.2101 11.7918 30.001 14.001 30.001Z" fill="#8799C5"/>
<path d="M28 14C27.998 6.268 21.732 0.001 14 0C6.268 0.001 0.001 6.268 0 14C0 17.094 1.015 19.964 2.721 22.281L0.00100005 25.001H8.001V17.001L5.597 19.405C4.59 17.846 4.002 15.999 4.001 14C4.011 8.479 8.48 4.011 14.001 4C19.522 4.01 23.99 8.479 24 14C24.002 17.483 22.225 20.535 19.521 22.333L21.736 25.667C25.505 23.165 28 18.867 28 14Z" fill="#8799C5"/>
</svg>
