<svg width="158" height="47" viewBox="0 0 158 47" fill="none" xmlns="http://www.w3.org/2000/svg">
<path opacity="0.8" d="M50.6442 6.4H57.1242V29.92H68.7642V35H50.6442V6.4ZM82.3842 31.04C84.0109 31.04 85.2642 30.48 86.1442 29.36C87.0509 28.24 87.5042 26.68 87.5042 24.68V24.4C87.5042 22.4 87.0509 20.84 86.1442 19.72C85.2642 18.5733 84.0109 18 82.3842 18C80.7842 18 79.5309 18.56 78.6242 19.68C77.7176 20.7733 77.2642 22.32 77.2642 24.32V24.64C77.2642 26.64 77.7042 28.2133 78.5842 29.36C79.4642 30.48 80.7309 31.04 82.3842 31.04ZM82.3442 35.44C80.7709 35.44 79.3176 35.1867 77.9842 34.68C76.6509 34.1733 75.4909 33.4533 74.5042 32.52C73.5176 31.6133 72.7442 30.5067 72.1842 29.2C71.6242 27.8667 71.3442 26.3867 71.3442 24.76V24.44C71.3442 22.8133 71.6242 21.3333 72.1842 20C72.7442 18.64 73.5176 17.4933 74.5042 16.56C75.4909 15.6267 76.6509 14.9067 77.9842 14.4C79.3442 13.8667 80.8109 13.6 82.3842 13.6C83.9576 13.6 85.4109 13.8533 86.7442 14.36C88.1042 14.8667 89.2776 15.5867 90.2642 16.52C91.2242 17.4533 91.9842 18.5867 92.5442 19.92C93.1042 21.2267 93.3842 22.6933 93.3842 24.32V24.64C93.3842 26.2933 93.1042 27.7867 92.5442 29.12C91.9842 30.4533 91.2109 31.5867 90.2242 32.52C89.2376 33.4533 88.0642 34.1733 86.7042 34.68C85.3709 35.1867 83.9176 35.44 82.3442 35.44ZM107.021 42.72C105.341 42.72 103.875 42.5467 102.621 42.2C101.368 41.8533 100.328 41.36 99.5014 40.72C98.6481 40.08 97.9814 39.3067 97.5014 38.4C97.0481 37.52 96.7547 36.5333 96.6214 35.44H102.381C102.568 36.3733 103.008 37.1067 103.701 37.64C104.421 38.2 105.528 38.48 107.021 38.48C108.781 38.48 110.101 38.04 110.981 37.16C111.861 36.28 112.301 35.0133 112.301 33.36V30.2C112.008 30.7067 111.635 31.2 111.181 31.68C110.755 32.1333 110.248 32.5333 109.661 32.88C109.075 33.2533 108.435 33.5467 107.741 33.76C107.075 33.9733 106.355 34.08 105.581 34.08C104.301 34.08 103.101 33.8533 101.981 33.4C100.888 32.92 99.9414 32.2533 99.1414 31.4C98.3147 30.5467 97.6614 29.5067 97.1814 28.28C96.7014 27.0267 96.4614 25.6267 96.4614 24.08V23.8C96.4614 22.3067 96.6881 20.9333 97.1414 19.68C97.6214 18.4267 98.2747 17.3467 99.1014 16.44C99.9281 15.56 100.901 14.8667 102.021 14.36C103.141 13.8533 104.355 13.6 105.661 13.6C107.368 13.6 108.741 13.9333 109.781 14.6C110.848 15.2667 111.688 16.1333 112.301 17.2V14.08H118.061V33.36C118.035 36.48 117.048 38.8133 115.101 40.36C113.181 41.9333 110.488 42.72 107.021 42.72ZM107.301 29.72C108.821 29.72 110.061 29.2133 111.021 28.2C111.981 27.1867 112.461 25.7867 112.461 24V23.72C112.461 21.9333 112.021 20.5333 111.141 19.52C110.261 18.5067 109.021 18 107.421 18C105.795 18 104.541 18.5333 103.661 19.6C102.808 20.64 102.381 22.0267 102.381 23.76V24.08C102.381 25.84 102.835 27.2267 103.741 28.24C104.675 29.2267 105.861 29.72 107.301 29.72ZM126.679 11.24C125.746 11.24 124.959 10.9467 124.319 10.36C123.706 9.74666 123.399 8.98666 123.399 8.08C123.399 7.17333 123.706 6.42667 124.319 5.84C124.959 5.22667 125.746 4.92 126.679 4.92C127.612 4.92 128.399 5.22667 129.039 5.84C129.679 6.42667 129.999 7.17333 129.999 8.08C129.999 8.98666 129.679 9.74666 129.039 10.36C128.399 10.9467 127.612 11.24 126.679 11.24ZM123.839 14.08H129.599V35H123.839V14.08ZM135.398 14.08H141.198V17.4C141.731 16.36 142.558 15.4667 143.678 14.72C144.798 13.9733 146.238 13.6 147.998 13.6C149.038 13.6 149.984 13.76 150.838 14.08C151.691 14.4 152.438 14.88 153.078 15.52C153.691 16.1867 154.171 17.04 154.518 18.08C154.864 19.0933 155.038 20.2933 155.038 21.68V35H149.238V22.52C149.238 21.08 148.944 20.0267 148.358 19.36C147.771 18.6667 146.838 18.32 145.558 18.32C144.304 18.32 143.264 18.7067 142.438 19.48C141.611 20.2267 141.198 21.3733 141.198 22.92V35H135.398V14.08Z" fill="#7701BF"/>
<path d="M0 33.4706L22.1863 24L0 14.2588V1L38 18.5882V29.4118L0 47V33.4706Z" fill="#8C2EC6"/>
</svg>
