<svg width="21" height="20" viewBox="0 0 21 20" fill="none" xmlns="http://www.w3.org/2000/svg">
<path d="M0.316101 9.57609C0.316101 10.9549 1.39331 11.6874 2.90141 11.6874H7.25335C6.95173 12.8508 6.77938 13.9711 6.77938 14.9191C6.77938 18.6678 7.8135 19.4434 8.71836 19.4434C9.3216 19.4434 9.75249 19.4003 10.3557 19.0125C10.5281 18.9263 10.6143 18.7539 10.6573 18.5816L11.3037 15.0914C11.9931 13.2386 13.7597 11.6443 15.1816 10.5671V1.34618C14.7077 1.34618 14.1044 1.08766 13.5443 0.786037C12.8549 0.441328 12.1224 0.0966187 11.3037 0.0966187H5.14202C3.84936 0.0966187 2.90141 1.13074 2.90141 2.0356C2.90141 2.20796 2.90141 2.38031 2.9445 2.50958C2.12582 2.8112 1.60876 3.5006 1.60876 4.2762C1.60876 4.66399 1.69493 5.00871 1.8242 5.26724C1.35023 5.61195 0.833164 6.17209 0.833164 6.86151C0.833164 7.20622 1.00552 7.6371 1.26405 7.93872C0.703898 8.36961 0.316101 8.97285 0.316101 9.57609ZM1.65185 9.57609C1.65185 8.75741 2.51362 8.67123 2.64288 8.28344C2.77215 7.85255 2.12582 7.68019 2.12582 6.9046C2.12582 6.08592 3.11685 6.08592 3.24612 5.69812C3.41847 5.22415 2.9445 5.05179 2.9445 4.2762C2.9445 4.23311 2.9445 4.19002 2.9445 4.14694C3.07377 3.50061 4.0648 3.45751 4.23716 3.19898C4.40951 2.89736 4.19407 2.72502 4.19407 2.0356C4.19407 1.6478 4.62495 1.38927 5.14202 1.38927H11.3037C11.7776 1.38927 12.3809 1.6478 12.941 1.94942C13.4581 2.20795 13.9752 2.46648 14.5353 2.59575V9.44682C12.941 10.6533 10.8728 12.5061 10.0541 14.7467C10.0541 14.7898 10.0541 14.8329 10.011 14.8329L9.40778 18.0645C9.19234 18.1507 9.01998 18.1507 8.67527 18.1507C8.54601 18.1507 8.02895 17.3751 8.02895 14.9191C8.02895 13.9711 8.2013 12.8939 8.54601 11.6874H8.71836C9.06307 11.6874 9.36469 11.3858 9.36469 11.0411C9.36469 10.6964 9.06307 10.3948 8.71836 10.3948H2.90141C2.25508 10.3948 1.65185 10.0932 1.65185 9.57609Z" fill="white"/>
<path d="M15.8294 0.0536003H19.7073C20.4398 0.0536003 21 0.613751 21 1.34626V10.3948C21 11.1273 20.4398 11.6875 19.7073 11.6875H15.8294C15.0969 11.6875 14.5367 11.1273 14.5367 10.3948V1.34626C14.5367 0.613751 15.0969 0.0536003 15.8294 0.0536003ZM19.7073 10.3948V1.34626H15.8294V10.3948H19.7073Z" fill="white"/>
</svg>
