<svg width="21" height="21" viewBox="0 0 21 21" fill="none" xmlns="http://www.w3.org/2000/svg">
<path d="M20.6839 10.7745C20.6839 9.39566 19.6067 8.66316 18.0986 8.66316H13.7466C14.0483 7.49977 14.2206 6.37947 14.2206 5.43152C14.2206 1.68282 13.1865 0.907227 12.2816 0.907227C11.6784 0.907227 11.2475 0.950315 10.6443 1.33811C10.4719 1.42429 10.3857 1.59664 10.3427 1.769L9.69633 5.25917C9.00691 7.11198 7.24028 8.70625 5.81836 9.78346V19.0044C6.29233 19.0044 6.89557 19.2629 7.45572 19.5645C8.14514 19.9093 8.87764 20.254 9.69633 20.254H15.858C17.1506 20.254 18.0986 19.2198 18.0986 18.315C18.0986 18.1426 18.0986 17.9703 18.0555 17.841C18.8742 17.5394 19.3912 16.85 19.3912 16.0744C19.3912 15.6866 19.3051 15.3419 19.1758 15.0833C19.6498 14.7386 20.1668 14.1785 20.1668 13.4891C20.1668 13.1444 19.9945 12.7135 19.736 12.4119C20.2961 11.981 20.6839 11.3777 20.6839 10.7745ZM19.3482 10.7745C19.3482 11.5932 18.4864 11.6794 18.3571 12.0672C18.2279 12.498 18.8742 12.6704 18.8742 13.446C18.8742 14.2647 17.8831 14.2647 17.7539 14.6525C17.5815 15.1264 18.0555 15.2988 18.0555 16.0744C18.0555 16.1175 18.0555 16.1606 18.0555 16.2036C17.9262 16.85 16.9352 16.8931 16.7628 17.1516C16.5905 17.4532 16.8059 17.6256 16.8059 18.315C16.8059 18.7028 16.375 18.9613 15.858 18.9613H9.69633C9.22235 18.9613 8.61911 18.7028 8.05896 18.4012C7.5419 18.1426 7.02484 17.8841 6.46469 17.7548V10.9038C8.05896 9.69729 10.1272 7.84447 10.9459 5.60387C10.9459 5.56078 10.9459 5.5177 10.989 5.5177L11.5922 2.28606C11.8077 2.19989 11.98 2.19988 12.3247 2.19988C12.454 2.19988 12.9711 2.97548 12.9711 5.43152C12.9711 6.37947 12.7987 7.45668 12.454 8.66316H12.2816C11.9369 8.66316 11.6353 8.96478 11.6353 9.30949C11.6353 9.6542 11.9369 9.95582 12.2816 9.95582H18.0986C18.7449 9.95582 19.3482 10.2574 19.3482 10.7745Z" fill="white"/>
<path d="M5.17062 20.297H1.29266C0.560151 20.297 0 19.7368 0 19.0043V9.95574C0 9.22324 0.560151 8.66309 1.29266 8.66309H5.17062C5.90313 8.66309 6.46328 9.22324 6.46328 9.95574V19.0043C6.46328 19.7368 5.90313 20.297 5.17062 20.297ZM1.29266 9.95574V19.0043H5.17062V9.95574H1.29266Z" fill="white"/>
</svg>
