<svg
  xmlns="http://www.w3.org/2000/svg"
  viewBox="0 0 24 24"
  width="24"
  height="24"
  fill="none"
  stroke="#FFFFFF"
>
  <path d="M0 0h24v24H0z" fill="none" />
  <path d="M19 3H5a2 2 0 0 0-2 2v14a2 2 0 0 0 2 2h3v1a1 1 0 0 0 1.447.895L12 18.382l1.553 1.513a1 1 0 0 0 1.448-.896v-1h3a2 2 0 0 0 2-2V5a2 2 0 0 0-2-2zM4 7a4 4 0 0 1 4-4h2v14H8a4 4 0 0 1-4-4V7zm16 10a4 4 0 0 1-4 4h-2V7h2a4 4 0 0 1 4 4v6zm-2-10H6a2 2 0 0 0-1.995 1.851L4 7v10a2 2 0 0 0 1.851 1.995L6 19h12a2 2 0 0 0 1.995-1.851L20 17V7a2 2 0 0 0-1.851-1.995L18 5z" />
</svg>