<svg width="29" height="29" xmlns="http://www.w3.org/2000/svg" xmlns:xlink="http://www.w3.org/1999/xlink" xml:space="preserve" overflow="hidden"><g transform="translate(-795 -479)"><path d="M809.5 482.021C803.156 482.021 798.021 487.156 798.021 493.5 798.021 499.844 803.156 504.979 809.5 504.979 815.844 504.979 820.979 499.844 820.979 493.5 820.979 487.156 815.844 482.021 809.5 482.021ZM808.896 485.042C809.742 485.042 810.406 485.706 810.406 486.552 810.406 487.398 809.742 488.062 808.896 488.062 808.05 488.062 807.385 487.398 807.385 486.552 807.385 485.706 808.05 485.042 808.896 485.042ZM812.521 501.958 806.479 501.958 806.479 500.146 808.594 500.146 808.594 491.083 806.781 491.083 806.781 489.271 810.406 489.271 810.406 491.083 810.406 500.146 812.521 500.146 812.521 501.958Z" fill="#CCECFF"/></g></svg>