<svg width="479" height="60" viewBox="0 0 479 60" fill="none" xmlns="http://www.w3.org/2000/svg">
<path d="M85.959 28.042C85.959 27.4854 85.8724 26.9906 85.6992 26.5576C85.5384 26.1247 85.2477 25.7288 84.8271 25.3701C84.4066 25.0114 83.8128 24.665 83.0459 24.3311C82.2913 23.9847 81.3265 23.6322 80.1514 23.2734C78.8649 22.8776 77.6774 22.4385 76.5889 21.9561C75.5127 21.4613 74.5726 20.8923 73.7686 20.249C72.9645 19.5934 72.3398 18.8451 71.8945 18.0039C71.4492 17.1504 71.2266 16.167 71.2266 15.0537C71.2266 13.9528 71.4554 12.9508 71.9131 12.0479C72.3831 11.1449 73.0449 10.3656 73.8984 9.70996C74.7643 9.04199 75.7848 8.52865 76.96 8.16992C78.1351 7.79883 79.4339 7.61328 80.8564 7.61328C82.8604 7.61328 84.5859 7.98438 86.0332 8.72656C87.4928 9.46875 88.6123 10.4645 89.3916 11.7139C90.1833 12.9632 90.5791 14.3424 90.5791 15.8516H85.959C85.959 14.9609 85.7673 14.1755 85.3838 13.4951C85.0127 12.8024 84.4437 12.2581 83.6768 11.8623C82.9222 11.4665 81.9635 11.2686 80.8008 11.2686C79.6999 11.2686 78.7845 11.4355 78.0547 11.7695C77.3249 12.1035 76.7806 12.555 76.4219 13.124C76.0632 13.693 75.8838 14.3363 75.8838 15.0537C75.8838 15.5609 76.0013 16.0247 76.2363 16.4453C76.4714 16.8535 76.8301 17.237 77.3125 17.5957C77.7949 17.9421 78.401 18.2699 79.1309 18.5791C79.8607 18.8883 80.7204 19.1852 81.71 19.4697C83.2067 19.915 84.5117 20.4098 85.625 20.9541C86.7383 21.486 87.666 22.0921 88.4082 22.7725C89.1504 23.4528 89.707 24.2259 90.0781 25.0918C90.4492 25.9453 90.6348 26.9163 90.6348 28.0049C90.6348 29.1429 90.4059 30.1696 89.9482 31.085C89.4906 31.988 88.835 32.7611 87.9814 33.4043C87.1403 34.0352 86.126 34.5238 84.9385 34.8701C83.7633 35.2041 82.4521 35.3711 81.0049 35.3711C79.7061 35.3711 78.4258 35.1979 77.1641 34.8516C75.9147 34.5052 74.7767 33.9795 73.75 33.2744C72.7233 32.557 71.9069 31.6663 71.3008 30.6025C70.6947 29.5264 70.3916 28.2708 70.3916 26.8359H75.0488C75.0488 27.7142 75.1973 28.4626 75.4941 29.0811C75.8034 29.6995 76.2301 30.2067 76.7744 30.6025C77.3187 30.986 77.9495 31.2705 78.667 31.4561C79.3968 31.6416 80.1761 31.7344 81.0049 31.7344C82.0934 31.7344 83.0026 31.5798 83.7324 31.2705C84.4746 30.9613 85.0312 30.5283 85.4023 29.9717C85.7734 29.415 85.959 28.7718 85.959 28.042ZM116.296 20.75V22.2344C116.296 24.2754 116.03 26.1061 115.498 27.7266C114.966 29.347 114.205 30.7262 113.216 31.8643C112.239 33.0023 111.063 33.8743 109.69 34.4805C108.317 35.0742 106.796 35.3711 105.126 35.3711C103.468 35.3711 101.953 35.0742 100.58 34.4805C99.2194 33.8743 98.0381 33.0023 97.0361 31.8643C96.0342 30.7262 95.2549 29.347 94.6982 27.7266C94.154 26.1061 93.8818 24.2754 93.8818 22.2344V20.75C93.8818 18.709 94.154 16.8844 94.6982 15.2764C95.2425 13.6559 96.0094 12.2767 96.999 11.1387C98.001 9.98828 99.1823 9.11621 100.543 8.52246C101.916 7.91634 103.431 7.61328 105.089 7.61328C106.759 7.61328 108.28 7.91634 109.653 8.52246C111.026 9.11621 112.208 9.98828 113.197 11.1387C114.187 12.2767 114.948 13.6559 115.479 15.2764C116.024 16.8844 116.296 18.709 116.296 20.75ZM111.639 22.2344V20.7129C111.639 19.2038 111.49 17.874 111.193 16.7236C110.909 15.5609 110.482 14.5898 109.913 13.8105C109.356 13.0189 108.67 12.4251 107.854 12.0293C107.037 11.6211 106.116 11.417 105.089 11.417C104.062 11.417 103.147 11.6211 102.343 12.0293C101.539 12.4251 100.852 13.0189 100.283 13.8105C99.7266 14.5898 99.2998 15.5609 99.0029 16.7236C98.7061 17.874 98.5576 19.2038 98.5576 20.7129V22.2344C98.5576 23.7435 98.7061 25.0794 99.0029 26.2422C99.2998 27.4049 99.7327 28.3883 100.302 29.1924C100.883 29.984 101.576 30.584 102.38 30.9922C103.184 31.388 104.099 31.5859 105.126 31.5859C106.165 31.5859 107.087 31.388 107.891 30.9922C108.695 30.584 109.375 29.984 109.932 29.1924C110.488 28.3883 110.909 27.4049 111.193 26.2422C111.49 25.0794 111.639 23.7435 111.639 22.2344ZM131.214 24.9248H124.182V21.2324H131.214C132.438 21.2324 133.428 21.0345 134.183 20.6387C134.937 20.2428 135.488 19.6986 135.834 19.0059C136.193 18.3008 136.372 17.4967 136.372 16.5938C136.372 15.7402 136.193 14.9424 135.834 14.2002C135.488 13.4456 134.937 12.8395 134.183 12.3818C133.428 11.9242 132.438 11.6953 131.214 11.6953H125.61V35H120.953V7.98438H131.214C133.304 7.98438 135.079 8.35547 136.539 9.09766C138.011 9.82747 139.131 10.8418 139.897 12.1406C140.664 13.4271 141.048 14.8991 141.048 16.5566C141.048 18.3008 140.664 19.7975 139.897 21.0469C139.131 22.2962 138.011 23.2549 136.539 23.9229C135.079 24.5908 133.304 24.9248 131.214 24.9248ZM154.686 7.98438H164.241C166.295 7.98438 168.045 8.29362 169.492 8.91211C170.939 9.5306 172.047 10.446 172.813 11.6582C173.593 12.8581 173.982 14.3424 173.982 16.1113C173.982 17.4596 173.735 18.6471 173.24 19.6738C172.745 20.7005 172.047 21.5664 171.144 22.2715C170.241 22.9642 169.164 23.5023 167.915 23.8857L166.505 24.5723H157.914L157.877 20.8799H164.315C165.429 20.8799 166.356 20.682 167.099 20.2861C167.841 19.8903 168.397 19.3522 168.769 18.6719C169.152 17.9792 169.344 17.1999 169.344 16.334C169.344 15.3939 169.158 14.5775 168.787 13.8848C168.428 13.1797 167.872 12.6416 167.117 12.2705C166.363 11.887 165.404 11.6953 164.241 11.6953H159.343V35H154.686V7.98438ZM170.104 35L163.759 22.8652L168.639 22.8467L175.077 34.7588V35H170.104ZM187.026 35.3711C185.542 35.3711 184.2 35.1299 183 34.6475C181.812 34.1527 180.798 33.4661 179.957 32.5879C179.128 31.7096 178.491 30.6768 178.046 29.4893C177.601 28.3018 177.378 27.0215 177.378 25.6484V24.9062C177.378 23.3353 177.607 21.9128 178.064 20.6387C178.522 19.3646 179.159 18.276 179.976 17.373C180.792 16.4577 181.757 15.7588 182.87 15.2764C183.983 14.7939 185.189 14.5527 186.488 14.5527C187.923 14.5527 189.179 14.7939 190.255 15.2764C191.331 15.7588 192.222 16.4391 192.927 17.3174C193.644 18.1833 194.176 19.2161 194.522 20.416C194.881 21.6159 195.061 22.9395 195.061 24.3867V26.2979H179.549V23.0879H190.645V22.7354C190.62 21.9313 190.459 21.1768 190.162 20.4717C189.878 19.7666 189.438 19.1976 188.845 18.7646C188.251 18.3317 187.459 18.1152 186.47 18.1152C185.728 18.1152 185.066 18.276 184.484 18.5977C183.915 18.9069 183.439 19.3584 183.056 19.9521C182.672 20.5459 182.375 21.2633 182.165 22.1045C181.967 22.9333 181.868 23.8672 181.868 24.9062V25.6484C181.868 26.5267 181.986 27.3431 182.221 28.0977C182.468 28.8398 182.827 29.4893 183.297 30.0459C183.767 30.6025 184.336 31.0417 185.004 31.3633C185.672 31.6725 186.433 31.8271 187.286 31.8271C188.362 31.8271 189.321 31.6107 190.162 31.1777C191.003 30.7448 191.733 30.1325 192.352 29.3408L194.708 31.623C194.275 32.2539 193.712 32.86 193.02 33.4414C192.327 34.0104 191.479 34.4743 190.478 34.833C189.488 35.1917 188.338 35.3711 187.026 35.3711ZM204.82 31.4561L209.737 14.9238H214.376L207.399 35H204.505L204.82 31.4561ZM201.054 14.9238L206.063 31.5303L206.305 35H203.41L196.396 14.9238H201.054ZM221.928 14.9238V35H217.438V14.9238H221.928ZM217.141 9.6543C217.141 8.97396 217.363 8.41113 217.809 7.96582C218.266 7.50814 218.897 7.2793 219.701 7.2793C220.493 7.2793 221.118 7.50814 221.575 7.96582C222.033 8.41113 222.262 8.97396 222.262 9.6543C222.262 10.3223 222.033 10.8789 221.575 11.3242C221.118 11.7695 220.493 11.9922 219.701 11.9922C218.897 11.9922 218.266 11.7695 217.809 11.3242C217.363 10.8789 217.141 10.3223 217.141 9.6543ZM235.677 35.3711C234.192 35.3711 232.85 35.1299 231.65 34.6475C230.463 34.1527 229.449 33.4661 228.607 32.5879C227.779 31.7096 227.142 30.6768 226.696 29.4893C226.251 28.3018 226.028 27.0215 226.028 25.6484V24.9062C226.028 23.3353 226.257 21.9128 226.715 20.6387C227.173 19.3646 227.81 18.276 228.626 17.373C229.442 16.4577 230.407 15.7588 231.521 15.2764C232.634 14.7939 233.84 14.5527 235.139 14.5527C236.574 14.5527 237.829 14.7939 238.905 15.2764C239.981 15.7588 240.872 16.4391 241.577 17.3174C242.295 18.1833 242.826 19.2161 243.173 20.416C243.532 21.6159 243.711 22.9395 243.711 24.3867V26.2979H228.199V23.0879H239.295V22.7354C239.27 21.9313 239.109 21.1768 238.812 20.4717C238.528 19.7666 238.089 19.1976 237.495 18.7646C236.901 18.3317 236.11 18.1152 235.12 18.1152C234.378 18.1152 233.716 18.276 233.135 18.5977C232.566 18.9069 232.09 19.3584 231.706 19.9521C231.323 20.5459 231.026 21.2633 230.815 22.1045C230.618 22.9333 230.519 23.8672 230.519 24.9062V25.6484C230.519 26.5267 230.636 27.3431 230.871 28.0977C231.118 28.8398 231.477 29.4893 231.947 30.0459C232.417 30.6025 232.986 31.0417 233.654 31.3633C234.322 31.6725 235.083 31.8271 235.937 31.8271C237.013 31.8271 237.971 31.6107 238.812 31.1777C239.654 30.7448 240.383 30.1325 241.002 29.3408L243.358 31.623C242.925 32.2539 242.363 32.86 241.67 33.4414C240.977 34.0104 240.13 34.4743 239.128 34.833C238.138 35.1917 236.988 35.3711 235.677 35.3711ZM252.654 30.5469L257.293 14.9238H260.15L259.371 19.5996L254.695 35H252.135L252.654 30.5469ZM249.927 14.9238L253.545 30.6211L253.842 35H250.984L245.548 14.9238H249.927ZM264.492 30.4355L267.999 14.9238H272.359L266.941 35H264.084L264.492 30.4355ZM260.633 14.9238L265.216 30.3613L265.791 35H263.23L258.499 19.5811L257.72 14.9238H260.633ZM295.831 11.584L287.76 35H282.88L293.048 7.98438H296.165L295.831 11.584ZM302.585 35L294.495 11.584L294.143 7.98438H297.278L307.483 35H302.585ZM302.195 24.9805V28.6729H287.5V24.9805H302.195ZM318.264 31.8086C318.993 31.8086 319.649 31.6663 320.23 31.3818C320.824 31.085 321.3 30.6768 321.659 30.1572C322.03 29.6377 322.234 29.0378 322.271 28.3574H326.483C326.459 29.6562 326.075 30.8376 325.333 31.9014C324.591 32.9652 323.607 33.8125 322.383 34.4434C321.158 35.0618 319.804 35.3711 318.319 35.3711C316.785 35.3711 315.45 35.1113 314.312 34.5918C313.174 34.0599 312.227 33.3301 311.473 32.4023C310.718 31.4746 310.149 30.4046 309.766 29.1924C309.395 27.9801 309.209 26.6813 309.209 25.2959V24.6465C309.209 23.2611 309.395 21.9622 309.766 20.75C310.149 19.5254 310.718 18.4492 311.473 17.5215C312.227 16.5938 313.174 15.8701 314.312 15.3506C315.45 14.8187 316.779 14.5527 318.301 14.5527C319.909 14.5527 321.319 14.8743 322.531 15.5176C323.743 16.1484 324.696 17.0329 325.389 18.1709C326.094 19.2965 326.459 20.6077 326.483 22.1045H322.271C322.234 21.3623 322.049 20.6943 321.715 20.1006C321.393 19.4945 320.936 19.012 320.342 18.6533C319.76 18.2946 319.062 18.1152 318.245 18.1152C317.342 18.1152 316.594 18.3008 316 18.6719C315.406 19.0306 314.942 19.5254 314.608 20.1562C314.274 20.7747 314.033 21.4736 313.885 22.2529C313.749 23.0199 313.681 23.8177 313.681 24.6465V25.2959C313.681 26.1247 313.749 26.9287 313.885 27.708C314.021 28.4873 314.256 29.1862 314.59 29.8047C314.936 30.4108 315.406 30.8994 316 31.2705C316.594 31.6292 317.348 31.8086 318.264 31.8086ZM338.117 31.8086C338.847 31.8086 339.503 31.6663 340.084 31.3818C340.678 31.085 341.154 30.6768 341.513 30.1572C341.884 29.6377 342.088 29.0378 342.125 28.3574H346.337C346.312 29.6562 345.929 30.8376 345.187 31.9014C344.444 32.9652 343.461 33.8125 342.236 34.4434C341.012 35.0618 339.657 35.3711 338.173 35.3711C336.639 35.3711 335.303 35.1113 334.165 34.5918C333.027 34.0599 332.081 33.3301 331.326 32.4023C330.572 31.4746 330.003 30.4046 329.619 29.1924C329.248 27.9801 329.062 26.6813 329.062 25.2959V24.6465C329.062 23.2611 329.248 21.9622 329.619 20.75C330.003 19.5254 330.572 18.4492 331.326 17.5215C332.081 16.5938 333.027 15.8701 334.165 15.3506C335.303 14.8187 336.633 14.5527 338.154 14.5527C339.762 14.5527 341.173 14.8743 342.385 15.5176C343.597 16.1484 344.549 17.0329 345.242 18.1709C345.947 19.2965 346.312 20.6077 346.337 22.1045H342.125C342.088 21.3623 341.902 20.6943 341.568 20.1006C341.247 19.4945 340.789 19.012 340.195 18.6533C339.614 18.2946 338.915 18.1152 338.099 18.1152C337.196 18.1152 336.447 18.3008 335.854 18.6719C335.26 19.0306 334.796 19.5254 334.462 20.1562C334.128 20.7747 333.887 21.4736 333.738 22.2529C333.602 23.0199 333.534 23.8177 333.534 24.6465V25.2959C333.534 26.1247 333.602 26.9287 333.738 27.708C333.874 28.4873 334.109 29.1862 334.443 29.8047C334.79 30.4108 335.26 30.8994 335.854 31.2705C336.447 31.6292 337.202 31.8086 338.117 31.8086ZM358.62 35.3711C357.136 35.3711 355.794 35.1299 354.594 34.6475C353.406 34.1527 352.392 33.4661 351.551 32.5879C350.722 31.7096 350.085 30.6768 349.64 29.4893C349.194 28.3018 348.972 27.0215 348.972 25.6484V24.9062C348.972 23.3353 349.201 21.9128 349.658 20.6387C350.116 19.3646 350.753 18.276 351.569 17.373C352.386 16.4577 353.351 15.7588 354.464 15.2764C355.577 14.7939 356.783 14.5527 358.082 14.5527C359.517 14.5527 360.772 14.7939 361.849 15.2764C362.925 15.7588 363.815 16.4391 364.521 17.3174C365.238 18.1833 365.77 19.2161 366.116 20.416C366.475 21.6159 366.654 22.9395 366.654 24.3867V26.2979H351.143V23.0879H362.238V22.7354C362.214 21.9313 362.053 21.1768 361.756 20.4717C361.471 19.7666 361.032 19.1976 360.438 18.7646C359.845 18.3317 359.053 18.1152 358.063 18.1152C357.321 18.1152 356.66 18.276 356.078 18.5977C355.509 18.9069 355.033 19.3584 354.649 19.9521C354.266 20.5459 353.969 21.2633 353.759 22.1045C353.561 22.9333 353.462 23.8672 353.462 24.9062V25.6484C353.462 26.5267 353.579 27.3431 353.814 28.0977C354.062 28.8398 354.421 29.4893 354.891 30.0459C355.361 30.6025 355.93 31.0417 356.598 31.3633C357.266 31.6725 358.026 31.8271 358.88 31.8271C359.956 31.8271 360.915 31.6107 361.756 31.1777C362.597 30.7448 363.327 30.1325 363.945 29.3408L366.302 31.623C365.869 32.2539 365.306 32.86 364.613 33.4414C363.921 34.0104 363.073 34.4743 362.071 34.833C361.082 35.1917 359.931 35.3711 358.62 35.3711ZM374.93 6.5V35H370.439V6.5H374.93ZM388.679 35.3711C387.194 35.3711 385.852 35.1299 384.652 34.6475C383.465 34.1527 382.451 33.4661 381.609 32.5879C380.781 31.7096 380.144 30.6768 379.698 29.4893C379.253 28.3018 379.03 27.0215 379.03 25.6484V24.9062C379.03 23.3353 379.259 21.9128 379.717 20.6387C380.174 19.3646 380.812 18.276 381.628 17.373C382.444 16.4577 383.409 15.7588 384.522 15.2764C385.636 14.7939 386.842 14.5527 388.141 14.5527C389.576 14.5527 390.831 14.7939 391.907 15.2764C392.983 15.7588 393.874 16.4391 394.579 17.3174C395.297 18.1833 395.828 19.2161 396.175 20.416C396.534 21.6159 396.713 22.9395 396.713 24.3867V26.2979H381.201V23.0879H392.297V22.7354C392.272 21.9313 392.111 21.1768 391.814 20.4717C391.53 19.7666 391.091 19.1976 390.497 18.7646C389.903 18.3317 389.112 18.1152 388.122 18.1152C387.38 18.1152 386.718 18.276 386.137 18.5977C385.568 18.9069 385.091 19.3584 384.708 19.9521C384.325 20.5459 384.028 21.2633 383.817 22.1045C383.619 22.9333 383.521 23.8672 383.521 24.9062V25.6484C383.521 26.5267 383.638 27.3431 383.873 28.0977C384.12 28.8398 384.479 29.4893 384.949 30.0459C385.419 30.6025 385.988 31.0417 386.656 31.3633C387.324 31.6725 388.085 31.8271 388.938 31.8271C390.015 31.8271 390.973 31.6107 391.814 31.1777C392.656 30.7448 393.385 30.1325 394.004 29.3408L396.36 31.623C395.927 32.2539 395.365 32.86 394.672 33.4414C393.979 34.0104 393.132 34.4743 392.13 34.833C391.14 35.1917 389.99 35.3711 388.679 35.3711ZM404.691 18.7461V35H400.22V14.9238H404.487L404.691 18.7461ZM410.833 14.7939L410.796 18.9502C410.524 18.9007 410.227 18.8636 409.905 18.8389C409.596 18.8141 409.287 18.8018 408.978 18.8018C408.211 18.8018 407.536 18.9131 406.955 19.1357C406.374 19.346 405.885 19.6553 405.489 20.0635C405.106 20.4593 404.809 20.9417 404.599 21.5107C404.388 22.0798 404.265 22.7168 404.228 23.4219L403.207 23.4961C403.207 22.2344 403.331 21.0654 403.578 19.9893C403.826 18.9131 404.197 17.9668 404.691 17.1504C405.199 16.334 405.829 15.6969 406.584 15.2393C407.351 14.7816 408.235 14.5527 409.237 14.5527C409.509 14.5527 409.8 14.5775 410.109 14.627C410.431 14.6764 410.672 14.7321 410.833 14.7939ZM424.285 30.9736V21.3994C424.285 20.682 424.155 20.0635 423.896 19.5439C423.636 19.0244 423.24 18.6224 422.708 18.3379C422.188 18.0534 421.533 17.9111 420.741 17.9111C420.011 17.9111 419.381 18.0348 418.849 18.2822C418.317 18.5296 417.902 18.8636 417.605 19.2842C417.309 19.7048 417.16 20.181 417.16 20.7129H412.707C412.707 19.9212 412.899 19.1543 413.282 18.4121C413.666 17.6699 414.222 17.0081 414.952 16.4268C415.682 15.8454 416.554 15.3877 417.568 15.0537C418.583 14.7197 419.721 14.5527 420.982 14.5527C422.492 14.5527 423.827 14.8063 424.99 15.3135C426.165 15.8206 427.087 16.5876 427.755 17.6143C428.435 18.6286 428.775 19.9027 428.775 21.4365V30.3613C428.775 31.2767 428.837 32.0993 428.961 32.8291C429.097 33.5465 429.289 34.1712 429.536 34.7031V35H424.953C424.743 34.5176 424.576 33.9053 424.452 33.1631C424.341 32.4085 424.285 31.6787 424.285 30.9736ZM424.935 22.791L424.972 25.5557H421.762C420.933 25.5557 420.203 25.6361 419.572 25.7969C418.941 25.9453 418.416 26.168 417.995 26.4648C417.575 26.7617 417.259 27.1204 417.049 27.541C416.839 27.9616 416.733 28.4378 416.733 28.9697C416.733 29.5016 416.857 29.9902 417.104 30.4355C417.352 30.8685 417.711 31.2087 418.181 31.4561C418.663 31.7035 419.244 31.8271 419.925 31.8271C420.84 31.8271 421.638 31.6416 422.318 31.2705C423.011 30.887 423.555 30.4232 423.951 29.8789C424.347 29.3223 424.557 28.7965 424.582 28.3018L426.029 30.2871C425.881 30.7943 425.627 31.3385 425.269 31.9199C424.91 32.5013 424.44 33.0579 423.858 33.5898C423.289 34.1094 422.603 34.5361 421.799 34.8701C421.007 35.2041 420.092 35.3711 419.053 35.3711C417.742 35.3711 416.573 35.1113 415.546 34.5918C414.519 34.0599 413.715 33.3486 413.134 32.458C412.552 31.555 412.262 30.5345 412.262 29.3965C412.262 28.3327 412.46 27.3926 412.855 26.5762C413.264 25.7474 413.857 25.0547 414.637 24.498C415.428 23.9414 416.393 23.5208 417.531 23.2363C418.669 22.9395 419.968 22.791 421.428 22.791H424.935ZM442.654 14.9238V18.1895H431.336V14.9238H442.654ZM434.602 10.0068H439.073V29.4521C439.073 30.0706 439.16 30.5469 439.333 30.8809C439.519 31.2025 439.772 31.4189 440.094 31.5303C440.415 31.6416 440.793 31.6973 441.226 31.6973C441.535 31.6973 441.832 31.6787 442.116 31.6416C442.401 31.6045 442.63 31.5674 442.803 31.5303L442.821 34.9443C442.45 35.0557 442.017 35.1546 441.522 35.2412C441.04 35.3278 440.483 35.3711 439.853 35.3711C438.826 35.3711 437.917 35.1917 437.125 34.833C436.333 34.4619 435.715 33.862 435.27 33.0332C434.824 32.2044 434.602 31.1035 434.602 29.7305V10.0068ZM444.807 25.1846V24.7578C444.807 23.3105 445.017 21.9684 445.438 20.7314C445.858 19.4821 446.464 18.3997 447.256 17.4844C448.06 16.5566 449.037 15.8392 450.188 15.332C451.35 14.8125 452.661 14.5527 454.121 14.5527C455.593 14.5527 456.904 14.8125 458.055 15.332C459.217 15.8392 460.201 16.5566 461.005 17.4844C461.809 18.3997 462.421 19.4821 462.842 20.7314C463.262 21.9684 463.473 23.3105 463.473 24.7578V25.1846C463.473 26.6318 463.262 27.974 462.842 29.2109C462.421 30.4479 461.809 31.5303 461.005 32.458C460.201 33.3734 459.224 34.0908 458.073 34.6104C456.923 35.1175 455.618 35.3711 454.158 35.3711C452.686 35.3711 451.369 35.1175 450.206 34.6104C449.056 34.0908 448.078 33.3734 447.274 32.458C446.47 31.5303 445.858 30.4479 445.438 29.2109C445.017 27.974 444.807 26.6318 444.807 25.1846ZM449.278 24.7578V25.1846C449.278 26.0876 449.371 26.9411 449.557 27.7451C449.742 28.5492 450.033 29.2542 450.429 29.8604C450.825 30.4665 451.332 30.9427 451.95 31.2891C452.569 31.6354 453.305 31.8086 454.158 31.8086C454.987 31.8086 455.704 31.6354 456.311 31.2891C456.929 30.9427 457.436 30.4665 457.832 29.8604C458.228 29.2542 458.519 28.5492 458.704 27.7451C458.902 26.9411 459.001 26.0876 459.001 25.1846V24.7578C459.001 23.8672 458.902 23.026 458.704 22.2344C458.519 21.4303 458.222 20.7191 457.813 20.1006C457.418 19.4821 456.91 18.9997 456.292 18.6533C455.686 18.2946 454.962 18.1152 454.121 18.1152C453.28 18.1152 452.55 18.2946 451.932 18.6533C451.326 18.9997 450.825 19.4821 450.429 20.1006C450.033 20.7191 449.742 21.4303 449.557 22.2344C449.371 23.026 449.278 23.8672 449.278 24.7578ZM471.711 18.7461V35H467.239V14.9238H471.507L471.711 18.7461ZM477.853 14.7939L477.815 18.9502C477.543 18.9007 477.246 18.8636 476.925 18.8389C476.616 18.8141 476.306 18.8018 475.997 18.8018C475.23 18.8018 474.556 18.9131 473.975 19.1357C473.393 19.346 472.905 19.6553 472.509 20.0635C472.125 20.4593 471.828 20.9417 471.618 21.5107C471.408 22.0798 471.284 22.7168 471.247 23.4219L470.227 23.4961C470.227 22.2344 470.35 21.0654 470.598 19.9893C470.845 18.9131 471.216 17.9668 471.711 17.1504C472.218 16.334 472.849 15.6969 473.604 15.2393C474.37 14.7816 475.255 14.5527 476.257 14.5527C476.529 14.5527 476.82 14.5775 477.129 14.627C477.451 14.6764 477.692 14.7321 477.853 14.7939Z" fill="#A100FF"/>
<path d="M72.1641 45.3359V56H70.1499V45.3359H72.1641ZM76.0898 49.7671V56H74.1562V48.0752H75.9727L76.0898 49.7671ZM75.7822 51.752H75.2109C75.2158 51.1758 75.2939 50.6533 75.4453 50.1846C75.5967 49.7158 75.8091 49.313 76.0825 48.9761C76.3608 48.6392 76.6904 48.3804 77.0713 48.1997C77.4521 48.019 77.877 47.9287 78.3457 47.9287C78.7266 47.9287 79.0708 47.9824 79.3784 48.0898C79.686 48.1973 79.9497 48.3682 80.1694 48.6025C80.394 48.8369 80.5649 49.1445 80.6821 49.5254C80.8042 49.9014 80.8652 50.3652 80.8652 50.917V56H78.917V50.9023C78.917 50.541 78.8633 50.2554 78.7559 50.0454C78.6533 49.8354 78.502 49.6865 78.3018 49.5986C78.1064 49.5107 77.8647 49.4668 77.5767 49.4668C77.2788 49.4668 77.0176 49.5278 76.793 49.6499C76.5732 49.7671 76.3877 49.9307 76.2363 50.1406C76.0898 50.3506 75.9775 50.5923 75.8994 50.8657C75.8213 51.1392 75.7822 51.4346 75.7822 51.752ZM86.3218 48.0752V49.4668H81.7808V48.0752H86.3218ZM82.9966 46.127H84.9375V53.7148C84.9375 53.9492 84.9692 54.1299 85.0327 54.2568C85.0962 54.3838 85.1914 54.4692 85.3184 54.5132C85.4453 54.5571 85.5967 54.5791 85.7725 54.5791C85.8994 54.5791 86.0166 54.5718 86.124 54.5571C86.2314 54.5425 86.3218 54.5278 86.395 54.5132L86.4023 55.9634C86.2412 56.0171 86.0581 56.061 85.853 56.0952C85.6528 56.1294 85.4258 56.1465 85.1719 56.1465C84.7373 56.1465 84.3564 56.0732 84.0293 55.9268C83.7021 55.7754 83.4482 55.5337 83.2676 55.2017C83.0869 54.8647 82.9966 54.4204 82.9966 53.8687V46.127ZM91.1704 56.1465C90.5698 56.1465 90.0303 56.0488 89.5518 55.8535C89.0732 55.6582 88.6655 55.3872 88.3286 55.0405C87.9966 54.689 87.7402 54.2812 87.5596 53.8174C87.3838 53.3486 87.2959 52.8457 87.2959 52.3086V52.0156C87.2959 51.4053 87.3838 50.8511 87.5596 50.353C87.7354 49.8501 87.9844 49.418 88.3066 49.0566C88.6289 48.6953 89.0146 48.417 89.4639 48.2217C89.9131 48.0264 90.4087 47.9287 90.9507 47.9287C91.5122 47.9287 92.0078 48.0239 92.4375 48.2144C92.8672 48.3999 93.2261 48.6636 93.5142 49.0054C93.8022 49.3472 94.0195 49.7573 94.166 50.2358C94.3125 50.7095 94.3857 51.2344 94.3857 51.8105V52.6235H88.1748V51.2905H92.4814V51.144C92.4717 50.8364 92.4131 50.5557 92.3057 50.3018C92.1982 50.043 92.0322 49.8379 91.8076 49.6865C91.583 49.5303 91.2925 49.4521 90.936 49.4521C90.6479 49.4521 90.3965 49.5156 90.1816 49.6426C89.9717 49.7646 89.7959 49.9404 89.6543 50.1699C89.5176 50.3945 89.415 50.6631 89.3467 50.9756C89.2783 51.2881 89.2441 51.6348 89.2441 52.0156V52.3086C89.2441 52.6406 89.2881 52.9482 89.376 53.2314C89.4688 53.5146 89.603 53.7612 89.7788 53.9712C89.9595 54.1763 90.1743 54.3374 90.4233 54.4546C90.6772 54.5669 90.9653 54.623 91.2876 54.623C91.6929 54.623 92.0591 54.5449 92.3862 54.3887C92.7183 54.2275 93.0063 53.9907 93.2505 53.6782L94.2246 54.689C94.0586 54.9331 93.834 55.1675 93.5508 55.3921C93.2725 55.6167 92.9355 55.7998 92.54 55.9414C92.1445 56.0781 91.688 56.1465 91.1704 56.1465ZM97.7329 44.75V56H95.792V44.75H97.7329ZM101.629 44.75V56H99.6885V44.75H101.629ZM105.526 48.0752V56H103.585V48.0752H105.526ZM103.453 46.0024C103.453 45.7144 103.551 45.4751 103.746 45.2847C103.946 45.0942 104.215 44.999 104.552 44.999C104.889 44.999 105.155 45.0942 105.35 45.2847C105.55 45.4751 105.65 45.7144 105.65 46.0024C105.65 46.2856 105.55 46.5225 105.35 46.7129C105.155 46.9033 104.889 46.9985 104.552 46.9985C104.215 46.9985 103.946 46.9033 103.746 46.7129C103.551 46.5225 103.453 46.2856 103.453 46.0024ZM112.411 48.0752H114.168V55.7583C114.168 56.4761 114.012 57.084 113.7 57.582C113.392 58.085 112.96 58.4658 112.403 58.7246C111.847 58.9883 111.2 59.1201 110.462 59.1201C110.145 59.1201 109.801 59.0762 109.43 58.9883C109.063 58.9004 108.709 58.7612 108.368 58.5708C108.031 58.3853 107.75 58.1436 107.525 57.8457L108.397 56.7031C108.661 57.0107 108.958 57.2427 109.291 57.3989C109.623 57.5601 109.981 57.6406 110.367 57.6406C110.758 57.6406 111.09 57.5674 111.363 57.4209C111.642 57.2793 111.854 57.0693 112 56.791C112.152 56.5176 112.228 56.1807 112.228 55.7803V49.8843L112.411 48.0752ZM107.057 52.1328V51.979C107.057 51.3735 107.13 50.8242 107.276 50.3311C107.423 49.833 107.633 49.4058 107.906 49.0493C108.185 48.6929 108.519 48.417 108.91 48.2217C109.305 48.0264 109.75 47.9287 110.243 47.9287C110.765 47.9287 111.205 48.0239 111.561 48.2144C111.922 48.4048 112.22 48.6758 112.455 49.0273C112.694 49.3789 112.879 49.7964 113.011 50.2798C113.148 50.7583 113.253 51.2856 113.326 51.8618V52.2793C113.258 52.8408 113.148 53.356 112.997 53.8247C112.85 54.2935 112.655 54.7036 112.411 55.0552C112.167 55.4019 111.864 55.6704 111.502 55.8608C111.141 56.0513 110.716 56.1465 110.228 56.1465C109.74 56.1465 109.3 56.0464 108.91 55.8462C108.519 55.646 108.185 55.3652 107.906 55.0039C107.633 54.6426 107.423 54.2178 107.276 53.7295C107.13 53.2412 107.057 52.709 107.057 52.1328ZM108.99 51.979V52.1328C108.99 52.4746 109.024 52.7944 109.093 53.0923C109.161 53.3901 109.266 53.6538 109.408 53.8833C109.549 54.1079 109.728 54.2837 109.942 54.4106C110.157 54.5376 110.414 54.6011 110.711 54.6011C111.112 54.6011 111.439 54.5181 111.693 54.3521C111.952 54.1812 112.147 53.9492 112.279 53.6562C112.416 53.3584 112.503 53.0239 112.542 52.6528V51.5029C112.518 51.21 112.464 50.939 112.381 50.6899C112.303 50.4409 112.193 50.2261 112.052 50.0454C111.91 49.8647 111.729 49.7231 111.51 49.6206C111.29 49.5181 111.029 49.4668 110.726 49.4668C110.433 49.4668 110.177 49.5327 109.957 49.6646C109.737 49.7915 109.557 49.9697 109.415 50.1992C109.273 50.4287 109.166 50.6948 109.093 50.9976C109.024 51.3003 108.99 51.6274 108.99 51.979ZM119.471 56.1465C118.871 56.1465 118.331 56.0488 117.853 55.8535C117.374 55.6582 116.966 55.3872 116.629 55.0405C116.297 54.689 116.041 54.2812 115.86 53.8174C115.685 53.3486 115.597 52.8457 115.597 52.3086V52.0156C115.597 51.4053 115.685 50.8511 115.86 50.353C116.036 49.8501 116.285 49.418 116.607 49.0566C116.93 48.6953 117.315 48.417 117.765 48.2217C118.214 48.0264 118.709 47.9287 119.251 47.9287C119.813 47.9287 120.309 48.0239 120.738 48.2144C121.168 48.3999 121.527 48.6636 121.815 49.0054C122.103 49.3472 122.32 49.7573 122.467 50.2358C122.613 50.7095 122.687 51.2344 122.687 51.8105V52.6235H116.476V51.2905H120.782V51.144C120.772 50.8364 120.714 50.5557 120.606 50.3018C120.499 50.043 120.333 49.8379 120.108 49.6865C119.884 49.5303 119.593 49.4521 119.237 49.4521C118.949 49.4521 118.697 49.5156 118.482 49.6426C118.272 49.7646 118.097 49.9404 117.955 50.1699C117.818 50.3945 117.716 50.6631 117.647 50.9756C117.579 51.2881 117.545 51.6348 117.545 52.0156V52.3086C117.545 52.6406 117.589 52.9482 117.677 53.2314C117.77 53.5146 117.904 53.7612 118.08 53.9712C118.26 54.1763 118.475 54.3374 118.724 54.4546C118.978 54.5669 119.266 54.623 119.588 54.623C119.994 54.623 120.36 54.5449 120.687 54.3887C121.019 54.2275 121.307 53.9907 121.551 53.6782L122.525 54.689C122.359 54.9331 122.135 55.1675 121.852 55.3921C121.573 55.6167 121.236 55.7998 120.841 55.9414C120.445 56.0781 119.989 56.1465 119.471 56.1465ZM125.88 49.7671V56H123.946V48.0752H125.763L125.88 49.7671ZM125.572 51.752H125.001C125.006 51.1758 125.084 50.6533 125.235 50.1846C125.387 49.7158 125.599 49.313 125.873 48.9761C126.151 48.6392 126.48 48.3804 126.861 48.1997C127.242 48.019 127.667 47.9287 128.136 47.9287C128.517 47.9287 128.861 47.9824 129.168 48.0898C129.476 48.1973 129.74 48.3682 129.959 48.6025C130.184 48.8369 130.355 49.1445 130.472 49.5254C130.594 49.9014 130.655 50.3652 130.655 50.917V56H128.707V50.9023C128.707 50.541 128.653 50.2554 128.546 50.0454C128.443 49.8354 128.292 49.6865 128.092 49.5986C127.896 49.5107 127.655 49.4668 127.367 49.4668C127.069 49.4668 126.808 49.5278 126.583 49.6499C126.363 49.7671 126.178 49.9307 126.026 50.1406C125.88 50.3506 125.768 50.5923 125.689 50.8657C125.611 51.1392 125.572 51.4346 125.572 51.752ZM136.112 48.0752V49.4668H131.571V48.0752H136.112ZM132.787 46.127H134.728V53.7148C134.728 53.9492 134.759 54.1299 134.823 54.2568C134.886 54.3838 134.981 54.4692 135.108 54.5132C135.235 54.5571 135.387 54.5791 135.562 54.5791C135.689 54.5791 135.807 54.5718 135.914 54.5571C136.021 54.5425 136.112 54.5278 136.185 54.5132L136.192 55.9634C136.031 56.0171 135.848 56.061 135.643 56.0952C135.443 56.1294 135.216 56.1465 134.962 56.1465C134.527 56.1465 134.146 56.0732 133.819 55.9268C133.492 55.7754 133.238 55.5337 133.058 55.2017C132.877 54.8647 132.787 54.4204 132.787 53.8687V46.127ZM146.864 53.2314C146.864 53.0264 146.832 52.8433 146.769 52.6821C146.71 52.5161 146.6 52.3672 146.439 52.2354C146.283 52.0986 146.061 51.9668 145.772 51.8398C145.489 51.708 145.123 51.5713 144.674 51.4297C144.176 51.2734 143.712 51.0977 143.282 50.9023C142.853 50.707 142.474 50.48 142.147 50.2212C141.825 49.9624 141.573 49.6646 141.393 49.3276C141.212 48.9858 141.122 48.5903 141.122 48.1411C141.122 47.7017 141.214 47.3013 141.4 46.9399C141.59 46.5786 141.859 46.2686 142.206 46.0098C142.552 45.7461 142.96 45.5435 143.429 45.4019C143.902 45.2603 144.425 45.1895 144.996 45.1895C145.787 45.1895 146.471 45.3335 147.047 45.6216C147.628 45.9097 148.077 46.3003 148.395 46.7935C148.712 47.2866 148.871 47.8408 148.871 48.4561H146.864C146.864 48.124 146.793 47.8311 146.651 47.5771C146.515 47.3232 146.305 47.123 146.021 46.9766C145.743 46.8301 145.392 46.7568 144.967 46.7568C144.557 46.7568 144.215 46.8179 143.941 46.9399C143.673 47.062 143.47 47.228 143.333 47.438C143.202 47.6479 143.136 47.8823 143.136 48.1411C143.136 48.3364 143.182 48.5122 143.275 48.6685C143.368 48.8198 143.507 48.9639 143.692 49.1006C143.878 49.2324 144.107 49.3569 144.381 49.4741C144.659 49.5864 144.981 49.6987 145.348 49.811C145.934 49.9868 146.446 50.1821 146.886 50.397C147.33 50.6118 147.699 50.856 147.992 51.1294C148.29 51.4028 148.512 51.7104 148.658 52.0522C148.81 52.394 148.885 52.7822 148.885 53.2168C148.885 53.6758 148.795 54.0859 148.614 54.4473C148.434 54.8086 148.175 55.1162 147.838 55.3701C147.501 55.624 147.096 55.8169 146.622 55.9487C146.153 56.0806 145.628 56.1465 145.047 56.1465C144.53 56.1465 144.017 56.0781 143.509 55.9414C143.006 55.7998 142.55 55.5898 142.14 55.3115C141.729 55.0283 141.402 54.6719 141.158 54.2422C140.914 53.8076 140.792 53.2998 140.792 52.7188H142.813C142.813 53.0557 142.867 53.3438 142.975 53.583C143.087 53.8174 143.243 54.0103 143.443 54.1616C143.648 54.3081 143.888 54.4155 144.161 54.4839C144.435 54.5522 144.73 54.5864 145.047 54.5864C145.458 54.5864 145.794 54.5303 146.058 54.418C146.327 54.3008 146.527 54.1396 146.659 53.9346C146.795 53.7295 146.864 53.4951 146.864 53.2314ZM159.073 50.397V50.9463C159.073 51.752 158.966 52.4771 158.751 53.1216C158.536 53.7612 158.231 54.3057 157.835 54.7549C157.44 55.2041 156.969 55.5483 156.422 55.7876C155.875 56.0269 155.267 56.1465 154.598 56.1465C153.939 56.1465 153.333 56.0269 152.782 55.7876C152.235 55.5483 151.761 55.2041 151.361 54.7549C150.96 54.3057 150.65 53.7612 150.431 53.1216C150.211 52.4771 150.101 51.752 150.101 50.9463V50.397C150.101 49.5864 150.211 48.8613 150.431 48.2217C150.65 47.582 150.958 47.0376 151.354 46.5884C151.749 46.1343 152.22 45.7876 152.767 45.5483C153.319 45.3091 153.924 45.1895 154.583 45.1895C155.252 45.1895 155.86 45.3091 156.407 45.5483C156.954 45.7876 157.425 46.1343 157.821 46.5884C158.221 47.0376 158.529 47.582 158.744 48.2217C158.963 48.8613 159.073 49.5864 159.073 50.397ZM157.037 50.9463V50.3823C157.037 49.8013 156.983 49.291 156.876 48.8516C156.769 48.4072 156.61 48.0337 156.4 47.731C156.19 47.4282 155.931 47.2012 155.624 47.0498C155.316 46.8936 154.969 46.8154 154.583 46.8154C154.193 46.8154 153.846 46.8936 153.543 47.0498C153.246 47.2012 152.992 47.4282 152.782 47.731C152.572 48.0337 152.411 48.4072 152.298 48.8516C152.191 49.291 152.137 49.8013 152.137 50.3823V50.9463C152.137 51.5225 152.191 52.0327 152.298 52.4771C152.411 52.9214 152.572 53.2974 152.782 53.605C152.997 53.9077 153.255 54.1372 153.558 54.2935C153.861 54.4497 154.208 54.5278 154.598 54.5278C154.989 54.5278 155.335 54.4497 155.638 54.2935C155.941 54.1372 156.195 53.9077 156.4 53.605C156.61 53.2974 156.769 52.9214 156.876 52.4771C156.983 52.0327 157.037 51.5225 157.037 50.9463ZM164.881 52.1108H162.135V50.5288H164.881C165.331 50.5288 165.694 50.4556 165.973 50.3091C166.256 50.1577 166.463 49.9526 166.595 49.6938C166.727 49.4302 166.793 49.1299 166.793 48.793C166.793 48.4658 166.727 48.1606 166.595 47.8774C166.463 47.5942 166.256 47.3647 165.973 47.189C165.694 47.0132 165.331 46.9253 164.881 46.9253H162.794V56H160.78V45.3359H164.881C165.711 45.3359 166.419 45.4849 167.005 45.7827C167.596 46.0757 168.045 46.4834 168.353 47.0059C168.666 47.5234 168.822 48.1143 168.822 48.7783C168.822 49.4668 168.666 50.0601 168.353 50.5581C168.045 51.0562 167.596 51.4395 167.005 51.708C166.419 51.9766 165.711 52.1108 164.881 52.1108ZM174.139 45.3359H178.014C178.824 45.3359 179.52 45.458 180.101 45.7021C180.682 45.9463 181.129 46.3076 181.441 46.7861C181.754 47.2646 181.91 47.853 181.91 48.5513C181.91 49.103 181.812 49.5815 181.617 49.9868C181.422 50.3921 181.146 50.7314 180.79 51.0049C180.438 51.2783 180.023 51.4932 179.544 51.6494L178.915 51.9717H175.494L175.479 50.3823H178.036C178.451 50.3823 178.795 50.3091 179.068 50.1626C179.342 50.0161 179.547 49.8135 179.684 49.5547C179.825 49.2959 179.896 49.0005 179.896 48.6685C179.896 48.312 179.828 48.0044 179.691 47.7456C179.554 47.4819 179.347 47.2793 179.068 47.1377C178.79 46.9961 178.438 46.9253 178.014 46.9253H176.153V56H174.139V45.3359ZM180.16 56L177.691 51.2246L179.823 51.2173L182.32 55.8975V56H180.16ZM187.088 56.1465C186.488 56.1465 185.948 56.0488 185.47 55.8535C184.991 55.6582 184.583 55.3872 184.247 55.0405C183.915 54.689 183.658 54.2812 183.478 53.8174C183.302 53.3486 183.214 52.8457 183.214 52.3086V52.0156C183.214 51.4053 183.302 50.8511 183.478 50.353C183.653 49.8501 183.902 49.418 184.225 49.0566C184.547 48.6953 184.933 48.417 185.382 48.2217C185.831 48.0264 186.327 47.9287 186.869 47.9287C187.43 47.9287 187.926 48.0239 188.355 48.2144C188.785 48.3999 189.144 48.6636 189.432 49.0054C189.72 49.3472 189.938 49.7573 190.084 50.2358C190.23 50.7095 190.304 51.2344 190.304 51.8105V52.6235H184.093V51.2905H188.399V51.144C188.39 50.8364 188.331 50.5557 188.224 50.3018C188.116 50.043 187.95 49.8379 187.726 49.6865C187.501 49.5303 187.21 49.4521 186.854 49.4521C186.566 49.4521 186.314 49.5156 186.1 49.6426C185.89 49.7646 185.714 49.9404 185.572 50.1699C185.436 50.3945 185.333 50.6631 185.265 50.9756C185.196 51.2881 185.162 51.6348 185.162 52.0156V52.3086C185.162 52.6406 185.206 52.9482 185.294 53.2314C185.387 53.5146 185.521 53.7612 185.697 53.9712C185.877 54.1763 186.092 54.3374 186.341 54.4546C186.595 54.5669 186.883 54.623 187.206 54.623C187.611 54.623 187.977 54.5449 188.304 54.3887C188.636 54.2275 188.924 53.9907 189.168 53.6782L190.143 54.689C189.977 54.9331 189.752 55.1675 189.469 55.3921C189.19 55.6167 188.854 55.7998 188.458 55.9414C188.062 56.0781 187.606 56.1465 187.088 56.1465ZM194.127 54.5352L195.973 48.0752H197.994L195.277 56H194.046L194.127 54.5352ZM192.779 48.0752L194.647 54.5498L194.713 56H193.475L190.75 48.0752H192.779ZM201.063 48.0752V56H199.122V48.0752H201.063ZM198.99 46.0024C198.99 45.7144 199.088 45.4751 199.283 45.2847C199.483 45.0942 199.752 44.999 200.089 44.999C200.426 44.999 200.692 45.0942 200.887 45.2847C201.087 45.4751 201.188 45.7144 201.188 46.0024C201.188 46.2856 201.087 46.5225 200.887 46.7129C200.692 46.9033 200.426 46.9985 200.089 46.9985C199.752 46.9985 199.483 46.9033 199.283 46.7129C199.088 46.5225 198.99 46.2856 198.99 46.0024ZM206.468 56.1465C205.868 56.1465 205.328 56.0488 204.85 55.8535C204.371 55.6582 203.963 55.3872 203.626 55.0405C203.294 54.689 203.038 54.2812 202.857 53.8174C202.682 53.3486 202.594 52.8457 202.594 52.3086V52.0156C202.594 51.4053 202.682 50.8511 202.857 50.353C203.033 49.8501 203.282 49.418 203.604 49.0566C203.927 48.6953 204.312 48.417 204.762 48.2217C205.211 48.0264 205.707 47.9287 206.249 47.9287C206.81 47.9287 207.306 48.0239 207.735 48.2144C208.165 48.3999 208.524 48.6636 208.812 49.0054C209.1 49.3472 209.317 49.7573 209.464 50.2358C209.61 50.7095 209.684 51.2344 209.684 51.8105V52.6235H203.473V51.2905H207.779V51.144C207.77 50.8364 207.711 50.5557 207.604 50.3018C207.496 50.043 207.33 49.8379 207.105 49.6865C206.881 49.5303 206.59 49.4521 206.234 49.4521C205.946 49.4521 205.694 49.5156 205.479 49.6426C205.27 49.7646 205.094 49.9404 204.952 50.1699C204.815 50.3945 204.713 50.6631 204.645 50.9756C204.576 51.2881 204.542 51.6348 204.542 52.0156V52.3086C204.542 52.6406 204.586 52.9482 204.674 53.2314C204.767 53.5146 204.901 53.7612 205.077 53.9712C205.257 54.1763 205.472 54.3374 205.721 54.4546C205.975 54.5669 206.263 54.623 206.585 54.623C206.991 54.623 207.357 54.5449 207.684 54.3887C208.016 54.2275 208.304 53.9907 208.548 53.6782L209.522 54.689C209.356 54.9331 209.132 55.1675 208.849 55.3921C208.57 55.6167 208.233 55.7998 207.838 55.9414C207.442 56.0781 206.986 56.1465 206.468 56.1465ZM213.185 54.0957L214.92 48.0752H216.151L215.785 50.1553L214.034 56H212.972L213.185 54.0957ZM212.225 48.0752L213.529 54.1104L213.646 56H212.423L210.343 48.0752H212.225ZM217.762 54.0225L219.037 48.0752H220.912L218.846 56H217.623L217.762 54.0225ZM216.341 48.0752L218.062 54.0371L218.29 56H217.228L215.462 50.1553L215.104 48.0752H216.341ZM230.155 54.3154V50.6606C230.155 50.3921 230.108 50.1602 230.016 49.9648C229.923 49.7695 229.781 49.6182 229.591 49.5107C229.4 49.4033 229.159 49.3496 228.866 49.3496C228.607 49.3496 228.38 49.3936 228.185 49.4814C227.994 49.5693 227.848 49.6938 227.745 49.855C227.643 50.0112 227.591 50.1919 227.591 50.397H225.65C225.65 50.0698 225.729 49.7598 225.885 49.4668C226.041 49.1689 226.263 48.9053 226.551 48.6758C226.844 48.4414 227.193 48.2583 227.599 48.1265C228.009 47.9946 228.468 47.9287 228.976 47.9287C229.576 47.9287 230.111 48.0312 230.58 48.2363C231.053 48.4365 231.424 48.7393 231.693 49.1445C231.966 49.5498 232.103 50.0601 232.103 50.6753V54.1323C232.103 54.5278 232.127 54.8672 232.176 55.1504C232.23 55.4287 232.308 55.6704 232.411 55.8755V56H230.44C230.348 55.7998 230.277 55.5459 230.228 55.2383C230.179 54.9258 230.155 54.6182 230.155 54.3154ZM230.426 51.1733L230.44 52.3232H229.217C228.915 52.3232 228.648 52.355 228.419 52.4185C228.189 52.4771 228.001 52.5649 227.855 52.6821C227.708 52.7944 227.599 52.9312 227.525 53.0923C227.452 53.2485 227.416 53.4268 227.416 53.627C227.416 53.8223 227.459 53.998 227.547 54.1543C227.64 54.3105 227.772 54.4351 227.943 54.5278C228.119 54.6157 228.324 54.6597 228.558 54.6597C228.9 54.6597 229.198 54.5913 229.452 54.4546C229.706 54.313 229.903 54.1421 230.045 53.9419C230.187 53.7417 230.262 53.5513 230.272 53.3706L230.829 54.2056C230.76 54.4058 230.658 54.6182 230.521 54.8428C230.384 55.0674 230.208 55.2773 229.994 55.4727C229.779 55.668 229.52 55.8291 229.217 55.9561C228.915 56.083 228.563 56.1465 228.163 56.1465C227.65 56.1465 227.191 56.0439 226.786 55.8389C226.38 55.6338 226.061 55.353 225.826 54.9966C225.592 54.6401 225.475 54.2349 225.475 53.7808C225.475 53.3608 225.553 52.9897 225.709 52.6675C225.865 52.3452 226.097 52.0742 226.405 51.8545C226.712 51.6299 227.093 51.4614 227.547 51.3491C228.006 51.2319 228.531 51.1733 229.122 51.1733H230.426ZM235.743 49.7671V56H233.81V48.0752H235.626L235.743 49.7671ZM235.436 51.752H234.864C234.869 51.1758 234.947 50.6533 235.099 50.1846C235.25 49.7158 235.462 49.313 235.736 48.9761C236.014 48.6392 236.344 48.3804 236.725 48.1997C237.105 48.019 237.53 47.9287 237.999 47.9287C238.38 47.9287 238.724 47.9824 239.032 48.0898C239.339 48.1973 239.603 48.3682 239.823 48.6025C240.047 48.8369 240.218 49.1445 240.335 49.5254C240.458 49.9014 240.519 50.3652 240.519 50.917V56H238.57V50.9023C238.57 50.541 238.517 50.2554 238.409 50.0454C238.307 49.8354 238.155 49.6865 237.955 49.5986C237.76 49.5107 237.518 49.4668 237.23 49.4668C236.932 49.4668 236.671 49.5278 236.446 49.6499C236.227 49.7671 236.041 49.9307 235.89 50.1406C235.743 50.3506 235.631 50.5923 235.553 50.8657C235.475 51.1392 235.436 51.4346 235.436 51.752ZM246.979 54.3154V44.75H248.927V56H247.169L246.979 54.3154ZM241.888 52.1328V51.979C241.888 51.3735 241.957 50.8242 242.093 50.3311C242.235 49.833 242.44 49.4058 242.708 49.0493C242.977 48.6929 243.302 48.417 243.683 48.2217C244.068 48.0264 244.505 47.9287 244.994 47.9287C245.467 47.9287 245.88 48.0239 246.231 48.2144C246.588 48.4048 246.891 48.6758 247.14 49.0273C247.394 49.3789 247.596 49.7964 247.748 50.2798C247.899 50.7583 248.009 51.2856 248.077 51.8618V52.2793C248.009 52.8408 247.899 53.356 247.748 53.8247C247.596 54.2935 247.394 54.7036 247.14 55.0552C246.891 55.4019 246.588 55.6704 246.231 55.8608C245.875 56.0513 245.458 56.1465 244.979 56.1465C244.496 56.1465 244.061 56.0464 243.675 55.8462C243.294 55.646 242.97 55.3652 242.701 55.0039C242.438 54.6426 242.235 54.2178 242.093 53.7295C241.957 53.2412 241.888 52.709 241.888 52.1328ZM243.829 51.979V52.1328C243.829 52.4746 243.858 52.7944 243.917 53.0923C243.976 53.3901 244.071 53.6538 244.203 53.8833C244.334 54.1079 244.503 54.2837 244.708 54.4106C244.918 54.5376 245.172 54.6011 245.47 54.6011C245.851 54.6011 246.163 54.5181 246.407 54.3521C246.656 54.1812 246.849 53.9492 246.986 53.6562C247.123 53.3584 247.21 53.0239 247.25 52.6528V51.5029C247.23 51.21 247.179 50.939 247.096 50.6899C247.018 50.4409 246.905 50.2261 246.759 50.0454C246.617 49.8647 246.441 49.7231 246.231 49.6206C246.021 49.5181 245.772 49.4668 245.484 49.4668C245.187 49.4668 244.933 49.5327 244.723 49.6646C244.513 49.7915 244.342 49.9697 244.21 50.1992C244.078 50.4287 243.98 50.6948 243.917 50.9976C243.858 51.3003 243.829 51.6274 243.829 51.979ZM254.559 45.3359H258.434C259.244 45.3359 259.94 45.458 260.521 45.7021C261.102 45.9463 261.549 46.3076 261.861 46.7861C262.174 47.2646 262.33 47.853 262.33 48.5513C262.33 49.103 262.232 49.5815 262.037 49.9868C261.842 50.3921 261.566 50.7314 261.209 51.0049C260.858 51.2783 260.443 51.4932 259.964 51.6494L259.334 51.9717H255.914L255.899 50.3823H258.456C258.871 50.3823 259.215 50.3091 259.488 50.1626C259.762 50.0161 259.967 49.8135 260.104 49.5547C260.245 49.2959 260.316 49.0005 260.316 48.6685C260.316 48.312 260.248 48.0044 260.111 47.7456C259.974 47.4819 259.767 47.2793 259.488 47.1377C259.21 46.9961 258.858 46.9253 258.434 46.9253H256.573V56H254.559V45.3359ZM260.58 56L258.111 51.2246L260.243 51.2173L262.74 55.8975V56H260.58ZM267.508 56.1465C266.908 56.1465 266.368 56.0488 265.89 55.8535C265.411 55.6582 265.003 55.3872 264.667 55.0405C264.334 54.689 264.078 54.2812 263.897 53.8174C263.722 53.3486 263.634 52.8457 263.634 52.3086V52.0156C263.634 51.4053 263.722 50.8511 263.897 50.353C264.073 49.8501 264.322 49.418 264.645 49.0566C264.967 48.6953 265.353 48.417 265.802 48.2217C266.251 48.0264 266.747 47.9287 267.289 47.9287C267.85 47.9287 268.346 48.0239 268.775 48.2144C269.205 48.3999 269.564 48.6636 269.852 49.0054C270.14 49.3472 270.357 49.7573 270.504 50.2358C270.65 50.7095 270.724 51.2344 270.724 51.8105V52.6235H264.513V51.2905H268.819V51.144C268.81 50.8364 268.751 50.5557 268.644 50.3018C268.536 50.043 268.37 49.8379 268.146 49.6865C267.921 49.5303 267.63 49.4521 267.274 49.4521C266.986 49.4521 266.734 49.5156 266.52 49.6426C266.31 49.7646 266.134 49.9404 265.992 50.1699C265.855 50.3945 265.753 50.6631 265.685 50.9756C265.616 51.2881 265.582 51.6348 265.582 52.0156V52.3086C265.582 52.6406 265.626 52.9482 265.714 53.2314C265.807 53.5146 265.941 53.7612 266.117 53.9712C266.297 54.1763 266.512 54.3374 266.761 54.4546C267.015 54.5669 267.303 54.623 267.625 54.623C268.031 54.623 268.397 54.5449 268.724 54.3887C269.056 54.2275 269.344 53.9907 269.588 53.6782L270.562 54.689C270.396 54.9331 270.172 55.1675 269.889 55.3921C269.61 55.6167 269.273 55.7998 268.878 55.9414C268.482 56.0781 268.026 56.1465 267.508 56.1465ZM274.547 54.5352L276.393 48.0752H278.414L275.697 56H274.466L274.547 54.5352ZM273.199 48.0752L275.067 54.5498L275.133 56H273.895L271.17 48.0752H273.199ZM281.483 48.0752V56H279.542V48.0752H281.483ZM279.41 46.0024C279.41 45.7144 279.508 45.4751 279.703 45.2847C279.903 45.0942 280.172 44.999 280.509 44.999C280.846 44.999 281.112 45.0942 281.307 45.2847C281.507 45.4751 281.607 45.7144 281.607 46.0024C281.607 46.2856 281.507 46.5225 281.307 46.7129C281.112 46.9033 280.846 46.9985 280.509 46.9985C280.172 46.9985 279.903 46.9033 279.703 46.7129C279.508 46.5225 279.41 46.2856 279.41 46.0024ZM287.687 53.832C287.687 53.666 287.643 53.5171 287.555 53.3853C287.467 53.2534 287.301 53.1338 287.057 53.0264C286.817 52.9141 286.466 52.8091 286.002 52.7114C285.592 52.6235 285.213 52.5137 284.867 52.3818C284.52 52.25 284.222 52.0913 283.973 51.9058C283.724 51.7153 283.529 51.4932 283.387 51.2393C283.25 50.9805 283.182 50.6826 283.182 50.3457C283.182 50.0186 283.253 49.7109 283.395 49.4229C283.536 49.1299 283.741 48.8735 284.01 48.6538C284.278 48.4292 284.605 48.2534 284.991 48.1265C285.377 47.9946 285.812 47.9287 286.295 47.9287C286.969 47.9287 287.547 48.0386 288.031 48.2583C288.519 48.478 288.893 48.7808 289.151 49.1665C289.41 49.5474 289.54 49.9771 289.54 50.4556H287.606C287.606 50.2456 287.557 50.0552 287.459 49.8843C287.367 49.7134 287.223 49.5767 287.027 49.4741C286.832 49.3667 286.585 49.313 286.288 49.313C286.019 49.313 285.792 49.3569 285.606 49.4448C285.426 49.5327 285.289 49.6475 285.196 49.7891C285.104 49.9307 285.057 50.0869 285.057 50.2578C285.057 50.3848 285.082 50.4995 285.13 50.6021C285.184 50.6997 285.27 50.79 285.387 50.873C285.504 50.9561 285.663 51.0317 285.863 51.1001C286.068 51.1685 286.319 51.2344 286.617 51.2979C287.208 51.415 287.723 51.5713 288.163 51.7666C288.607 51.957 288.954 52.2109 289.203 52.5283C289.452 52.8457 289.576 53.251 289.576 53.7441C289.576 54.0957 289.5 54.418 289.349 54.7109C289.198 54.999 288.978 55.2505 288.69 55.4653C288.402 55.6802 288.058 55.8486 287.657 55.9707C287.257 56.0879 286.805 56.1465 286.302 56.1465C285.575 56.1465 284.959 56.0171 284.457 55.7583C283.954 55.4946 283.573 55.1626 283.314 54.7622C283.055 54.3569 282.926 53.937 282.926 53.5024H284.779C284.793 53.8101 284.876 54.0566 285.028 54.2422C285.179 54.4277 285.37 54.562 285.599 54.645C285.833 54.7231 286.08 54.7622 286.339 54.7622C286.632 54.7622 286.878 54.7231 287.079 54.645C287.279 54.562 287.43 54.4521 287.533 54.3154C287.635 54.1738 287.687 54.0127 287.687 53.832ZM293.099 48.0752V56H291.158V48.0752H293.099ZM291.026 46.0024C291.026 45.7144 291.124 45.4751 291.319 45.2847C291.52 45.0942 291.788 44.999 292.125 44.999C292.462 44.999 292.728 45.0942 292.923 45.2847C293.124 45.4751 293.224 45.7144 293.224 46.0024C293.224 46.2856 293.124 46.5225 292.923 46.7129C292.728 46.9033 292.462 46.9985 292.125 46.9985C291.788 46.9985 291.52 46.9033 291.319 46.7129C291.124 46.5225 291.026 46.2856 291.026 46.0024ZM294.601 52.1182V51.9644C294.601 51.3833 294.684 50.8486 294.85 50.3604C295.016 49.8672 295.257 49.4399 295.575 49.0786C295.892 48.7173 296.28 48.4365 296.739 48.2363C297.198 48.0312 297.721 47.9287 298.307 47.9287C298.902 47.9287 299.43 48.0312 299.889 48.2363C300.353 48.4365 300.743 48.7173 301.061 49.0786C301.378 49.4399 301.62 49.8672 301.786 50.3604C301.952 50.8486 302.035 51.3833 302.035 51.9644V52.1182C302.035 52.6943 301.952 53.229 301.786 53.7222C301.62 54.2104 301.378 54.6377 301.061 55.0039C300.743 55.3652 300.355 55.646 299.896 55.8462C299.437 56.0464 298.912 56.1465 298.321 56.1465C297.735 56.1465 297.21 56.0464 296.747 55.8462C296.283 55.646 295.892 55.3652 295.575 55.0039C295.257 54.6377 295.016 54.2104 294.85 53.7222C294.684 53.229 294.601 52.6943 294.601 52.1182ZM296.534 51.9644V52.1182C296.534 52.4648 296.568 52.7896 296.637 53.0923C296.705 53.395 296.81 53.6611 296.952 53.8906C297.093 54.1201 297.276 54.3008 297.501 54.4326C297.73 54.5596 298.004 54.623 298.321 54.623C298.634 54.623 298.902 54.5596 299.127 54.4326C299.352 54.3008 299.535 54.1201 299.676 53.8906C299.823 53.6611 299.93 53.395 299.999 53.0923C300.067 52.7896 300.101 52.4648 300.101 52.1182V51.9644C300.101 51.6226 300.067 51.3027 299.999 51.0049C299.93 50.7021 299.823 50.436 299.676 50.2065C299.535 49.9722 299.349 49.7891 299.12 49.6572C298.895 49.5205 298.624 49.4521 298.307 49.4521C297.994 49.4521 297.726 49.5205 297.501 49.6572C297.276 49.7891 297.093 49.9722 296.952 50.2065C296.81 50.436 296.705 50.7021 296.637 51.0049C296.568 51.3027 296.534 51.6226 296.534 51.9644ZM305.338 49.7671V56H303.404V48.0752H305.221L305.338 49.7671ZM305.03 51.752H304.459C304.464 51.1758 304.542 50.6533 304.693 50.1846C304.845 49.7158 305.057 49.313 305.331 48.9761C305.609 48.6392 305.938 48.3804 306.319 48.1997C306.7 48.019 307.125 47.9287 307.594 47.9287C307.975 47.9287 308.319 47.9824 308.626 48.0898C308.934 48.1973 309.198 48.3682 309.417 48.6025C309.642 48.8369 309.813 49.1445 309.93 49.5254C310.052 49.9014 310.113 50.3652 310.113 50.917V56H308.165V50.9023C308.165 50.541 308.111 50.2554 308.004 50.0454C307.901 49.8354 307.75 49.6865 307.55 49.5986C307.354 49.5107 307.113 49.4668 306.825 49.4668C306.527 49.4668 306.266 49.5278 306.041 49.6499C305.821 49.7671 305.636 49.9307 305.484 50.1406C305.338 50.3506 305.226 50.5923 305.147 50.8657C305.069 51.1392 305.03 51.4346 305.03 51.752ZM317.489 49.5986V59.0469H315.548V48.0752H317.342L317.489 49.5986ZM322.579 51.957V52.1108C322.579 52.687 322.511 53.2217 322.374 53.7148C322.242 54.2031 322.047 54.6304 321.788 54.9966C321.529 55.3579 321.207 55.6411 320.821 55.8462C320.44 56.0464 320.001 56.1465 319.503 56.1465C319.015 56.1465 318.59 56.0537 318.229 55.8682C317.867 55.6777 317.562 55.4092 317.313 55.0625C317.064 54.7158 316.864 54.313 316.712 53.854C316.566 53.3901 316.456 52.8848 316.383 52.3379V51.8472C316.456 51.2661 316.566 50.7388 316.712 50.2651C316.864 49.7866 317.064 49.374 317.313 49.0273C317.562 48.6758 317.865 48.4048 318.221 48.2144C318.583 48.0239 319.005 47.9287 319.488 47.9287C319.991 47.9287 320.433 48.0239 320.814 48.2144C321.2 48.4048 321.524 48.6782 321.788 49.0347C322.052 49.3911 322.25 49.8159 322.381 50.3091C322.513 50.8022 322.579 51.3516 322.579 51.957ZM320.638 52.1108V51.957C320.638 51.6055 320.606 51.2808 320.543 50.9829C320.479 50.6802 320.382 50.4165 320.25 50.1919C320.118 49.9624 319.947 49.7842 319.737 49.6572C319.527 49.5303 319.273 49.4668 318.976 49.4668C318.678 49.4668 318.421 49.5156 318.207 49.6133C317.992 49.7109 317.816 49.8501 317.679 50.0308C317.542 50.2114 317.435 50.4263 317.357 50.6753C317.284 50.9194 317.235 51.1904 317.21 51.4883V52.7041C317.254 53.0654 317.34 53.3901 317.467 53.6782C317.594 53.9663 317.779 54.1958 318.023 54.3667C318.272 54.5376 318.595 54.623 318.99 54.623C319.288 54.623 319.542 54.5571 319.752 54.4253C319.962 54.2935 320.133 54.1128 320.265 53.8833C320.396 53.6489 320.492 53.3804 320.55 53.0776C320.609 52.7749 320.638 52.4526 320.638 52.1108ZM323.648 52.1182V51.9644C323.648 51.3833 323.731 50.8486 323.897 50.3604C324.063 49.8672 324.305 49.4399 324.623 49.0786C324.94 48.7173 325.328 48.4365 325.787 48.2363C326.246 48.0312 326.769 47.9287 327.354 47.9287C327.95 47.9287 328.478 48.0312 328.937 48.2363C329.4 48.4365 329.791 48.7173 330.108 49.0786C330.426 49.4399 330.667 49.8672 330.833 50.3604C331 50.8486 331.083 51.3833 331.083 51.9644V52.1182C331.083 52.6943 331 53.229 330.833 53.7222C330.667 54.2104 330.426 54.6377 330.108 55.0039C329.791 55.3652 329.403 55.646 328.944 55.8462C328.485 56.0464 327.96 56.1465 327.369 56.1465C326.783 56.1465 326.258 56.0464 325.794 55.8462C325.331 55.646 324.94 55.3652 324.623 55.0039C324.305 54.6377 324.063 54.2104 323.897 53.7222C323.731 53.229 323.648 52.6943 323.648 52.1182ZM325.582 51.9644V52.1182C325.582 52.4648 325.616 52.7896 325.685 53.0923C325.753 53.395 325.858 53.6611 326 53.8906C326.141 54.1201 326.324 54.3008 326.549 54.4326C326.778 54.5596 327.052 54.623 327.369 54.623C327.682 54.623 327.95 54.5596 328.175 54.4326C328.399 54.3008 328.583 54.1201 328.724 53.8906C328.871 53.6611 328.978 53.395 329.046 53.0923C329.115 52.7896 329.149 52.4648 329.149 52.1182V51.9644C329.149 51.6226 329.115 51.3027 329.046 51.0049C328.978 50.7021 328.871 50.436 328.724 50.2065C328.583 49.9722 328.397 49.7891 328.167 49.6572C327.943 49.5205 327.672 49.4521 327.354 49.4521C327.042 49.4521 326.773 49.5205 326.549 49.6572C326.324 49.7891 326.141 49.9722 326 50.2065C325.858 50.436 325.753 50.7021 325.685 51.0049C325.616 51.3027 325.582 51.6226 325.582 51.9644ZM334.693 54.0957L336.429 48.0752H337.66L337.293 50.1553L335.543 56H334.481L334.693 54.0957ZM333.734 48.0752L335.038 54.1104L335.155 56H333.932L331.852 48.0752H333.734ZM339.271 54.0225L340.545 48.0752H342.42L340.355 56H339.132L339.271 54.0225ZM337.85 48.0752L339.571 54.0371L339.798 56H338.736L336.971 50.1553L336.612 48.0752H337.85ZM347.123 56.1465C346.522 56.1465 345.982 56.0488 345.504 55.8535C345.025 55.6582 344.618 55.3872 344.281 55.0405C343.949 54.689 343.692 54.2812 343.512 53.8174C343.336 53.3486 343.248 52.8457 343.248 52.3086V52.0156C343.248 51.4053 343.336 50.8511 343.512 50.353C343.688 49.8501 343.937 49.418 344.259 49.0566C344.581 48.6953 344.967 48.417 345.416 48.2217C345.865 48.0264 346.361 47.9287 346.903 47.9287C347.464 47.9287 347.96 48.0239 348.39 48.2144C348.819 48.3999 349.178 48.6636 349.466 49.0054C349.754 49.3472 349.972 49.7573 350.118 50.2358C350.265 50.7095 350.338 51.2344 350.338 51.8105V52.6235H344.127V51.2905H348.434V51.144C348.424 50.8364 348.365 50.5557 348.258 50.3018C348.15 50.043 347.984 49.8379 347.76 49.6865C347.535 49.5303 347.245 49.4521 346.888 49.4521C346.6 49.4521 346.349 49.5156 346.134 49.6426C345.924 49.7646 345.748 49.9404 345.606 50.1699C345.47 50.3945 345.367 50.6631 345.299 50.9756C345.23 51.2881 345.196 51.6348 345.196 52.0156V52.3086C345.196 52.6406 345.24 52.9482 345.328 53.2314C345.421 53.5146 345.555 53.7612 345.731 53.9712C345.912 54.1763 346.126 54.3374 346.375 54.4546C346.629 54.5669 346.917 54.623 347.24 54.623C347.645 54.623 348.011 54.5449 348.338 54.3887C348.67 54.2275 348.958 53.9907 349.203 53.6782L350.177 54.689C350.011 54.9331 349.786 55.1675 349.503 55.3921C349.225 55.6167 348.888 55.7998 348.492 55.9414C348.097 56.0781 347.64 56.1465 347.123 56.1465ZM353.568 49.6938V56H351.634V48.0752H353.465L353.568 49.6938ZM355.978 48.0239L355.948 49.8257C355.841 49.8062 355.719 49.7915 355.582 49.7817C355.45 49.772 355.326 49.7671 355.208 49.7671C354.911 49.7671 354.649 49.8086 354.425 49.8916C354.2 49.9697 354.012 50.0845 353.861 50.2358C353.714 50.3872 353.602 50.5728 353.524 50.7925C353.446 51.0073 353.402 51.2515 353.392 51.5249L352.975 51.4736C352.975 50.9707 353.026 50.5044 353.128 50.0747C353.231 49.645 353.38 49.269 353.575 48.9468C353.771 48.6245 354.015 48.3755 354.308 48.1997C354.605 48.019 354.947 47.9287 355.333 47.9287C355.44 47.9287 355.555 47.9385 355.677 47.958C355.804 47.9727 355.904 47.9946 355.978 48.0239ZM360.453 56.1465C359.852 56.1465 359.312 56.0488 358.834 55.8535C358.355 55.6582 357.948 55.3872 357.611 55.0405C357.279 54.689 357.022 54.2812 356.842 53.8174C356.666 53.3486 356.578 52.8457 356.578 52.3086V52.0156C356.578 51.4053 356.666 50.8511 356.842 50.353C357.018 49.8501 357.267 49.418 357.589 49.0566C357.911 48.6953 358.297 48.417 358.746 48.2217C359.195 48.0264 359.691 47.9287 360.233 47.9287C360.794 47.9287 361.29 48.0239 361.72 48.2144C362.149 48.3999 362.508 48.6636 362.796 49.0054C363.084 49.3472 363.302 49.7573 363.448 50.2358C363.595 50.7095 363.668 51.2344 363.668 51.8105V52.6235H357.457V51.2905H361.764V51.144C361.754 50.8364 361.695 50.5557 361.588 50.3018C361.48 50.043 361.314 49.8379 361.09 49.6865C360.865 49.5303 360.575 49.4521 360.218 49.4521C359.93 49.4521 359.679 49.5156 359.464 49.6426C359.254 49.7646 359.078 49.9404 358.937 50.1699C358.8 50.3945 358.697 50.6631 358.629 50.9756C358.561 51.2881 358.526 51.6348 358.526 52.0156V52.3086C358.526 52.6406 358.57 52.9482 358.658 53.2314C358.751 53.5146 358.885 53.7612 359.061 53.9712C359.242 54.1763 359.457 54.3374 359.706 54.4546C359.959 54.5669 360.248 54.623 360.57 54.623C360.975 54.623 361.341 54.5449 361.668 54.3887C362 54.2275 362.289 53.9907 362.533 53.6782L363.507 54.689C363.341 54.9331 363.116 55.1675 362.833 55.3921C362.555 55.6167 362.218 55.7998 361.822 55.9414C361.427 56.0781 360.97 56.1465 360.453 56.1465ZM369.718 54.3154V44.75H371.666V56H369.908L369.718 54.3154ZM364.627 52.1328V51.979C364.627 51.3735 364.696 50.8242 364.833 50.3311C364.974 49.833 365.179 49.4058 365.448 49.0493C365.716 48.6929 366.041 48.417 366.422 48.2217C366.808 48.0264 367.245 47.9287 367.733 47.9287C368.207 47.9287 368.619 48.0239 368.971 48.2144C369.327 48.4048 369.63 48.6758 369.879 49.0273C370.133 49.3789 370.335 49.7964 370.487 50.2798C370.638 50.7583 370.748 51.2856 370.816 51.8618V52.2793C370.748 52.8408 370.638 53.356 370.487 53.8247C370.335 54.2935 370.133 54.7036 369.879 55.0552C369.63 55.4019 369.327 55.6704 368.971 55.8608C368.614 56.0513 368.197 56.1465 367.718 56.1465C367.235 56.1465 366.8 56.0464 366.415 55.8462C366.034 55.646 365.709 55.3652 365.44 55.0039C365.177 54.6426 364.974 54.2178 364.833 53.7295C364.696 53.2412 364.627 52.709 364.627 52.1328ZM366.568 51.979V52.1328C366.568 52.4746 366.598 52.7944 366.656 53.0923C366.715 53.3901 366.81 53.6538 366.942 53.8833C367.074 54.1079 367.242 54.2837 367.447 54.4106C367.657 54.5376 367.911 54.6011 368.209 54.6011C368.59 54.6011 368.902 54.5181 369.146 54.3521C369.396 54.1812 369.588 53.9492 369.725 53.6562C369.862 53.3584 369.95 53.0239 369.989 52.6528V51.5029C369.969 51.21 369.918 50.939 369.835 50.6899C369.757 50.4409 369.645 50.2261 369.498 50.0454C369.356 49.8647 369.181 49.7231 368.971 49.6206C368.761 49.5181 368.512 49.4668 368.224 49.4668C367.926 49.4668 367.672 49.5327 367.462 49.6646C367.252 49.7915 367.081 49.9697 366.949 50.1992C366.817 50.4287 366.72 50.6948 366.656 50.9976C366.598 51.3003 366.568 51.6274 366.568 51.979ZM377.145 44.75H379.085V54.2495L378.895 56H377.145V44.75ZM384.183 51.957V52.1108C384.183 52.7017 384.117 53.2437 383.985 53.7368C383.858 54.23 383.666 54.6572 383.407 55.0186C383.148 55.375 382.826 55.6533 382.44 55.8535C382.059 56.0488 381.612 56.1465 381.1 56.1465C380.611 56.1465 380.187 56.0513 379.825 55.8608C379.469 55.6704 379.168 55.4019 378.924 55.0552C378.68 54.7036 378.485 54.291 378.338 53.8174C378.192 53.3389 378.082 52.8164 378.009 52.25V51.8325C378.082 51.2612 378.192 50.7388 378.338 50.2651C378.485 49.7915 378.68 49.3789 378.924 49.0273C379.168 48.6758 379.469 48.4048 379.825 48.2144C380.182 48.0239 380.602 47.9287 381.085 47.9287C381.603 47.9287 382.054 48.0288 382.44 48.229C382.831 48.4243 383.153 48.7026 383.407 49.064C383.666 49.4204 383.858 49.8452 383.985 50.3384C384.117 50.8267 384.183 51.3662 384.183 51.957ZM382.242 52.1108V51.957C382.242 51.6201 382.215 51.3027 382.162 51.0049C382.108 50.7021 382.02 50.436 381.898 50.2065C381.776 49.9771 381.61 49.7964 381.4 49.6646C381.19 49.5327 380.926 49.4668 380.609 49.4668C380.306 49.4668 380.047 49.5181 379.833 49.6206C379.623 49.7231 379.447 49.8647 379.305 50.0454C379.168 50.2261 379.061 50.4385 378.983 50.6826C378.91 50.9268 378.861 51.1904 378.836 51.4736V52.6162C378.871 52.9922 378.951 53.3315 379.078 53.6343C379.205 53.9321 379.393 54.1689 379.642 54.3447C379.896 54.5205 380.223 54.6084 380.624 54.6084C380.936 54.6084 381.197 54.5474 381.407 54.4253C381.617 54.2983 381.783 54.1226 381.905 53.8979C382.027 53.6685 382.113 53.4023 382.162 53.0996C382.215 52.7969 382.242 52.4673 382.242 52.1108ZM387.823 55.1211L389.947 48.0752H392.02L388.841 57.2012C388.768 57.3965 388.673 57.6089 388.556 57.8384C388.443 58.0679 388.292 58.2852 388.102 58.4902C387.911 58.7002 387.672 58.8711 387.384 59.0029C387.101 59.1348 386.756 59.2007 386.351 59.2007C386.175 59.2007 386.019 59.1885 385.882 59.1641C385.746 59.1396 385.602 59.1079 385.45 59.0688V57.6187C385.499 57.6235 385.555 57.626 385.619 57.626C385.687 57.6309 385.746 57.6333 385.794 57.6333C386.078 57.6333 386.312 57.5991 386.498 57.5308C386.683 57.4673 386.832 57.3623 386.944 57.2158C387.062 57.0742 387.159 56.8887 387.237 56.6592L387.823 55.1211ZM386.776 48.0752L388.57 53.9126L388.885 55.9561L387.552 56.1978L384.688 48.0752H386.776ZM405.409 45.3359V56H403.387L398.854 48.6025V56H396.839V45.3359H398.854L403.402 52.7407V45.3359H405.409ZM410.873 56.1465C410.272 56.1465 409.732 56.0488 409.254 55.8535C408.775 55.6582 408.368 55.3872 408.031 55.0405C407.699 54.689 407.442 54.2812 407.262 53.8174C407.086 53.3486 406.998 52.8457 406.998 52.3086V52.0156C406.998 51.4053 407.086 50.8511 407.262 50.353C407.438 49.8501 407.687 49.418 408.009 49.0566C408.331 48.6953 408.717 48.417 409.166 48.2217C409.615 48.0264 410.111 47.9287 410.653 47.9287C411.214 47.9287 411.71 48.0239 412.14 48.2144C412.569 48.3999 412.928 48.6636 413.216 49.0054C413.504 49.3472 413.722 49.7573 413.868 50.2358C414.015 50.7095 414.088 51.2344 414.088 51.8105V52.6235H407.877V51.2905H412.184V51.144C412.174 50.8364 412.115 50.5557 412.008 50.3018C411.9 50.043 411.734 49.8379 411.51 49.6865C411.285 49.5303 410.995 49.4521 410.638 49.4521C410.35 49.4521 410.099 49.5156 409.884 49.6426C409.674 49.7646 409.498 49.9404 409.356 50.1699C409.22 50.3945 409.117 50.6631 409.049 50.9756C408.98 51.2881 408.946 51.6348 408.946 52.0156V52.3086C408.946 52.6406 408.99 52.9482 409.078 53.2314C409.171 53.5146 409.305 53.7612 409.481 53.9712C409.662 54.1763 409.876 54.3374 410.125 54.4546C410.379 54.5669 410.667 54.623 410.99 54.623C411.395 54.623 411.761 54.5449 412.088 54.3887C412.42 54.2275 412.708 53.9907 412.953 53.6782L413.927 54.689C413.761 54.9331 413.536 55.1675 413.253 55.3921C412.975 55.6167 412.638 55.7998 412.242 55.9414C411.847 56.0781 411.39 56.1465 410.873 56.1465ZM416.9 48.0752L418.314 50.5947L419.75 48.0752H421.852L419.522 51.957L421.947 56H419.845L418.329 53.356L416.805 56H414.703L417.12 51.957L414.806 48.0752H416.9ZM426.722 48.0752V49.4668H422.181V48.0752H426.722ZM423.397 46.127H425.338V53.7148C425.338 53.9492 425.37 54.1299 425.433 54.2568C425.497 54.3838 425.592 54.4692 425.719 54.5132C425.846 54.5571 425.997 54.5791 426.173 54.5791C426.3 54.5791 426.417 54.5718 426.524 54.5571C426.632 54.5425 426.722 54.5278 426.795 54.5132L426.803 55.9634C426.642 56.0171 426.458 56.061 426.253 56.0952C426.053 56.1294 425.826 56.1465 425.572 56.1465C425.138 56.1465 424.757 56.0732 424.43 55.9268C424.103 55.7754 423.849 55.5337 423.668 55.2017C423.487 54.8647 423.397 54.4204 423.397 53.8687V46.127ZM436.478 50.4849V54.6377C436.322 54.8379 436.075 55.0552 435.738 55.2896C435.406 55.5239 434.972 55.7266 434.435 55.8975C433.897 56.0635 433.238 56.1465 432.457 56.1465C431.778 56.1465 431.158 56.0342 430.597 55.8096C430.035 55.5801 429.552 55.2456 429.146 54.8062C428.741 54.3667 428.429 53.8296 428.209 53.1948C427.989 52.5601 427.879 51.835 427.879 51.0195V50.3164C427.879 49.501 427.982 48.7759 428.187 48.1411C428.397 47.5063 428.695 46.9692 429.081 46.5298C429.471 46.0903 429.938 45.7559 430.479 45.5264C431.026 45.2969 431.637 45.1821 432.311 45.1821C433.214 45.1821 433.956 45.3311 434.537 45.6289C435.123 45.9268 435.572 46.3369 435.885 46.8594C436.197 47.377 436.393 47.9727 436.471 48.6465H434.508C434.454 48.2754 434.347 47.9507 434.186 47.6724C434.024 47.3892 433.795 47.1694 433.497 47.0132C433.204 46.8521 432.823 46.7715 432.354 46.7715C431.959 46.7715 431.61 46.8496 431.307 47.0059C431.004 47.1621 430.75 47.3892 430.545 47.687C430.34 47.9849 430.184 48.3535 430.077 48.793C429.974 49.2324 429.923 49.7354 429.923 50.3018V51.0195C429.923 51.5908 429.981 52.0986 430.099 52.543C430.216 52.9824 430.384 53.3535 430.604 53.6562C430.829 53.9541 431.104 54.1812 431.432 54.3374C431.764 54.4888 432.14 54.5645 432.56 54.5645C432.94 54.5645 433.255 54.5327 433.504 54.4692C433.758 54.4009 433.961 54.3203 434.112 54.2275C434.264 54.1348 434.381 54.0444 434.464 53.9565V51.957H432.347V50.4849H436.478ZM441.795 56.1465C441.195 56.1465 440.655 56.0488 440.177 55.8535C439.698 55.6582 439.291 55.3872 438.954 55.0405C438.622 54.689 438.365 54.2812 438.185 53.8174C438.009 53.3486 437.921 52.8457 437.921 52.3086V52.0156C437.921 51.4053 438.009 50.8511 438.185 50.353C438.36 49.8501 438.609 49.418 438.932 49.0566C439.254 48.6953 439.64 48.417 440.089 48.2217C440.538 48.0264 441.034 47.9287 441.576 47.9287C442.137 47.9287 442.633 48.0239 443.062 48.2144C443.492 48.3999 443.851 48.6636 444.139 49.0054C444.427 49.3472 444.645 49.7573 444.791 50.2358C444.938 50.7095 445.011 51.2344 445.011 51.8105V52.6235H438.8V51.2905H443.106V51.144C443.097 50.8364 443.038 50.5557 442.931 50.3018C442.823 50.043 442.657 49.8379 442.433 49.6865C442.208 49.5303 441.917 49.4521 441.561 49.4521C441.273 49.4521 441.021 49.5156 440.807 49.6426C440.597 49.7646 440.421 49.9404 440.279 50.1699C440.143 50.3945 440.04 50.6631 439.972 50.9756C439.903 51.2881 439.869 51.6348 439.869 52.0156V52.3086C439.869 52.6406 439.913 52.9482 440.001 53.2314C440.094 53.5146 440.228 53.7612 440.404 53.9712C440.584 54.1763 440.799 54.3374 441.048 54.4546C441.302 54.5669 441.59 54.623 441.913 54.623C442.318 54.623 442.684 54.5449 443.011 54.3887C443.343 54.2275 443.631 53.9907 443.875 53.6782L444.85 54.689C444.684 54.9331 444.459 55.1675 444.176 55.3921C443.897 55.6167 443.561 55.7998 443.165 55.9414C442.77 56.0781 442.313 56.1465 441.795 56.1465ZM448.204 49.7671V56H446.271V48.0752H448.087L448.204 49.7671ZM447.896 51.752H447.325C447.33 51.1758 447.408 50.6533 447.56 50.1846C447.711 49.7158 447.923 49.313 448.197 48.9761C448.475 48.6392 448.805 48.3804 449.186 48.1997C449.566 48.019 449.991 47.9287 450.46 47.9287C450.841 47.9287 451.185 47.9824 451.493 48.0898C451.8 48.1973 452.064 48.3682 452.284 48.6025C452.508 48.8369 452.679 49.1445 452.796 49.5254C452.918 49.9014 452.979 50.3652 452.979 50.917V56H451.031V50.9023C451.031 50.541 450.978 50.2554 450.87 50.0454C450.768 49.8354 450.616 49.6865 450.416 49.5986C450.221 49.5107 449.979 49.4668 449.691 49.4668C449.393 49.4668 449.132 49.5278 448.907 49.6499C448.688 49.7671 448.502 49.9307 448.351 50.1406C448.204 50.3506 448.092 50.5923 448.014 50.8657C447.936 51.1392 447.896 51.4346 447.896 51.752ZM462.809 46.9546L459.769 56H457.638L461.622 45.3359H462.984L462.809 46.9546ZM465.35 56L462.296 46.9546L462.113 45.3359H463.482L467.489 56H465.35ZM465.211 52.0376V53.627H459.491V52.0376H465.211ZM470.733 45.3359V56H468.719V45.3359H470.733Z" fill="white"/>
<path d="M0 40.4118L28.6087 29.5L0 18.2765V3L49 23.2647V35.7353L0 56V40.4118Z" fill="#A100FF"/>
</svg>
