<svg width="34" height="37" viewBox="0 0 34 37" fill="none" xmlns="http://www.w3.org/2000/svg">
<path d="M26.4199 0C26.9934 0.134399 27.574 0.226356 28.1263 0.417344C31.4539 1.5279 33.5638 4.83129 33.2027 8.31859C32.8487 11.7634 30.1724 14.5363 26.7385 15.0173C22.6462 15.5903 18.9079 12.8245 18.2211 8.72886C17.5556 4.72518 20.3027 0.855909 24.3242 0.127325C24.5295 0.0919572 24.7349 0.0424418 24.9402 0C25.4287 0 25.9243 0 26.4199 0Z" fill="#FF0000"/>
<path d="M14.5253 36.217C13.8173 35.9835 13.0526 35.835 12.4013 35.4954C10.879 34.7032 9.9657 33.3946 9.56921 31.704C13.2721 31.704 16.9396 31.704 20.7063 31.704C20.5151 32.2062 20.3806 32.6872 20.154 33.1187C19.2549 34.8235 17.8388 35.8421 15.9272 36.1533C15.8564 36.1674 15.7927 36.1957 15.7289 36.217C15.3254 36.217 14.9289 36.217 14.5253 36.217Z" fill="white"/>
<path d="M16.0972 3.08405C14.6174 6.59965 14.7378 10.0162 16.8052 13.2276C18.8584 16.4249 21.8958 17.9882 25.6483 18.1367C25.7757 18.8795 25.8607 19.6293 26.0448 20.3579C26.5474 22.3526 27.5812 24.0432 29.1459 25.3943C29.8822 26.0309 30.3141 26.7878 30.215 27.771C30.0734 29.1575 28.9901 30.1053 27.4891 30.1902C27.3829 30.1973 27.2767 30.1973 27.1705 30.1973C19.1345 30.1973 11.0986 30.2043 3.0626 30.1902C2.60239 30.1902 2.10678 30.1195 1.68197 29.9497C-0.173027 29.2211 -0.583676 26.9151 0.903155 25.5923C2.12802 24.4818 3.11216 23.2297 3.74937 21.716C4.24499 20.5276 4.52111 19.2897 4.53527 18.0094C4.54943 16.5593 4.53527 15.1092 4.54235 13.6591C4.55651 8.77125 7.67886 4.68269 12.4013 3.38114C13.5483 3.06283 14.7236 2.98502 15.906 3.05576C15.9555 3.05576 16.0122 3.06991 16.0972 3.08405Z" fill="white"/>
<path d="M23.5435 4.57959V11H22.4844V5.83643L20.9155 6.36816V5.49365L23.416 4.57959H23.5435ZM30.0562 10.1562V11H25.7671V10.2749L27.8501 8.00293C28.0786 7.74512 28.2588 7.52246 28.3906 7.33496C28.5225 7.14746 28.6147 6.979 28.6675 6.82959C28.7231 6.67725 28.751 6.5293 28.751 6.38574C28.751 6.18359 28.7129 6.00635 28.6367 5.854C28.5635 5.69873 28.4551 5.57715 28.3115 5.48926C28.168 5.39844 27.9937 5.35303 27.7886 5.35303C27.5513 5.35303 27.3521 5.4043 27.1909 5.50684C27.0298 5.60938 26.9082 5.75146 26.8262 5.93311C26.7441 6.11182 26.7031 6.31689 26.7031 6.54834H25.644C25.644 6.17627 25.729 5.83643 25.8989 5.52881C26.0688 5.21826 26.3149 4.97217 26.6372 4.79053C26.9595 4.60596 27.3477 4.51367 27.8018 4.51367C28.2295 4.51367 28.5928 4.58545 28.8916 4.729C29.1904 4.87256 29.4175 5.07617 29.5728 5.33984C29.731 5.60352 29.8101 5.91553 29.8101 6.27588C29.8101 6.4751 29.7778 6.67285 29.7134 6.86914C29.6489 7.06543 29.5566 7.26172 29.4365 7.45801C29.3193 7.65137 29.1802 7.84619 29.019 8.04248C28.8579 8.23584 28.6807 8.43213 28.4873 8.63135L27.103 10.1562H30.0562Z" fill="white"/>
</svg>
