<svg width="36" height="36" viewBox="0 0 36 36" fill="none" xmlns="http://www.w3.org/2000/svg">
<path d="M6 31.5C5.575 31.5 5.21875 31.3563 4.93125 31.0688C4.64375 30.7813 4.5 30.425 4.5 30C4.5 29.575 4.64375 29.2188 4.93125 28.9313C5.21875 28.6438 5.575 28.5 6 28.5H7.5V19.5H6C5.575 19.5 5.21875 19.3563 4.93125 19.0688C4.64375 18.7813 4.5 18.425 4.5 18C4.5 17.575 4.64375 17.2188 4.93125 16.9313C5.21875 16.6438 5.575 16.5 6 16.5H7.5V7.5H6C5.575 7.5 5.21875 7.35625 4.93125 7.06875C4.64375 6.78125 4.5 6.425 4.5 6C4.5 5.575 4.64375 5.21875 4.93125 4.93125C5.21875 4.64375 5.575 4.5 6 4.5H30C30.425 4.5 30.7813 4.64375 31.0688 4.93125C31.3563 5.21875 31.5 5.575 31.5 6C31.5 6.425 31.3563 6.78125 31.0688 7.06875C30.7813 7.35625 30.425 7.5 30 7.5H28.5V16.5H30C30.425 16.5 30.7813 16.6438 31.0688 16.9313C31.3563 17.2188 31.5 17.575 31.5 18C31.5 18.425 31.3563 18.7813 31.0688 19.0688C30.7813 19.3563 30.425 19.5 30 19.5H28.5V28.5H30C30.425 28.5 30.7813 28.6438 31.0688 28.9313C31.3563 29.2188 31.5 29.575 31.5 30C31.5 30.425 31.3563 30.7813 31.0688 31.0688C30.7813 31.3563 30.425 31.5 30 31.5H6ZM10.5 28.5H25.5V19.5C25.075 19.5 24.7188 19.3563 24.4313 19.0688C24.1438 18.7813 24 18.425 24 18C24 17.575 24.1438 17.2188 24.4313 16.9313C24.7188 16.6438 25.075 16.5 25.5 16.5V7.5H10.5V16.5C10.925 16.5 11.2813 16.6438 11.5688 16.9313C11.8563 17.2188 12 17.575 12 18C12 18.425 11.8563 18.7813 11.5688 19.0688C11.2813 19.3563 10.925 19.5 10.5 19.5V28.5ZM18 24C19.25 24 20.3125 23.5688 21.1875 22.7063C22.0625 21.8438 22.5 20.8 22.5 19.575C22.5 18.6 22.2188 17.7625 21.6562 17.0625C21.0938 16.3625 19.875 14.925 18 12.75C16.125 14.9 14.9062 16.3313 14.3438 17.0438C13.7812 17.7563 13.5 18.6 13.5 19.575C13.5 20.8 13.9375 21.8438 14.8125 22.7063C15.6875 23.5688 16.75 24 18 24Z" fill="#AD8BFF"/>
</svg>
