<svg width="74" height="78" viewBox="0 0 74 78" fill="none" xmlns="http://www.w3.org/2000/svg">
<path fill-rule="evenodd" clip-rule="evenodd" d="M36.9999 75.7006C42.6283 75.7006 52.2522 68.3605 52.2522 39.0002C52.2522 9.63988 42.6283 2.2998 36.9999 2.2998C31.3716 2.2998 21.7477 10.1345 21.7477 39.0002C21.7477 67.8659 31.3716 75.7006 36.9999 75.7006Z" stroke="#8799C5" stroke-width="4" stroke-linecap="round" stroke-linejoin="round"/>
<path fill-rule="evenodd" clip-rule="evenodd" d="M3.97823 58.2249C6.79245 63.1398 18.2088 67.6988 44.6263 52.3196C71.0436 36.9404 72.8361 24.6917 70.0219 19.7769C67.2077 14.862 55.3465 10.5619 29.3741 25.6821C3.40161 40.8022 1.16408 53.31 3.97823 58.2249Z" stroke="#8799C5" stroke-width="4" stroke-linecap="round" stroke-linejoin="round"/>
<path fill-rule="evenodd" clip-rule="evenodd" d="M3.97807 19.7769C1.16392 24.6917 2.9564 36.9404 29.3739 52.3196C55.7914 67.6988 67.2075 63.1398 70.0217 58.2249C72.8359 53.31 70.5984 40.8022 44.6259 25.6821C18.6536 10.5619 6.79231 14.862 3.97807 19.7769Z" stroke="#8799C5" stroke-width="4" stroke-linecap="round" stroke-linejoin="round"/>
</svg>
