<svg width="75" height="67" viewBox="0 0 75 67" fill="none" xmlns="http://www.w3.org/2000/svg">
<path d="M61.1471 53.1667L71 63M4 4H67.0588M4 27.6H19.7647M4 51.2H19.7647M31.5882 39.4C31.5882 43.5727 33.2492 47.5746 36.2056 50.5251C39.1621 53.4757 43.1719 55.1333 47.3529 55.1333C51.534 55.1333 55.5438 53.4757 58.5003 50.5251C61.4567 47.5746 63.1176 43.5727 63.1176 39.4C63.1176 35.2273 61.4567 31.2254 58.5003 28.2749C55.5438 25.3243 51.534 23.6667 47.3529 23.6667C43.1719 23.6667 39.1621 25.3243 36.2056 28.2749C33.2492 31.2254 31.5882 35.2273 31.5882 39.4Z" stroke="#8799C5" stroke-width="7" stroke-linecap="round" stroke-linejoin="round"/>
</svg>
