<svg width="36" height="36" viewBox="0 0 36 36" fill="none" xmlns="http://www.w3.org/2000/svg">
<path d="M24 24C25.25 24 26.3125 24.4375 27.1875 25.3125C28.0625 26.1875 28.5 27.25 28.5 28.5C28.5 29.75 28.0625 30.8125 27.1875 31.6875C26.3125 32.5625 25.25 33 24 33C23.05 33 22.1938 32.725 21.4312 32.175C20.6687 31.625 20.125 30.9 19.8 30H10.275L8.775 32.325C8.55 32.675 8.23125 32.8937 7.81875 32.9812C7.40625 33.0687 7.025 33 6.675 32.775C6.325 32.55 6.10625 32.2312 6.01875 31.8187C5.93125 31.4062 6 31.025 6.225 30.675L12.15 21.6C10.35 20.775 8.875 19.5062 7.725 17.7937C6.575 16.0812 6 14.15 6 12H27C27 14.15 26.425 16.0812 25.275 17.7937C24.125 19.5062 22.65 20.775 20.85 21.6L21.7125 22.95C21.1875 23.2 20.7562 23.45 20.4187 23.7C20.0812 23.95 19.7125 24.3 19.3125 24.75L17.8125 22.425C17.6125 22.475 17.4 22.5 17.175 22.5H15.825C15.6 22.5 15.3875 22.475 15.1875 22.425L12.225 27H19.8C20.125 26.1 20.6687 25.375 21.4312 24.825C22.1938 24.275 23.05 24 24 24ZM24 30C24.425 30 24.7812 29.8562 25.0688 29.5687C25.3562 29.2812 25.5 28.925 25.5 28.5C25.5 28.075 25.3562 27.7187 25.0688 27.4312C24.7812 27.1437 24.425 27 24 27C23.575 27 23.2188 27.1437 22.9312 27.4312C22.6437 27.7187 22.5 28.075 22.5 28.5C22.5 28.925 22.6437 29.2812 22.9312 29.5687C23.2188 29.8562 23.575 30 24 30ZM16.5 19.5C18 19.5 19.3687 19.0875 20.6062 18.2625C21.8437 17.4375 22.775 16.35 23.4 15H9.6C10.25 16.35 11.1875 17.4375 12.4125 18.2625C13.6375 19.0875 15 19.5 16.5 19.5ZM12.6 10.5C12.725 9.775 12.7062 9.1625 12.5437 8.6625C12.3812 8.1625 12.0375 7.5875 11.5125 6.9375C11.0125 6.2875 10.6812 5.66875 10.5187 5.08125C10.3562 4.49375 10.3375 3.8 10.4625 3H11.9625C11.8375 3.725 11.8562 4.33125 12.0187 4.81875C12.1812 5.30625 12.525 5.875 13.05 6.525C13.575 7.175 13.9125 7.79375 14.0625 8.38125C14.2125 8.96875 14.225 9.675 14.1 10.5H12.6ZM16.35 10.5C16.475 9.775 16.4625 9.1625 16.3125 8.6625C16.1625 8.1625 15.825 7.5875 15.3 6.9375C14.775 6.3125 14.4312 5.70625 14.2687 5.11875C14.1062 4.53125 14.0875 3.825 14.2125 3H15.7125C15.5875 3.725 15.6062 4.33125 15.7687 4.81875C15.9312 5.30625 16.275 5.875 16.8 6.525C17.3 7.15 17.6312 7.75625 17.7937 8.34375C17.9562 8.93125 17.975 9.65 17.85 10.5H16.35ZM20.1 10.5C20.225 9.775 20.2125 9.1625 20.0625 8.6625C19.9125 8.1625 19.575 7.5875 19.05 6.9375C18.525 6.3125 18.1812 5.70625 18.0187 5.11875C17.8562 4.53125 17.8375 3.825 17.9625 3H19.4625C19.3375 3.725 19.3562 4.33125 19.5187 4.81875C19.6812 5.30625 20.025 5.875 20.55 6.525C21.05 7.15 21.3812 7.75625 21.5437 8.34375C21.7062 8.93125 21.725 9.65 21.6 10.5H20.1Z" fill="#738395"/>
</svg>
