<svg width="28" height="14" viewBox="0 0 28 14" fill="none" xmlns="http://www.w3.org/2000/svg">
<path d="M27.8346 6.45L25.8346 3.45C25.744 3.31244 25.6208 3.19938 25.476 3.12088C25.3312 3.04237 25.1693 3.00085 25.0046 3H12.7446C11.893 1.77702 10.6733 0.857723 9.26309 0.375923C7.85287 -0.105877 6.32568 -0.125038 4.90381 0.32123C3.48193 0.767498 2.23959 1.6559 1.3576 2.85714C0.475608 4.05837 0 5.50974 0 7C0 8.49026 0.475608 9.94163 1.3576 11.1429C2.23959 12.3441 3.48193 13.2325 4.90381 13.6788C6.32568 14.125 7.85287 14.1059 9.26309 13.6241C10.6733 13.1423 11.893 12.223 12.7446 11H15.0046C15.1362 11.0008 15.2666 10.9755 15.3885 10.9258C15.5103 10.876 15.6211 10.8027 15.7146 10.71L17.0046 9.41L18.2946 10.71C18.3875 10.8037 18.4981 10.8781 18.62 10.9289C18.7418 10.9797 18.8726 11.0058 19.0046 11.0058C19.1366 11.0058 19.2673 10.9797 19.3891 10.9289C19.511 10.8781 19.6216 10.8037 19.7146 10.71L21.0046 9.41L22.2946 10.71C22.388 10.8027 22.4988 10.876 22.6207 10.9258C22.7425 10.9755 22.873 11.0008 23.0046 11H25.0046C25.1693 10.9991 25.3312 10.9576 25.476 10.8791C25.6208 10.8006 25.744 10.6876 25.8346 10.55L27.8346 7.55C27.9421 7.38672 27.9994 7.1955 27.9994 7C27.9994 6.8045 27.9421 6.61328 27.8346 6.45Z" fill="#FAC8FF"/>
<path d="M7.00456 10C6.41122 10 5.8312 9.82406 5.33785 9.49441C4.84451 9.16477 4.45999 8.69623 4.23293 8.14805C4.00586 7.59987 3.94645 6.99667 4.06221 6.41473C4.17796 5.83279 4.46369 5.29824 4.88324 4.87868C5.3028 4.45912 5.83735 4.1734 6.41929 4.05765C7.00124 3.94189 7.60444 4.0013 8.15261 4.22836C8.70079 4.45543 9.16933 4.83994 9.49897 5.33329C9.82862 5.82664 10.0046 6.40666 10.0046 7C10.0046 7.79565 9.68849 8.55871 9.12588 9.12132C8.56327 9.68393 7.80021 10 7.00456 10Z" fill="#4A0571"/>
</svg>
