<svg width="100" height="120" viewBox="0 0 100 120" fill="none" xmlns="http://www.w3.org/2000/svg">
<path d="M82.5732 0.0161133L99.9352 17.4328L99.8682 17.4969L82.7208 17.5098L82.5605 0.0290477L82.5732 0.0161133Z" fill="#F1F1F1"/>
<path d="M35.965 27.506C35.965 30.8105 34.119 32.3714 31.2856 32.3491C30.8979 32.3491 30.4649 32.3491 30.1992 32.2882V23.2399C30.4649 23.1791 30.917 23.115 31.6158 23.115C34.3015 23.1153 35.9844 24.6344 35.965 27.506Z" fill="#F1F1F1"/>
<path d="M21.9684 25.106C21.9684 26.5225 20.9425 27.3655 19.2826 27.3655C18.8305 27.3655 18.5004 27.3432 18.2344 27.2824V23.1988C18.4619 23.138 18.8914 23.0771 19.526 23.0771C21.0868 23.0771 21.9684 23.8335 21.9684 25.106Z" fill="#F1F1F1"/>
<path d="M11.5386 12.1792H65.3845V43.2688H11.5386H11.4072H0V12.1792H11.4069H11.5386Z" fill="#F1F1F1"/>
<path d="M57.2565 59.3204C57.2947 62.5479 55.2306 68.8457 55.2306 68.8457C54.5187 68.0959 53.0957 64.0829 53.0957 60.3712C53.0957 56.6599 54.2947 55.6472 55.2306 55.6472C56.1695 55.6472 57.2174 56.0961 57.2565 59.3204Z" fill="#DC1D00"/>
<path d="M79.7304 87.4679C79.7304 91.7307 72.006 89.9932 67.2559 85.4708C67.2559 85.4708 79.7304 83.208 79.7304 87.4679Z" fill="#DC1D00"/>
<path d="M34.9066 101.506C31.083 99.2181 42.9323 92.1698 45.0702 91.9458C45.0702 91.9458 38.9099 103.9 34.9066 101.506Z" fill="#DC1D00"/>
<path d="M57.0321 75.8584C59.2055 79.9066 63.5192 84.6695 63.5192 84.6695C63.5192 84.6695 61.8684 84.8555 58.0324 85.7944C54.1955 86.7333 52.2695 87.708 52.2695 87.708C52.2695 87.708 52.2695 87.708 53.8433 84.1824C55.4201 80.6565 57.0321 75.8584 57.0321 75.8584Z" fill="#DC1D00"/>
<path d="M100 17.4966V119.231H11.5391V43.2691H65.3849V12.1794H11.5391V0H82.5614L82.5741 0.0158723L82.5614 0.0285118L82.7216 17.5093L99.8691 17.4963L99.9364 17.4323L100 17.4966Z" fill="#DC1D00"/>
<path d="M45.0712 91.9454C42.9337 92.1697 31.084 99.2177 34.9077 101.506C38.911 103.9 45.0712 91.9454 45.0712 91.9454ZM67.2569 85.4709C72.0068 89.9933 79.7314 91.7308 79.7314 87.468C79.7314 83.2081 67.2569 85.4709 67.2569 85.4709ZM63.5197 84.6696C63.5197 84.6696 59.2057 79.9071 57.0325 75.8586C57.0325 75.8586 55.4205 80.6567 53.8435 84.1823C52.2697 87.7079 52.2697 87.7079 52.2697 87.7079C52.2697 87.7079 54.196 86.7334 58.0326 85.7943C61.8689 84.8557 63.5197 84.6696 63.5197 84.6696ZM55.2315 68.8459C55.2315 68.8459 57.2953 62.548 57.2574 59.3205C57.2183 56.0962 56.1707 55.6473 55.2315 55.6473C54.2956 55.6473 53.0966 56.66 53.0966 60.3714C53.0966 64.083 54.5196 68.0963 55.2315 68.8459ZM57.8212 73.721C59.9209 78.2592 65.6963 84.1056 65.6963 84.1056C65.6963 84.1056 67.5682 83.6185 75.2925 83.4327C83.0198 83.2466 83.3567 87.5927 83.3917 87.9677C83.4302 88.346 83.7318 91.7949 77.5809 92.0189C71.4336 92.2435 65.0555 85.8331 65.0555 85.8331C65.0555 85.8331 62.4335 86.2464 60.2604 86.7693C58.0872 87.2946 51.1098 89.2082 51.1098 89.2082C51.1098 89.2082 49.0457 92.9581 44.4719 98.9549C39.8951 104.955 34.7701 104.506 33.3083 102.519C31.6096 100.211 32.9206 97.9073 36.1449 94.9067C39.3692 91.9069 46.8085 89.4195 46.8085 89.4195C46.8085 89.4195 48.3085 86.7208 50.5072 81.5703C52.7056 76.4197 54.3694 71.2465 54.3694 71.2465C54.3694 71.2465 52.193 66.3044 51.7697 62.0992C51.2956 57.4101 51.8212 54.2596 55.4205 54.2211C59.0202 54.1826 60.1449 56.8846 60.2571 61.5701C60.3691 66.2597 57.8212 73.721 57.8212 73.721Z" fill="white"/>
<path d="M49.5606 23.4597V20.8142H41.3301V34.6297H44.2696V29.0447H49.2667V26.6932H44.2696V23.4597H49.5606Z" fill="#A51600"/>
<path d="M36.9476 22.192C35.6143 21.1856 33.8471 20.7144 31.2189 20.7144C29.6389 20.7144 28.1016 20.8169 26.9258 21.0027V34.586C27.8076 34.6886 28.9208 34.7909 30.5425 34.7909C33.2509 34.7909 35.5017 34.2171 36.9567 33.0058C38.2901 31.8776 39.2713 30.0504 39.2713 27.4031C39.2713 24.9645 38.3868 23.2594 36.9476 22.192ZM31.1181 32.3491C30.7303 32.3491 30.4531 32.3491 29.8653 32.2882V23.24C30.4531 23.1791 30.7494 23.115 31.4485 23.115C34.1343 23.115 35.8168 24.6341 35.7974 27.506C35.7974 30.8106 33.9511 32.3714 31.1181 32.3491Z" fill="#A51600"/>
<path d="M23.5899 21.8239C22.667 21.0834 21.1622 20.7151 19.2325 20.7151C17.3253 20.7151 15.7568 20.84 14.875 21.0034V34.63H18.1084V29.7019C18.4024 29.7437 18.8283 29.766 19.2389 29.766C21.0849 29.766 22.6964 29.3139 23.764 28.3077C24.5844 27.5291 25.0518 26.3783 25.0518 25.0258C25.0518 23.6701 24.4712 22.5226 23.5899 21.8239ZM19.2192 27.3656C18.7675 27.3656 18.4024 27.3433 18.1084 27.2825V23.1989C18.4024 23.1381 18.8283 23.0772 19.4626 23.0772C21.0238 23.0772 21.905 23.8336 21.905 25.1061C21.905 26.5226 20.8795 27.3656 19.2192 27.3656Z" fill="#A51600"/>
</svg>
