<svg width="25" height="32" viewBox="0 0 25 32" fill="none" xmlns="http://www.w3.org/2000/svg">
<path fill-rule="evenodd" clip-rule="evenodd" d="M24.5 8.421V29.4735C24.5 30.869 23.365 32 21.9655 32H2.5345C1.1345 32 0 30.869 0 29.4735V2.5265C0 1.131 1.1345 0 2.5345 0H16.0515L24.5 8.421Z" fill="#CB0606"/>
<path fill-rule="evenodd" clip-rule="evenodd" d="M24.4999 7.9495V8.9975H17.5934C16.1634 8.9975 15.5039 7.8375 15.5039 6.407V0H16.5499L24.4999 7.9495Z" fill="#FB8D8D"/>
<path fill-rule="evenodd" clip-rule="evenodd" d="M18.803 17.0231C18.585 16.9511 18.375 16.9146 18.1725 16.9146C17.9425 16.9146 17.7845 16.9621 17.698 17.0571C17.612 17.1521 17.569 17.3201 17.569 17.5616V18.0231H18.5355V18.9501H17.569V22.7676H16.398V18.9501H15.7945V18.0231H16.398V17.5616C16.398 16.9736 16.544 16.5486 16.836 16.2861C17.128 16.0236 17.567 15.8926 18.154 15.8926C18.4295 15.8926 18.7215 15.9301 19.03 16.0056L18.803 17.0231ZM13.898 22.3061C13.68 22.4901 13.45 22.6366 13.208 22.7451C12.966 22.8536 12.691 22.9076 12.3825 22.9076C11.7835 22.9076 11.325 22.6921 11.0075 22.2611C10.6895 21.8296 10.531 21.2206 10.531 20.4336C10.531 19.6286 10.7055 19.0031 11.055 18.5566C11.4045 18.1106 11.895 17.8871 12.5275 17.8871C12.7515 17.8871 12.981 17.9331 13.217 18.0251C13.453 18.1171 13.6485 18.2341 13.8025 18.3756V16.0326H14.9735V22.7676H13.898V22.3061ZM13.8025 19.3391C13.6785 19.2276 13.525 19.1286 13.342 19.0426C13.159 18.9571 12.972 18.9141 12.7815 18.9141C12.467 18.9141 12.2145 19.0491 12.024 19.3186C11.833 19.5886 11.738 19.9541 11.738 20.4156C11.738 20.8711 11.816 21.2281 11.9715 21.4876C12.1275 21.7471 12.3685 21.8766 12.6955 21.8766C12.889 21.8766 13.0865 21.8321 13.2875 21.7431C13.4885 21.6541 13.6605 21.5446 13.8025 21.4151V19.3391ZM8.79752 22.6001C8.51002 22.8051 8.16702 22.9076 7.76752 22.9076C7.24102 22.9076 6.79202 22.7436 6.42002 22.4146V24.5541H5.24902V18.0231H6.32902V18.4886C6.54702 18.3016 6.77602 18.1546 7.01652 18.0476C7.25702 17.9406 7.53302 17.8871 7.84452 17.8871C8.44652 17.8871 8.90502 18.0981 9.21952 18.5206C9.53402 18.9426 9.69152 19.5561 9.69152 20.3611C9.69152 20.8711 9.61452 21.3201 9.46002 21.7091C9.30552 22.0981 9.08502 22.3951 8.79752 22.6001ZM8.24402 19.3006C8.08352 19.0426 7.84452 18.9141 7.52702 18.9141C7.33652 18.9141 7.14052 18.9586 6.93952 19.0471C6.73802 19.1361 6.56502 19.2456 6.42002 19.3751V21.4511C6.54402 21.5631 6.69752 21.6616 6.88052 21.7476C7.06352 21.8336 7.25152 21.8766 7.44552 21.8766C7.76602 21.8766 8.01952 21.7401 8.20552 21.4671C8.39152 21.1941 8.48452 20.8316 8.48452 20.3796C8.48452 19.9181 8.40402 19.5586 8.24402 19.3006Z" fill="white"/>
</svg>
