<svg width="27" height="27" viewBox="0 0 27 27" fill="none" xmlns="http://www.w3.org/2000/svg">
<path d="M24.4008 13.6119C24.4008 19.5948 19.5575 24.4025 13.6102 24.4025C7.62733 24.4025 2.81964 19.5592 2.81964 13.6119C2.81964 7.62898 7.66294 2.82129 13.6102 2.82129C19.5575 2.82129 24.4008 7.62898 24.4008 13.6119Z" fill="#EFF7FF"/>
<path d="M13.6485 15.2035C15.812 15.2035 17.5658 13.0988 17.5658 10.5026C17.5658 7.9064 15.812 5.80176 13.6485 5.80176C11.4849 5.80176 9.73108 7.9064 9.73108 10.5026C9.73108 13.0988 11.4849 15.2035 13.6485 15.2035Z" fill="#0D99FF"/>
<path d="M21.3273 19.1986C20.6222 17.7884 19.2903 16.6132 17.5666 15.908C17.0965 15.7513 16.5481 15.7513 16.1564 15.9864C15.3729 16.4565 14.5894 16.6915 13.6492 16.6915C12.7091 16.6915 11.9256 16.4565 11.1421 15.9864C10.7504 15.8297 10.2019 15.7513 9.73185 15.9864C8.00821 16.6915 6.6763 17.8667 5.97117 19.277C5.42274 20.2955 6.28456 21.4707 7.45977 21.4707H19.8387C21.0139 21.4707 21.8757 20.2955 21.3273 19.1986Z" fill="#0D99FF"/>
<path d="M13.5 26C20.4036 26 26 20.4036 26 13.5C26 6.59644 20.4036 1 13.5 1C6.59644 1 1 6.59644 1 13.5C1 20.4036 6.59644 26 13.5 26Z" stroke="#8799C5" stroke-miterlimit="10" stroke-linecap="round" stroke-linejoin="round"/>
</svg>
