<svg width="14" height="20" viewBox="0 0 14 20" fill="none" xmlns="http://www.w3.org/2000/svg">
<path fill-rule="evenodd" clip-rule="evenodd" d="M13.1319 5.33626C13.3877 6.62228 13.2564 7.95528 12.7546 9.16668C12.2528 10.3781 11.4031 11.4135 10.3129 12.142C9.82301 12.4693 9.29451 12.728 8.74204 12.9137V15.7778H5.92723V12.971C5.7435 12.7897 5.62963 12.5378 5.62963 12.2593C5.62963 11.707 6.07734 11.2593 6.62963 11.2593C7.54528 11.2593 8.44037 10.9877 9.20171 10.479C9.96305 9.97032 10.5564 9.24727 10.9068 8.40132C11.2573 7.55536 11.3489 6.6245 11.1703 5.72644C10.9917 4.82838 10.5507 4.00346 9.90327 3.35599C9.25581 2.70852 8.43088 2.2676 7.53283 2.08896C6.63477 1.91032 5.7039 2.00201 4.85795 2.35241C4.01199 2.70282 3.28894 3.29621 2.78023 4.05755C2.27152 4.81889 2 5.71398 2 6.62963C2 7.18192 1.55229 7.62963 1 7.62963C0.447715 7.62963 -2.41416e-08 7.18192 0 6.62963C5.73145e-08 5.31842 0.388822 4.03664 1.11729 2.94641C1.84577 1.85617 2.88117 1.00643 4.09258 0.504654C5.30399 0.00287243 6.63698 -0.128416 7.92301 0.12739C9.20903 0.383195 10.3903 1.01461 11.3175 1.94178C12.2447 2.86895 12.8761 4.05023 13.1319 5.33626ZM8.74204 17.1852H5.92723V20H8.74204V17.1852Z" fill="white"/>
</svg>
