<svg width="28" height="29" viewBox="0 0 28 29" fill="none" xmlns="http://www.w3.org/2000/svg">
<path d="M16.665 18.1253C18.0112 17.1352 18.2932 15.2756 17.3043 13.9311C16.3154 12.5866 14.4562 12.3018 13.1101 13.2919C11.764 14.2819 11.482 16.1416 12.4708 17.4861C13.4597 18.8306 15.3189 19.1154 16.665 18.1253Z" fill="white"/>
<path d="M20.595 8.58758C19.6887 7.75307 18.6373 7.10063 17.5009 6.6676C16.3835 6.24111 15.2059 6.03212 14.0316 6.05194C12.8375 6.07165 11.6699 6.33028 10.5955 6.81304C10.0319 7.06768 9.4982 7.38157 9.00285 7.74979L7.75737 6.0564L6.42157 10.9491L11.4901 11.1315L10.2471 9.4415C10.6357 9.15304 11.0543 8.90518 11.4902 8.70969C12.3253 8.33453 13.2328 8.13346 14.1608 8.11796C15.0752 8.1014 15.9923 8.26416 16.862 8.59731C18.2101 9.11153 19.3938 10.0177 20.2598 11.1985C20.8419 11.9902 21.2676 12.8846 21.512 13.8293C21.6284 14.2854 21.7022 14.7496 21.7323 15.2158C21.7603 15.6806 21.7453 16.145 21.6875 16.603C21.5088 17.9938 20.9312 19.2825 20.0254 20.3111C19.3921 21.0219 18.6192 21.5903 17.7521 21.9831C16.9165 22.3583 16.0085 22.5593 15.08 22.5746C14.1666 22.591 13.2505 22.4284 12.3817 22.0957C11.0335 21.5799 9.84951 20.6737 8.98179 19.4934L7.37064 20.6784C8.48739 22.195 10.0094 23.36 11.7422 24.0246C12.8589 24.4495 14.0353 24.6583 15.2086 24.6397C17.0309 24.61 18.7768 24.0243 20.2199 22.9586C20.7107 22.5976 21.1621 22.1857 21.5673 21.7291C22.3465 20.8463 22.9408 19.8092 23.3167 18.6763C23.5015 18.1203 23.6316 17.5449 23.7052 16.9581C23.7793 16.371 23.7985 15.7756 23.7627 15.1797C23.648 13.3282 22.989 11.5284 21.871 10.0135C21.4919 9.4982 21.0644 9.02048 20.595 8.58758Z" fill="white"/>
</svg>
