<svg width="22" height="20" viewBox="0 0 22 20" fill="none" xmlns="http://www.w3.org/2000/svg">
<path d="M18.5394 0.164462L2.91505 1.10229C2.29907 1.14039 1.70983 1.36755 1.22767 1.75278C0.745505 2.13801 0.393886 2.66258 0.220751 3.25496C0.0476163 3.84733 0.0613905 4.47869 0.260196 5.06295C0.459002 5.64721 0.833164 6.15595 1.33167 6.51978L6.09513 9.97034C6.20721 10.0556 6.30119 10.1622 6.37158 10.2842C6.44198 10.4061 6.48738 10.5408 6.50513 10.6805L7.11167 16.531C7.16396 17.0282 7.33967 17.5044 7.62283 17.9164C7.90598 18.3284 8.28761 18.6631 8.73302 18.8901C9.17843 19.1171 9.6735 19.2292 10.1733 19.2162C10.673 19.2032 11.1616 19.0655 11.5946 18.8157C11.9977 18.5775 12.3425 18.2522 12.6037 17.8635L21.2281 4.80136C21.5332 4.33671 21.7033 3.79642 21.7193 3.24076C21.7352 2.6851 21.5965 2.13592 21.3186 1.6545C21.0406 1.17309 20.6344 0.778364 20.1452 0.514374C19.656 0.250383 19.103 0.12751 18.5481 0.159462L18.5394 0.164462ZM19.5536 3.70117L10.9293 16.7634C10.8142 16.9317 10.6504 17.0609 10.4599 17.1335C10.2693 17.2061 10.0611 17.2188 9.86315 17.1697C9.66521 17.1207 9.48699 17.0123 9.35241 16.859C9.21782 16.7058 9.13329 16.5151 9.11016 16.3125L8.49496 10.467C8.4859 10.3894 8.4723 10.3124 8.45424 10.2364L14.4212 6.79144C14.6508 6.65883 14.8184 6.44041 14.8871 6.18423C14.9557 5.92805 14.9198 5.6551 14.7872 5.42541C14.6546 5.19573 14.4362 5.02813 14.18 4.95949C13.9238 4.89084 13.6508 4.92678 13.4212 5.05939L7.45424 8.50439C7.39747 8.45075 7.33761 8.40049 7.27496 8.35386L2.52016 4.8983C2.35625 4.77696 2.23337 4.60841 2.16797 4.41525C2.10258 4.22208 2.09781 4.01354 2.1543 3.81759C2.21079 3.62164 2.32583 3.44764 2.48401 3.31893C2.6422 3.19022 2.83595 3.11294 3.03929 3.09747L18.6636 2.15965C18.8475 2.15042 19.0303 2.1921 19.1919 2.2801C19.3536 2.3681 19.4878 2.499 19.5798 2.65839C19.6718 2.81778 19.7181 2.99947 19.7135 3.18346C19.7088 3.36745 19.6535 3.5466 19.5536 3.70117Z" fill="white"/>
</svg>
