<svg width="20" height="16" viewBox="0 0 20 16" fill="none" xmlns="http://www.w3.org/2000/svg">
<path d="M0.799976 15.0998C1.19998 15.6998 1.89998 15.9998 2.49998 15.9998C2.79998 15.9998 2.99998 15.9998 3.29998 15.7998L18.3 9.99984C19.2 9.69984 19.7 8.89984 19.7 7.99984C19.7 7.09984 19.2 6.29984 18.3 5.99984L3.29998 0.199842C2.39998 -0.200158 1.39998 0.0998424 0.799976 0.899842C0.199976 1.59984 0.199976 2.69984 0.799976 3.49984L3.99998 7.99984L0.799976 12.4998C0.199976 13.2998 0.199976 14.3998 0.799976 15.0998ZM2.39998 13.6998L5.79998 8.99984C5.89998 8.99984 5.99998 8.99984 5.99998 8.99984H12C12.6 8.99984 13 8.59984 13 7.99984C13 7.39984 12.6 6.99984 12 6.99984H5.99998C5.89998 6.99984 5.79998 6.99984 5.79998 6.99984L2.39998 2.29984C2.39998 2.29984 2.29998 2.19984 2.39998 2.09984C2.39998 1.99984 2.49998 1.99984 2.49998 1.99984H2.59998L17.5 7.79984C17.5 7.79984 17.6 7.79984 17.6 7.99984C17.6 8.19984 17.5 8.19984 17.5 8.19984L2.59998 13.9998C2.59998 13.9998 2.49998 14.0998 2.39998 13.8998C2.29998 13.7998 2.39998 13.6998 2.39998 13.6998Z" fill="#000"/>
</svg>
