<svg width="38" height="38" viewBox="0 0 38 38" fill="none" xmlns="http://www.w3.org/2000/svg">
<path d="M13.9595 37.3332L13.2262 31.4665C12.8289 31.3137 12.4546 31.1304 12.1033 30.9165C11.7519 30.7026 11.4081 30.4734 11.072 30.229L5.61784 32.5207L0.576172 23.8123L5.29701 20.2373C5.26645 20.0234 5.25117 19.8172 5.25117 19.6186V18.3811C5.25117 18.1825 5.26645 17.9762 5.29701 17.7623L0.576172 14.1873L5.61784 5.479L11.072 7.77067C11.4081 7.52623 11.7595 7.29706 12.1262 7.08317C12.4928 6.86928 12.8595 6.68595 13.2262 6.53317L13.9595 0.666504H24.0428L24.7762 6.53317C25.1734 6.68595 25.5477 6.86928 25.8991 7.08317C26.2505 7.29706 26.5942 7.52623 26.9303 7.77067L32.3845 5.479L37.4262 14.1873L32.7053 17.7623C32.7359 17.9762 32.7512 18.1825 32.7512 18.3811V19.6186C32.7512 19.8172 32.7206 20.0234 32.6595 20.2373L37.3803 23.8123L32.3387 32.5207L26.9303 30.229C26.5942 30.4734 26.2428 30.7026 25.8762 30.9165C25.5095 31.1304 25.1428 31.3137 24.7762 31.4665L24.0428 37.3332H13.9595ZM17.1678 33.6665H20.7887L21.4303 28.8082C22.3776 28.5637 23.256 28.2047 24.0658 27.7311C24.8755 27.2575 25.6165 26.6846 26.2887 26.0123L30.8262 27.8915L32.6137 24.7748L28.672 21.7957C28.8248 21.3679 28.9317 20.9172 28.9928 20.4436C29.0539 19.97 29.0845 19.4887 29.0845 18.9998C29.0845 18.5109 29.0539 18.0297 28.9928 17.5561C28.9317 17.0825 28.8248 16.6318 28.672 16.204L32.6137 13.2248L30.8262 10.1082L26.2887 12.0332C25.6165 11.3304 24.8755 10.7422 24.0658 10.2686C23.256 9.79498 22.3776 9.43595 21.4303 9.1915L20.8345 4.33317H17.2137L16.572 9.1915C15.6248 9.43595 14.7463 9.79498 13.9366 10.2686C13.1269 10.7422 12.3859 11.3151 11.7137 11.9873L7.17617 10.1082L5.38867 13.2248L9.33034 16.1582C9.17756 16.6165 9.07062 17.0748 9.00951 17.5332C8.94839 17.9915 8.91784 18.4804 8.91784 18.9998C8.91784 19.4887 8.94839 19.9623 9.00951 20.4207C9.07062 20.879 9.17756 21.3373 9.33034 21.7957L5.38867 24.7748L7.17617 27.8915L11.7137 25.9665C12.3859 26.6693 13.1269 27.2575 13.9366 27.7311C14.7463 28.2047 15.6248 28.5637 16.572 28.8082L17.1678 33.6665ZM19.0928 25.4165C20.8651 25.4165 22.3776 24.7901 23.6303 23.5373C24.8831 22.2846 25.5095 20.7721 25.5095 18.9998C25.5095 17.2276 24.8831 15.7151 23.6303 14.4623C22.3776 13.2096 20.8651 12.5832 19.0928 12.5832C17.2901 12.5832 15.7699 13.2096 14.5324 14.4623C13.2949 15.7151 12.6762 17.2276 12.6762 18.9998C12.6762 20.7721 13.2949 22.2846 14.5324 23.5373C15.7699 24.7901 17.2901 25.4165 19.0928 25.4165Z" fill="white"/>
</svg>
