<svg width="55" height="65" viewBox="0 0 55 65" fill="none" xmlns="http://www.w3.org/2000/svg">
<path d="M48.8071 40.2381C48.3846 43.1936 47.3602 46.0286 45.7983 48.5644C44.2364 51.1002 42.1711 53.2817 39.7324 54.9714C39.1193 52.4024 35.3484 50.2976 30.4125 49.7095C30.9337 46.0262 32.0067 42.5905 32.7425 40.6095C33.9075 41.3524 35.2564 41.7857 36.7893 41.7857C47.6728 41.7857 45.9866 23.2143 45.9866 23.2143C45.9866 23.2143 44.4537 26.3095 39.8551 26.3095H36.7893C35.4256 26.3091 34.0864 26.6761 32.91 27.3726C31.7337 28.0691 30.7626 29.0698 30.0972 30.2716C29.4317 31.4734 29.0959 32.8327 29.1244 34.2092C29.1529 35.5858 29.5446 36.9297 30.2592 38.1024C32.2826 35.9667 34.4593 34.0476 36.7893 32.5C32.7425 36.6167 29.646 41.7857 27.592 46.7381C25.6605 42.931 23.2386 40.0214 21.4604 38.6905C22.9013 39.3095 24.2503 40.2381 25.5379 41.1667C25.8751 40.4238 26.0591 39.5881 26.0591 38.6905C25.9058 30.2405 12.2631 30.9524 12.2631 30.9524C13.2135 32.2524 13.796 33.8929 13.796 35.5952V38.6905C13.796 42.0952 16.5552 44.881 19.9275 44.881C21.4604 44.881 22.84 44.3238 23.913 43.3333C24.6182 45.2833 25.1394 47.5119 25.4153 49.6476C20.1421 50.1119 16.0953 52.2786 15.4515 55.0024C9.84114 51.0714 6.13155 44.5405 6.13155 37.1429C6.13155 25.1952 15.7581 15.4762 27.592 15.4762V24.7619L42.9208 12.381L27.592 0V9.28572C20.2741 9.28572 13.256 12.2207 8.0815 17.4449C2.907 22.6691 0 29.7547 0 37.1429C0 44.531 2.907 51.6166 8.0815 56.8408C13.256 62.0651 20.2741 65 27.592 65C41.7865 65 53.4671 54.1667 55 40.2381H48.8071Z" fill="#8799C5"/>
</svg>
