<svg width="26" height="34" viewBox="0 0 26 34" fill="none" xmlns="http://www.w3.org/2000/svg">
<path fill-rule="evenodd" clip-rule="evenodd" d="M22.9412 34H3.05882C1.36959 34 0 32.6762 0 31.0435V2.95652C0 1.32378 1.36959 0 3.05882 0H17.5676C17.5691 0 17.5714 0 17.5729 0H17.5882C17.8329 0 18.0417 0.119 18.1816 0.291957L25.6979 7.55687C25.8776 7.69213 26 7.89391 26 8.13043V8.14596C26 8.14743 26 8.14817 26 8.14965V31.0435C26 32.6762 24.6304 34 22.9412 34ZM18.3529 2.499V7.3913H23.4145L18.3529 2.499ZM24.4706 8.86957H17.5882C17.1654 8.86957 16.8235 8.53843 16.8235 8.13043V1.47826H3.05882C2.21459 1.47826 1.52941 2.14052 1.52941 2.95652V31.0435C1.52941 31.8595 2.21459 32.5217 3.05882 32.5217H22.9412C23.7854 32.5217 24.4706 31.8595 24.4706 31.0435V8.86957ZM19.8824 28.087H6.11765C5.69476 28.087 5.35294 27.7566 5.35294 27.3478C5.35294 26.9398 5.69476 26.6087 6.11765 26.6087H19.8824C20.3052 26.6087 20.6471 26.9398 20.6471 27.3478C20.6471 27.7566 20.3052 28.087 19.8824 28.087ZM19.8824 22.1739H6.11765C5.69476 22.1739 5.35294 21.8435 5.35294 21.4348C5.35294 21.0268 5.69476 20.6957 6.11765 20.6957H19.8824C20.3052 20.6957 20.6471 21.0268 20.6471 21.4348C20.6471 21.8435 20.3052 22.1739 19.8824 22.1739ZM19.8824 16.2609H6.11765C5.69476 16.2609 5.35294 15.9305 5.35294 15.5217C5.35294 15.1137 5.69476 14.7826 6.11765 14.7826H19.8824C20.3052 14.7826 20.6471 15.1137 20.6471 15.5217C20.6471 15.9305 20.3052 16.2609 19.8824 16.2609Z" fill="#8799C5"/>
</svg>
