<svg width="41" height="40" viewBox="0 0 41 40" fill="none" xmlns="http://www.w3.org/2000/svg">
<rect width="41" height="40" rx="20" fill="white"/>
<mask id="mask0_4503_2701" style="mask-type:alpha" maskUnits="userSpaceOnUse" x="7" y="6" width="28" height="28">
<rect x="7" y="6" width="28" height="28" fill="#D9D9D9"/>
</mask>
<g mask="url(#mask0_4503_2701)">
<path d="M13.8252 25.9502C14.8168 25.1918 15.9252 24.5939 17.1502 24.1564C18.3752 23.7189 19.6585 23.5002 21.0002 23.5002C22.3418 23.5002 23.6252 23.7189 24.8502 24.1564C26.0752 24.5939 27.1835 25.1918 28.1752 25.9502C28.8557 25.1529 29.3856 24.2488 29.7647 23.2377C30.1439 22.2266 30.3335 21.1474 30.3335 20.0002C30.3335 17.4141 29.4245 15.212 27.6064 13.3939C25.7884 11.5759 23.5863 10.6668 21.0002 10.6668C18.4141 10.6668 16.212 11.5759 14.3939 13.3939C12.5759 15.212 11.6668 17.4141 11.6668 20.0002C11.6668 21.1474 11.8564 22.2266 12.2356 23.2377C12.6147 24.2488 13.1446 25.1529 13.8252 25.9502ZM21.0002 21.1668C19.8529 21.1668 18.8856 20.7731 18.0981 19.9856C17.3106 19.1981 16.9168 18.2307 16.9168 17.0835C16.9168 15.9363 17.3106 14.9689 18.0981 14.1814C18.8856 13.3939 19.8529 13.0002 21.0002 13.0002C22.1474 13.0002 23.1147 13.3939 23.9022 14.1814C24.6897 14.9689 25.0835 15.9363 25.0835 17.0835C25.0835 18.2307 24.6897 19.1981 23.9022 19.9856C23.1147 20.7731 22.1474 21.1668 21.0002 21.1668ZM21.0002 31.6668C19.3863 31.6668 17.8696 31.3606 16.4502 30.7481C15.0307 30.1356 13.796 29.3043 12.746 28.2543C11.696 27.2043 10.8647 25.9696 10.2522 24.5502C9.63975 23.1307 9.3335 21.6141 9.3335 20.0002C9.3335 18.3863 9.63975 16.8696 10.2522 15.4502C10.8647 14.0307 11.696 12.796 12.746 11.746C13.796 10.696 15.0307 9.86475 16.4502 9.25225C17.8696 8.63975 19.3863 8.3335 21.0002 8.3335C22.6141 8.3335 24.1307 8.63975 25.5502 9.25225C26.9696 9.86475 28.2043 10.696 29.2543 11.746C30.3043 12.796 31.1356 14.0307 31.7481 15.4502C32.3606 16.8696 32.6668 18.3863 32.6668 20.0002C32.6668 21.6141 32.3606 23.1307 31.7481 24.5502C31.1356 25.9696 30.3043 27.2043 29.2543 28.2543C28.2043 29.3043 26.9696 30.1356 25.5502 30.7481C24.1307 31.3606 22.6141 31.6668 21.0002 31.6668ZM21.0002 29.3335C22.0307 29.3335 23.0029 29.1828 23.9168 28.8814C24.8307 28.58 25.6668 28.1474 26.4252 27.5835C25.6668 27.0196 24.8307 26.587 23.9168 26.2856C23.0029 25.9842 22.0307 25.8335 21.0002 25.8335C19.9696 25.8335 18.9974 25.9842 18.0835 26.2856C17.1696 26.587 16.3335 27.0196 15.5752 27.5835C16.3335 28.1474 17.1696 28.58 18.0835 28.8814C18.9974 29.1828 19.9696 29.3335 21.0002 29.3335ZM21.0002 18.8335C21.5057 18.8335 21.9238 18.6682 22.2543 18.3377C22.5849 18.0071 22.7502 17.5891 22.7502 17.0835C22.7502 16.5779 22.5849 16.1599 22.2543 15.8293C21.9238 15.4988 21.5057 15.3335 21.0002 15.3335C20.4946 15.3335 20.0766 15.4988 19.746 15.8293C19.4154 16.1599 19.2502 16.5779 19.2502 17.0835C19.2502 17.5891 19.4154 18.0071 19.746 18.3377C20.0766 18.6682 20.4946 18.8335 21.0002 18.8335Z" fill="#1C1B1F"/>
</g>
</svg>
