<svg width="23" height="25" viewBox="0 0 23 25" fill="none" xmlns="http://www.w3.org/2000/svg">
<path d="M6.67963 13.3752C3.07263 15.0002 0.457 18.3753 0 22.5003C0 23.8753 1.04113 25.0003 2.42188 25.0003H19.9219C21.3031 25.0003 22.3444 23.8753 22.3444 22.5003C21.8869 18.3753 19.2706 15.0002 15.6644 13.3752C14.8531 15.0002 13.1506 16.2503 11.1719 16.2503C9.19313 16.2503 7.49025 15.0002 6.67963 13.3752Z" fill="#FAC8FF"/>
<path d="M17.4219 6.25C17.4219 7.9076 16.7634 9.49731 15.5913 10.6694C14.4192 11.8415 12.8295 12.5 11.1719 12.5C9.51427 12.5 7.92456 11.8415 6.75246 10.6694C5.58036 9.49731 4.92188 7.9076 4.92188 6.25C4.92188 4.5924 5.58036 3.00269 6.75246 1.83058C7.92456 0.65848 9.51427 0 11.1719 0C12.8295 0 14.4192 0.65848 15.5913 1.83058C16.7634 3.00269 17.4219 4.5924 17.4219 6.25Z" fill="#FAC8FF"/>
<path d="M11.1719 11.25C9.57563 11.25 8.054 11.5862 6.67963 12.1875C3.07263 13.765 0.457 17.1837 0 21.25C0 22.6313 1.04113 23.75 2.42188 23.75H19.9219C21.3031 23.75 22.3444 22.6313 22.3444 21.25C21.8869 17.1837 19.2706 13.765 15.6644 12.1875C14.2894 11.5862 12.7681 11.25 11.1719 11.25Z" fill="#FAC8FF"/>
</svg>
