<svg width="29" height="24" viewBox="0 0 29 24" fill="none" xmlns="http://www.w3.org/2000/svg">
<path d="M9.66667 22.2857C9.66667 21.8311 9.79397 21.395 10.0206 21.0735C10.2472 20.752 10.5545 20.5714 10.875 20.5714H18.125C18.4455 20.5714 18.7528 20.752 18.9794 21.0735C19.206 21.395 19.3333 21.8311 19.3333 22.2857C19.3333 22.7404 19.206 23.1764 18.9794 23.4979C18.7528 23.8194 18.4455 24 18.125 24H10.875C10.5545 24 10.2472 23.8194 10.0206 23.4979C9.79397 23.1764 9.66667 22.7404 9.66667 22.2857ZM4.83333 12C4.83333 11.5453 4.96064 11.1093 5.18725 10.7878C5.41385 10.4663 5.7212 10.2857 6.04167 10.2857H22.9583C23.2788 10.2857 23.5861 10.4663 23.8128 10.7878C24.0394 11.1093 24.1667 11.5453 24.1667 12C24.1667 12.4547 24.0394 12.8907 23.8128 13.2122C23.5861 13.5337 23.2788 13.7143 22.9583 13.7143H6.04167C5.7212 13.7143 5.41385 13.5337 5.18725 13.2122C4.96064 12.8907 4.83333 12.4547 4.83333 12ZM0 1.71429C0 1.25963 0.127306 0.823594 0.353913 0.502103C0.580519 0.180612 0.887863 0 1.20833 0H27.7917C28.1121 0 28.4195 0.180612 28.6461 0.502103C28.8727 0.823594 29 1.25963 29 1.71429C29 2.16894 28.8727 2.60498 28.6461 2.92647C28.4195 3.24796 28.1121 3.42857 27.7917 3.42857H1.20833C0.887863 3.42857 0.580519 3.24796 0.353913 2.92647C0.127306 2.60498 0 2.16894 0 1.71429Z" fill="#738395"/>
</svg>
