<svg width="16" height="10" viewBox="0 0 16 10" fill="none" xmlns="http://www.w3.org/2000/svg">
<path fill-rule="evenodd" clip-rule="evenodd" d="M9.0599 9.06038C8.77865 9.34128 8.3974 9.49906 7.9999 9.49906C7.6024 9.49906 7.22115 9.34128 6.9399 9.06038L1.2819 3.40438C1.00064 3.12298 0.84268 2.74138 0.842773 2.34352C0.842867 1.94567 1.00101 1.56414 1.2824 1.28288C1.56379 1.00162 1.9454 0.843656 2.34325 0.84375C2.74111 0.843844 3.12264 1.00198 3.4039 1.28338L7.9999 5.87938L12.5959 1.28338C12.8787 1.01 13.2575 0.858631 13.6508 0.861862C14.0441 0.865093 14.4204 1.02267 14.6986 1.30065C14.9769 1.57863 15.1348 1.95478 15.1384 2.34807C15.142 2.74137 14.991 3.12035 14.7179 3.40338L9.0609 9.06138L9.0599 9.06038Z" fill="#982588"/>
</svg>
