<svg width="22" height="30" viewBox="0 0 22 30" fill="none" xmlns="http://www.w3.org/2000/svg">
<path d="M11 18.9474C9.69048 18.9474 8.57738 18.4868 7.66071 17.5658C6.74405 16.6447 6.28571 15.5263 6.28571 14.2105V4.73684C6.28571 3.42105 6.74405 2.30263 7.66071 1.38158C8.57738 0.460526 9.69048 0 11 0C12.3095 0 13.4226 0.460526 14.3393 1.38158C15.256 2.30263 15.7143 3.42105 15.7143 4.73684V14.2105C15.7143 15.5263 15.256 16.6447 14.3393 17.5658C13.4226 18.4868 12.3095 18.9474 11 18.9474ZM9.42857 30V25.1447C6.70476 24.7763 4.45238 23.5526 2.67143 21.4737C0.890476 19.3947 0 16.9737 0 14.2105H3.14286C3.14286 16.3947 3.90893 18.2566 5.44107 19.7961C6.97321 21.3355 8.82619 22.1053 11 22.1053C13.1738 22.1053 15.0268 21.3355 16.5589 19.7961C18.0911 18.2566 18.8571 16.3947 18.8571 14.2105H22C22 16.9737 21.1095 19.3947 19.3286 21.4737C17.5476 23.5526 15.2952 24.7763 12.5714 25.1447V30H9.42857ZM11 15.7895C11.4452 15.7895 11.8185 15.6382 12.1196 15.3355C12.4208 15.0329 12.5714 14.6579 12.5714 14.2105V4.73684C12.5714 4.28947 12.4208 3.91447 12.1196 3.61184C11.8185 3.30921 11.4452 3.15789 11 3.15789C10.5548 3.15789 10.1815 3.30921 9.88036 3.61184C9.57917 3.91447 9.42857 4.28947 9.42857 4.73684V14.2105C9.42857 14.6579 9.57917 15.0329 9.88036 15.3355C10.1815 15.6382 10.5548 15.7895 11 15.7895Z" fill="white"/>
</svg>
