<svg width="166" height="40" viewBox="0 0 166 40" fill="none" xmlns="http://www.w3.org/2000/svg">
<rect width="166" height="40" rx="20" fill="#6B5CD1"/>
<path d="M47.0135 13.56H48.3895L51.7975 23.656L55.2055 13.56H56.5175L52.5655 25H50.9015L47.0135 13.56ZM58.7098 13.56H60.1018V25H58.7098V13.56ZM63.2548 13.56H69.9268V14.696H64.6468V18.584H68.9028V19.72H64.6468V23.864H70.2148V25H63.2548V13.56ZM71.6088 13.56H73.0328L75.3528 22.792L78.0408 13.56H79.0328L81.7208 22.824L84.0728 13.56H85.3688L82.3928 25H81.1128L78.5208 15.96L75.8488 25H74.5848L71.6088 13.56ZM91.786 13.56H95.226C95.77 13.56 96.282 13.6187 96.762 13.736C97.2527 13.8533 97.6793 14.04 98.042 14.296C98.4047 14.552 98.6927 14.8827 98.906 15.288C99.1193 15.6827 99.226 16.168 99.226 16.744V16.808C99.226 17.2773 99.1513 17.6933 99.002 18.056C98.8527 18.408 98.65 18.712 98.394 18.968C98.138 19.2133 97.8393 19.416 97.498 19.576C97.1567 19.736 96.7887 19.8533 96.394 19.928L99.898 25H98.346L94.938 20.024H93.178V25H91.786V13.56ZM95.322 18.92C96.1433 18.92 96.7673 18.744 97.194 18.392C97.6207 18.04 97.834 17.512 97.834 16.808V16.744C97.834 16.36 97.7753 16.0347 97.658 15.768C97.5407 15.5013 97.3753 15.288 97.162 15.128C96.9487 14.968 96.682 14.856 96.362 14.792C96.0527 14.7173 95.706 14.68 95.322 14.68H93.178V18.92H95.322ZM102.02 13.56H108.692V14.696H103.412V18.584H107.668V19.72H103.412V23.864H108.98V25H102.02V13.56ZM111.27 13.56H114.518C115.062 13.56 115.574 13.624 116.054 13.752C116.545 13.8693 116.972 14.0667 117.334 14.344C117.697 14.6107 117.985 14.9573 118.198 15.384C118.412 15.8 118.518 16.3067 118.518 16.904V16.968C118.518 17.576 118.412 18.0933 118.198 18.52C117.985 18.9467 117.697 19.2987 117.334 19.576C116.972 19.8427 116.545 20.04 116.054 20.168C115.574 20.2853 115.062 20.344 114.518 20.344H112.662V25H111.27V13.56ZM114.614 19.24C115.436 19.24 116.06 19.048 116.486 18.664C116.913 18.2693 117.126 17.704 117.126 16.968V16.904C117.126 16.0933 116.902 15.5227 116.454 15.192C116.006 14.8507 115.393 14.68 114.614 14.68H112.662V19.24H114.614ZM125.859 23.992C126.499 23.992 127.069 23.88 127.571 23.656C128.083 23.4213 128.515 23.1013 128.867 22.696C129.219 22.28 129.491 21.784 129.683 21.208C129.875 20.632 129.971 19.9973 129.971 19.304V19.176C129.971 18.536 129.875 17.9333 129.683 17.368C129.501 16.8027 129.235 16.312 128.883 15.896C128.531 15.48 128.099 15.1493 127.587 14.904C127.075 14.6587 126.488 14.536 125.827 14.536C125.165 14.536 124.573 14.6533 124.051 14.888C123.528 15.112 123.085 15.432 122.723 15.848C122.371 16.264 122.099 16.76 121.907 17.336C121.725 17.9013 121.635 18.5253 121.635 19.208V19.336C121.635 20.0293 121.741 20.664 121.955 21.24C122.179 21.8053 122.477 22.296 122.851 22.712C123.235 23.1173 123.683 23.432 124.195 23.656C124.707 23.88 125.261 23.992 125.859 23.992ZM125.859 25.144C125.016 25.144 124.243 24.9947 123.539 24.696C122.845 24.3867 122.248 23.9707 121.747 23.448C121.256 22.9253 120.872 22.312 120.595 21.608C120.328 20.904 120.195 20.152 120.195 19.352V19.224C120.195 18.4133 120.328 17.656 120.595 16.952C120.872 16.2373 121.256 15.6187 121.747 15.096C122.248 14.5733 122.84 14.1627 123.523 13.864C124.216 13.5653 124.984 13.416 125.827 13.416C126.669 13.416 127.432 13.5653 128.115 13.864C128.797 14.1627 129.384 14.5733 129.875 15.096C130.365 15.6187 130.744 16.232 131.011 16.936C131.277 17.64 131.411 18.392 131.411 19.192V19.32C131.411 20.1307 131.277 20.888 131.011 21.592C130.744 22.296 130.365 22.9147 129.875 23.448C129.395 23.9707 128.813 24.3867 128.131 24.696C127.448 24.9947 126.691 25.144 125.859 25.144ZM133.927 13.56H137.367C137.911 13.56 138.423 13.6187 138.903 13.736C139.393 13.8533 139.82 14.04 140.183 14.296C140.545 14.552 140.833 14.8827 141.047 15.288C141.26 15.6827 141.367 16.168 141.367 16.744V16.808C141.367 17.2773 141.292 17.6933 141.143 18.056C140.993 18.408 140.791 18.712 140.535 18.968C140.279 19.2133 139.98 19.416 139.639 19.576C139.297 19.736 138.929 19.8533 138.535 19.928L142.039 25H140.487L137.079 20.024H135.319V25H133.927V13.56ZM137.463 18.92C138.284 18.92 138.908 18.744 139.335 18.392C139.761 18.04 139.975 17.512 139.975 16.808V16.744C139.975 16.36 139.916 16.0347 139.799 15.768C139.681 15.5013 139.516 15.288 139.303 15.128C139.089 14.968 138.823 14.856 138.503 14.792C138.193 14.7173 137.847 14.68 137.463 14.68H135.319V18.92H137.463ZM146.279 14.696H142.951V13.56H150.999V14.696H147.671V25H146.279V14.696Z" fill="white"/>
<mask id="mask0_1398_2366" style="mask-type:alpha" maskUnits="userSpaceOnUse" x="15" y="8" width="24" height="24">
<rect x="15" y="8" width="24" height="24" fill="#D9D9D9"/>
</mask>
<g mask="url(#mask0_1398_2366)">
<path d="M22 25H29V23H22V25ZM22 21H32V19H22V21ZM22 17H32V15H22V17ZM20 29C19.45 29 18.9792 28.8042 18.5875 28.4125C18.1958 28.0208 18 27.55 18 27V13C18 12.45 18.1958 11.9792 18.5875 11.5875C18.9792 11.1958 19.45 11 20 11H34C34.55 11 35.0208 11.1958 35.4125 11.5875C35.8042 11.9792 36 12.45 36 13V27C36 27.55 35.8042 28.0208 35.4125 28.4125C35.0208 28.8042 34.55 29 34 29H20ZM20 27H34V13H20V27Z" fill="white"/>
</g>
</svg>
